<svg xmlns="http://www.w3.org/2000/svg" viewBox="0 0 88.31 25.68">
  <defs>
    <style>
      .cls-1 {
        fill: #23401d;
      }

      .cls-2 {
        fill: #28451e;
      }

      .cls-3 {
        fill: #2d5123;
      }

      .cls-4 {
        fill: #483215;
      }

      .cls-5 {
        fill: #26451e;
      }

      .cls-6 {
        fill: #21602b;
      }

      .cls-7 {
        fill: #245225;
      }

      .cls-8 {
        fill: #31381a;
      }

      .cls-9 {
        fill: #7cb928;
      }

      .cls-10 {
        fill: #7fba28;
      }

      .cls-11 {
        fill: #289938;
      }

      .cls-12 {
        fill: #72b62f;
      }

      .cls-13 {
        fill: #82bb26;
      }

      .cls-14 {
        fill: #815b13;
      }

      .cls-15 {
        fill: #6b4910;
      }

      .cls-16 {
        fill: #4dad33;
      }

      .cls-17 {
        fill: #64a530;
      }

      .cls-18 {
        fill: #9bc42c;
      }

      .cls-19 {
        fill: #a1c630;
      }

      .cls-20 {
        fill: #2e5324;
      }

      .cls-21 {
        fill: #fdfdfd;
      }

      .cls-22 {
        fill: #da0e15;
      }

      .cls-23 {
        fill: #b31917;
      }

      .cls-24 {
        fill: #eb7a7f;
      }

      .cls-25 {
        fill: #60b22f;
      }

      .cls-26 {
        fill: #348a35;
      }

      .cls-27 {
        fill: #f1872c;
      }

      .cls-28 {
        fill: #0d1111;
      }

      .cls-29 {
        fill: #cfe9ee;
      }

      .cls-30 {
        fill: #fff;
      }

      .cls-31 {
        fill: #e00814;
      }

      .cls-32 {
        fill: #1d1d1b;
      }

      .cls-33 {
        fill: #1f1f1f;
      }
    </style>
  </defs>
  <g id="Capa_2" data-name="Capa 2">
    <g id="Capa_1-2" data-name="Capa 1">
      <g>
        <path class="cls-1" d="M17.88,23.85l-.45.2-.68.11L16.46,24,16.35,24l-.18-.09,0,0L16,23.8l-.69-.48h0l-.27-.19h0L15,23h0L14.82,23l-.8-.56.39-.33a9.3,9.3,0,0,0,.81.59h0l.38.24.24.14a11.7,11.7,0,0,0,1.07.52l.06,0,.3.12h0A2.18,2.18,0,0,0,17.88,23.85Z"/>
        <path class="cls-1" d="M23.73,23.2c.3.05.6.09.9.11a7.89,7.89,0,0,1-3.46,1.32A3,3,0,0,1,20,24.55a7.66,7.66,0,0,0-1-.14,3.73,3.73,0,0,0,.72-.58l.33.09a2.46,2.46,0,0,0,1.11.1A9.43,9.43,0,0,0,23.73,23.2Z"/>
        <path class="cls-2" d="M26.32,8.21l-.22.06L26,8.3l-1.25.24c.32.13.65.23,1,.38H25.6a3.35,3.35,0,0,0-.85.11c-.27-.1-.54-.18-.82-.26a2.28,2.28,0,0,0-1.86.06l-.3-.28.12-.17-.78,0c0-.13,0-.25,0-.37l.95.08c0-.16,0-.32,0-.47A6.76,6.76,0,0,1,22.22,5l0,0s0,0,0,0c.17-.09.21.1.32.14s0,.07,0,.11a6.34,6.34,0,0,0-.19,1.94,1.5,1.5,0,0,0,.06.29h.08a4.57,4.57,0,0,1,.91-1.73l.42.26a1.09,1.09,0,0,1-.08.15,2.92,2.92,0,0,0-.61,1.6c0,.37.1.46.48.46a8.8,8.8,0,0,0,2.27-.35C25.92,8.06,26.12,8.13,26.32,8.21Z"/>
        <path class="cls-2" d="M27.2,10.29l-.13.11h0L27,10.31Z"/>
        <path class="cls-3" d="M13.23,8.82l.41.08-.05,0-.05,0-.18.13-.09.07-.22.18,0,0-.09.08,0,0-.1.1-.06.07-.06.06-.07.08-.06.07-.07.07-.05.07h0l0,.07-.06.08-.05.06-.08.12a.56.56,0,0,0,0,.08l0,.06,0,.06,0,.06-.09.16a.54.54,0,0,0-.07.13c-.05.09-.09.18-.13.27l0,.08,0,.1a.2.2,0,0,0,0,.08.69.69,0,0,1-.05.13.56.56,0,0,1,0,.12.14.14,0,0,1,0,.06s0,0,0,.06a.14.14,0,0,0,0,.06l0,.12v0l0,.1v0l0,.11h0v0s0,.08,0,.12l0,.12s0,.07,0,.1a.09.09,0,0,0,0,.05s0,.07,0,.1,0,0,0,.08v0a1.11,1.11,0,0,1,0,.19c0,.06,0,.13,0,.19v.09c0,.07,0,.13,0,.19v.29a.28.28,0,0,1,0,.09h0v.36a.66.66,0,0,0,0,.14,15.7,15.7,0,0,0,.14,1.66l-.09.05.1,0c0,.09,0,.17.05.25h0l-.11.1h0l0,0-.2.17a11.32,11.32,0,0,1-.17-3.76c0-.09,0-.18,0-.27s.05-.26.08-.4a2.68,2.68,0,0,1,.07-.27c0-.07,0-.13.05-.2l.18-.52a5.9,5.9,0,0,1,.44-.91l.1-.14h0l0,0,.07-.1.11-.16a5.34,5.34,0,0,1,.39-.44,4.68,4.68,0,0,1,.39-.38C13,9,13.09,8.91,13.23,8.82Z"/>
        <path class="cls-3" d="M20.44,8.26c-.3,0-.6-.06-.89-.12a9.77,9.77,0,0,0-3.92,0h-.08l-.08,0-.19,0-.11,0-.11,0-.06,0h0l-.36-.15a7,7,0,0,1,.69-.21,9.87,9.87,0,0,1,4.05-.1c.35.06.7.08,1.06.12C20.43,8,20.44,8.14,20.44,8.26Z"/>
        <path class="cls-4" d="M20.42,7.79c-.1-.44-.18-.88-.31-1.31a3.18,3.18,0,0,0-1.49-2,.62.62,0,0,1-.28-.85,1.39,1.39,0,0,1,1.76-.75.77.77,0,0,1,.33.4,12.69,12.69,0,0,1,.59,3c0,.51.05,1,.07,1.52l-.23,0c0-.46,0-.92-.1-1.38-.08-.67-.18-1.35-.31-2a10.39,10.39,0,0,0-.35-1.17C20,3.11,20,3,19.89,3a1.17,1.17,0,0,0-1,.2,1.13,1.13,0,0,0-.31.43c-.1.22,0,.36.25.34A1.32,1.32,0,0,0,20,3.24s0,0,.07-.05c-.09.2-.18.4-.28.6a1.4,1.4,0,0,1-.09.17l-.68.34a5.2,5.2,0,0,1,1.49,3.48Z"/>
        <path class="cls-5" d="M11.06,16.7l.2-.17.15-.13a14.25,14.25,0,0,0,.83,2.72A7.31,7.31,0,0,0,13.36,21l1.05,1.11-.39.33a8,8,0,0,1-2-2.66A11,11,0,0,1,11.06,16.7Z"/>
        <path class="cls-6" d="M26.58,1.18A9.16,9.16,0,0,1,28.89.74,3,3,0,0,0,30.57.13c.26-.2.33-.18.43.15a4.41,4.41,0,0,1,.16,2c-.08.6-.23,1.2-.36,1.79-.06.23-.17.44-.25.66a.35.35,0,0,1-.31-.28.61.61,0,0,1,0-.13A7.12,7.12,0,0,0,30.73.91c0-.37-.11-.41-.46-.28s-.54.2-.81.27a3.81,3.81,0,0,1-.59.08,5.08,5.08,0,0,0-.67.07c-.56.1-1.1.23-1.65.35Z"/>
        <path class="cls-7" d="M30.24,4.46a.35.35,0,0,0,.31.28,5.46,5.46,0,0,1-3.29,3.17c-.3.12-.62.2-.94.3-.2-.08-.41-.15-.41-.42l1-.31a4.61,4.61,0,0,0,2.77-2C29.85,5.15,30,4.8,30.24,4.46Z"/>
        <path class="cls-7" d="M26.58,1.18l0,.22-.65.28a5.48,5.48,0,0,0-3.32,3.38c-.11,0-.15-.23-.32-.14a4.66,4.66,0,0,1,1.44-2.2A8,8,0,0,1,26.58,1.18Z"/>
        <path class="cls-8" d="M20.86,7.72l.23,0v.58l0,.77.63-.56.3.28-.36.27a3.92,3.92,0,0,0-.37.34.68.68,0,0,1-.86.18c-.15-.07-.19-.17-.11-.34a1.29,1.29,0,0,0,.1-.35l0-.67V7.79h.13c0,.46,0,.92.07,1.38,0,.08.08.16.13.24,0-.07.12-.15.12-.23C20.88,8.69,20.87,8.21,20.86,7.72Z"/>
        <path class="cls-7" d="M26,8.3l.14,0Z"/>
        <path class="cls-5" d="M20.3,22.69l.11,0Z"/>
        <path class="cls-5" d="M20.65,22.74l.11,0Z"/>
        <path class="cls-7" d="M22.25,5l0,0Z"/>
        <path class="cls-9" d="M19.76,21.68h0l0,.09a2.69,2.69,0,0,1-1.37,1.84l-.48.24a2.18,2.18,0,0,1-.61-.15h0l-.3-.12-.06,0A11.7,11.7,0,0,1,15.84,23l-.24-.14-.38-.24h0a9.3,9.3,0,0,1-.81-.59L13.36,21v-.29l.86-.75c0-.05,0-.15-.06-.24l.43.34c.15.13.31.26.48.38l.1.07.21.14h0l.32.19a5.58,5.58,0,0,0,1.66.65l.48.09.2,0,.26,0,.22,0a6,6,0,0,0,.85,0h0l.37,0Z"/>
        <path class="cls-9" d="M22.82,23a8.09,8.09,0,0,0,.91.23,9.43,9.43,0,0,1-2.52.82,2.46,2.46,0,0,1-1.11-.1l-.33-.09a3.64,3.64,0,0,0,1-1.76v0a1.09,1.09,0,0,0,.06-.44v0A3.51,3.51,0,0,0,22.82,23Z"/>
        <path class="cls-10" d="M23.36,9.89a2.81,2.81,0,0,0-.44.66,5.93,5.93,0,0,0-.38,1h-.33a4.88,4.88,0,0,1-.52.06c-.47,0-.93-.11-1.39-.16s-.82-.33-1.21-.52a3.23,3.23,0,0,1-.51-.34l.16-.16h0l.31-.32c.05-.05.1-.11.16-.16a.85.85,0,0,1,.19-.14h0c.22.16.45.33.68.47a1,1,0,0,0,.79.22c.33-.1.65-.21,1-.33A3.87,3.87,0,0,1,23.36,9.89Z"/>
        <path class="cls-10" d="M24.75,9a2.8,2.8,0,0,0-1.16.63,5.92,5.92,0,0,0-1.19,0,2.26,2.26,0,0,0-.29-.32,2.65,2.65,0,0,0-.4-.24l.36-.27a2.28,2.28,0,0,1,1.86-.06C24.21,8.85,24.48,8.93,24.75,9Z"/>
        <path class="cls-11" d="M26.87,7.48l-1,.31a8.8,8.8,0,0,1-2.27.35c-.38,0-.48-.09-.48-.46a2.92,2.92,0,0,1,.61-1.6,1.09,1.09,0,0,0,.08-.15,10.1,10.1,0,0,1,.76-.84,14.55,14.55,0,0,1,3.16-2A16,16,0,0,0,29.54,2a4.23,4.23,0,0,0,.71-.75c0,.07.08.15.06.21a2.5,2.5,0,0,1-1,1.52c-.66.43-1.36.81-2,1.22a3.76,3.76,0,0,0-1.3,1.3,1.2,1.2,0,0,0,.25,1.59A4.18,4.18,0,0,0,26.87,7.48Z"/>
        <path class="cls-12" d="M22.58,5.06A5.48,5.48,0,0,1,25.9,1.68l.65-.28c.55-.12,1.09-.25,1.65-.35A5.08,5.08,0,0,1,28.87,1l-.37.11a9.67,9.67,0,0,0-3.69,1.64,2.29,2.29,0,0,0-.91,1,1.82,1.82,0,0,0,0,1.41l-.44.54a4.57,4.57,0,0,0-.91,1.73h-.08a1.5,1.5,0,0,1-.06-.29,6.34,6.34,0,0,1,.19-1.94S22.57,5.09,22.58,5.06Z"/>
        <path class="cls-7" d="M23.43,5.67l.44-.54a10.73,10.73,0,0,1,2.34-1.59c1-.5,1.94-1,2.91-1.52a3,3,0,0,0,.55-.39c.23-.2.44-.41.65-.62l0,0-.09.21a4.23,4.23,0,0,1-.71.75,16,16,0,0,1-1.77,1.07,14.55,14.55,0,0,0-3.16,2,10.1,10.1,0,0,0-.76.84Z"/>
        <path class="cls-10" d="M21.77,8.55l-.63.56,0-.77.78,0Z"/>
        <path class="cls-13" d="M13.64,8.9a4.94,4.94,0,0,1,1,.35l-.07,0-.05,0-.12,0h-.06l-.12.05-.06,0-.08,0h0l0,0-.06,0h0l-.07,0-.11.07,0,0-.08,0-.08.06-.07.05-.06,0,0,0-.05,0-.07.05,0,.06-.05,0,0,.05-.06.06-.08.09-.06.07-.07.08-.25.36,0,.07a.41.41,0,0,1-.05.09h0l0,.08-.06.11,0,.07,0,.1,0,.09,0,.1,0,.07-.12.31a.19.19,0,0,1,0,.07c0,.08-.05.15-.07.23a.19.19,0,0,1,0,.07v.07l0,.07a2.21,2.21,0,0,0,0,.25.22.22,0,0,0,0,.08s0,0,0,.08,0,0,0,.08h0s0,.05,0,.08,0,.33,0,.5v.38a.66.66,0,0,0,0,.14v0a.49.49,0,0,0,0,.12s0,.1,0,.14,0,.1,0,.14v0a.59.59,0,0,0,0,.13v0l0,.22v.08s0,.07,0,.11a.51.51,0,0,1,0,.13s0,.08,0,.11,0,0,0,.06,0,.07,0,.1,0,.1,0,.15v0l0,.14,0,.15,0,.11,0,.12,0,.13,0,.12a.76.76,0,0,1,0,.11,1,1,0,0,0,.05.16l0,.1a1.17,1.17,0,0,0,.05.11l0,.12.1.24a1.17,1.17,0,0,0,.05.11.93.93,0,0,0,.05.1c0,.12.11.24.17.36l0,.08c0,.08.09.16.14.24h0c.07.11.13.22.21.33h0l0,0a3.57,3.57,0,0,0,.34.43c.06.09.12.19.19.28l.42.49c0,.09.05.19.06.24l-.86.75V21a7.31,7.31,0,0,1-1.12-1.83,3.45,3.45,0,0,1-.14-.34c-.06-.13-.11-.27-.16-.41s-.09-.28-.14-.43a.93.93,0,0,0,0-.13c-.13-.46-.24-.93-.35-1.41h0c0-.08,0-.16-.05-.25v-.08a15.7,15.7,0,0,1-.14-1.66.66.66,0,0,1,0-.14v-.36h0a.28.28,0,0,0,0-.09v-.29c0-.06,0-.12,0-.19v-.09c0-.06,0-.13,0-.19a1.11,1.11,0,0,0,0-.19v0s0-.05,0-.08,0-.07,0-.1a.09.09,0,0,1,0-.05s0-.06,0-.1l0-.12s0-.08,0-.12v0h0l0-.11v0l0-.1v0l0-.12a.14.14,0,0,1,0-.06s0,0,0-.06a.14.14,0,0,0,0-.06.56.56,0,0,0,0-.12.69.69,0,0,0,.05-.13.2.2,0,0,1,0-.08l0-.1,0-.08c0-.09.08-.18.13-.27a.54.54,0,0,1,.07-.13l.09-.16,0-.06,0-.06,0-.06a.56.56,0,0,1,0-.08l.08-.12.05-.06.06-.08,0-.07h0l.05-.07.07-.07.06-.07.07-.08.06-.06.06-.07.1-.1,0,0L13,9.37l0,0,.22-.18.09-.07L13.54,9l.05,0Z"/>
        <path class="cls-13" d="M20.44,8.26l0,.67a8.08,8.08,0,0,0-.86.08,1.75,1.75,0,0,0-.42.19,3.73,3.73,0,0,0-1.36-.48l.05.1.1,0c.41.23.82.45,1.22.69.08,0,.14.14.21.21a.72.72,0,0,0-.2.14l-.63.65-.15-.08c-.42-.31-.84-.63-1.28-.92l-.07-.05-.08,0h0l-.07,0h0l-.06,0-.06,0-.17-.08-.05,0a6.74,6.74,0,0,0-1.58-1h0l.06,0,.11,0,.11,0,.19,0,.08,0h.08a9.77,9.77,0,0,1,3.92,0C19.84,8.2,20.14,8.22,20.44,8.26Z"/>
        <path class="cls-5" d="M11.35,16.06l0,.09-.11,0Z"/>
        <path class="cls-14" d="M20.75,9.4c-.05-.08-.13-.16-.13-.24,0-.46-.05-.92-.07-1.38A5.2,5.2,0,0,0,19.06,4.3L19.74,4A1.54,1.54,0,0,1,20,4.3a7.34,7.34,0,0,1,.33.89,13.71,13.71,0,0,1,.37,2.71C20.77,8.4,20.74,8.9,20.75,9.4Z"/>
        <path class="cls-15" d="M20.75,9.4c0-.5,0-1,0-1.5a13.71,13.71,0,0,0-.37-2.71A7.34,7.34,0,0,0,20,4.3,1.54,1.54,0,0,0,19.74,4a1.4,1.4,0,0,0,.09-.17c.1-.2.19-.4.28-.6v0a10.39,10.39,0,0,1,.35,1.17c.13.67.23,1.35.31,2,.06.46.07.92.1,1.38s0,1,0,1.45C20.87,9.25,20.79,9.33,20.75,9.4Z"/>
        <path class="cls-14" d="M20.1,3.15v0s-.07,0-.07.05A1.32,1.32,0,0,1,18.82,4c-.24,0-.35-.12-.25-.34a1.13,1.13,0,0,1,.31-.43,1.17,1.17,0,0,1,1-.2C20,3,20,3.11,20.1,3.15Z"/>
        <path class="cls-16" d="M30.32,1c-.21.21-.42.42-.65.62a3,3,0,0,1-.55.39c-1,.52-1.94,1-2.91,1.52a10.73,10.73,0,0,0-2.34,1.59,1.82,1.82,0,0,1,0-1.41,2.29,2.29,0,0,1,.91-1A9.67,9.67,0,0,1,28.5,1.09L28.87,1A3.81,3.81,0,0,0,29.46.9c.27-.07.54-.17.81-.27s.42-.09.46.28a7.12,7.12,0,0,1-.46,3.42.61.61,0,0,0,0,.13c-.2.34-.39.69-.6,1a4.61,4.61,0,0,1-2.77,2,4.18,4.18,0,0,1-.68-.4,1.2,1.2,0,0,1-.25-1.59,3.76,3.76,0,0,1,1.3-1.3c.68-.41,1.38-.79,2-1.22a2.5,2.5,0,0,0,1-1.52c0-.06,0-.14-.06-.21L30.34,1l0-.1v0Z"/>
        <path class="cls-17" d="M19.2,9.2A1.53,1.53,0,0,1,19.61,9a8.08,8.08,0,0,1,.86-.08,1.29,1.29,0,0,1-.1.35c-.08.17,0,.27.11.34a.68.68,0,0,0,.86-.18,3.92,3.92,0,0,1,.37-.34,2.65,2.65,0,0,1,.4.24,2.26,2.26,0,0,1,.29.32l-1.09.28a1.33,1.33,0,0,1-.9-.07C20,9.67,19.6,9.43,19.2,9.2Z"/>
        <path class="cls-18" d="M19.76,21.57l-.37,0h0a6,6,0,0,1-.85,0l-.22,0-.26,0-.2,0-.48-.09a5.58,5.58,0,0,1-1.66-.65l-.32-.19h0l-.21-.14-.1-.07c-.17-.12-.33-.25-.48-.38l-.43-.34-.42-.49c-.07-.09-.13-.19-.19-.28a1.63,1.63,0,0,1,.17-.2c.51-.56,1-1.12,1.54-1.67l.13-.14c.09-.1.17-.2.26-.29h0l.23-.25.93-1,.1-.12.81-.87.28-.3c.11.62.2,1.25.31,1.88a12.49,12.49,0,0,0,.94,3.66A4.27,4.27,0,0,1,19.76,21.57Z"/>
        <path class="cls-18" d="M22.68,13.6,22,15.21c-.21.46-.42.93-.62,1.39-.07.14-.13.28-.19.42-.2.43-.42.91-.61,1.43a4.08,4.08,0,0,0-.22.94c-.05-.09-.08-.17-.12-.25a10.78,10.78,0,0,1-.81-3.1l0-.26c0-.21-.06-.41-.1-.61-.1-.68-.21-1.38-.35-2.08l1.25-1.35a1.35,1.35,0,0,0,.15-.32c.46.05.92.12,1.39.16a4.88,4.88,0,0,0,.52-.06h.33A2.76,2.76,0,0,0,22.68,13.6Z"/>
        <path class="cls-19" d="M19.09,10.9a4.11,4.11,0,0,1-.51-.34l-.15-.08c-.42-.31-.84-.63-1.28-.92l-.07-.05-.08,0h0l-.07,0h0l-.06,0-.06,0-.17-.08a6.66,6.66,0,0,1,2.23,3.57c0,.08,0,.16,0,.25.41-.46.83-.91,1.25-1.36a1.35,1.35,0,0,0,.15-.32C19.89,11.25,19.48,11.09,19.09,10.9ZM14.64,9.25l-.07,0-.05,0-.12,0h-.06l-.12.05-.06,0-.08,0h0l0,0-.06,0h0l-.07,0-.11.07,0,0-.08,0-.08.06-.07.05-.06,0,0,0-.05,0-.07.05,0,.06-.05,0,0,.05-.06.06-.08.09-.06.07-.07.08-.25.36,0,.07a.41.41,0,0,1-.05.09h0l0,.08-.06.11,0,.07,0,.1,0,.09,0,.1,0,.07-.12.31a.19.19,0,0,1,0,.07c0,.08-.05.15-.07.23a.19.19,0,0,1,0,.07v.07a.19.19,0,0,0,0,.07,2.21,2.21,0,0,0,0,.25.22.22,0,0,0,0,.08s0,0,0,.08v.08h0V13c0,.16,0,.33,0,.5v.38a.66.66,0,0,0,0,.14v0a.49.49,0,0,0,0,.12s0,.1,0,.14,0,.1,0,.14v0l0,.13v0l0,.22v.08s0,.07,0,.11a.51.51,0,0,1,0,.13s0,.08,0,.11,0,0,0,.06,0,.07,0,.1,0,.1,0,.15v0l0,.14,0,.15,0,.11,0,.12,0,.13,0,.12a.76.76,0,0,1,0,.11,1,1,0,0,0,.05.16l0,.1a1.17,1.17,0,0,0,.05.11l0,.12.1.24.05.11a.93.93,0,0,0,.05.1c0,.12.11.24.17.36l0,.08c0,.08.09.16.14.24h0c.07.11.13.22.21.33h0l0,0a3.57,3.57,0,0,0,.34.43,1.63,1.63,0,0,1,.17-.2c.51-.56,1-1.12,1.54-1.67l.13-.14c.09-.1.17-.2.26-.29h0l.23-.25.93-1,.1-.12.81-.87.28-.3c-.06-.33-.12-.66-.19-1A5.8,5.8,0,0,0,14.64,9.25Zm-.47,1.28,0,0,0,0a.3.3,0,0,1,.08-.08l0,0,0,0,.1-.07h0l0,0,.05,0,.05,0,.06,0,.1-.05h0l.07,0L15,10h0l.13,0h.13l.43.07c.19,0,.36.11.39.33a.06.06,0,0,1,0,0v0h0a0,0,0,0,1,0,0h0v0a.08.08,0,0,0,0,0l0,0a.18.18,0,0,1-.05.07h0l-.06.06-.05,0-.07,0-.07,0-.14.06-.05,0-.42.15h0l-.16.05h0a1,1,0,0,1-.63,0c-.32-.08-.4-.3-.22-.57h0Z"/>
        <path class="cls-20" d="M23.59,9.66l-.23.23a3.87,3.87,0,0,0-1.5.24c-.33.12-.65.23-1,.33a1,1,0,0,1-.79-.22c-.23-.14-.46-.31-.68-.47l0,0,0-.05-.06-.07a0,0,0,0,1,0,0l-.06,0c-.4-.24-.81-.46-1.22-.69l-.1,0-.05-.1H18l.06,0h0l.07,0h0l.08,0,.06,0,.05,0,.14.05.08,0,.09,0,.08,0,.16.08.15.08.09,0c.4.23.79.47,1.21.67a1.33,1.33,0,0,0,.9.07l1.09-.28A5.92,5.92,0,0,1,23.59,9.66Z"/>
        <path class="cls-7" d="M30.32,1l.05-.08h0l0,.1Z"/>
        <path class="cls-7" d="M30.37.93v0Z"/>
        <path class="cls-21" d="M15.31,10l.43.07c.19,0,.36.11.39.33a.37.37,0,0,1-.26.39,6.54,6.54,0,0,1-.87.34,1,1,0,0,1-.63,0c-.32-.08-.4-.3-.22-.57A1.7,1.7,0,0,1,15.31,10Z"/>
        <g>
          <path class="cls-2" d="M19.26,19.6a12.49,12.49,0,0,1-.94-3.66c-.11-.63-.2-1.26-.31-1.88-.06-.33-.12-.66-.19-1a5.8,5.8,0,0,0-3.18-3.82,4.94,4.94,0,0,0-1-.35l-.41-.08a5.18,5.18,0,0,0-3.12.49l-.15,0A5,5,0,0,0,8.6,6.42C8.28,6,8,5.53,7.69,5.08c-.15-.21-.31-.24-.39,0a13.83,13.83,0,0,0-.44,1.68A7.24,7.24,0,0,0,6.8,7.85,5.35,5.35,0,0,1,6,5.43a.76.76,0,0,0-.34.05,1.14,1.14,0,0,0-.25.28h0l-.06.06,0,0,0,0a5.05,5.05,0,0,0-.72,2.42c0,.42,0,.85,0,1.28-.38,0-.76,0-1.14.05a7.3,7.3,0,0,0-2.43.87c-.3.21-.6.41-.89.63-.09.07-.12.2-.18.3a2.85,2.85,0,0,0,.31.12l.25,0,2.22.57s0,.07,0,.1l-.46.22A3.72,3.72,0,0,0,.16,16a.29.29,0,0,0,.12.23s.17,0,.22-.07A3.84,3.84,0,0,1,2.94,15l.47-.08a12.74,12.74,0,0,0-.33,1.7,5.1,5.1,0,0,0,1,3.2,9.53,9.53,0,0,0,5.83,4,17,17,0,0,0,6.88.32l.68-.11.45-.2.48-.24a2.69,2.69,0,0,0,1.37-1.84l0-.09h0v-.11A4.27,4.27,0,0,0,19.26,19.6ZM14.56,23a14.2,14.2,0,0,1-5.13-.7A7.9,7.9,0,0,1,5.2,19.08a6.89,6.89,0,0,1-.43-.79h0a4.08,4.08,0,0,1-.23-.7,3.11,3.11,0,0,1,.14-1.88L5,15.62l.32-.09,1.09-.32L7,15a3,3,0,0,0,.32-.12c.14-.05.27-.12.4-.18s.38-.19.57-.29l.28-.14.13-.07A2.85,2.85,0,0,0,9,14l.18-.14a1.22,1.22,0,0,0,.31-.39l0,0,.1-.18L9.74,13c.16-.29.3-.58.45-.85l.44-.89v0c.1-.21.18-.41.25-.59a1.71,1.71,0,0,1,.07-.18l.06,0,.14,0,.11,0,.15-.06,0,0,.12-.05.15,0,.15,0h0a1.15,1.15,0,0,1,.26,0h.18a3.78,3.78,0,0,1,.75,0,4.7,4.7,0,0,1,1.08.35l.18.1h0a2.63,2.63,0,0,1,.33.2,4.15,4.15,0,0,1,.34.24,4.7,4.7,0,0,1,.59.59,4.26,4.26,0,0,1,.5.75h0a4.41,4.41,0,0,1,.24.54,8.28,8.28,0,0,1,.23.89c.05.26.1.53.14.8s.05.3.07.45l0,.24c0,.1,0,.2,0,.3l0,.16,0,.12a.17.17,0,0,0,0,.07c0,.21.07.43.1.65s0,.18.05.28,0,.08,0,.13h0c.09.48.18,1,.31,1.46.08.3.17.61.28.92a9.49,9.49,0,0,0,.55,1.28,1.11,1.11,0,0,1,.07.2v0a1.17,1.17,0,0,1,0,.64,1,1,0,0,1-.58.74l0,0-.06,0-.13.06,0,0-.14.08,0,0,0,0-.06,0h0l-.16.07H16.9l-.71.1-.59.07h-.14l-.64.05h-.26ZM4.08,11h.19a1.37,1.37,0,0,0-.17.17h0l0,0a1.13,1.13,0,0,0-.1.13l-.06,0-.5-.23A3.14,3.14,0,0,1,4.08,11ZM16.24,9.17l.14,0Zm-.15,0,.15,0Z"/>
          <path class="cls-2" d="M19.26,19.6a12.49,12.49,0,0,1-.94-3.66c-.11-.63-.2-1.26-.31-1.88-.06-.33-.12-.66-.19-1a5.8,5.8,0,0,0-3.18-3.82,4.94,4.94,0,0,0-1-.35l-.41-.08a5.18,5.18,0,0,0-3.12.49l-.15,0A5,5,0,0,0,8.6,6.42C8.28,6,8,5.53,7.69,5.08c-.15-.21-.31-.24-.39,0a13.83,13.83,0,0,0-.44,1.68A7.24,7.24,0,0,0,6.8,7.85,5.35,5.35,0,0,1,6,5.43a.76.76,0,0,0-.34.05,1.14,1.14,0,0,0-.25.28h0l-.06.06,0,0,0,0a5.05,5.05,0,0,0-.72,2.42c0,.42,0,.85,0,1.28-.38,0-.76,0-1.14.05a7.3,7.3,0,0,0-2.43.87c-.3.21-.6.41-.89.63-.09.07-.12.2-.18.3a2.85,2.85,0,0,0,.31.12l.25,0,2.22.57s0,.07,0,.1l-.46.22A3.72,3.72,0,0,0,.16,16a.29.29,0,0,0,.12.23s.17,0,.22-.07A3.84,3.84,0,0,1,2.94,15l.47-.08a12.74,12.74,0,0,0-.33,1.7,5.1,5.1,0,0,0,1,3.2,9.53,9.53,0,0,0,5.83,4,17,17,0,0,0,6.88.32l.68-.11.45-.2.48-.24a2.69,2.69,0,0,0,1.37-1.84l0-.09h0v-.11A4.27,4.27,0,0,0,19.26,19.6ZM7.46,5.47c.29.4.56.75.81,1.1.12.16.22.34.33.51h0L9.22,8a3.46,3.46,0,0,1-.3,3.66L8.85,10l-.28-.76-.08,0c.06.31.11.62.16.93,0,.7,0,1.4,0,2.17a5.93,5.93,0,0,0-.55-1,3.45,3.45,0,0,1-.69-1.81A8.15,8.15,0,0,1,7.46,5.47ZM5,8.27A2.44,2.44,0,0,1,5,8c0-.13,0-.26,0-.38H5c0-.06,0-.12,0-.19H5l0-.08,0-.09,0-.08h0l0-.07a.43.43,0,0,0,0,0s0,0,0,0l0,0,0-.09,0,0,0-.07.06-.15,0-.06,0,0a.3.3,0,0,0,0-.08.61.61,0,0,1,.07-.1l.06-.1s0,0,0,0l0,0v0s0-.05.08,0h0l0,0a.24.24,0,0,1,0,.07A6.83,6.83,0,0,0,6.83,8.53a.55.55,0,0,1,.06.18l.3,1.78v0h0l0,0-.79-.43C6,10,5.67,9.82,5.31,9.74l0,0h0l0,0h0l-.09-.07,0,0h0v0H5v0H5v0H5v0H5V9.39a1.48,1.48,0,0,0,0-.21C5,9.11,5,9,5,9H5q0-.32,0-.63ZM2,11.62c-.43-.17-.89-.26-1.38-.4a6.92,6.92,0,0,1,2.25-1.1,4.67,4.67,0,0,1,4,.64c.82.42,1.53,1.45,1.21,2.23l-1.41-.47a2.14,2.14,0,0,1-.34-.09l-1.43-.62,0,0,0,0h0l1.33.81,1.36.47a4.45,4.45,0,0,1-2.62-.29c-.23-.09-.47-.17-.69-.27C3.5,12.26,2.77,11.91,2,11.62Zm0,3.28-.09,0-.08,0-.12,0L1.6,15l-.06,0-.11,0-.08,0-.09,0-.08,0-.07,0-.21.1-.05,0-.06,0-.08,0-.07,0-.08.06a1.31,1.31,0,0,1,0-.17.88.88,0,0,1,0-.17v0a1.55,1.55,0,0,1,.07-.23.56.56,0,0,1,0-.12.42.42,0,0,1,0-.1.49.49,0,0,1,0-.11l0-.1s0-.07,0-.11.14-.26.22-.38l.13-.17a.86.86,0,0,1,.07-.1l0,0s0,0,0,0l0-.05.06-.06h0l.08-.08h0l.08-.07a.69.69,0,0,1,.13-.11.27.27,0,0,1,.08-.07h0l.08-.06,0,0,.07,0,0,0,.1-.07.12-.07.12-.06.12-.06.11-.06h0l.12-.05h0l.13-.05c.6-.24,1,.2,1.43.39l-.17.05-.47.16-.6.2,0,.07,1.15-.16.36-.06.89.13,1.27.18a4.55,4.55,0,0,1-1,.42l-.64.16-.32.07L4,14.41l-.83.19h0L3,14.65Zm17.3,6.92a.24.24,0,0,0,0,.08.64.64,0,0,0,0,.07.19.19,0,0,0,0,.07l-.06.14-.06.14a1.75,1.75,0,0,1-.16.27l0,0,0,0h0l-.05.06h0l-.05.06a.94.94,0,0,1-.1.1l0,0,0,0,0,0-.05,0-.1.07,0,0-.12.07-.06,0,0,0h0l0,0-.06,0h0l-.06,0-.12.05-.06,0-.07,0a3.49,3.49,0,0,1-.39.19l-.11.05h-.13l-.14,0-.21,0h0l-.17,0h-.07l-.17,0h0l-.19,0h0l-.21,0-.18,0-.18,0-.43,0H12.7l-.15,0h-.29l-.6-.08L11,23.75l-.46-.1-.09,0-.13,0-.17-.05-.34-.09-.17-.05-.13,0-.13,0-.13,0-.12,0-.19-.06-.33-.13-.13,0h0l-.15-.06-.13-.06-.06,0L8,22.8l-.15-.07-.65-.35L7,22.29H7a.57.57,0,0,0-.13-.08l0,0-.13-.09L6.59,22h0l-.07,0-.11-.08-.12-.09,0,0h0l-.11-.09a.52.52,0,0,1-.11-.1l0,0h0l-.1-.09,0,0-.12-.1L5.41,21l-.12-.12-.1-.11-.06-.07c-.11-.12-.21-.24-.31-.37l-.05,0-.11-.15L4.56,20l0,0-.09-.13,0,0-.09-.14a4.57,4.57,0,0,1-.53-4.55L3.86,15l0-.05.1-.09.06,0,.15-.05C5,14.53,5.87,14.3,6.69,14l.18-.07.18-.07.1,0,.18-.09.79-.41a.7.7,0,0,0,.17-.09l0,0,.11-.07.05-.05,0,0L8.57,13l.57-1.09.28-.55.27-.55.09-.2c.05-.11.09-.22.13-.32l.08-.21S10,10,10,10a.81.81,0,0,1,.69-.51l.14-.05.06,0L11,9.34h0l.11,0,.06,0,.11,0a4.55,4.55,0,0,1,.95-.14H13l.1,0h.12l.1,0,.08,0,.24.05h.06l.08,0h.07l0,0,.08,0,.2.06,0,0,.09,0,.09,0a5.25,5.25,0,0,1,.81.43l.09.06h0l.07,0h0l.13.09.12.1h0l.06,0,.24.2,0,0,.08.07,0,0,.06.06.18.19.16.19.07.09.14.19.06.09a2.14,2.14,0,0,1,.13.19l.06.1.05.09.06.1.05.1a.41.41,0,0,0,.05.09v0l.05.09a1,1,0,0,0,0,.1.36.36,0,0,0,0,.09.69.69,0,0,0,.05.13l0,.09a.56.56,0,0,0,0,.12c.06.19.11.38.16.58v0l.06.25c0,.08,0,.17.05.26l0,.18,0,.16,0,.16c0,.1,0,.19,0,.29a2.36,2.36,0,0,1,0,.28l.09.56,0,.27a.77.77,0,0,1,0,.15c0,.12,0,.25.07.38a2,2,0,0,0,0,.26c0,.11,0,.21.05.31h0c0,.1,0,.2.05.3,0,.26.1.51.16.76l.12.47v0a.57.57,0,0,0,0,.14c0,.05,0,.11,0,.16l.05.15h0l.05.14v0a.42.42,0,0,1,0,.1l0,.07s0,.08,0,.13l.06.15.06.15.21.45.08.15.05.1s0,.07,0,.11a.43.43,0,0,1,0,0,1,1,0,0,1,0,.16.29.29,0,0,1,0,.09h0s0,.05,0,.08h0s0,.05,0,.08h0a.28.28,0,0,1,0,.09s0,.07,0,.11v.39a.28.28,0,0,0,0,.09s0,0,0,.08A.68.68,0,0,1,19.35,21.82Z"/>
          <path class="cls-22" d="M10.86,9.41l-.14.05a13.91,13.91,0,0,0-.56,1.39A7.31,7.31,0,0,1,9.07,13a.93.93,0,0,0-.08.2.93.93,0,0,1,.79-.2c.38.09.52,0,.49-.45a2.8,2.8,0,0,0-.06-.28.83.83,0,0,1,.22-.92.88.88,0,0,1,1-.06c.43.18.54.16.88-.17a.93.93,0,0,1,1.15-.2,2.28,2.28,0,0,1,1,2.2L13.79,13a.83.83,0,0,0-.9.43.76.76,0,0,0,.14.9c.18.25.39.49.56.75.35.54.17.95-.46,1.06-.44.07-.88.07-1.32.11a.68.68,0,0,0-.68.54,1.79,1.79,0,0,0,0,.61.6.6,0,0,1-.59.78A1.65,1.65,0,0,1,9,15.79s0,0,0-.06a.74.74,0,0,0,0-.94,1.31,1.31,0,0,1,0-1.49c-.68.34-1.38.64-2,1s-.65.73-.23,1.35.31.64-.21.93l-.11.06a.89.89,0,0,0-.3,1.4,2.22,2.22,0,0,0,1.24.83,2,2,0,0,1,1.44,1.32,1.32,1.32,0,0,0,.3.45,2.32,2.32,0,0,0,1.52.62A1.86,1.86,0,0,1,12,22a2.07,2.07,0,0,0,2,.81,1.61,1.61,0,0,1,1.16.41,2,2,0,0,0,.74.35,3.59,3.59,0,0,0,1.78-.14l.13-.15a2,2,0,0,0,.67-2.09,17.17,17.17,0,0,0-.7-1.8.45.45,0,0,1-.71.11.56.56,0,0,1-.19-.84l.12-.07c.17-.27.35,0,.53,0-.05-.22-.1-.44-.14-.66s-.07-.74-.44-.95h0l-.11-.07a2.1,2.1,0,0,1-.22-.3c-.11-.2-.18-.41,0-.61l.06-.06.33-.14-.19-1.22a.43.43,0,0,1-.59.16,1.76,1.76,0,0,1-.5-.48c0-.05.07-.19.11-.29h0q.16-.4.51-.21a3.5,3.5,0,0,1,.35.23,3.74,3.74,0,0,0-.6-1.74c0,.21,0,.46-.26.54a.82.82,0,0,1-.84-.59c0-.09.11-.19.17-.29h0c.07-.07.14-.17.22-.19a1.15,1.15,0,0,1,.37,0L15,10.77c-.25.1-.49.16-.64-.15-.29-.06-.15-.26-.13-.41a4.25,4.25,0,0,0-1.95-.75C11.79,9.4,11.32,9.43,10.86,9.41Zm6.54,11.4.06-.07a.46.46,0,0,1,.63.3c.08.22.12.45-.13.6a.56.56,0,0,1-.63-.26c-.07-.16-.24-.34,0-.51Zm-6-11c.11,0,.25-.1.33-.06a.94.94,0,0,1,.39.32.43.43,0,0,1-.16.32,1.17,1.17,0,0,1-.59-.1c-.16-.08-.18-.26,0-.41Zm.82,9.07-.13-.06a3.78,3.78,0,0,1-.5-.56.29.29,0,0,1,.2-.46h0a.28.28,0,0,1,.43-.22,4.76,4.76,0,0,1,.68.5c.3.28.37.62.17.85a.59.59,0,0,1-.85-.05Zm2.14-5.15h0a.65.65,0,0,1,.39.75c-.09.26-.39.37-.74.27a1.9,1.9,0,0,1-.37-.2,1.78,1.78,0,0,1-.3-.17.64.64,0,0,1-.2-.83c.16-.26.45-.31.8-.13a1.66,1.66,0,0,1,.34.25ZM15,20.45c.25-.21.53-.11.71.28a.52.52,0,0,1,0,.44.46.46,0,0,1-.4.1,1.1,1.1,0,0,1-.46-.37c-.05-.07.05-.25.09-.38Zm.34,1.82h0a.41.41,0,0,1,.66,0c.17.16.38.32.18.59a.51.51,0,0,1-.75,0C15.21,22.7,15.09,22.5,15.32,22.27ZM12.4,21l.12-.13c.26-.29.46-.09.66.07s.4.37.21.66a.44.44,0,0,1-.26.16.7.7,0,0,1-.74-.3C12.29,21.31,12.21,21.15,12.4,21Zm2.23-2.75.12-.14a.49.49,0,0,1,.67.1.59.59,0,0,1,.12.76.61.61,0,0,1-.77-.06A.44.44,0,0,1,14.63,18.25Zm.17-1.41-.22-.13a.59.59,0,0,1-.22-.79.51.51,0,0,1,.72-.22,3.06,3.06,0,0,1,.58.44.5.5,0,0,1,.25.63.42.42,0,0,1-.52.29A4.71,4.71,0,0,1,14.8,16.84Zm-6.7-.79a.94.94,0,0,1-.92-.75.61.61,0,0,1,.52-.6,1,1,0,0,1,.86.9C8.56,15.9,8.42,16,8.1,16.05Zm1,3.53A.57.57,0,0,1,9.68,19a.94.94,0,0,1,.8.9.51.51,0,0,1-.48.51A1.05,1.05,0,0,1,9.12,19.58ZM7.55,17.69l-.08.06c0,.45-.33.71-.69.48a1.87,1.87,0,0,1-.54-.58c-.18-.26,0-.5.19-.66a.47.47,0,0,1,.67,0A4.27,4.27,0,0,1,7.55,17.69Z"/>
          <path class="cls-23" d="M17.66,23.39a3.59,3.59,0,0,1-1.78.14,2,2,0,0,1-.74-.35A1.61,1.61,0,0,0,14,22.77,2.07,2.07,0,0,1,12,22a1.86,1.86,0,0,0-1.48-.68A2.32,2.32,0,0,1,9,20.66a1.32,1.32,0,0,1-.3-.45,2,2,0,0,0-1.44-1.32A2.22,2.22,0,0,1,6,18.06a.89.89,0,0,1,.3-1.4l.11-.06c.52-.29.56-.43.21-.93s-.38-1,.23-1.35,1.36-.68,2-1h0L9,13.22H9a.93.93,0,0,1,.08-.2,7.31,7.31,0,0,0,1.09-2.18,13.91,13.91,0,0,1,.56-1.39A.81.81,0,0,0,10,10c-.11.28-.21.57-.34.84C9.33,11.55,9,12.28,8.57,13a1,1,0,0,1-.45.33A11.65,11.65,0,0,1,6.69,14c-.82.29-1.65.52-2.48.74a.58.58,0,0,0-.42.35,4.57,4.57,0,0,0,.53,4.55,8.92,8.92,0,0,0,4.78,3.6,16.2,16.2,0,0,0,8,.5,4.8,4.8,0,0,0,1.08-.46ZM4.89,18.14l-.19.24a2.93,2.93,0,0,1-.38-.49c0-.06.14-.3.23-.31C4.83,17.57,4.87,17.81,4.89,18.14Zm6.05,4.4-.55-.5.27-.3c.16.15.33.3.48.46S11,22.36,10.94,22.54ZM7.77,20.68c-.31,0-.62-.24-.58-.42s.16-.19.24-.28c.16.16.32.32.46.49S7.8,20.63,7.77,20.68Zm-2.23-5L5.31,16A1.79,1.79,0,0,1,5,15.66c0-.05.12-.17.18-.26Zm-.08,4.57a2.09,2.09,0,0,1,.28-.23,2.28,2.28,0,0,1,.37.39S6,20.61,6,20.6,5.66,20.42,5.46,20.29Z"/>
          <path class="cls-24" d="M17.66,23.39l.49-.1a2.18,2.18,0,0,0,1.16-2.64,2.1,2.1,0,0,0-.15-.42,14.73,14.73,0,0,1-1.26-4.74,17,17,0,0,0-.57-2.86,5.24,5.24,0,0,0-6-3.39,4.13,4.13,0,0,0-.45.17c.46,0,.93,0,1.39.05a4.25,4.25,0,0,1,1.95.75h.05c.17-.21.36-.13.54,0a.42.42,0,0,1,.18.57l.79.93h0l.08.06.27.44A3.74,3.74,0,0,1,16.7,14l.12.59L17,15.76c.07.05.15.08.22.14a.75.75,0,0,1,.27.77c-.07.33-.35.23-.57.26.37.21.38.6.44.95s.09.44.14.66l.25.81a17.17,17.17,0,0,1,.7,1.8,2,2,0,0,1-.67,2.09Z"/>
          <path class="cls-25" d="M3.24,10.9Zm0,0Zm0,0,.09.06Z"/>
          <path class="cls-16" d="M2.89,10.12a4.67,4.67,0,0,1,4,.64c0,.19.1.37.14.56a1.27,1.27,0,0,1-.34,1.2,2.14,2.14,0,0,1-.34-.09l-1.43-.62-.13-.07H4.71l0,0,.1.09h0l1.33.81-.92.11-.34.07c-.23-.09-.47-.17-.69-.27-.75-.32-1.48-.67-2.23-1-.43-.17-.89-.26-1.38-.4A6.92,6.92,0,0,1,2.89,10.12Zm.35.78h0l.09.06Z"/>
          <path class="cls-25" d="M8.59,7.07h0Z"/>
          <path class="cls-16" d="M7.46,5.47c.29.4.56.75.81,1.1.12.16.22.34.33.51h0L9.22,8c0,.23.06.45.08.68A1.36,1.36,0,0,1,8.85,10l-.28-.76-.08,0c.06.31.11.62.16.93a1,1,0,0,1-1.07-.47,1.24,1.24,0,0,0-.21-.19A8.15,8.15,0,0,1,7.46,5.47Zm1,3.7h0l0-.08s0,0,0,.06S8.44,9.17,8.45,9.17Z"/>
          <path class="cls-16" d="M4.62,13.28l-1.51.21,0-.07L4.33,13c-.46-.19-.83-.63-1.43-.4A3.64,3.64,0,0,0,.58,15.17a1.08,1.08,0,0,0,0,.19,1.31,1.31,0,0,0,0,.17,8.74,8.74,0,0,1,2.62-.93,1.39,1.39,0,0,1,.19-.15c.27-.15.55-.28.81-.45S4.67,13.64,4.62,13.28Z"/>
          <path class="cls-11" d="M6.39,10.07l.79.43h0l-.3-1.78a.55.55,0,0,0-.06-.18A6.83,6.83,0,0,1,5.75,6.19c0,.09-.15.18-.15.27a6.18,6.18,0,0,0,0,1.43A20.76,20.76,0,0,0,6.39,10.07Z"/>
          <path class="cls-25" d="M6.39,10.07a20.76,20.76,0,0,1-.75-2.18,6.18,6.18,0,0,1,0-1.43c0-.09.1-.18.15-.27-.08-.24-.15-.05-.19,0A3.71,3.71,0,0,0,5,8,12.91,12.91,0,0,0,5,9.39a.35.35,0,0,0,.31.35C5.67,9.82,6,10,6.39,10.07Z"/>
          <path class="cls-11" d="M6.68,12.52,8.09,13c.32-.78-.39-1.81-1.21-2.23,0,.19.1.37.14.56A1.27,1.27,0,0,1,6.68,12.52Z"/>
          <path class="cls-11" d="M4.62,13.28c0,.36-.2.55-.44.72s-.54.3-.81.45a1.39,1.39,0,0,0-.19.15c.86-.2,1.72-.38,2.57-.6a4.55,4.55,0,0,0,1-.42Z"/>
          <path class="cls-11" d="M7.37,9.57a3.45,3.45,0,0,0,.69,1.81,5.93,5.93,0,0,1,.55,1c0-.77,0-1.47,0-2.17a1,1,0,0,1-1.07-.47A1.24,1.24,0,0,0,7.37,9.57Z"/>
          <path class="cls-11" d="M8.85,10l.07,1.63A3.46,3.46,0,0,0,9.22,8c0,.23.06.45.08.68A1.36,1.36,0,0,1,8.85,10Z"/>
          <path class="cls-11" d="M4.94,12.85a4.45,4.45,0,0,0,2.62.29L6.2,12.67l-.92.11Z"/>
          <path class="cls-26" d="M7.18,10.5l0,0,0,0Z"/>
          <path class="cls-22" d="M8.93,13.3a1.31,1.31,0,0,0,0,1.49.74.74,0,0,1,0,.94s0,0,0,.06a1.65,1.65,0,0,0,1.58,2.42.6.6,0,0,0,.59-.78,1.79,1.79,0,0,1,0-.61.68.68,0,0,1,.68-.54c.44,0,.88,0,1.32-.11.63-.11.81-.52.46-1.06-.17-.26-.38-.5-.56-.75a.76.76,0,0,1-.14-.9.83.83,0,0,1,.9-.43l.63.12a2.28,2.28,0,0,0-1-2.2.93.93,0,0,0-1.15.2c-.34.33-.45.35-.88.17a.88.88,0,0,0-1,.06.83.83,0,0,0-.22.92,2.8,2.8,0,0,1,.06.28c0,.4-.11.54-.49.45a.93.93,0,0,0-.79.2H9l-.07.07Zm3.74-2.18h0a.33.33,0,0,1,.52-.08,2.09,2.09,0,0,1,.46.56c0,.05,0,.17-.06.24s-.57.18-.85,0A.42.42,0,0,1,12.67,11.12Zm-2.51,6.42a.91.91,0,0,1-.91-.75.58.58,0,0,1,.51-.59,1,1,0,0,1,.87.85A.44.44,0,0,1,10.16,17.54Zm1.22-4.49a.9.9,0,0,1-.94-.68.55.55,0,0,1,.52-.59,1,1,0,0,1,.9.82A.45.45,0,0,1,11.38,13.05Zm-1.5,1.57A.91.91,0,0,1,9,13.85a.58.58,0,0,1,.51-.57,1,1,0,0,1,.87.87A.44.44,0,0,1,9.88,14.62Zm2.41,1.15a1,1,0,0,1-.94-.74.6.6,0,0,1,.53-.6,1,1,0,0,1,.87.87A.44.44,0,0,1,12.29,15.77Z"/>
          <path class="cls-23" d="M8.1,16.05c.32,0,.46-.15.46-.45a1,1,0,0,0-.86-.9.61.61,0,0,0-.52.6A.94.94,0,0,0,8.1,16.05Zm-.75-.93c.06,0,.17-.19.3-.22s.58.3.57.58a.32.32,0,0,1-.21.24A.64.64,0,0,1,7.35,15.12Z"/>
          <path class="cls-23" d="M9.12,19.58a1.05,1.05,0,0,0,.88.87.51.51,0,0,0,.48-.51.94.94,0,0,0-.8-.9A.57.57,0,0,0,9.12,19.58Zm1,.31s-.11.18-.21.2-.65-.33-.62-.55a.49.49,0,0,1,.29-.35C9.83,19.11,10.13,19.48,10.15,19.89Z"/>
          <path class="cls-23" d="M7.55,17.69A4.27,4.27,0,0,0,7.1,17a.47.47,0,0,0-.67,0c-.23.16-.37.4-.19.66a1.87,1.87,0,0,0,.54.58c.36.23.71,0,.69-.48Zm-.35.09s-.14.16-.24.18-.64-.36-.59-.59A.51.51,0,0,1,6.68,17C6.89,17,7.2,17.39,7.2,17.78Z"/>
          <path class="cls-23" d="M14.31,13.66a1.66,1.66,0,0,0-.34-.25c-.35-.18-.64-.13-.8.13a.64.64,0,0,0,.2.83,1.78,1.78,0,0,0,.3.17.93.93,0,0,0,.22,0c.5.05.72-.24.55-.71l0-.15h0ZM14,14.3c-.42,0-.77-.25-.76-.49a.31.31,0,0,1,.33-.32c.25,0,.65.35.62.57S14,14.25,14,14.3Z"/>
          <path class="cls-23" d="M12.94,18.07a4.76,4.76,0,0,0-.68-.5.28.28,0,0,0-.43.22.62.62,0,0,1,.84.49c0,.2-.05.31-.26.3a.6.6,0,0,1-.58-.79.29.29,0,0,0-.2.46,3.78,3.78,0,0,0,.5.56l.13.06h.15c.47,0,.62-.15.55-.61C13,18.19,13,18.13,12.94,18.07Z"/>
          <path class="cls-23" d="M15.66,16.14a3.06,3.06,0,0,0-.58-.44.51.51,0,0,0-.72.22.59.59,0,0,0,.22.79l.22.13C15.54,17,15.75,16.84,15.66,16.14Zm-.46.47c-.41,0-.81-.24-.76-.47a.53.53,0,0,1,.31-.33c.21-.06.65.35.63.56S15.24,16.56,15.2,16.61Z"/>
          <path class="cls-23" d="M16.1,12.21l-.27-.44-.08-.06h0a1.15,1.15,0,0,0-.37,0c-.08,0-.15.12-.22.19a.38.38,0,0,1,.57.17,1.12,1.12,0,0,1,.09.38,1.22,1.22,0,0,1-.38,0c-.23-.1-.39-.27-.28-.56-.06.1-.18.2-.17.29a.82.82,0,0,0,.84.59C16.15,12.67,16.1,12.42,16.1,12.21Z"/>
          <path class="cls-23" d="M16.82,14.54,16.7,14a3.5,3.5,0,0,0-.35-.23q-.34-.2-.51.21a.45.45,0,0,1,.71.32c0,.16,0,.24-.19.24a.53.53,0,0,1-.52-.56c0,.1-.14.24-.11.29a1.76,1.76,0,0,0,.5.48A.43.43,0,0,0,16.82,14.54Z"/>
          <path class="cls-23" d="M16.93,16.93c.22,0,.5.07.57-.26a.75.75,0,0,0-.27-.77c-.07-.06-.15-.09-.22-.14l-.33.14,0,0a.43.43,0,0,1,.55.44.32.32,0,0,1-.17.27c-.18,0-.47-.29-.47-.53a.56.56,0,0,1,0-.12l-.05,0c-.2.2-.13.41,0,.61a2.1,2.1,0,0,0,.22.3l.11.07Z"/>
          <path class="cls-23" d="M14.63,18.25a.44.44,0,0,0,.14.66.61.61,0,0,0,.77.06.59.59,0,0,0-.12-.76.49.49,0,0,0-.67-.1l0,0c.33-.06.48.16.57.41s0,.29-.22.27a.52.52,0,0,1-.47-.55Z"/>
          <path class="cls-23" d="M17.76,19.35l-.25-.81c-.18,0-.36-.26-.53,0l0,0a.49.49,0,0,1,.51.57c0,.07-.18.17-.27.15a.5.5,0,0,1-.33-.62l-.05-.05a.56.56,0,0,0,.19.84A.45.45,0,0,0,17.76,19.35Z"/>
          <path class="cls-23" d="M12.4,21c-.19.15-.11.31,0,.46a.7.7,0,0,0,.74.3.44.44,0,0,0,.26-.16c.19-.29,0-.49-.21-.66s-.4-.36-.66-.07l0,0a.55.55,0,0,1,.59.34c.11.18,0,.3-.17.32a.5.5,0,0,1-.54-.52Z"/>
          <path class="cls-23" d="M15.32,22.27c-.23.23-.11.43.09.59a.51.51,0,0,0,.75,0c.2-.27,0-.43-.18-.59a.41.41,0,0,0-.66,0,.5.5,0,0,1,.61.23c0,.06.06.17,0,.2a.31.31,0,0,1-.22.09C15.45,22.78,15.32,22.61,15.32,22.27Z"/>
          <path class="cls-23" d="M14.92,20.52c0,.13-.14.31-.09.38a1.1,1.1,0,0,0,.46.37.46.46,0,0,0,.4-.1.52.52,0,0,0,0-.44c-.18-.39-.46-.49-.71-.28l0,0c.25-.07.39.09.48.28a.3.3,0,0,1,0,.26s-.18,0-.26,0a.38.38,0,0,1-.29-.5Z"/>
          <path class="cls-24" d="M14.39,13.72l0,.15c.17.47,0,.76-.55.71a.93.93,0,0,1-.22,0,1.9,1.9,0,0,0,.37.2c.35.1.65,0,.74-.27A.65.65,0,0,0,14.39,13.72Z"/>
          <path class="cls-23" d="M17.34,20.87c-.25.17-.08.35,0,.51a.56.56,0,0,0,.63.26c.25-.15.21-.38.13-.6a.46.46,0,0,0-.63-.3l0,0a.45.45,0,0,1,.45.48c0,.07-.12.18-.17.18a.47.47,0,0,1-.41-.47s0,0,0-.07Z"/>
          <path class="cls-24" d="M12.94,18.07c0,.06,0,.12,0,.19.07.46-.08.63-.55.61h-.15a.59.59,0,0,0,.85.05C13.31,18.69,13.24,18.35,12.94,18.07Z"/>
          <path class="cls-24" d="M15.66,16.14c.09.7-.12.88-.86.7a4.71,4.71,0,0,0,.59.22.42.42,0,0,0,.52-.29A.5.5,0,0,0,15.66,16.14Z"/>
          <path class="cls-23" d="M11.38,9.87c-.15.15-.13.33,0,.41a1.17,1.17,0,0,0,.59.1.43.43,0,0,0,.16-.32.94.94,0,0,0-.39-.32c-.08,0-.22,0-.33.06l0,0a.66.66,0,0,1,.25,0,1.48,1.48,0,0,1,.25.25c-.06,0-.12.13-.17.12a1.14,1.14,0,0,1-.39-.14s0-.14,0-.21Z"/>
          <path class="cls-23" d="M15,10.77a.42.42,0,0,0-.18-.57c-.18-.12-.37-.2-.54,0l0,0c.05,0,.1,0,.13,0a2.16,2.16,0,0,1,.39.22s0,.11,0,.17h-.45l0,0C14.48,10.93,14.72,10.87,15,10.77Z"/>
          <path class="cls-23" d="M14.25,10.21H14.2c0,.15-.16.35.13.41l0,0-.08-.36Z"/>
          <path class="cls-23" d="M12.52,20.87,12.4,21l0,0,.12-.14Z"/>
          <path class="cls-23" d="M14.75,18.11l-.12.14,0,0,.12-.13Z"/>
          <path class="cls-23" d="M17,18.55l-.12.07.05.05.09-.1Z"/>
          <path class="cls-24" d="M12.26,18.87l-.13-.06Z"/>
          <path class="cls-24" d="M16.93,16.94l-.11-.07Z"/>
          <path class="cls-23" d="M11.44,9.8l-.06.07,0,0,.07-.05Z"/>
          <path class="cls-23" d="M16.68,15.9l-.06.06.05,0,0-.06Z"/>
          <path class="cls-23" d="M17.46,20.74l-.06.07h0l.07-.05Z"/>
          <path class="cls-23" d="M17.4,20.81l-.06.06,0,0,.05-.07Z"/>
          <path class="cls-24" d="M14.31,13.66l.09.06Z"/>
          <path class="cls-23" d="M15,20.45l-.06.07h0l.07-.06Z"/>
          <path class="cls-27" d="M4.89,18.14c0-.33-.06-.57-.34-.56-.09,0-.26.25-.23.31a2.93,2.93,0,0,0,.38.49Z"/>
          <path class="cls-27" d="M10.94,22.54c.1-.18.22-.32.2-.34s-.32-.31-.48-.46l-.27.3Z"/>
          <path class="cls-27" d="M7.77,20.68c0-.05.14-.18.12-.21s-.3-.33-.46-.49c-.08.09-.22.18-.24.28S7.46,20.68,7.77,20.68Z"/>
          <path class="cls-27" d="M5.54,15.72l-.36-.32c-.06.09-.2.21-.18.26a1.79,1.79,0,0,0,.31.37Z"/>
          <path class="cls-27" d="M5.46,20.29c.2.13.34.23.49.31s.16-.15.16-.15a2.28,2.28,0,0,0-.37-.39A2.09,2.09,0,0,0,5.46,20.29Z"/>
          <path class="cls-22" d="M8.92,13.29,9,13.22Z"/>
          <path class="cls-22" d="M15.75,11.71l.08.06Z"/>
          <polygon class="cls-24" points="3.24 10.9 3.24 10.9 3.24 10.9 3.24 10.9"/>
          <path class="cls-26" d="M3.24,10.9l.09.06Z"/>
          <path class="cls-28" d="M4.76,11.77l.1.09h0l0,0-.13-.07Z"/>
          <path class="cls-28" d="M4.71,11.73l0,0,0,0Z"/>
          <polygon class="cls-29" points="8.59 7.08 8.6 7.08 8.6 7.08 8.59 7.07 8.59 7.08"/>
          <path class="cls-28" d="M8.45,9.17h0l0-.08s0,0,0,.06S8.44,9.17,8.45,9.17Z"/>
          <path class="cls-23" d="M10.16,17.54a.44.44,0,0,0,.47-.49,1,1,0,0,0-.87-.85.58.58,0,0,0-.51.59A.91.91,0,0,0,10.16,17.54Zm0-.33c-.37,0-.78-.28-.74-.5a.55.55,0,0,1,.32-.33c.21-.05.58.36.56.6S10.18,17.17,10.15,17.21Z"/>
          <path class="cls-23" d="M11.38,13.05a.45.45,0,0,0,.48-.45,1,1,0,0,0-.9-.82.55.55,0,0,0-.52.59A.9.9,0,0,0,11.38,13.05Zm0-.31c-.44,0-.81-.24-.76-.47a.5.5,0,0,1,.3-.3c.24-.05.67.33.64.56S11.38,12.7,11.35,12.74Z"/>
          <path class="cls-23" d="M9.88,14.62a.44.44,0,0,0,.46-.47,1,1,0,0,0-.87-.87.58.58,0,0,0-.51.57A.91.91,0,0,0,9.88,14.62Zm-.76-.93c.07,0,.17-.2.31-.22s.64.4.59.65a.23.23,0,0,1-.13.16C9.62,14.4,9.14,14.09,9.12,13.69Z"/>
          <path class="cls-23" d="M12.29,15.77a.44.44,0,0,0,.46-.47,1,1,0,0,0-.87-.87.6.6,0,0,0-.53.6A1,1,0,0,0,12.29,15.77Zm0-.3c-.36,0-.76-.31-.72-.53a.52.52,0,0,1,.31-.32c.23-.06.62.37.58.62C12.4,15.34,12.29,15.42,12.25,15.47Z"/>
          <path class="cls-23" d="M12.67,11.12a.42.42,0,0,0,.07.68c.28.22.69.25.85,0s.09-.19.06-.24a2.09,2.09,0,0,0-.46-.56.33.33,0,0,0-.52.08.59.59,0,0,1,.68.29c.11.21,0,.34-.21.33S12.62,11.52,12.67,11.12Z"/>
          <path class="cls-27" d="M7.35,15.12a.64.64,0,0,0,.66.6.32.32,0,0,0,.21-.24c0-.28-.33-.63-.57-.58S7.41,15.07,7.35,15.12Z"/>
          <path class="cls-27" d="M10.15,19.89c0-.41-.32-.78-.54-.7a.49.49,0,0,0-.29.35c0,.22.41.6.62.55S10.11,19.93,10.15,19.89Z"/>
          <path class="cls-27" d="M7.2,17.78c0-.39-.31-.8-.52-.74a.51.51,0,0,0-.31.33c0,.23.35.62.59.59S7.15,17.82,7.2,17.78Z"/>
          <path class="cls-27" d="M14,14.3c0-.05.18-.13.19-.24s-.37-.57-.62-.57a.31.31,0,0,0-.33.32C13.22,14.05,13.57,14.3,14,14.3Z"/>
          <path class="cls-27" d="M11.83,17.79a.6.6,0,0,0,.58.79c.21,0,.3-.1.26-.3a.62.62,0,0,0-.84-.49Z"/>
          <path class="cls-27" d="M15.2,16.61c0-.05.16-.14.18-.24s-.42-.62-.63-.56a.53.53,0,0,0-.31.33C14.39,16.37,14.79,16.63,15.2,16.61Z"/>
          <path class="cls-27" d="M15.17,11.87c-.11.29.05.46.28.56a1.22,1.22,0,0,0,.38,0,1.12,1.12,0,0,0-.09-.38.38.38,0,0,0-.57-.17Z"/>
          <path class="cls-27" d="M15.84,13.93a.53.53,0,0,0,.52.56c.17,0,.23-.08.19-.24a.45.45,0,0,0-.71-.32Z"/>
          <path class="cls-27" d="M16.72,15.94l0,.06a.56.56,0,0,0,0,.12c0,.24.29.57.47.53a.32.32,0,0,0,.17-.27A.43.43,0,0,0,16.72,15.94Z"/>
          <path class="cls-27" d="M14.78,18.14l-.12.13a.52.52,0,0,0,.47.55c.22,0,.29-.1.22-.27S15.11,18.08,14.78,18.14Z"/>
          <path class="cls-27" d="M17,18.57l-.09.1a.5.5,0,0,0,.33.62c.09,0,.26-.08.27-.15A.49.49,0,0,0,17,18.57Z"/>
          <path class="cls-27" d="M12.55,20.89l-.12.14a.5.5,0,0,0,.54.52c.19,0,.28-.14.17-.32A.55.55,0,0,0,12.55,20.89Z"/>
          <path class="cls-27" d="M15.32,22.27c0,.34.13.51.42.52A.31.31,0,0,0,16,22.7s0-.14,0-.2a.5.5,0,0,0-.61-.23Z"/>
          <path class="cls-27" d="M15,20.47l-.07.06a.38.38,0,0,0,.29.5c.08,0,.22,0,.26,0a.3.3,0,0,0,0-.26C15.39,20.56,15.25,20.4,15,20.47Z"/>
          <path class="cls-27" d="M17.41,20.82l-.05.07s0,.05,0,.07a.47.47,0,0,0,.41.47s.16-.11.17-.18a.45.45,0,0,0-.45-.48Z"/>
          <path class="cls-27" d="M11.47,9.84l-.07.05c0,.07,0,.19,0,.21a1.14,1.14,0,0,0,.39.14s.11-.08.17-.12a1.48,1.48,0,0,0-.25-.25A.66.66,0,0,0,11.47,9.84Z"/>
          <path class="cls-27" d="M14.27,10.23l.08.36h.45c0-.06,0-.15,0-.17a2.16,2.16,0,0,0-.39-.22S14.32,10.22,14.27,10.23Z"/>
          <path class="cls-27" d="M10.15,17.21s.13-.13.14-.23-.35-.65-.56-.6a.55.55,0,0,0-.32.33C9.37,16.93,9.78,17.23,10.15,17.21Z"/>
          <path class="cls-27" d="M11.35,12.74s.17-.11.18-.21-.4-.61-.64-.56a.5.5,0,0,0-.3.3C10.54,12.5,10.91,12.75,11.35,12.74Z"/>
          <path class="cls-27" d="M9.12,13.69c0,.4.5.71.77.59a.23.23,0,0,0,.13-.16c.05-.25-.35-.7-.59-.65S9.19,13.64,9.12,13.69Z"/>
          <path class="cls-27" d="M12.25,15.47c0-.05.15-.13.17-.23,0-.25-.35-.68-.58-.62a.52.52,0,0,0-.31.32C11.49,15.16,11.89,15.47,12.25,15.47Z"/>
          <path class="cls-27" d="M12.67,11.12c-.05.4.11.61.47.62s.32-.12.21-.33a.59.59,0,0,0-.68-.29Z"/>
        </g>
      </g>
      <g>
        <path class="cls-2" d="M46.2,10.1a2.23,2.23,0,0,1-1.44-.54l-.45-.39c-.21-.18-.4-.35-.6-.5l-.06-.05a2.07,2.07,0,0,1-1.81,1.44h-.26a1.86,1.86,0,0,1-1.47-.64,1.89,1.89,0,0,1-.35-1.6c.14-.77.31-1.53.47-2.27.07-.33.14-.64.21-.95s.07-.33.11-.5c.07-.34.15-.69.22-1a2,2,0,0,1,2-1.7h.6c.81,0,1.87,0,2.94.11a3.78,3.78,0,0,1,1.8.74,2.94,2.94,0,0,1,1.25,2,3,3,0,0,1-.69,2.28,6.29,6.29,0,0,1-.73.73,1.74,1.74,0,0,1,.31,1.31,1.78,1.78,0,0,1-.91,1.22A2.25,2.25,0,0,1,46.2,10.1ZM44.43,5A1.88,1.88,0,0,0,45,4.9l0,0h-.6Z"/>
        <path class="cls-2" d="M77.18,10.2a2,2,0,0,1-1.3-.48l-.19-.15a9.54,9.54,0,0,1-.83-.76l0-.05A1.2,1.2,0,0,1,74.7,9a1.91,1.91,0,0,1-1.21,1.06,3.05,3.05,0,0,1-.67.07,2.53,2.53,0,0,1-1.09-.23c-.7-.35-.93-1-.71-2.05.31-1.34.66-2.91,1-4.47A2.05,2.05,0,0,1,74,1.6h0a31.17,31.17,0,0,1,3.6.16,3,3,0,0,1,2.62,2.35,3.3,3.3,0,0,1-1.21,3.28L79,7.45a1.71,1.71,0,0,1,.22,1.35A1.78,1.78,0,0,1,78.09,10,2.5,2.5,0,0,1,77.18,10.2Zm-1.54-5A1.14,1.14,0,0,0,76,5.11l-.31,0Z"/>
        <path class="cls-2" d="M69.88,10.19a1.76,1.76,0,0,1-1.33-.57,1.92,1.92,0,0,1-.48-1.23l-.89,0,0,.12a2,2,0,0,1-1.8,1.59,1.88,1.88,0,0,1-.33,0,1.73,1.73,0,0,1-1.39-.59A1.84,1.84,0,0,1,63.29,8a33.49,33.49,0,0,1,.76-3.38,3.86,3.86,0,0,1,1.23-1.79,5.43,5.43,0,0,1,3.46-1.29,5.67,5.67,0,0,1,1.74.29A3,3,0,0,1,72.6,5.57c-.08.38-.17.75-.26,1.13v0c-.13.58-.27,1.17-.39,1.76a2.1,2.1,0,0,1-2.07,1.71Z"/>
        <path class="cls-2" d="M52.05,10.2l-.2,0-.5-.09a8,8,0,0,1-1.08-.22A3.14,3.14,0,0,1,48,6c.09-.42.19-.85.28-1.26h0c.12-.52.24-1,.34-1.57a2.06,2.06,0,0,1,1.69-1.69,2.61,2.61,0,0,1,.48-.05A1.69,1.69,0,0,1,52.06,2a1.82,1.82,0,0,1,.43,1.46c-.06.54-.17,1-.27,1.54,0,.21-.09.42-.13.62S52,5.86,52,6a5.7,5.7,0,0,0-.11.61l.24,0a.76.76,0,0,0,.77-.68c.07-.33.13-.65.2-1,.12-.59.24-1.2.38-1.81a2.1,2.1,0,0,1,2.1-1.68h.11a1.78,1.78,0,0,1,1.39.67,1.68,1.68,0,0,1,.31,1.44c-.26,1.29-.5,2.44-.8,3.6a3.64,3.64,0,0,1-2.2,2.34,9.48,9.48,0,0,1-1.54.5l-.53.15A1.35,1.35,0,0,1,52.05,10.2Z"/>
        <path class="cls-2" d="M59.88,10.19a1.91,1.91,0,0,1-1.81-1.35c-.54-1.5-1.08-3.08-1.61-4.7a2,2,0,0,1,.06-1.61,1.86,1.86,0,0,1,1.16-.91,2.73,2.73,0,0,1,.77-.12,1.89,1.89,0,0,1,1.83,1.36c.16.41.3.82.43,1.21l.09.25L61.89,3l.35-.44a2.22,2.22,0,0,1,1.73-1l.27,0a2.17,2.17,0,0,1,1.44.81,1.78,1.78,0,0,1-.08,1.85,10.73,10.73,0,0,1-.71,1h0l-.24.3L64,6.38c-.67.87-1.35,1.76-2,2.64a3.29,3.29,0,0,1-1,.91,2.2,2.2,0,0,1-1,.26Z"/>
        <path class="cls-2" d="M34.79,10a1.8,1.8,0,0,1-1.45-.62A1.92,1.92,0,0,1,33,7.72c.2-1.06.43-2.12.65-3.14.1-.49.2-1,.31-1.47a2,2,0,0,1,1.91-1.75c.79,0,1.6,0,2.41,0l2,0A1.65,1.65,0,0,1,42,3a1.85,1.85,0,0,1-1.53,1.82,2.56,2.56,0,0,1-.44.06,1.55,1.55,0,0,1,.44.86,1.53,1.53,0,0,1-.56,1.44,2.92,2.92,0,0,1-1.49.59c-.46,0-.9.06-1.34.07l-.18.68A2,2,0,0,1,35.13,10Z"/>
        <path class="cls-30" d="M46.2,9.66A1.83,1.83,0,0,1,45,9.22l-.44-.39c-.21-.18-.41-.35-.62-.51a1.35,1.35,0,0,0-.47-.25l-.15,0s0,.09,0,.17a1.68,1.68,0,0,1-1.52,1.41h-.21a1.43,1.43,0,0,1-1.13-.48,1.46,1.46,0,0,1-.26-1.24c.15-.76.31-1.53.48-2.27.06-.31.13-.62.2-.94,0-.16.07-.33.11-.5.08-.34.15-.69.22-1a1.56,1.56,0,0,1,1.57-1.34h.59c.8,0,1.85,0,2.9.11a3.42,3.42,0,0,1,1.59.65A2.55,2.55,0,0,1,48.91,4.3a2.54,2.54,0,0,1-.59,1.94,8.18,8.18,0,0,1-1,1h0l.16.18a1.31,1.31,0,0,1,.32,1.1,1.34,1.34,0,0,1-.68.92A1.86,1.86,0,0,1,46.2,9.66ZM43.89,5.44l.41,0h0a2.33,2.33,0,0,0,.88-.16c.26-.1.55-.28.52-.54s-.34-.32-.6-.33h-.25l-.66,0h-.08Z"/>
        <path class="cls-30" d="M77.18,9.76a1.56,1.56,0,0,1-1-.38L76,9.23a7.56,7.56,0,0,1-.79-.72.79.79,0,0,0-.59-.31h-.06a2.62,2.62,0,0,1-.22.58,1.54,1.54,0,0,1-.92.84,2.86,2.86,0,0,1-.58.06,1.91,1.91,0,0,1-.89-.19c-.74-.36-.55-1.23-.48-1.56.3-1.32.65-2.89,1-4.47A1.62,1.62,0,0,1,74,2h0a29.91,29.91,0,0,1,3.54.16,2.52,2.52,0,0,1,2.25,2,2.83,2.83,0,0,1-1.08,2.85,2.88,2.88,0,0,1-.39.3l.08.1a1.4,1.4,0,0,1,.33,1.23,1.36,1.36,0,0,1-.87.91A1.91,1.91,0,0,1,77.18,9.76ZM75.1,5.58a3.56,3.56,0,0,0,.43,0h0a1.54,1.54,0,0,0,1-.38c.22-.17.26-.3.26-.32s-.09-.11-.34-.17a4.75,4.75,0,0,0-1.07-.13h-.12Z"/>
        <path class="cls-30" d="M69.88,9.75a1.33,1.33,0,0,1-1-.43,1.51,1.51,0,0,1-.35-1.17l0-.21L66.85,8a3,3,0,0,0-.12.43A1.63,1.63,0,0,1,65.3,9.7H65a1.25,1.25,0,0,1-1-.44,1.35,1.35,0,0,1-.25-1.19,31.32,31.32,0,0,1,.76-3.33,3.36,3.36,0,0,1,1.07-1.58,4.87,4.87,0,0,1,4.79-.92,2.55,2.55,0,0,1,1.83,3.22c-.09.39-.17.77-.26,1.15-.13.58-.27,1.18-.39,1.77a1.61,1.61,0,0,1-1.1,1.27A1.7,1.7,0,0,1,69.88,9.75ZM68.54,4.63a1.38,1.38,0,0,0-.62.14c-.28.15-.44.29-.47.55l1.69-.05c.1-.28.06-.37,0-.49A.86.86,0,0,0,68.54,4.63Z"/>
        <path class="cls-30" d="M52.05,9.76h-.11l-.52-.09a8.54,8.54,0,0,1-1-.21,2.68,2.68,0,0,1-2-3.34c.08-.42.18-.85.27-1.27s.24-1,.35-1.57a1.6,1.6,0,0,1,1.33-1.35,2.85,2.85,0,0,1,.4,0,1.28,1.28,0,0,1,1,.41,1.38,1.38,0,0,1,.32,1.12,14.67,14.67,0,0,1-.26,1.5c0,.21-.09.42-.13.63s0,.23-.07.34a5,5,0,0,0-.13.72c0,.27,0,.34.36.41a1.24,1.24,0,0,0,.33,0,1.19,1.19,0,0,0,1.2-1c.07-.33.13-.66.2-1,.12-.58.24-1.19.38-1.79A1.68,1.68,0,0,1,55.6,1.9h.09a1.4,1.4,0,0,1,1.07.5A1.31,1.31,0,0,1,57,3.49c-.26,1.27-.5,2.42-.8,3.56a3.16,3.16,0,0,1-2,2.06,9.23,9.23,0,0,1-1.47.47l-.54.15Z"/>
        <path class="cls-30" d="M59.88,9.75a1.49,1.49,0,0,1-1.4-1.06C58,7.2,57.41,5.62,56.88,4a1.56,1.56,0,0,1,0-1.26,1.4,1.4,0,0,1,.89-.7,2.17,2.17,0,0,1,.64-.1A1.47,1.47,0,0,1,59.87,3c.15.4.29.8.43,1.19s.2.6.31.9l0,.09a3.11,3.11,0,0,0,.23-.28c.46-.56.92-1.14,1.36-1.71l.35-.43A1.82,1.82,0,0,1,64,2h.21a1.68,1.68,0,0,1,1.14.62A1.41,1.41,0,0,1,65.23,4a8.3,8.3,0,0,1-.69.93l-.25.32-.66.87c-.67.86-1.35,1.76-2,2.63a3,3,0,0,1-.91.79A1.68,1.68,0,0,1,59.88,9.75Z"/>
        <path class="cls-30" d="M34.79,9.56a1.36,1.36,0,0,1-1.11-.46,1.52,1.52,0,0,1-.24-1.3c.2-1,.43-2.11.65-3.13.1-.49.21-1,.31-1.47a1.55,1.55,0,0,1,1.49-1.4q1.19,0,2.4,0l2,0A1.22,1.22,0,0,1,41.57,3a1.43,1.43,0,0,1-1.19,1.38,2.46,2.46,0,0,1-.57.06h-1c-.34,0-.61,0-.86,0h-.37a1.1,1.1,0,0,0-.24,0,1.21,1.21,0,0,0,0,.23l1.3.11h.08a2.28,2.28,0,0,1,.59.1,1.22,1.22,0,0,1,.79.92,1.11,1.11,0,0,1-.4,1,2.52,2.52,0,0,1-1.27.49,12.41,12.41,0,0,1-1.48.07h-.15l-.27,1a1.54,1.54,0,0,1-1.4,1.16l-.29,0Z"/>
        <path class="cls-11" d="M46.44,7.18a8,8,0,0,1,.58.59.68.68,0,0,1-.2,1.11,1.16,1.16,0,0,1-1.4-.13c-.36-.29-.7-.62-1.08-.91a2,2,0,0,0-.69-.35c-.6-.14-.76,0-.92.57a1.1,1.1,0,0,1-1,1c-.69.07-1.08-.31-.95-1,.2-1.07.45-2.13.68-3.19.11-.52.23-1,.33-1.56a1,1,0,0,1,1-.85c1.15,0,2.3,0,3.44.1a2.75,2.75,0,0,1,1.28.55,1.84,1.84,0,0,1,.36,2.79A13.05,13.05,0,0,1,46.44,7.18ZM43.16,5.92a3.76,3.76,0,0,0,2.24,0c.64-.25,1-.67.9-1.17s-.46-.82-1.16-.86c-.47,0-.94,0-1.51,0Z"/>
        <path class="cls-11" d="M77.45,7.27c.24.24.41.39.56.57a.71.71,0,0,1-.3,1.21,1.09,1.09,0,0,1-1.16-.13,9.09,9.09,0,0,1-.93-.82,1.35,1.35,0,0,0-1.55-.4,4.41,4.41,0,0,1-.28.79c-.12.21-.3.5-.51.54A1.76,1.76,0,0,1,72.19,9c-.3-.14-.23-.55-.15-.88.33-1.5.67-3,1-4.49a1,1,0,0,1,1-.94,29.36,29.36,0,0,1,3.51.16,1.92,1.92,0,0,1,1.74,1.54,2.28,2.28,0,0,1-.89,2.27A9.36,9.36,0,0,1,77.45,7.27ZM74.84,4,74.4,6A2.55,2.55,0,0,0,77,5.72c.74-.6.61-1.29-.3-1.54A11.91,11.91,0,0,0,74.84,4Z"/>
        <path class="cls-11" d="M69.24,7.31l-2.85.1c-.07.27-.17.57-.24.87a1,1,0,0,1-.93.82c-.68.09-1-.23-.91-.91a32.91,32.91,0,0,1,.74-3.27,2.75,2.75,0,0,1,.87-1.28,4.33,4.33,0,0,1,4.23-.82,2,2,0,0,1,1.43,2.53c-.21,1-.44,1.94-.65,2.92a1,1,0,0,1-.7.82.79.79,0,0,1-1.11-.87C69.15,8,69.19,7.7,69.24,7.31Zm.3-1.46c.23-.49.43-1,0-1.46a1.75,1.75,0,0,0-1.91-.15,1.32,1.32,0,0,0-.72,1.7Z"/>
        <path class="cls-11" d="M52.05,9.16c-.58-.11-1-.16-1.49-.29A2.09,2.09,0,0,1,49,6.23c.2-1,.44-1.89.62-2.85a1,1,0,0,1,.87-.87c.65-.13,1.06.18,1,.84s-.25,1.39-.38,2.08a8.62,8.62,0,0,0-.2,1.13.87.87,0,0,0,.83,1,1.81,1.81,0,0,0,2.24-1.45c.19-.93.36-1.85.57-2.77a1.1,1.1,0,0,1,1.15-.88c.54,0,.84.34.73.87-.24,1.18-.48,2.37-.79,3.53A2.62,2.62,0,0,1,54,8.56,15.73,15.73,0,0,1,52.05,9.16Z"/>
        <path class="cls-11" d="M60.48,6.32c.35-.41.62-.71.87-1l1.7-2.14a1.16,1.16,0,0,1,1-.56,1.12,1.12,0,0,1,.72.37.84.84,0,0,1-.1.71c-.26.43-.6.81-.9,1.21-.9,1.16-1.79,2.34-2.7,3.49A2.41,2.41,0,0,1,60.4,9,.9.9,0,0,1,59,8.49q-.82-2.32-1.59-4.68c-.21-.63,0-1,.53-1.19a.93.93,0,0,1,1.33.62c.26.68.49,1.38.74,2.07C60.16,5.61,60.3,5.89,60.48,6.32Z"/>
        <path class="cls-11" d="M36.71,5.19l1.82.16a1.77,1.77,0,0,1,.52.08.52.52,0,0,1,.22.91,1.88,1.88,0,0,1-1,.37c-.67.07-1.35.06-2,.08L35.9,8.22A1,1,0,0,1,35,9c-.76.09-1.13-.27-1-1,.3-1.54.63-3.06.95-4.59.11-.51.38-.92.92-.93,1.45,0,2.89,0,4.34,0,.34,0,.72.13.73.61a.85.85,0,0,1-.72.78,2.12,2.12,0,0,1-.44,0c-.62,0-1.24,0-1.86,0C36.76,3.75,36.63,3.87,36.71,5.19Z"/>
      </g>
      <g>
        <path class="cls-2" d="M73.8,22.17A5.3,5.3,0,0,1,72.68,22a2.4,2.4,0,0,1-1.29-.66l-.27.15A4.49,4.49,0,0,1,70,22a3.25,3.25,0,0,1-.89.13,2.2,2.2,0,0,1-1.58-.62,5.67,5.67,0,0,1-.85.38,3.92,3.92,0,0,1-1.17.21,2.35,2.35,0,0,1-1.48-.51l-.13.07a3.41,3.41,0,0,1-1.68.46H62a2.62,2.62,0,0,1-1.89-1A2.56,2.56,0,0,1,59.67,19,4.45,4.45,0,0,1,60,18c.1-.23.21-.45.31-.67s.23-.47.33-.69v0c.29-.69.58-1.39.81-2.08A2,2,0,0,1,63.18,13l.26,0a2.18,2.18,0,0,1,1.89,1.09A1.84,1.84,0,0,1,67,13a2.52,2.52,0,0,1,.52.06,2.23,2.23,0,0,1,1.46,1A1.83,1.83,0,0,1,70.71,13h.18a2.28,2.28,0,0,1,1.73,1,1.73,1.73,0,0,1,1.6-1h.11c.86,0,1.74.06,2.58.09l1,0a1.94,1.94,0,0,1,1.62.89,1.82,1.82,0,0,1,.21.47l0,0a8,8,0,0,1,3.43-1.41,4.56,4.56,0,0,1,.72-.06,3.67,3.67,0,0,1,1.34.24,2.2,2.2,0,0,1,1.4,2.7,8.31,8.31,0,0,1-.44,1.26c-.08.19-.17.37-.25.56a1.26,1.26,0,0,1,.51.63c.21.6.33,1.77-1.2,2.87a3.76,3.76,0,0,1-2.19.78,2.91,2.91,0,0,1-1.32-.31l-.36.13a5,5,0,0,1-1.36.21,3,3,0,0,1-2.22-.94,8.15,8.15,0,0,1-3.81,1Z"/>
        <path class="cls-2" d="M36.91,22.08a2.17,2.17,0,0,1-1.66-.72l-.28.13a6.33,6.33,0,0,1-2.54.58,4.89,4.89,0,0,1-1.21-.15,3.46,3.46,0,0,1-.93-.36,2.91,2.91,0,0,1-1.05-1l-.12-.24A3.19,3.19,0,0,1,29,18.14a6.07,6.07,0,0,1,.93-2,7.83,7.83,0,0,1,.86-1,7.68,7.68,0,0,1,2.17-1.6,5.67,5.67,0,0,1,1.37-.46,3.94,3.94,0,0,1,.77-.08,3.39,3.39,0,0,1,.64.06A2.29,2.29,0,0,1,37,13.8c.26-.64.49-1.26.7-1.88a5.49,5.49,0,0,0,.21-.75,1.8,1.8,0,0,1,1.68-1.39h.19a2.25,2.25,0,0,1,1.7.75,2.11,2.11,0,0,1,.26.35,1.76,1.76,0,0,1,1.69-1.1h.23a2.3,2.3,0,0,1,1.61.82,2.24,2.24,0,0,1,.45,1.73,5.59,5.59,0,0,1-.34,1.28c-.14.34-.28.69-.43,1a8.47,8.47,0,0,1,3.52-1.54,4.43,4.43,0,0,1,.87-.09,3.78,3.78,0,0,1,1.3.22A2.19,2.19,0,0,1,52.11,16a15.06,15.06,0,0,1-.63,1.67l0,.08h0a1.19,1.19,0,0,1,.57.78,2.63,2.63,0,0,1-1.45,2.84,3.71,3.71,0,0,1-2,.67,3.16,3.16,0,0,1-1.33-.31,5.33,5.33,0,0,1-1,.25l-.56,0a5.15,5.15,0,0,1-1.18-.14,2.41,2.41,0,0,1-1.2-.68,5.13,5.13,0,0,1-1.89.79,3.76,3.76,0,0,1-.71.08,2.28,2.28,0,0,1-1.62-.63,6.19,6.19,0,0,1-1.13.47,3.52,3.52,0,0,1-1,.16Z"/>
        <path class="cls-2" d="M25.21,22.33a7.42,7.42,0,0,1-2.1-.31,2.59,2.59,0,0,1-1.47-1,2,2,0,0,1-.12-.21,2.45,2.45,0,0,1,0-2c.17-.47.37-.91.57-1.34h0c.06-.15.13-.29.19-.43.21-.46.41-.93.62-1.39.32-.7.63-1.4.94-2.1h0a1.79,1.79,0,0,1-.32-1.7c0-.08.05-.16.08-.23a4.55,4.55,0,0,1,.25-.59,1.87,1.87,0,0,1,1.79-1.08h.06l1.27-.05.34,0,.26,0,.83,0h.44a5.85,5.85,0,0,1,.87.06,3.07,3.07,0,0,1,2.14,1.29,3.11,3.11,0,0,1,.36,2.52,5.12,5.12,0,0,1-1.55,2.52l0,0a2.24,2.24,0,0,1,.24.55A2.77,2.77,0,0,1,31,18.11a4.53,4.53,0,0,1-1.11,2.31,4.43,4.43,0,0,1-1,.81,6.72,6.72,0,0,1-2.47,1,6,6,0,0,1-.84.11Z"/>
        <path class="cls-2" d="M57,22.33a4.34,4.34,0,0,1-1.32-.2,3.4,3.4,0,0,1-2.43-3.05A2.46,2.46,0,0,1,54,17.3a2.74,2.74,0,0,1,1.91-.88,2,2,0,0,1,.42,0,4.1,4.1,0,0,1,.63-4.9,5.38,5.38,0,0,1,3.25-1.93,4.43,4.43,0,0,1,.8-.08,3.77,3.77,0,0,1,2,.58,2.44,2.44,0,0,1,1.18,1.67,2.48,2.48,0,0,1-.57,2,2.7,2.7,0,0,1-1.89,1.1h-.1a1.19,1.19,0,0,1-1.07-.66l-.19-.36a.56.56,0,0,0-.07.54,5.46,5.46,0,0,0,.37.71l0,0c.1.17.22.35.34.53l.38.59A3.44,3.44,0,0,1,61.36,20,5.22,5.22,0,0,1,57,22.33Z"/>
        <path class="cls-30" d="M73.8,21.73a5.3,5.3,0,0,1-1-.12,1.73,1.73,0,0,1-1.27-.82c-.19.13-.39.24-.59.35a4.53,4.53,0,0,1-1,.39,3.32,3.32,0,0,1-.78.11,1.78,1.78,0,0,1-1.49-.74l-.13.08a5.31,5.31,0,0,1-1,.44,3.33,3.33,0,0,1-1,.19A2,2,0,0,1,64.1,21l-.39.23a3,3,0,0,1-1.47.4H62a2.14,2.14,0,0,1-1.58-.84,2.11,2.11,0,0,1-.31-1.72,4.6,4.6,0,0,1,.31-.93c.1-.23.21-.44.31-.65s.24-.49.34-.72v0c.29-.69.59-1.41.82-2.11a1.55,1.55,0,0,1,1.34-1.15h.21a1.72,1.72,0,0,1,1.53.91,2,2,0,0,1,.21,1.29l.39-1A1.61,1.61,0,0,1,67,13.44a2.18,2.18,0,0,1,.42.05,1.78,1.78,0,0,1,1.41,2.07v.06c.16-.37.3-.72.42-1a1.52,1.52,0,0,1,1.44-1.12h.15A1.72,1.72,0,0,1,72.51,15a3.38,3.38,0,0,1-.06.9l.13-.25a3.11,3.11,0,0,0,.12-.39c0-.11,0-.21.08-.33l0-.12c.05-.17.11-.36.19-.56a1.26,1.26,0,0,1,1.21-.78h.09c.86,0,1.74.06,2.59.09l1,0a1.53,1.53,0,0,1,1.27.68,1.44,1.44,0,0,1,.14,1.15,6.43,6.43,0,0,1,.72-.57,7.47,7.47,0,0,1,3.24-1.34,5,5,0,0,1,.65-.05,3.25,3.25,0,0,1,1.18.21,1.77,1.77,0,0,1,1.14,2.18A8.3,8.3,0,0,1,85.78,17c-.14.34-.3.68-.45,1a.66.66,0,0,1,.3.07.73.73,0,0,1,.4.44c.21.59.2,1.47-1,2.36a3.3,3.3,0,0,1-1.93.7,2.58,2.58,0,0,1-1.29-.35c-.17.06-.34.13-.52.18a4.09,4.09,0,0,1-1.23.2,2.61,2.61,0,0,1-2.14-1.07A7.49,7.49,0,0,1,74,21.73ZM82,17a3.57,3.57,0,0,0-.88,1.47,1.23,1.23,0,0,0-.06.39.22.22,0,0,0,.16-.15l.25-.54C81.67,17.75,81.85,17.36,82,17Zm-4.28.36-1,1a2.68,2.68,0,0,0,1-1Z"/>
        <path class="cls-30" d="M51.69,15.89a1.75,1.75,0,0,0-1.16-2.24,3.2,3.2,0,0,0-1.15-.2,3.56,3.56,0,0,0-.78.08,7.48,7.48,0,0,0-5,3.23c.46-1.09.94-2.21,1.4-3.32a5,5,0,0,0,.3-1.17A1.78,1.78,0,0,0,45,10.88a1.83,1.83,0,0,0-1.29-.66h-.2a1.38,1.38,0,0,0-1.39,1.1l-.12.42a3.66,3.66,0,0,1-.21.66l-.36.84a4.88,4.88,0,0,0,.23-1,1.74,1.74,0,0,0-.42-1.39,1.85,1.85,0,0,0-1.38-.61h-.16a1.35,1.35,0,0,0-1.28,1.06c-.08.32-.14.57-.22.79-.3.89-.66,1.78-1.06,2.7a1.82,1.82,0,0,0-1.46-1.25,3.43,3.43,0,0,0-.56,0,3.08,3.08,0,0,0-.68.07,5.29,5.29,0,0,0-1.27.43,7.16,7.16,0,0,0-2.05,1.51,7.79,7.79,0,0,0-.81,1,5.46,5.46,0,0,0-.86,1.81,2.75,2.75,0,0,0,.11,1.87,1.24,1.24,0,0,0,.1.2,2.45,2.45,0,0,0,.89.86,3.7,3.7,0,0,0,.81.32,4.67,4.67,0,0,0,1.11.13,5.89,5.89,0,0,0,2.37-.55,5,5,0,0,0,.57-.28,1.75,1.75,0,0,0,1.54.84,3.4,3.4,0,0,0,.89-.14A6.77,6.77,0,0,0,39,21l.16-.08a1.84,1.84,0,0,0,1.52.73,3.68,3.68,0,0,0,.62-.07,5.09,5.09,0,0,0,2.06-.95,2,2,0,0,0,1.22.84,4.32,4.32,0,0,0,1.08.13,4,4,0,0,0,1.56-.31h0a2.66,2.66,0,0,0,1.29.35,3.29,3.29,0,0,0,1.78-.6,2.24,2.24,0,0,0,1.26-2.38.76.76,0,0,0-.36-.49.68.68,0,0,0-.39-.11h0c.08-.17.16-.34.23-.52A13.9,13.9,0,0,0,51.69,15.89Zm-5.13,2.94v0a2.38,2.38,0,0,1,0-.26,3.8,3.8,0,0,1,.9-1.54l-.76,1.69S46.7,18.78,46.56,18.83Z"/>
        <path class="cls-30" d="M31.76,13.54a2.52,2.52,0,0,0-2.15-3.27,6.35,6.35,0,0,0-.8,0h-.42l-.83,0-.25,0H27.2l-.24,0c-.44,0-.86,0-1.29,0h-.06a1.44,1.44,0,0,0-1.4.83,4.35,4.35,0,0,0-.22.54c0,.07,0,.15-.08.22a1.34,1.34,0,0,0,.42,1.47l-.12.28c-.31.7-.62,1.4-.94,2.1-.2.46-.41.93-.62,1.39l-.19.43a13.08,13.08,0,0,0-.56,1.32,2,2,0,0,0,0,1.66l.1.17a2.12,2.12,0,0,0,1.23.82,6.83,6.83,0,0,0,2,.3h.33a6.82,6.82,0,0,0,.79-.1,6.53,6.53,0,0,0,2.31-.93,4.49,4.49,0,0,0,.88-.74,4.36,4.36,0,0,0,.41-.55A4.61,4.61,0,0,0,30.52,18a2.28,2.28,0,0,0-.05-1.14,1.82,1.82,0,0,0-.2-.45,2,2,0,0,0-.24-.33A4.93,4.93,0,0,0,31.76,13.54ZM26,18.1a3,3,0,0,1,.56-.06,2,2,0,0,1,.62.1l.05,0s0,0,0,.05a1,1,0,0,1-.6.64A1.5,1.5,0,0,1,26,19a1.64,1.64,0,0,1-.38,0Zm1.5-3.68.26-.78.6-.05a.78.78,0,0,1-.1.15A2.6,2.6,0,0,1,27.52,14.42Z"/>
        <path class="cls-30" d="M57,21.89a3.85,3.85,0,0,1-1.19-.18,3,3,0,0,1-2.12-2.65,2,2,0,0,1,.62-1.45,2.27,2.27,0,0,1,1.59-.75,1.52,1.52,0,0,1,.42.06,1.35,1.35,0,0,1,.8.85,3.88,3.88,0,0,1,.1.49,1,1,0,0,0,0,.23c.09.24.19.24.24.24h.11a.3.3,0,0,0,.24-.35,2.38,2.38,0,0,0-.23-.64c-.14-.27-.32-.52-.5-.8L57,16.71a3.69,3.69,0,0,1,.32-4.86,4.93,4.93,0,0,1,3-1.78A4.51,4.51,0,0,1,61,10a3.29,3.29,0,0,1,1.78.51,1.91,1.91,0,0,1,.5,3,2.24,2.24,0,0,1-1.58.94h-.07A.77.77,0,0,1,61,14l-.18-.36a.47.47,0,0,0-.38-.3.48.48,0,0,0-.37.25,1,1,0,0,0-.14.94,5.59,5.59,0,0,0,.42.79l0,0c.11.18.22.36.35.54s.25.38.37.58a3,3,0,0,1,0,3.26A4.8,4.8,0,0,1,57,21.89Z"/>
        <path class="cls-30" d="M71.55,13.84a1.46,1.46,0,0,1-1.31-2.11,2.25,2.25,0,0,1,2.05-1.48h0a1.47,1.47,0,0,1,1.19.56,1.4,1.4,0,0,1,.16,1.28,2.4,2.4,0,0,1-1.49,1.64A2,2,0,0,1,71.55,13.84Z"/>
        <path class="cls-31" d="M74,15.68c-.3.56-.56,1.11-.88,1.64a7.53,7.53,0,0,1-2.86,2.93,3.76,3.76,0,0,1-.83.32,1.27,1.27,0,0,1-1.78-1c-.27.18-.53.37-.8.53a4.92,4.92,0,0,1-.81.37,1.5,1.5,0,0,1-2.06-.7c-.3.19-.6.39-.91.56a2.25,2.25,0,0,1-1.29.31A1.27,1.27,0,0,1,60.57,19a4.23,4.23,0,0,1,.27-.78c.2-.47.45-.91.65-1.38.3-.73.61-1.45.85-2.2a.78.78,0,0,1,.71-.62,1,1,0,0,1,1,.48,1.13,1.13,0,0,1,.09.93c-.15.4-.31.79-.48,1.18-.29.64-.61,1.26-.89,1.91a4.56,4.56,0,0,0-.18.77c.48.17.73-.1,1-.31a7.14,7.14,0,0,0,1.61-2.21c.33-.66.6-1.36.87-2s.48-.81,1-.7a1,1,0,0,1,.82,1.19,4.18,4.18,0,0,1-.26.85c-.36.82-.74,1.63-1.1,2.44-.1.23-.26.46,0,.72a1.11,1.11,0,0,0,.88-.42A5.56,5.56,0,0,0,68.71,17c.37-.77.69-1.56,1-2.35.2-.49.38-.66.82-.63a1,1,0,0,1,.94.8,2.27,2.27,0,0,1-.14,1c-.35.88-.76,1.75-1.14,2.63-.09.22-.16.46-.23.68a.53.53,0,0,0,.75-.09,7.94,7.94,0,0,0,1.09-1.16A22.8,22.8,0,0,0,73,15.76a3.91,3.91,0,0,0,.26-.84,6.21,6.21,0,0,1,.2-.61A.51.51,0,0,1,74,14c1.19.06,2.38.09,3.57.13a.66.66,0,0,1,.65,1,2.12,2.12,0,0,1-.41.57L75,18.43l-.76.71a3.51,3.51,0,0,0,3.81-1.58,7.38,7.38,0,0,1,2.07-2.31A6.91,6.91,0,0,1,83.08,14a2.86,2.86,0,0,1,1.45.12,1,1,0,0,1,.66,1.27,6.92,6.92,0,0,1-.38,1.08c-.3.68-.63,1.35-.93,2a4.87,4.87,0,0,0-.2.67c.68.17.92-.45,1.36-.63.18.52-.08,1-.77,1.49a2,2,0,0,1-2.69.11c-.27.1-.54.23-.82.31a2.15,2.15,0,0,1-2.93-1.22s-.09,0-.12,0a6.12,6.12,0,0,1-4,1.45,3.93,3.93,0,0,1-1-.1c-.85-.17-1.06-.73-.54-1.44a8.49,8.49,0,0,1,1-1c.68-.64,1.38-1.26,2.06-1.9.2-.19.38-.4.63-.66Zm6.66,3.73a1.11,1.11,0,0,0,1-.63L82.93,16c.09-.21.27-.45,0-.65s-.48-.08-.72,0l-.16.09a4.59,4.59,0,0,0-2,2.52,2.31,2.31,0,0,0-.1.87C80.06,19.23,80.29,19.4,80.67,19.41Z"/>
        <path class="cls-31" d="M49.19,19.23c.68.14.91-.5,1.38-.64.12.58-.18,1.08-.93,1.57a2,2,0,0,1-2.55.05,8.11,8.11,0,0,1-1.29.37,3.89,3.89,0,0,1-1.32-.08,1.69,1.69,0,0,1-1.13-1.28l-.4.31a4.81,4.81,0,0,1-2.08,1.07,1.28,1.28,0,0,1-1.69-1,3.66,3.66,0,0,1-.42.26,8.83,8.83,0,0,1-1.44.65c-1.06.3-1.54,0-1.86-1-.42.22-.82.46-1.24.64a4.52,4.52,0,0,1-3,.38,1.72,1.72,0,0,1-1.36-2.32,5.43,5.43,0,0,1,1.48-2.42,5.62,5.62,0,0,1,2.92-1.73,2.48,2.48,0,0,1,.94,0,1.06,1.06,0,0,1,.9,1.31,2.12,2.12,0,0,1-.26.78,4.21,4.21,0,0,1-2.69,2.08,5.4,5.4,0,0,1-1.07.08,1,1,0,0,0,1.2,1.16,3.86,3.86,0,0,0,2.93-1.95,38.4,38.4,0,0,0,2.38-5.42,8.42,8.42,0,0,0,.24-.86.61.61,0,0,1,.6-.48,1,1,0,0,1,1.14,1.14,3.87,3.87,0,0,1-.27,1c-.71,1.7-1.44,3.4-2.16,5.1-.11.26-.23.5-.32.76s-.05.31,0,.35a.51.51,0,0,0,.4.06,1.49,1.49,0,0,0,.49-.28A4.27,4.27,0,0,0,40,17.43q1.11-2.48,2.18-5a11.77,11.77,0,0,0,.36-1.15c.14-.46.34-.59.79-.55a1,1,0,0,1,1,1.18,4.17,4.17,0,0,1-.26,1c-.66,1.61-1.34,3.21-2,4.82-.16.37-.34.73-.48,1.11s0,.47.35.38a1.64,1.64,0,0,0,.55-.3,4.84,4.84,0,0,0,1.27-1.5,6.71,6.71,0,0,1,4.78-3.38,2.77,2.77,0,0,1,1.51.09,1,1,0,0,1,.69,1.31A14.36,14.36,0,0,1,50.09,17c-.23.55-.5,1.08-.74,1.63A4,4,0,0,0,49.19,19.23Zm-3.67-.69c0,.74.34,1,.95.82a1.08,1.08,0,0,0,.71-.6c.39-.89.8-1.78,1.2-2.67a1.78,1.78,0,0,0,.17-.41c.07-.27-.06-.44-.32-.41a1.38,1.38,0,0,0-.6.2,4.65,4.65,0,0,0-2,2.61A3,3,0,0,0,45.52,18.54Zm-13-1.4A2.65,2.65,0,0,0,34.29,16c.16-.21.36-.43.17-.79C33.41,15.46,33,16.3,32.53,17.14Z"/>
        <path class="cls-31" d="M28.47,15.89l.38.24a1.38,1.38,0,0,1,.64,1.54A3.37,3.37,0,0,1,28,20a5.51,5.51,0,0,1-4.77.64A1.12,1.12,0,0,1,22.35,19c.2-.58.48-1.14.73-1.7.52-1.16,1.05-2.32,1.56-3.49.13-.29.22-.59.34-.92a2.76,2.76,0,0,1-.35-.19.6.6,0,0,1-.26-.72,5.18,5.18,0,0,1,.26-.65.68.68,0,0,1,.71-.4c.93,0,1.87-.09,2.8-.13a5.55,5.55,0,0,1,1.08,0,1.75,1.75,0,0,1,1.52,2.32,4.18,4.18,0,0,1-1.58,2.26C29,15.55,28.75,15.69,28.47,15.89Zm-4.08,3.19a2.25,2.25,0,0,0,3-.28,2,2,0,0,0,.3-.55.73.73,0,0,0-.5-1.05,3.19,3.19,0,0,0-1.76,0,.4.4,0,0,0-.28.21C24.88,17.93,24.64,18.49,24.39,19.08Zm2.55-6.38L26,15.46A4.23,4.23,0,0,0,28.62,14a1.86,1.86,0,0,0,.27-.5c.18-.55,0-.88-.63-.88S27.34,12.67,26.94,12.7Z"/>
        <path class="cls-31" d="M61.36,13.44l-.19-.36a1.15,1.15,0,0,0-2.06-.14,1.72,1.72,0,0,0-.22,1.64,5.16,5.16,0,0,0,.5,1c.23.38.49.75.72,1.13a2.22,2.22,0,0,1,0,2.47,4,4,0,0,1-4.3,1.62,2.18,2.18,0,0,1-1.59-2,1.54,1.54,0,0,1,1.66-1.37c.12,0,.23.22.28.36s.07.51.16.74a1,1,0,0,0,1.25.7,1,1,0,0,0,.81-1.2,2.7,2.7,0,0,0-.31-.89c-.2-.37-.45-.72-.68-1.08a2.94,2.94,0,0,1,.27-4,4.1,4.1,0,0,1,2.53-1.5,2.69,2.69,0,0,1,2,.33,1.15,1.15,0,0,1,.31,1.85A1.45,1.45,0,0,1,61.36,13.44Z"/>
        <path class="cls-31" d="M72,10.8a.59.59,0,0,1,.63.84,1.7,1.7,0,0,1-1,1.15.78.78,0,0,1-.88-.16.72.72,0,0,1-.08-.84A1.48,1.48,0,0,1,72,10.8Z"/>
      </g>
      <path class="cls-32" d="M88,12a.64.64,0,0,1,.24.25.76.76,0,0,1,0,.72.64.64,0,0,1-.24.25.71.71,0,0,1-.36.09.68.68,0,0,1-.35-.09A.6.6,0,0,1,87,13a.76.76,0,0,1,0-.72.6.6,0,0,1,.25-.25.68.68,0,0,1,.35-.09A.71.71,0,0,1,88,12Zm0,1a.63.63,0,0,0,0-.84.53.53,0,0,0-.41-.16.54.54,0,0,0-.41.16.66.66,0,0,0,0,.84.54.54,0,0,0,.41.16A.53.53,0,0,0,88,13.07Zm-.15-.43a.22.22,0,0,1-.14.08L88,13h-.18l-.19-.3H87.5V13h-.15v-.75h.33a.28.28,0,0,1,.18.06.24.24,0,0,1,.07.17A.22.22,0,0,1,87.88,12.64Zm-.38,0h.16a.14.14,0,0,0,.09,0,.1.1,0,0,0,0-.14.13.13,0,0,0-.09,0H87.5Z"/>
      <g>
        <path class="cls-33" d="M27.05,24a1.32,1.32,0,0,1,.46-.39,1.27,1.27,0,0,1,.58-.14.92.92,0,0,1,.62.2.79.79,0,0,1,.27.56h-.57a.35.35,0,0,0-.15-.2A.44.44,0,0,0,28,24a.57.57,0,0,0-.42.17.75.75,0,0,0-.23.44,1,1,0,0,0,0,.15.5.5,0,0,0,.12.35.45.45,0,0,0,.33.12.59.59,0,0,0,.29-.07.69.69,0,0,0,.22-.2h.57a1.18,1.18,0,0,1-.46.55,1.3,1.3,0,0,1-.7.2,1,1,0,0,1-.48-.11.77.77,0,0,1-.32-.3,1,1,0,0,1-.11-.46,1.79,1.79,0,0,1,0-.23A1.45,1.45,0,0,1,27.05,24Z"/>
        <path class="cls-33" d="M31.08,25.26h-.8l-.2.39h-.55l1.16-2.16h.61l.4,2.16h-.56Zm-.06-.4-.13-.8-.41.8Z"/>
        <path class="cls-33" d="M34.33,23.64a.48.48,0,0,1,.17.39.61.61,0,0,1,0,.14.72.72,0,0,1-.19.38.84.84,0,0,1-.4.24l.35.86h-.6l-.3-.82h-.13l-.14.82h-.53l.38-2.16h.89A.78.78,0,0,1,34.33,23.64Zm-.37.48A.2.2,0,0,0,33.9,24a.36.36,0,0,0-.19,0h-.33l-.09.54h.32a.32.32,0,0,0,.23-.07.31.31,0,0,0,.11-.2A.26.26,0,0,0,34,24.12Z"/>
        <path class="cls-33" d="M37.11,25.65h-.53l-.64-1.34-.24,1.34h-.53l.39-2.16h.52l.64,1.33L37,23.49h.53Z"/>
        <path class="cls-33" d="M38.94,23.9l-.08.45h.7l-.07.4h-.7l-.09.48h.8l-.07.42H38.1l.39-2.16h1.32l-.08.41Z"/>
        <path class="cls-33" d="M40.67,25.52a.51.51,0,0,1-.22-.44.28.28,0,0,1,0-.08H41a.23.23,0,0,0,.26.25.36.36,0,0,0,.19-.05.2.2,0,0,0,.07-.15.19.19,0,0,0-.09-.16l-.27-.14a2.15,2.15,0,0,1-.3-.14.54.54,0,0,1-.19-.18.42.42,0,0,1-.08-.28.57.57,0,0,1,.1-.37.6.6,0,0,1,.3-.24,1,1,0,0,1,.44-.08,1.18,1.18,0,0,1,.39.06.79.79,0,0,1,.27.2.54.54,0,0,1,.09.31v.07h-.56v0a.2.2,0,0,0-.06-.14.25.25,0,0,0-.16-.05.3.3,0,0,0-.18.05.18.18,0,0,0-.07.15.21.21,0,0,0,.09.16,1.16,1.16,0,0,0,.26.14l.3.16a.6.6,0,0,1,.2.19.5.5,0,0,1,.08.29.59.59,0,0,1-.1.34.61.61,0,0,1-.29.23,1.06,1.06,0,0,1-.45.09A1,1,0,0,1,40.67,25.52Z"/>
        <path class="cls-33" d="M46.08,25.14l.43.51h-.62l-.16-.2a1.36,1.36,0,0,1-.76.23.86.86,0,0,1-.53-.15.48.48,0,0,1-.2-.4.7.7,0,0,1,.16-.44,1,1,0,0,1,.43-.3.51.51,0,0,1-.1-.29.57.57,0,0,1,.1-.34.73.73,0,0,1,.27-.22.87.87,0,0,1,.4-.08.69.69,0,0,1,.43.12.41.41,0,0,1,.15.32s0,.06,0,.1h-.5s0,0,0,0a.13.13,0,0,0,0-.09.17.17,0,0,0-.1,0,.25.25,0,0,0-.15.05.22.22,0,0,0,0,.14.46.46,0,0,0,.12.26l.43.51.06-.08.15-.2h.52l-.19.27A2.93,2.93,0,0,1,46.08,25.14Zm-.62,0-.4-.46a.53.53,0,0,0-.2.15.32.32,0,0,0-.08.2.19.19,0,0,0,.08.16.36.36,0,0,0,.22.07A.66.66,0,0,0,45.46,25.14Z"/>
        <path class="cls-33" d="M49,24a1.2,1.2,0,0,1,.45-.39,1.31,1.31,0,0,1,.59-.14,1,1,0,0,1,.62.2.79.79,0,0,1,.27.56h-.58a.33.33,0,0,0-.14-.2A.46.46,0,0,0,50,24a.57.57,0,0,0-.43.17.74.74,0,0,0-.22.44,1,1,0,0,0,0,.15.5.5,0,0,0,.12.35.45.45,0,0,0,.33.12.55.55,0,0,0,.28-.07.6.6,0,0,0,.22-.2h.58a1.24,1.24,0,0,1-.46.55,1.3,1.3,0,0,1-.7.2.92.92,0,0,1-.48-.11.72.72,0,0,1-.32-.3,1,1,0,0,1-.11-.46,1.79,1.79,0,0,1,0-.23A1.45,1.45,0,0,1,49,24Z"/>
        <path class="cls-33" d="M52.17,25.55a.76.76,0,0,1-.32-.32.88.88,0,0,1-.11-.47,1.39,1.39,0,0,1,.16-.68,1.24,1.24,0,0,1,.45-.46,1.34,1.34,0,0,1,.66-.16,1,1,0,0,1,.49.11.74.74,0,0,1,.32.31.94.94,0,0,1,.12.47,1.37,1.37,0,0,1-.17.68,1.2,1.2,0,0,1-.45.47,1.36,1.36,0,0,1-.67.17A1,1,0,0,1,52.17,25.55Zm.92-.47a.81.81,0,0,0,.24-.28.85.85,0,0,0,.08-.39.5.5,0,0,0-.12-.35.47.47,0,0,0-.34-.12.61.61,0,0,0-.36.1.65.65,0,0,0-.24.28.82.82,0,0,0-.09.38.45.45,0,0,0,.13.35.42.42,0,0,0,.34.13A.61.61,0,0,0,53.09,25.08Z"/>
        <path class="cls-33" d="M56.43,23.64a.48.48,0,0,1,.18.39.61.61,0,0,1,0,.14.81.81,0,0,1-.19.38.84.84,0,0,1-.4.24l.34.86h-.59l-.3-.82h-.13l-.14.82h-.53L55,23.49h.88A.74.74,0,0,1,56.43,23.64Zm-.36.48A.21.21,0,0,0,56,24a.3.3,0,0,0-.18,0h-.33l-.1.54h.33a.33.33,0,0,0,.23-.07.36.36,0,0,0,.11-.2A.35.35,0,0,1,56.07,24.12Z"/>
        <path class="cls-33" d="M59.22,23.49l-.07.41h-.58l-.31,1.75h-.52L58,23.9h-.57l.08-.41Z"/>
        <path class="cls-33" d="M60.55,23.9l-.08.45h.71l-.07.4H60.4l-.09.48h.8l-.07.42H59.71l.39-2.16h1.32l-.07.41Z"/>
        <path class="cls-33" d="M62.28,25.52a.53.53,0,0,1-.22-.44.28.28,0,0,1,0-.08h.55a.21.21,0,0,0,.05.18.24.24,0,0,0,.2.07.36.36,0,0,0,.19-.05.2.2,0,0,0,.07-.15.19.19,0,0,0-.09-.16l-.27-.14a1.58,1.58,0,0,1-.29-.14.57.57,0,0,1-.2-.18.49.49,0,0,1-.08-.28.64.64,0,0,1,.1-.37.6.6,0,0,1,.3-.24,1,1,0,0,1,.44-.08,1.14,1.14,0,0,1,.39.06.64.64,0,0,1,.27.2.54.54,0,0,1,.09.31v.07h-.56v0a.2.2,0,0,0-.06-.14.25.25,0,0,0-.16-.05.35.35,0,0,0-.18.05.18.18,0,0,0-.07.15.21.21,0,0,0,.09.16,1.16,1.16,0,0,0,.26.14l.3.16a.6.6,0,0,1,.2.19.43.43,0,0,1,.08.29.59.59,0,0,1-.1.34.61.61,0,0,1-.29.23,1.06,1.06,0,0,1-.45.09A1,1,0,0,1,62.28,25.52Z"/>
      </g>
    </g>
  </g>
</svg>
