<svg xmlns="http://www.w3.org/2000/svg" viewBox="0 0 93.11 27.08">
  <defs>
    <style>
      .cls-1 {
        fill: #23401d;
      }

      .cls-2 {
        fill: #28451e;
      }

      .cls-3 {
        fill: #2d5123;
      }

      .cls-4 {
        fill: #483215;
      }

      .cls-5 {
        fill: #26451e;
      }

      .cls-6 {
        fill: #21602b;
      }

      .cls-7 {
        fill: #245225;
      }

      .cls-8 {
        fill: #31381a;
      }

      .cls-9 {
        fill: #7cb928;
      }

      .cls-10 {
        fill: #7fba28;
      }

      .cls-11 {
        fill: #289938;
      }

      .cls-12 {
        fill: #72b62f;
      }

      .cls-13 {
        fill: #82bb26;
      }

      .cls-14 {
        fill: #815b13;
      }

      .cls-15 {
        fill: #6b4910;
      }

      .cls-16 {
        fill: #4dad33;
      }

      .cls-17 {
        fill: #64a530;
      }

      .cls-18 {
        fill: #9bc42c;
      }

      .cls-19 {
        fill: #a1c630;
      }

      .cls-20 {
        fill: #2e5324;
      }

      .cls-21 {
        fill: #fdfdfd;
      }

      .cls-22 {
        fill: #da0e15;
      }

      .cls-23 {
        fill: #b31917;
      }

      .cls-24 {
        fill: #eb7a7f;
      }

      .cls-25 {
        fill: #60b22f;
      }

      .cls-26 {
        fill: #348a35;
      }

      .cls-27 {
        fill: #f1872c;
      }

      .cls-28 {
        fill: #0d1111;
      }

      .cls-29 {
        fill: #cfe9ee;
      }

      .cls-30 {
        fill: #fff;
      }

      .cls-31 {
        fill: #e00814;
      }
    </style>
  </defs>
  <g id="Capa_2" data-name="Capa 2">
    <g id="Capa_1-2" data-name="Capa 1">
      <g>
        <path class="cls-1" d="M18.85,25.14l-.47.21-.72.13-.31-.15-.11-.06-.19-.09,0,0-.11-.06-.72-.51h0l-.28-.2h0l-.14-.1h0l-.14-.09-.84-.59.41-.35c.28.22.57.43.86.62h0l.4.25.25.15c.37.2.74.39,1.13.56l.06,0,.32.13h0A2.06,2.06,0,0,0,18.85,25.14Z"/>
        <path class="cls-1" d="M25,24.46a7.55,7.55,0,0,0,.94.12A8.32,8.32,0,0,1,22.32,26a3.36,3.36,0,0,1-1.22-.08,7,7,0,0,0-1-.15,4.15,4.15,0,0,0,.76-.61l.34.09a2.6,2.6,0,0,0,1.17.1A9.6,9.6,0,0,0,25,24.46Z"/>
        <path class="cls-2" d="M27.76,8.66l-.24.06-.13,0L26.07,9c.33.13.68.23,1,.39H27a3.68,3.68,0,0,0-.89.12l-.87-.27a2.39,2.39,0,0,0-2,.06L23,9l.12-.18-.82-.05c0-.13,0-.26,0-.39l1,.09a4.18,4.18,0,0,0,0-.5,6.84,6.84,0,0,1,.21-2.7l0-.06s0,0,0,0c.18-.09.22.1.34.14s0,.08,0,.12A6.74,6.74,0,0,0,23.6,7.5a1.59,1.59,0,0,0,.06.3h.09a4.88,4.88,0,0,1,1-1.83c.14.1.29.19.44.28a1.29,1.29,0,0,1-.09.16,3.14,3.14,0,0,0-.64,1.69c0,.39.11.48.5.49a9.76,9.76,0,0,0,2.4-.37C27.32,8.5,27.54,8.58,27.76,8.66Z"/>
        <path class="cls-2" d="M28.68,10.85l-.14.12h0l-.11-.1Z"/>
        <path class="cls-3" d="M14,9.3l.44.08-.06,0-.06,0-.18.14-.1.07-.23.19,0,0-.09.09,0,0-.11.1-.07.07-.06.06-.07.09a.46.46,0,0,0-.07.07l-.07.08-.06.08h0l-.06.08L13,10.7l-.05.06-.09.13a.22.22,0,0,1,0,.08l-.05.07,0,.07,0,.06-.09.16-.08.14c0,.09-.09.19-.13.29l0,.08,0,.1,0,.09-.06.14a.56.56,0,0,1,0,.12.14.14,0,0,1,0,.07l0,.06a.14.14,0,0,1,0,.06l0,.13v0l0,.11v0l0,.13h0v0A.69.69,0,0,0,12,13l0,.13s0,.07,0,.11v0a.52.52,0,0,0,0,.11.28.28,0,0,0,0,.09v0l0,.2a1.36,1.36,0,0,1,0,.2.34.34,0,0,1,0,.1c0,.07,0,.13,0,.2v.3a.28.28,0,0,1,0,.09h0v.39a.61.61,0,0,0,0,.14A14.58,14.58,0,0,0,12,16.94l-.1,0L12,17c0,.09,0,.18,0,.27h0l-.12.1h0l0,0-.2.18a12,12,0,0,1-.19-4c0-.1,0-.19,0-.29s.05-.28.08-.42.05-.2.07-.29l.06-.21a5.1,5.1,0,0,1,.19-.55,5.57,5.57,0,0,1,.46-1,1.4,1.4,0,0,0,.1-.16h0l0,0a1,1,0,0,1,.08-.11l.12-.17a5.85,5.85,0,0,1,.4-.47,5.11,5.11,0,0,1,.42-.39A3.25,3.25,0,0,1,14,9.3Z"/>
        <path class="cls-3" d="M21.55,8.71c-.31,0-.63-.06-.94-.12a10.26,10.26,0,0,0-4.13-.05h-.09l-.07,0-.21,0-.12,0-.11,0-.06,0h0l-.39-.16c.24-.08.48-.16.73-.22a10.29,10.29,0,0,1,4.28-.1c.36,0,.74.08,1.11.12C21.54,8.47,21.55,8.59,21.55,8.71Z"/>
        <path class="cls-4" d="M21.53,8.21c-.1-.46-.19-.93-.32-1.38A3.43,3.43,0,0,0,19.64,4.7a.65.65,0,0,1-.3-.9A1.47,1.47,0,0,1,21.19,3a.75.75,0,0,1,.35.43,13,13,0,0,1,.62,3.14c0,.53.05,1.07.08,1.6l-.24,0c0-.48-.05-1-.11-1.45-.09-.72-.19-1.43-.32-2.13-.09-.42-.25-.82-.37-1.24A1.34,1.34,0,0,0,21,3.19a1.24,1.24,0,0,0-1.06.21,1.32,1.32,0,0,0-.34.46c-.1.23,0,.38.27.35a1.36,1.36,0,0,0,1.29-.8s.05,0,.07,0c-.09.21-.19.42-.29.63l-.1.17-.71.37A5.43,5.43,0,0,1,21.67,8.2Z"/>
        <path class="cls-5" d="M11.67,17.61l.2-.18L12,17.3a14.54,14.54,0,0,0,.88,2.86,7.36,7.36,0,0,0,1.18,1.93l1.1,1.17-.41.35a8.77,8.77,0,0,1-2.11-2.8A11.67,11.67,0,0,1,11.67,17.61Z"/>
        <path class="cls-6" d="M28,1.24A10.74,10.74,0,0,1,30.46.77,3,3,0,0,0,32.23.14c.27-.22.35-.19.46.15a4.77,4.77,0,0,1,.17,2.12c-.09.64-.24,1.27-.39,1.89a5,5,0,0,1-.26.7.35.35,0,0,1-.32-.29.58.58,0,0,1,0-.14A7.54,7.54,0,0,0,32.4,1c0-.39-.12-.44-.49-.29a8.45,8.45,0,0,1-.85.28,4.21,4.21,0,0,1-.62.09c-.23,0-.48,0-.71.06L28,1.48Z"/>
        <path class="cls-7" d="M31.89,4.7a.35.35,0,0,0,.32.3,5.74,5.74,0,0,1-3.46,3.34c-.33.12-.66.21-1,.32-.22-.08-.44-.16-.44-.44l1-.33a4.87,4.87,0,0,0,2.92-2.11C31.48,5.43,31.67,5.06,31.89,4.7Z"/>
        <path class="cls-7" d="M28,1.24l0,.24-.68.29a5.82,5.82,0,0,0-3.5,3.56c-.12,0-.16-.23-.34-.14A4.84,4.84,0,0,1,25,2.87,8.18,8.18,0,0,1,28,1.24Z"/>
        <path class="cls-8" d="M22,8.14l.24,0v.61l0,.81L23,9l.31.29-.38.29a3.25,3.25,0,0,0-.39.35.74.74,0,0,1-.91.2.23.23,0,0,1-.11-.36,1.56,1.56,0,0,0,.1-.37l0-.71v-.5h.14c0,.49,0,1,.07,1.46a.69.69,0,0,0,.14.25c0-.08.12-.16.13-.24C22,9.16,22,8.65,22,8.14Z"/>
        <path class="cls-7" d="M27.39,8.76l.13,0Z"/>
        <path class="cls-5" d="M21.4,23.93l.12,0Z"/>
        <path class="cls-5" d="M21.77,24l.12,0Z"/>
        <path class="cls-7" d="M23.46,5.23l0,.06Z"/>
        <path class="cls-9" d="M20.83,22.86h0l0,.1a2.82,2.82,0,0,1-1.44,1.93c-.16.09-.34.17-.51.25a2.06,2.06,0,0,1-.64-.15h0l-.32-.13-.06,0c-.39-.17-.76-.36-1.13-.56l-.25-.15-.4-.25h0c-.29-.19-.58-.4-.86-.62l-1.1-1.17v-.3L15,21s0-.15-.06-.25c.15.12.3.23.45.36l.51.4.11.08.22.15h0l.34.2a6.14,6.14,0,0,0,1.75.69l.51.09.21,0,.28,0,.23,0h.89l.4,0S20.83,22.82,20.83,22.86Z"/>
        <path class="cls-9" d="M24.07,24.22a8.42,8.42,0,0,0,1,.24,9.6,9.6,0,0,1-2.67.86,2.6,2.6,0,0,1-1.17-.1l-.34-.09a3.92,3.92,0,0,0,1-1.86v0a1.14,1.14,0,0,0,.06-.45v-.05A3.7,3.7,0,0,0,24.07,24.22Z"/>
        <path class="cls-10" d="M24.64,10.42a2.83,2.83,0,0,0-.47.71,7.23,7.23,0,0,0-.41,1h-.34a5.43,5.43,0,0,1-.55.06c-.49,0-1-.11-1.47-.17s-.86-.35-1.28-.54a3.08,3.08,0,0,1-.52-.37l.16-.17h0l.33-.34.16-.17a1.59,1.59,0,0,1,.21-.15h0c.24.17.48.34.73.5A1,1,0,0,0,22,11c.34-.1.69-.22,1-.34A4.1,4.1,0,0,1,24.64,10.42Z"/>
        <path class="cls-10" d="M26.1,9.52a3.06,3.06,0,0,0-1.23.66,6.53,6.53,0,0,0-1.25,0c-.1-.11-.19-.24-.3-.34a3.62,3.62,0,0,0-.43-.24l.38-.29a2.39,2.39,0,0,1,2-.06Z"/>
        <path class="cls-11" d="M28.33,7.89l-1,.33a9.76,9.76,0,0,1-2.4.37c-.39,0-.51-.1-.5-.49a3.14,3.14,0,0,1,.64-1.69,1.29,1.29,0,0,0,.09-.16,9.51,9.51,0,0,1,.79-.88,15.43,15.43,0,0,1,3.34-2.14A18.57,18.57,0,0,0,31.15,2.1a5.64,5.64,0,0,0,.75-.79c0,.08.08.16.06.22a2.65,2.65,0,0,1-1.09,1.6c-.7.46-1.43.86-2.15,1.29a3.88,3.88,0,0,0-1.37,1.36,1.28,1.28,0,0,0,.27,1.69A5.53,5.53,0,0,0,28.33,7.89Z"/>
        <path class="cls-12" d="M23.81,5.33a5.82,5.82,0,0,1,3.5-3.56L28,1.48l1.74-.38c.23,0,.48,0,.71-.06l-.39.11a10.18,10.18,0,0,0-3.89,1.73,2.44,2.44,0,0,0-1,1.05,1.86,1.86,0,0,0,0,1.48L24.71,6a4.88,4.88,0,0,0-1,1.83h-.08a1.09,1.09,0,0,1-.07-.3,6.74,6.74,0,0,1,.19-2S23.8,5.37,23.81,5.33Z"/>
        <path class="cls-7" d="M24.71,6l.46-.56a11.51,11.51,0,0,1,2.46-1.68c1-.53,2.05-1,3.07-1.6a3,3,0,0,0,.58-.42c.24-.2.46-.42.69-.64h0l-.09.23a5.64,5.64,0,0,1-.75.79,18.57,18.57,0,0,1-1.87,1.13,15.43,15.43,0,0,0-3.34,2.14,9.51,9.51,0,0,0-.79.88Z"/>
        <path class="cls-10" d="M23,9l-.67.58,0-.81.82.05Z"/>
        <path class="cls-13" d="M14.39,9.38a6.55,6.55,0,0,1,1,.37l-.07,0-.06,0-.13,0,0,0L15,9.9l-.06,0-.08,0h0l-.05,0-.06,0h0l-.08,0-.11.07-.06,0-.08.05-.08.06-.08.06-.06,0,0,0-.06.05-.06.06-.06.05,0,.05-.05,0-.06.07-.09.09-.06.08-.07.08c-.09.13-.18.25-.26.38a.35.35,0,0,0-.05.08l-.06.09h0l0,.09-.06.11,0,.08L13,12A.36.36,0,0,1,13,12l0,.11,0,.07-.12.33a.19.19,0,0,0,0,.07,2.17,2.17,0,0,0-.07.24.24.24,0,0,0,0,.08l0,.07s0,.05,0,.08a2,2,0,0,0,0,.26s0,.05,0,.08,0,.06,0,.09a.22.22,0,0,0,0,.08v0a.17.17,0,0,1,0,.07c0,.18,0,.35,0,.53v.41s0,.09,0,.14v0c0,.05,0,.09,0,.13a.76.76,0,0,1,0,.15.77.77,0,0,1,0,.15v0a.77.77,0,0,1,0,.15v0a2.23,2.23,0,0,0,0,.23v.08s0,.08,0,.11a.78.78,0,0,1,0,.14.5.5,0,0,1,0,.12s0,.05,0,.07,0,.07,0,.1l0,.15v0a.75.75,0,0,0,0,.16l0,.15,0,.12,0,.12c0,.05,0,.1,0,.15s0,.08,0,.13l0,.11.06.16a.49.49,0,0,0,0,.11s0,.08,0,.12,0,.09,0,.13l.1.24.06.13a1,1,0,0,1,0,.1c.06.13.12.25.19.38l.05.08c0,.09.09.17.14.26h0l.21.34h0l0,0a3.74,3.74,0,0,0,.36.45,1.87,1.87,0,0,0,.2.29c.14.18.29.35.44.52s.05.2.06.25l-.91.8v.3a7.36,7.36,0,0,1-1.18-1.93l-.15-.35c-.06-.15-.12-.3-.17-.44s-.1-.3-.14-.45l0-.14c-.14-.49-.26-1-.37-1.48h0c0-.09,0-.18,0-.27v-.09a14.58,14.58,0,0,1-.15-1.75.61.61,0,0,1,0-.14v-.39h0a.28.28,0,0,0,0-.09v-.3c0-.07,0-.13,0-.2a.34.34,0,0,0,0-.1,1.36,1.36,0,0,0,0-.2l0-.2v0a.28.28,0,0,1,0-.09.52.52,0,0,1,0-.11v0s0-.07,0-.11L12,13a.69.69,0,0,1,0-.13v0h0l0-.13v0l0-.11v0l0-.13a.14.14,0,0,0,0-.06l0-.06a.64.64,0,0,0,0-.07.56.56,0,0,0,0-.12l.06-.14,0-.09,0-.1,0-.08c0-.1.09-.2.13-.29l.08-.14.09-.16,0-.06,0-.07.05-.07a.22.22,0,0,0,0-.08l.09-.13L13,10.7l.06-.08.06-.08h0l.06-.08.07-.08a.46.46,0,0,1,.07-.07l.07-.09.06-.06.07-.07.11-.1,0,0,.09-.09,0,0L14,9.67l.1-.07.18-.14.06,0Z"/>
        <path class="cls-13" d="M21.55,8.71l0,.71a7,7,0,0,0-.91.08,1.32,1.32,0,0,0-.43.21,3.88,3.88,0,0,0-1.44-.52c0,.07,0,.09.06.11l.1,0,1.28.72a1.2,1.2,0,0,1,.22.23,1.59,1.59,0,0,0-.21.15l-.66.68-.15-.08c-.46-.33-.89-.67-1.36-1L18,10l-.07,0h0l-.06,0h0l-.07,0-.06,0-.18-.07,0,0a7.15,7.15,0,0,0-1.67-1h0l.06,0,.11,0,.12,0,.21,0,.07,0h.09a10.26,10.26,0,0,1,4.13.05C20.92,8.65,21.24,8.67,21.55,8.71Z"/>
        <path class="cls-5" d="M12,16.94V17l-.11,0Z"/>
        <path class="cls-14" d="M21.88,9.91a.69.69,0,0,1-.14-.25c0-.48,0-1-.07-1.46A5.43,5.43,0,0,0,20.1,4.54l.71-.37a1.53,1.53,0,0,1,.31.37,6.12,6.12,0,0,1,.35.93,15.26,15.26,0,0,1,.39,2.86C21.9,8.86,21.87,9.39,21.88,9.91Z"/>
        <path class="cls-15" d="M21.88,9.91c0-.52,0-1.05,0-1.58a15.26,15.26,0,0,0-.39-2.86,6.12,6.12,0,0,0-.35-.93,1.53,1.53,0,0,0-.31-.37l.1-.17c.1-.21.2-.42.29-.63V3.32c.12.42.28.82.37,1.24.13.7.23,1.41.32,2.13.06.48.07,1,.11,1.45s0,1,0,1.53C22,9.75,21.92,9.83,21.88,9.91Z"/>
        <path class="cls-14" d="M21.2,3.32v.05s-.07,0-.07,0a1.36,1.36,0,0,1-1.29.8c-.25,0-.37-.12-.27-.35a1.32,1.32,0,0,1,.34-.46A1.24,1.24,0,0,1,21,3.19,1.34,1.34,0,0,1,21.2,3.32Z"/>
        <path class="cls-16" d="M32,1.07c-.23.22-.45.44-.69.64a3,3,0,0,1-.58.42c-1,.55-2,1.07-3.07,1.6a11.51,11.51,0,0,0-2.46,1.68,1.86,1.86,0,0,1,0-1.48,2.44,2.44,0,0,1,1-1.05,10.18,10.18,0,0,1,3.89-1.73L30.44,1A4.21,4.21,0,0,0,31.06,1a8.45,8.45,0,0,0,.85-.28c.37-.15.45-.1.49.29a7.54,7.54,0,0,1-.48,3.61.58.58,0,0,0,0,.14c-.22.35-.41.72-.64,1.07a4.87,4.87,0,0,1-2.92,2.11,5.53,5.53,0,0,1-.71-.42,1.28,1.28,0,0,1-.27-1.69,3.88,3.88,0,0,1,1.37-1.36c.72-.43,1.45-.83,2.15-1.29A2.65,2.65,0,0,0,32,1.53c0-.06,0-.14-.06-.22L32,1.08,32,1l0,0V1Z"/>
        <path class="cls-17" d="M20.24,9.71a1.32,1.32,0,0,1,.43-.21,7,7,0,0,1,.91-.08,1.56,1.56,0,0,1-.1.37.23.23,0,0,0,.11.36.74.74,0,0,0,.91-.2,3.25,3.25,0,0,1,.39-.35,3.62,3.62,0,0,1,.43.24c.11.1.2.23.3.34l-1.15.3a1.35,1.35,0,0,1-.95-.07C21.08,10.2,20.66,9.94,20.24,9.71Z"/>
        <path class="cls-18" d="M20.84,22.74l-.4,0h-.89l-.23,0-.28,0-.21,0-.51-.09a6.14,6.14,0,0,1-1.75-.69l-.34-.2h0L16,21.58l-.11-.08-.51-.4c-.15-.13-.3-.24-.45-.36s-.3-.34-.44-.52a1.87,1.87,0,0,1-.2-.29l.17-.22L16.1,18l.13-.15.29-.3h0l.23-.26c.33-.35.66-.7,1-1.06l.11-.12c.29-.3.57-.61.85-.92l.3-.32c.12.66.22,1.33.32,2a13.79,13.79,0,0,0,1,3.86A4.32,4.32,0,0,1,20.84,22.74Z"/>
        <path class="cls-18" d="M23.91,14.34c-.25.57-.51,1.14-.76,1.7s-.44,1-.65,1.46l-.2.44c-.21.46-.45,1-.64,1.51a4.65,4.65,0,0,0-.24,1l-.12-.27a11.57,11.57,0,0,1-.85-3.26l-.05-.29c0-.21-.07-.43-.1-.64-.11-.71-.23-1.45-.38-2.18l1.32-1.43A1.33,1.33,0,0,0,21.4,12c.49.06,1,.13,1.47.17a5.43,5.43,0,0,0,.55-.06h.34A3,3,0,0,0,23.91,14.34Z"/>
        <path class="cls-19" d="M20.12,11.5a4.6,4.6,0,0,1-.53-.37l-.15-.08c-.46-.33-.89-.67-1.36-1L18,10l-.07,0h0l-.06,0h0l-.07,0-.06,0-.18-.07a6.89,6.89,0,0,1,2.35,3.76,2.38,2.38,0,0,1,.05.26l1.32-1.43A1.33,1.33,0,0,0,21.4,12C21,11.86,20.54,11.69,20.12,11.5ZM15.44,9.75l-.07,0-.06,0-.13,0,0,0L15,9.9l-.06,0-.08,0h0l-.05,0-.06,0h0l-.08,0-.11.07-.06,0-.08.05-.08.06-.08.06-.06,0,0,0-.06.05-.06.06-.06.05,0,.05-.05,0-.06.07-.09.09-.06.08-.07.08c-.09.13-.18.25-.26.38a.35.35,0,0,0-.05.08l-.06.09h0l0,.09-.06.11,0,.08L13,12A.36.36,0,0,1,13,12l0,.11,0,.07-.12.33a.19.19,0,0,0,0,.07,2.17,2.17,0,0,0-.07.24.24.24,0,0,0,0,.08l0,.07s0,.05,0,.08a2,2,0,0,0,0,.26s0,.05,0,.08,0,.06,0,.09v.17c0,.18,0,.35,0,.53v.41s0,.09,0,.14v0c0,.05,0,.09,0,.13a.76.76,0,0,1,0,.15.77.77,0,0,1,0,.15v0l0,.15v0a2.23,2.23,0,0,0,0,.23v.08s0,.08,0,.11a.78.78,0,0,1,0,.14.5.5,0,0,1,0,.12s0,.05,0,.07,0,.07,0,.1l0,.15v0a.75.75,0,0,0,0,.16l0,.15,0,.12,0,.12c0,.05,0,.1,0,.15s0,.08,0,.13l0,.11.06.16a.49.49,0,0,0,0,.11s0,.08,0,.12,0,.08,0,.13l.1.24.06.13a1,1,0,0,1,0,.1c.06.13.12.25.19.38l.05.08c0,.09.09.17.14.26h0l.21.34h0l0,0a3.74,3.74,0,0,0,.36.45l.17-.22L16.1,18l.13-.15.29-.3h0l.23-.26c.33-.35.66-.7,1-1.06l.11-.12c.29-.3.57-.61.85-.92l.3-.32c-.06-.35-.13-.69-.2-1A6.1,6.1,0,0,0,15.44,9.75Zm-.5,1.36,0,0,0,0,.08-.07a.08.08,0,0,1,0,0l0,0,.1-.07h0l.05,0,.05,0,.06,0,.05,0,.12,0h0l.07,0,.13,0h0l.13,0h.14l.46.07c.19.05.37.12.41.35,0,0,0,0,0,.05v0h0v0h0a0,0,0,0,1,0,0,0,0,0,0,1,0,0v0l-.06.08h0a.2.2,0,0,1-.07.06l0,0-.07,0-.08,0-.15.07-.05,0-.44.16h0l-.18.06h0a1.18,1.18,0,0,1-.67,0,.36.36,0,0,1-.23-.61h0Z"/>
        <path class="cls-20" d="M24.87,10.18l-.23.24a4.1,4.1,0,0,0-1.59.27c-.34.12-.69.24-1,.34a1,1,0,0,1-.83-.23c-.25-.16-.49-.33-.73-.5l0,0,0,0-.06-.07,0,0-.06,0L19,9.35l-.1,0s0,0-.06-.11h.31l.07,0h0l.08,0,.07,0,.05,0,.15.05.09,0,.08,0,.09,0,.17.08.16.08.09.05c.42.23.84.49,1.28.7a1.35,1.35,0,0,0,.95.07l1.15-.3A6.53,6.53,0,0,1,24.87,10.18Z"/>
        <path class="cls-7" d="M32,1.07,32,1h0l0,.1Z"/>
        <path class="cls-7" d="M32,1V1l0,0Z"/>
        <path class="cls-21" d="M16.14,10.51l.46.07c.19.05.37.12.41.35a.41.41,0,0,1-.27.42,7.27,7.27,0,0,1-.92.35,1.18,1.18,0,0,1-.67,0,.36.36,0,0,1-.23-.61A1.81,1.81,0,0,1,16.14,10.51Z"/>
        <g>
          <path class="cls-2" d="M20.3,20.67a13.79,13.79,0,0,1-1-3.86c-.1-.66-.2-1.33-.32-2-.06-.35-.13-.69-.2-1a6.1,6.1,0,0,0-3.35-4,6.55,6.55,0,0,0-1-.37L14,9.3a5.44,5.44,0,0,0-3.29.52.6.6,0,0,1-.16,0,5.24,5.24,0,0,0-1.44-3.1c-.33-.46-.64-.93-1-1.41-.16-.23-.33-.25-.41,0a15.37,15.37,0,0,0-.47,1.77,7.93,7.93,0,0,0-.06,1.14,5.71,5.71,0,0,1-.82-2.56A1,1,0,0,0,6,5.78c-.11.06-.18.19-.27.29h0l0,.07,0,0,0,0a5.37,5.37,0,0,0-.76,2.55c0,.45,0,.9,0,1.35-.39,0-.8,0-1.2.06a7.54,7.54,0,0,0-2.56.91c-.31.22-.64.43-.94.67a1,1,0,0,0-.19.32l.33.12.26.05,2.34.6s0,.08,0,.11l-.49.23a3.91,3.91,0,0,0-2.25,3.7.37.37,0,0,0,.12.25s.19,0,.23-.08A4.08,4.08,0,0,1,3.1,15.84l.49-.09a14.24,14.24,0,0,0-.34,1.8,5.3,5.3,0,0,0,1,3.37,10,10,0,0,0,6.15,4.22,18.1,18.1,0,0,0,7.25.34l.72-.13.47-.21c.17-.08.35-.16.51-.25A2.82,2.82,0,0,0,20.8,23l0-.1h0s0-.08,0-.12A4.32,4.32,0,0,0,20.3,20.67Zm-4.94,3.54A14.81,14.81,0,0,1,10,23.47a8.23,8.23,0,0,1-4.46-3.36A5.25,5.25,0,0,1,5,19.29H5a4.4,4.4,0,0,1-.25-.75,3.36,3.36,0,0,1,.15-2l.35-.09.34-.1c.38-.1.76-.21,1.15-.34l.65-.21.33-.13.42-.19.6-.3.3-.16L9.21,15a2.92,2.92,0,0,0,.27-.17l.19-.15a1.7,1.7,0,0,0,.33-.41l0,0,.1-.18.15-.29.47-.9.47-.94v0a6,6,0,0,0,.26-.62c0-.07,0-.13.08-.19l.06,0,.15,0,.11,0,.16-.06,0,0,.13,0,.15,0,.16,0h0l.27,0H13a3.51,3.51,0,0,1,.79.06,3.9,3.9,0,0,1,1.14.37l.19.1h0a3.13,3.13,0,0,1,.34.21l.35.26a4.54,4.54,0,0,1,.63.61,5.19,5.19,0,0,1,.53.79h0a4.17,4.17,0,0,1,.24.58,5.64,5.64,0,0,1,.25.94q.09.41.15.84c0,.15.05.31.07.48l0,.24c0,.11,0,.22.05.33l0,.16,0,.13a.17.17,0,0,0,0,.07c0,.23.07.45.11.68s0,.2.05.3A.78.78,0,0,0,18,18h0c.09.51.19,1,.33,1.53.08.33.18.65.29,1a9.88,9.88,0,0,0,.59,1.35l.06.2v0a1.43,1.43,0,0,1,0,.68,1.09,1.09,0,0,1-.61.78l0,0-.07,0-.14.06,0,0-.15.07-.05,0,0,0-.06,0,0,0-.17.07h-.12l-.75.11-.62.07-.15,0h0l-.68.05h-.26ZM4.3,11.57h.21a1.07,1.07,0,0,0-.19.18h0l0,0a.71.71,0,0,0-.1.14l-.07,0-.52-.23A3.47,3.47,0,0,1,4.3,11.57Zm12.82-1.9.15,0Zm-.15,0,.15,0Z"/>
          <path class="cls-2" d="M20.3,20.67a13.79,13.79,0,0,1-1-3.86c-.1-.66-.2-1.33-.32-2-.06-.35-.13-.69-.2-1a6.1,6.1,0,0,0-3.35-4,6.55,6.55,0,0,0-1-.37L14,9.3a5.44,5.44,0,0,0-3.29.52.6.6,0,0,1-.16,0,5.24,5.24,0,0,0-1.44-3.1c-.33-.46-.64-.93-1-1.41-.16-.23-.33-.25-.41,0a15.37,15.37,0,0,0-.47,1.77,7.93,7.93,0,0,0-.06,1.14,5.71,5.71,0,0,1-.82-2.56A1,1,0,0,0,6,5.78c-.11.06-.18.19-.27.29h0l0,.07,0,0,0,0a5.37,5.37,0,0,0-.76,2.55c0,.45,0,.9,0,1.35-.39,0-.8,0-1.2.06a7.54,7.54,0,0,0-2.56.91c-.31.22-.64.43-.94.67a1,1,0,0,0-.19.32l.33.12.26.05,2.34.6s0,.08,0,.11l-.49.23a3.91,3.91,0,0,0-2.25,3.7.37.37,0,0,0,.12.25s.19,0,.23-.08A4.08,4.08,0,0,1,3.1,15.84l.49-.09a14.24,14.24,0,0,0-.34,1.8,5.3,5.3,0,0,0,1,3.37,10,10,0,0,0,6.15,4.22,18.1,18.1,0,0,0,7.25.34l.72-.13.47-.21c.17-.08.35-.16.51-.25A2.82,2.82,0,0,0,20.8,23l0-.1h0s0-.08,0-.12A4.32,4.32,0,0,0,20.3,20.67ZM7.86,5.77c.31.41.59.78.86,1.16.13.17.23.35.35.53h0l.66,1a3.65,3.65,0,0,1-.32,3.86l-.07-1.72L9,9.78,9,9.81c0,.33.1.65.16,1,0,.74,0,1.47,0,2.28A6.54,6.54,0,0,0,8.5,12a3.56,3.56,0,0,1-.72-1.91A8.56,8.56,0,0,1,7.86,5.77Zm-2.64,3a2.62,2.62,0,0,1,0-.28c0-.14,0-.27,0-.41h0a1.77,1.77,0,0,0,0-.2v0l0-.08,0-.1a.24.24,0,0,1,0-.08h0l0-.07a.43.43,0,0,1,0,0l0-.06v0l0-.08,0,0,0-.07L5.62,7l0-.07,0,0,0-.08.06-.11a.41.41,0,0,0,.07-.11l0,0v0l0,0s0-.06.08,0H6l0,0a.34.34,0,0,1,0,.08A7.37,7.37,0,0,0,7.2,9a.44.44,0,0,1,.07.19c.1.63.21,1.26.31,1.88v0h0l0,0-.84-.45c-.37-.12-.75-.26-1.13-.35l0,0h-.1a.36.36,0,0,1-.09-.08l0,0h0v0h0v0h0v0h0v0h0V9.9c0-.08,0-.15,0-.22s0-.15,0-.22h0c0-.21,0-.43,0-.65ZM2.13,12.25c-.45-.18-.94-.27-1.46-.42a7.51,7.51,0,0,1,2.38-1.16,5,5,0,0,1,4.2.67c.87.45,1.62,1.53,1.28,2.36L7,13.2a2,2,0,0,1-.35-.09l-1.51-.66,0,0,0,0h0l1.41.86,1.43.5a4.75,4.75,0,0,1-2.76-.31l-.73-.28C3.7,12.93,2.92,12.56,2.13,12.25Zm0,3.46-.09,0-.09,0-.13,0-.16,0-.07,0-.11,0-.09,0-.09,0-.08,0-.08,0L1,16.16l-.06,0-.06,0-.08.05-.07,0-.09.07a1.58,1.58,0,0,1,0-.19A1.1,1.1,0,0,1,.6,16v0c0-.08.05-.16.07-.24l0-.12a1.17,1.17,0,0,1,.05-.11l0-.12,0-.1a1.17,1.17,0,0,1,.05-.11,3.81,3.81,0,0,1,.23-.4l.14-.19.07-.1,0,0,0-.05,0-.05.06-.06h0l.08-.09h0l.08-.08L1.85,14l.09-.07H2L2,13.86l0,0,.07-.05,0,0,.1-.07.12-.07.13-.07.13-.07.11-.06h0l.12-.05h0l.14-.06c.63-.24,1,.21,1.5.41l-.17.06-.5.16-.63.22,0,.07,1.21-.17L4.87,14l.94.13,1.34.19a4.72,4.72,0,0,1-1.08.44l-.68.17L5.05,15l-.82.18-.88.2h0l-.17,0ZM20.4,23s0,0,0,.08,0,.05,0,.07a.24.24,0,0,0,0,.08l-.06.14a.77.77,0,0,1-.07.16,2.61,2.61,0,0,1-.17.28l0,0,0,0h0l0,.06h0l-.05.06-.11.11,0,0,0,0,0,0-.05,0-.1.08,0,0-.12.08-.06,0h0l0,0,0,0-.07,0h0l-.07,0-.12.06-.07,0-.07,0-.41.2-.12,0,0,0h-.1L18,25l-.22,0h0l-.18,0h-.07l-.18,0h0l-.2,0h0l-.22,0-.19,0-.19,0-.45,0h-.6l-.79,0H13.23l-.15,0h-.16l-.62-.08L11.57,25l-.49-.11-.09,0-.14,0-.18-.05-.36-.09-.18,0L10,24.64l-.14,0-.13,0-.14,0-.19-.06L9,24.31l-.13,0h0l-.16-.07-.14-.06-.06,0L8.41,24,8.25,24c-.23-.11-.46-.23-.68-.36l-.16-.1h0l-.14-.09,0,0-.14-.09L7,23.2h0l-.08-.05-.11-.09L6.62,23l0,0,0,0-.11-.09-.13-.1s0,0,0,0h0l-.11-.09,0,0L6,22.42l-.29-.28L5.58,22l-.11-.11-.06-.07q-.18-.2-.33-.39l0-.06-.11-.15-.12-.16,0,0-.09-.14,0-.05-.09-.14A4.8,4.8,0,0,1,4,15.92c0-.05,0-.09.07-.13l0-.06.1-.09.06,0a.76.76,0,0,1,.16-.06c.87-.23,1.75-.48,2.61-.78l.2-.07.19-.08.09,0,.19-.09.84-.43.18-.1,0,0,.12-.08.06,0,0,0A.47.47,0,0,0,9,13.7c.21-.38.41-.76.61-1.14L9.93,12c.1-.19.19-.39.29-.58s.07-.14.1-.22.08-.22.13-.33.05-.15.08-.22a1.17,1.17,0,0,1,.05-.11A.83.83,0,0,1,11.3,10l.15-.05.06,0,.12-.05h0l.12,0,.06,0,.12,0a4.92,4.92,0,0,1,1-.14h.83l.11,0h0l.1,0,.09,0,.25.05.06,0,.09,0,.07,0,0,0,.09,0,.21.08h0l.1,0,.09,0a5.36,5.36,0,0,1,.85.46l.1.06h0l.09.06h0l.13.09.13.1,0,0,.06.05.25.21,0,0,.09.08,0,0,.07.07.18.19.18.21.07.09.15.19.06.1.13.2.07.1.06.11.05.1.06.1a.31.31,0,0,0,.05.1v0l.05.1s0,.07,0,.1l0,.1.06.13,0,.1s0,.08,0,.12c.07.21.12.41.17.61v0c0,.08,0,.17.05.25l.06.29,0,.19,0,.17,0,.16c0,.1,0,.2,0,.3s0,.2,0,.3l.09.59.05.28c0,.06,0,.11,0,.16s0,.27.07.4,0,.19,0,.29l.06.31h0c0,.1,0,.21.05.31.05.27.11.54.17.81l.12.49v0s0,.09,0,.14l.05.17c0,.05,0,.1.05.15v0a1.21,1.21,0,0,1,0,.14v0a.56.56,0,0,0,0,.12s0,0,0,.06a.78.78,0,0,1,.05.14l.07.16.06.16c.07.16.14.31.22.47l.08.16a.37.37,0,0,1,.05.11.36.36,0,0,1,0,.11.17.17,0,0,1,0,.05,1.21,1.21,0,0,1,.05.18l0,.09h0s0,.05,0,.08h0s0,.06,0,.09h0a.28.28,0,0,0,0,.09s0,.08,0,.12a.76.76,0,0,1,0,.15v.16s0,.06,0,.1,0,.06,0,.1,0,0,0,.07Z"/>
          <path class="cls-22" d="M11.45,9.92,11.3,10c-.2.49-.43,1-.59,1.47a7.64,7.64,0,0,1-1.15,2.3,1.31,1.31,0,0,0-.08.21,1,1,0,0,1,.83-.21c.41.09.55-.05.51-.47,0-.1,0-.2-.05-.3A.88.88,0,0,1,11,12a1,1,0,0,1,1-.06c.45.2.57.18.93-.18a1,1,0,0,1,1.21-.2,2.4,2.4,0,0,1,1,2.32c-.22,0-.44-.1-.67-.13a.89.89,0,0,0-.95.45.8.8,0,0,0,.15,1c.19.27.41.52.59.79.37.57.18,1-.49,1.12-.45.07-.92.08-1.39.11a.72.72,0,0,0-.71.58,1.67,1.67,0,0,0,0,.63c.06.49-.18.82-.63.83a1.73,1.73,0,0,1-1.66-2.55s0,0,0-.06a.8.8,0,0,0,0-1,1.37,1.37,0,0,1,0-1.57c-.72.36-1.46.68-2.15,1.08s-.69.77-.25,1.42.33.68-.22,1l-.12.07A.93.93,0,0,0,6.37,19a2.4,2.4,0,0,0,1.3.88,2.11,2.11,0,0,1,1.52,1.39,1.51,1.51,0,0,0,.32.47,2.45,2.45,0,0,0,1.6.66,2,2,0,0,1,1.57.71,2.15,2.15,0,0,0,2.06.86,1.71,1.71,0,0,1,1.22.43,2.08,2.08,0,0,0,.78.37,3.76,3.76,0,0,0,1.88-.15c.05-.05.09-.11.14-.15a2.11,2.11,0,0,0,.71-2.21,19.21,19.21,0,0,0-.75-1.9.47.47,0,0,1-.74.12.6.6,0,0,1-.21-.89l.13-.07c.19-.28.38,0,.56,0-.05-.23-.1-.46-.14-.69s-.08-.78-.47-1h0l-.11-.07a2.43,2.43,0,0,1-.24-.32c-.11-.21-.19-.43,0-.64l.07-.07.34-.14-.2-1.29a.44.44,0,0,1-.62.17,2.32,2.32,0,0,1-.53-.51s.08-.2.12-.3h0c.12-.28.3-.35.54-.22s.24.17.36.25A4,4,0,0,0,17,12.87c0,.23.05.49-.28.57s-.88-.29-.89-.61c0-.11.12-.21.18-.31h0c.08-.07.15-.19.24-.21a1.3,1.3,0,0,1,.39,0l-.83-1c-.27.1-.52.16-.68-.17-.3-.06-.16-.26-.14-.43A4.65,4.65,0,0,0,12.92,10C12.43,9.92,11.94,9.94,11.45,9.92Zm6.89,12,.07-.07a.48.48,0,0,1,.66.32c.09.23.13.47-.14.63a.6.6,0,0,1-.66-.28c-.07-.16-.25-.36,0-.53Zm-6.28-11.6c.12,0,.26-.11.35-.07a.91.91,0,0,1,.41.34c0,.06-.1.33-.17.33a1.2,1.2,0,0,1-.62-.1c-.17-.08-.19-.28,0-.43Zm.87,9.56-.14-.06a4.07,4.07,0,0,1-.52-.59.3.3,0,0,1,.2-.49h0a.3.3,0,0,1,.46-.23,5,5,0,0,1,.72.52.66.66,0,0,1,.18.9.64.64,0,0,1-.91-.05Zm2.25-5.43h0a.67.67,0,0,1,.41.79c-.09.27-.41.39-.78.28a1.72,1.72,0,0,1-.38-.2c-.11-.07-.23-.12-.32-.19a.66.66,0,0,1-.21-.87c.16-.27.47-.33.84-.14a2.18,2.18,0,0,1,.36.26Zm.61,7.09c.27-.21.57-.11.75.29a.59.59,0,0,1,0,.47.44.44,0,0,1-.42.1,1.12,1.12,0,0,1-.48-.38c-.05-.08,0-.27.09-.41Zm.37,1.92h0a.44.44,0,0,1,.7,0c.17.17.4.34.19.63a.56.56,0,0,1-.8,0C16,23.94,15.91,23.73,16.16,23.48Zm-3.09-1.33L13.2,22c.27-.3.49-.09.69.08s.43.38.23.69a.46.46,0,0,1-.28.17.71.71,0,0,1-.77-.32C13,22.47,12.87,22.3,13.07,22.15Zm2.35-2.91.14-.14a.51.51,0,0,1,.7.1.64.64,0,0,1,.13.81.66.66,0,0,1-.82-.08A.46.46,0,0,1,15.42,19.24Zm.19-1.49-.24-.14a.61.61,0,0,1-.23-.83.55.55,0,0,1,.76-.23,3.89,3.89,0,0,1,.62.47.52.52,0,0,1,.26.66.44.44,0,0,1-.55.3A2.72,2.72,0,0,1,15.61,17.75Zm-7.07-.83a1,1,0,0,1-1-.79.65.65,0,0,1,.55-.63,1,1,0,0,1,.9.95C9,16.77,8.88,16.91,8.54,16.92Zm1.08,3.73a.6.6,0,0,1,.59-.58,1,1,0,0,1,.84.95.53.53,0,0,1-.51.54A1.09,1.09,0,0,1,9.62,20.65ZM8,18.65l-.08.06c0,.47-.35.76-.73.51a2,2,0,0,1-.57-.61c-.19-.28,0-.52.2-.7a.5.5,0,0,1,.71,0A5.35,5.35,0,0,1,8,18.65Z"/>
          <path class="cls-23" d="M18.62,24.66a3.76,3.76,0,0,1-1.88.15,2.08,2.08,0,0,1-.78-.37A1.71,1.71,0,0,0,14.74,24a2.15,2.15,0,0,1-2.06-.86,2,2,0,0,0-1.57-.71,2.45,2.45,0,0,1-1.6-.66,1.51,1.51,0,0,1-.32-.47,2.11,2.11,0,0,0-1.52-1.39A2.4,2.4,0,0,1,6.37,19a.93.93,0,0,1,.31-1.47l.12-.07c.55-.3.59-.45.22-1s-.4-1,.25-1.42S8.7,14.38,9.42,14h0l.07-.08h0a1.31,1.31,0,0,1,.08-.21,7.64,7.64,0,0,0,1.15-2.3c.16-.5.39-1,.59-1.47a.83.83,0,0,0-.72.55c-.12.29-.22.59-.36.88C9.83,12.17,9.45,13,9,13.7a1.08,1.08,0,0,1-.47.36,11.56,11.56,0,0,1-1.51.71c-.86.3-1.74.55-2.61.78a.58.58,0,0,0-.44.37,4.8,4.8,0,0,0,.56,4.8,9.34,9.34,0,0,0,5,3.79A17,17,0,0,0,18,25a5.33,5.33,0,0,0,1.14-.48ZM5.16,19.13l-.2.25a3.35,3.35,0,0,1-.41-.52c0-.06.16-.32.25-.32C5.09,18.53,5.14,18.77,5.16,19.13Zm6.37,4.63L11,23.24l.29-.31a5.7,5.7,0,0,1,.51.48S11.65,23.58,11.53,23.76Zm-3.34-2c-.33,0-.65-.25-.61-.44s.17-.19.26-.29a5.91,5.91,0,0,1,.48.52S8.22,21.75,8.19,21.8ZM5.84,16.57l-.24.33a2,2,0,0,1-.32-.39c0-.05.12-.18.19-.27ZM5.76,21.4a1.82,1.82,0,0,1,.3-.25,3,3,0,0,1,.38.41s-.14.17-.17.16S6,21.53,5.76,21.4Z"/>
          <path class="cls-24" d="M18.62,24.66l.52-.1a2.29,2.29,0,0,0,1.22-2.78,1.72,1.72,0,0,0-.16-.45,15.57,15.57,0,0,1-1.33-5,17.82,17.82,0,0,0-.6-3,5.51,5.51,0,0,0-6.34-3.58,3.94,3.94,0,0,0-.48.18c.49,0,1,0,1.47.05a4.65,4.65,0,0,1,2.05.79h0c.19-.22.39-.13.57,0a.45.45,0,0,1,.2.61l.83,1h0l.08.07.29.46a4,4,0,0,1,.62,1.84c0,.21.09.42.13.62l.2,1.29a.88.88,0,0,1,.23.14.79.79,0,0,1,.29.82c-.07.34-.37.24-.6.27.39.23.4.63.47,1s.09.46.14.69l.26.85a19.21,19.21,0,0,1,.75,1.9,2.11,2.11,0,0,1-.71,2.21C18.71,24.55,18.67,24.61,18.62,24.66Z"/>
          <path class="cls-25" d="M3.42,11.49Zm0,0Zm0,0,.09.07Z"/>
          <path class="cls-16" d="M3.05,10.67a5,5,0,0,1,4.2.67c0,.2.11.39.15.59A1.33,1.33,0,0,1,7,13.2a2,2,0,0,1-.35-.09l-1.51-.66-.13-.07H5l0,0,.12.09h0l1.41.86-1,.12a2.29,2.29,0,0,0-.36.07l-.73-.28c-.78-.34-1.56-.71-2.35-1-.45-.18-.94-.27-1.46-.42A7.51,7.51,0,0,1,3.05,10.67Zm.37.82h0l.09.07Z"/>
          <path class="cls-25" d="M9.06,7.46h0Z"/>
          <path class="cls-16" d="M7.86,5.77c.31.41.59.78.86,1.16.13.17.23.35.35.53h0l.66,1c0,.24.07.47.08.71a1.43,1.43,0,0,1-.47,1.43L9,9.78,9,9.81c0,.33.1.65.16,1A1,1,0,0,1,8,10.29a1.31,1.31,0,0,0-.21-.2A8.56,8.56,0,0,1,7.86,5.77Zm1,3.9H9l0-.08,0,.05S8.9,9.67,8.91,9.67Z"/>
          <path class="cls-16" d="M4.87,14l-1.59.22,0-.07,1.3-.44c-.48-.2-.87-.65-1.5-.41A3.83,3.83,0,0,0,.61,16a1.38,1.38,0,0,0,0,.2,1.58,1.58,0,0,0,0,.19,8.77,8.77,0,0,1,2.76-1,1.4,1.4,0,0,1,.2-.16c.29-.16.59-.3.86-.48S4.93,14.38,4.87,14Z"/>
          <path class="cls-11" d="M6.73,10.62l.84.45h0c-.1-.62-.21-1.25-.31-1.88A.44.44,0,0,0,7.2,9,7.37,7.37,0,0,1,6.06,6.53c0,.09-.15.19-.15.28A5.85,5.85,0,0,0,6,8.32C6.14,9.11,6.47,9.86,6.73,10.62Z"/>
          <path class="cls-25" d="M6.73,10.62c-.26-.76-.59-1.51-.78-2.3a5.85,5.85,0,0,1,0-1.51c0-.09.1-.19.15-.28-.08-.25-.15-.06-.2,0a3.94,3.94,0,0,0-.63,1.9,11.94,11.94,0,0,0,0,1.46.36.36,0,0,0,.32.37C6,10.36,6.36,10.5,6.73,10.62Z"/>
          <path class="cls-11" d="M7,13.2l1.49.5c.34-.83-.42-1.91-1.28-2.36,0,.2.11.39.15.59A1.33,1.33,0,0,1,7,13.2Z"/>
          <path class="cls-11" d="M4.87,14c.06.38-.21.58-.46.76s-.57.32-.86.48a1.4,1.4,0,0,0-.2.16c.91-.21,1.82-.41,2.72-.64a4.72,4.72,0,0,0,1.08-.44Z"/>
          <path class="cls-11" d="M7.78,10.09A3.56,3.56,0,0,0,8.5,12a6.54,6.54,0,0,1,.57,1.07c0-.81,0-1.54,0-2.28A1,1,0,0,1,8,10.29,1.31,1.31,0,0,0,7.78,10.09Z"/>
          <path class="cls-11" d="M9.33,10.59l.07,1.72a3.65,3.65,0,0,0,.32-3.86c0,.24.07.47.08.71A1.43,1.43,0,0,1,9.33,10.59Z"/>
          <path class="cls-11" d="M5.21,13.55A4.75,4.75,0,0,0,8,13.86l-1.43-.5-1,.12A2.29,2.29,0,0,0,5.21,13.55Z"/>
          <path class="cls-26" d="M7.57,11.07l0,0,0,0Z"/>
          <path class="cls-22" d="M9.42,14a1.37,1.37,0,0,0,0,1.57.8.8,0,0,1,0,1s0,0,0,.06a1.73,1.73,0,0,0,1.66,2.55c.45,0,.69-.34.63-.83a1.67,1.67,0,0,1,0-.63.72.72,0,0,1,.71-.58c.47,0,.94,0,1.39-.11.67-.11.86-.55.49-1.12-.18-.27-.4-.52-.59-.79a.8.8,0,0,1-.15-1,.89.89,0,0,1,.95-.45c.23,0,.45.08.67.13a2.4,2.4,0,0,0-1-2.32,1,1,0,0,0-1.21.2c-.36.36-.48.38-.93.18A1,1,0,0,0,11,12a.88.88,0,0,0-.23,1c0,.1,0,.2.05.3,0,.42-.1.56-.51.47a1,1,0,0,0-.83.21h0L9.41,14Zm3.94-2.29h0a.36.36,0,0,1,.56-.09,2.42,2.42,0,0,1,.49.6s0,.17-.07.24a.66.66,0,0,1-.89,0A.44.44,0,0,1,13.36,11.73Zm-2.65,6.76a1,1,0,0,1-1-.78.61.61,0,0,1,.54-.63,1,1,0,0,1,.92.9A.46.46,0,0,1,10.71,18.49ZM12,13.76A.94.94,0,0,1,11,13a.58.58,0,0,1,.54-.62,1,1,0,0,1,1,.87A.49.49,0,0,1,12,13.76Zm-1.57,1.65a1,1,0,0,1-1-.8A.61.61,0,0,1,10,14a1,1,0,0,1,.91.9A.45.45,0,0,1,10.42,15.41ZM13,16.62a1,1,0,0,1-1-.77.62.62,0,0,1,.55-.63,1.06,1.06,0,0,1,.92.91A.44.44,0,0,1,13,16.62Z"/>
          <path class="cls-23" d="M8.54,16.92c.34,0,.49-.15.48-.47a1,1,0,0,0-.9-.95.65.65,0,0,0-.55.63A1,1,0,0,0,8.54,16.92Zm-.79-1c.07-.06.18-.21.32-.24s.61.32.6.61a.38.38,0,0,1-.22.26A.68.68,0,0,1,7.75,16Z"/>
          <path class="cls-23" d="M9.62,20.65a1.09,1.09,0,0,0,.92.91.53.53,0,0,0,.51-.54,1,1,0,0,0-.84-.95A.6.6,0,0,0,9.62,20.65Zm1.09.32c-.05.05-.12.19-.23.22s-.69-.36-.65-.59a.54.54,0,0,1,.3-.37C10.36,20.15,10.68,20.53,10.71,21Z"/>
          <path class="cls-23" d="M8,18.65a5.35,5.35,0,0,0-.47-.7.5.5,0,0,0-.71,0c-.25.18-.39.42-.2.7a2,2,0,0,0,.57.61c.38.25.75,0,.73-.51Zm-.37.1s-.15.17-.26.18-.67-.38-.61-.61A.56.56,0,0,1,7.05,18C7.27,17.9,7.59,18.34,7.59,18.75Z"/>
          <path class="cls-23" d="M15.09,14.4a2.18,2.18,0,0,0-.36-.26c-.37-.19-.68-.13-.84.14a.66.66,0,0,0,.21.87c.09.07.21.12.32.19l.23,0c.52,0,.75-.26.58-.76l-.06-.15h0Zm-.34.68c-.44,0-.81-.26-.8-.52a.33.33,0,0,1,.35-.34c.26,0,.68.37.65.61S14.8,15,14.75,15.08Z"/>
          <path class="cls-23" d="M13.65,19.05a5,5,0,0,0-.72-.52.3.3,0,0,0-.46.23.66.66,0,0,1,.89.51c0,.21,0,.33-.28.32a.64.64,0,0,1-.61-.83.3.3,0,0,0-.2.49,4.07,4.07,0,0,0,.52.59l.14.06h.16c.49,0,.65-.16.58-.65A1.36,1.36,0,0,1,13.65,19.05Z"/>
          <path class="cls-23" d="M16.52,17a3.89,3.89,0,0,0-.62-.47.55.55,0,0,0-.76.23.61.61,0,0,0,.23.83l.24.14C16.38,17.94,16.61,17.76,16.52,17Zm-.49.49c-.43,0-.85-.25-.8-.49a.55.55,0,0,1,.33-.35c.21-.06.68.37.65.59S16.07,17.46,16,17.51Z"/>
          <path class="cls-23" d="M17,12.87l-.29-.46-.08-.07h0a1.3,1.3,0,0,0-.39,0c-.09,0-.16.14-.24.21a.4.4,0,0,1,.61.17,1.3,1.3,0,0,1,.09.4.9.9,0,0,1-.4,0,.42.42,0,0,1-.3-.58c-.06.1-.18.2-.18.31,0,.32.58.69.89.61S17,13.1,17,12.87Z"/>
          <path class="cls-23" d="M17.73,15.33c0-.2-.08-.41-.13-.62s-.23-.18-.36-.25-.42-.06-.54.22a.48.48,0,0,1,.75.34c0,.17,0,.26-.2.26a.56.56,0,0,1-.55-.59c0,.1-.15.26-.12.3a2.32,2.32,0,0,0,.53.51A.44.44,0,0,0,17.73,15.33Z"/>
          <path class="cls-23" d="M17.85,17.85c.23,0,.53.07.6-.27a.79.79,0,0,0-.29-.82.88.88,0,0,0-.23-.14l-.34.14,0,0a.44.44,0,0,1,.58.46.33.33,0,0,1-.18.28c-.19.05-.49-.3-.49-.55a.61.61,0,0,1,0-.13l-.05,0c-.21.21-.13.43,0,.64a2.43,2.43,0,0,0,.24.32l.11.07Z"/>
          <path class="cls-23" d="M15.42,19.24a.46.46,0,0,0,.15.69.66.66,0,0,0,.82.08.64.64,0,0,0-.13-.81.51.51,0,0,0-.7-.1l0,0c.35-.06.51.16.61.43s0,.31-.23.28a.54.54,0,0,1-.5-.57Z"/>
          <path class="cls-23" d="M18.72,20.4l-.26-.85c-.18,0-.37-.27-.56,0l0,0a.53.53,0,0,1,.54.61.34.34,0,0,1-.29.15.53.53,0,0,1-.35-.66l-.06-.05a.6.6,0,0,0,.21.89A.47.47,0,0,0,18.72,20.4Z"/>
          <path class="cls-23" d="M13.07,22.15c-.2.15-.12.32,0,.47a.71.71,0,0,0,.77.32.46.46,0,0,0,.28-.17c.2-.31,0-.51-.23-.69s-.42-.38-.69-.08l0,0a.57.57,0,0,1,.63.36c.11.19,0,.31-.18.33a.54.54,0,0,1-.58-.55Z"/>
          <path class="cls-23" d="M16.16,23.48c-.25.25-.12.46.08.63a.56.56,0,0,0,.8,0c.21-.29,0-.46-.19-.63a.44.44,0,0,0-.7,0,.52.52,0,0,1,.64.24c0,.06.07.18,0,.22a.3.3,0,0,1-.23.09C16.29,24,16.16,23.84,16.16,23.48Z"/>
          <path class="cls-23" d="M15.73,21.63c0,.14-.14.33-.09.41a1.12,1.12,0,0,0,.48.38.44.44,0,0,0,.42-.1.59.59,0,0,0,0-.47c-.18-.4-.48-.5-.75-.29l0,0c.27-.07.41.1.52.29a.3.3,0,0,1,0,.28.31.31,0,0,1-.27,0c-.24-.09-.39-.24-.3-.52Z"/>
          <path class="cls-24" d="M15.17,14.47l.06.15c.17.5-.06.8-.58.76l-.23,0a1.72,1.72,0,0,0,.38.2c.37.11.69,0,.78-.28A.67.67,0,0,0,15.17,14.47Z"/>
          <path class="cls-23" d="M18.28,22c-.26.17-.08.37,0,.53a.6.6,0,0,0,.66.28c.27-.16.23-.4.14-.63a.48.48,0,0,0-.66-.32l0,0a.47.47,0,0,1,.47.5c0,.08-.13.2-.17.19a.48.48,0,0,1-.43-.49V22Z"/>
          <path class="cls-24" d="M13.65,19.05a1.36,1.36,0,0,0,0,.2c.07.49-.09.66-.58.65h-.17a.64.64,0,0,0,.91.05A.66.66,0,0,0,13.65,19.05Z"/>
          <path class="cls-24" d="M16.52,17c.09.74-.14.92-.91.73a2.72,2.72,0,0,0,.62.23.44.44,0,0,0,.55-.3A.52.52,0,0,0,16.52,17Z"/>
          <path class="cls-23" d="M12,10.41c-.16.15-.14.35,0,.43a1.2,1.2,0,0,0,.62.1c.07,0,.2-.27.17-.33a.91.91,0,0,0-.41-.34c-.09,0-.23,0-.35.07l0,0c.08,0,.19,0,.25,0a1.33,1.33,0,0,1,.27.26c-.06.05-.13.13-.17.13a1.5,1.5,0,0,1-.42-.15s0-.14,0-.22Z"/>
          <path class="cls-23" d="M15.79,11.36a.45.45,0,0,0-.2-.61c-.18-.12-.38-.21-.57,0l0,0s.1,0,.13,0a3.3,3.3,0,0,1,.41.23s0,.12,0,.18h-.47l0,0C15.27,11.52,15.52,11.46,15.79,11.36Z"/>
          <path class="cls-23" d="M15,10.76h0c0,.17-.16.37.14.43l0,0-.08-.37Z"/>
          <path class="cls-23" d="M13.2,22l-.13.15,0,0,.13-.14Z"/>
          <path class="cls-23" d="M15.56,19.1a1.85,1.85,0,0,1-.14.14l0,0,.12-.14Z"/>
          <path class="cls-23" d="M17.9,19.56l-.13.07.06.05.1-.1Z"/>
          <path class="cls-24" d="M12.93,19.9l-.14-.06Z"/>
          <path class="cls-24" d="M17.85,17.86l-.11-.07Z"/>
          <path class="cls-23" d="M12.06,10.34l-.06.07,0,0,.08-.06Z"/>
          <path class="cls-23" d="M17.59,16.76l-.07.07.05,0,.06-.06Z"/>
          <path class="cls-23" d="M18.41,21.87l-.07.07h0l.07-.05Z"/>
          <path class="cls-23" d="M18.34,21.94l-.06.07,0,0,.06-.08Z"/>
          <path class="cls-24" d="M15.09,14.4l.09.07Z"/>
          <path class="cls-23" d="M15.79,21.56l-.06.07,0,0,.06-.07Z"/>
          <path class="cls-27" d="M5.16,19.13c0-.36-.07-.6-.36-.59-.09,0-.27.26-.25.32a3.35,3.35,0,0,0,.41.52Z"/>
          <path class="cls-27" d="M11.53,23.76c.12-.18.24-.33.22-.35a5.7,5.7,0,0,0-.51-.48l-.29.31Z"/>
          <path class="cls-27" d="M8.19,21.8c0-.05.15-.18.13-.21a5.91,5.91,0,0,0-.48-.52c-.09.1-.24.18-.26.29S7.86,21.8,8.19,21.8Z"/>
          <path class="cls-27" d="M5.84,16.57l-.37-.33c-.07.09-.22.22-.19.27a2,2,0,0,0,.32.39Z"/>
          <path class="cls-27" d="M5.76,21.4c.21.13.35.24.51.32s.18-.16.17-.16a3,3,0,0,0-.38-.41A1.82,1.82,0,0,0,5.76,21.4Z"/>
          <path class="cls-22" d="M9.41,14l.07-.08Z"/>
          <path class="cls-22" d="M16.61,12.34l.08.07Z"/>
          <polygon class="cls-24" points="3.42 11.49 3.42 11.49 3.42 11.49 3.42 11.49"/>
          <path class="cls-26" d="M3.42,11.49l.09.07Z"/>
          <path class="cls-28" d="M5,12.41l.12.09h0l0-.05-.13-.07Z"/>
          <path class="cls-28" d="M5,12.37l0,0,0,0Z"/>
          <polygon class="cls-29" points="9.06 7.46 9.06 7.46 9.06 7.46 9.06 7.46 9.06 7.46"/>
          <path class="cls-28" d="M8.91,9.67H9l0-.08,0,.05S8.9,9.67,8.91,9.67Z"/>
          <path class="cls-23" d="M10.71,18.49a.46.46,0,0,0,.5-.51,1,1,0,0,0-.92-.9.61.61,0,0,0-.54.63A1,1,0,0,0,10.71,18.49Zm0-.34c-.4,0-.84-.3-.78-.53a.51.51,0,0,1,.33-.34c.22-.06.62.37.59.63C10.84,18,10.74,18.1,10.71,18.15Z"/>
          <path class="cls-23" d="M12,13.76a.49.49,0,0,0,.52-.47,1,1,0,0,0-1-.87A.58.58,0,0,0,11,13,.94.94,0,0,0,12,13.76Zm0-.33c-.45,0-.84-.25-.79-.49a.52.52,0,0,1,.31-.32c.26,0,.71.35.68.59S12,13.4,12,13.43Z"/>
          <path class="cls-23" d="M10.42,15.41a.45.45,0,0,0,.48-.5A1,1,0,0,0,10,14a.61.61,0,0,0-.55.6A1,1,0,0,0,10.42,15.41Zm-.81-1c.07,0,.19-.2.33-.23s.68.43.63.69a.33.33,0,0,1-.14.17C10.14,15.18,9.64,14.86,9.61,14.43Z"/>
          <path class="cls-23" d="M13,16.62a.44.44,0,0,0,.48-.49,1.06,1.06,0,0,0-.92-.91.62.62,0,0,0-.55.63A1,1,0,0,0,13,16.62Zm0-.31c-.39,0-.81-.32-.76-.56a.53.53,0,0,1,.33-.34c.24-.05.65.4.61.66C13.08,16.17,13,16.26,12.92,16.31Z"/>
          <path class="cls-23" d="M13.36,11.73a.44.44,0,0,0,.08.71.66.66,0,0,0,.89,0c.05-.07.1-.2.07-.24a2.42,2.42,0,0,0-.49-.6.36.36,0,0,0-.56.09.62.62,0,0,1,.73.3c.12.22,0,.36-.22.35S13.3,12.15,13.36,11.73Z"/>
          <path class="cls-27" d="M7.75,16a.68.68,0,0,0,.7.63.38.38,0,0,0,.22-.26c0-.29-.35-.67-.6-.61S7.82,15.89,7.75,16Z"/>
          <path class="cls-27" d="M10.71,21c0-.44-.35-.82-.58-.74a.54.54,0,0,0-.3.37c0,.23.43.64.65.59S10.66,21,10.71,21Z"/>
          <path class="cls-27" d="M7.59,18.75c0-.41-.32-.85-.54-.79a.56.56,0,0,0-.33.36c-.06.23.37.65.61.61S7.54,18.79,7.59,18.75Z"/>
          <path class="cls-27" d="M14.75,15.08c.05-.05.19-.14.2-.25s-.39-.61-.65-.61a.33.33,0,0,0-.35.34C13.94,14.82,14.31,15.08,14.75,15.08Z"/>
          <path class="cls-27" d="M12.47,18.76a.64.64,0,0,0,.61.83c.23,0,.32-.11.28-.32a.66.66,0,0,0-.89-.51Z"/>
          <path class="cls-27" d="M16,17.51c0-.05.17-.14.18-.25s-.44-.65-.65-.59a.55.55,0,0,0-.33.35C15.18,17.26,15.6,17.53,16,17.51Z"/>
          <path class="cls-27" d="M16,12.52a.42.42,0,0,0,.3.58.9.9,0,0,0,.4,0,1.3,1.3,0,0,0-.09-.4.4.4,0,0,0-.61-.17Z"/>
          <path class="cls-27" d="M16.7,14.69a.56.56,0,0,0,.55.59c.18,0,.24-.09.2-.26a.48.48,0,0,0-.75-.34Z"/>
          <path class="cls-27" d="M17.63,16.81l-.06.06a.61.61,0,0,0,0,.13c0,.25.3.6.49.55a.33.33,0,0,0,.18-.28A.44.44,0,0,0,17.63,16.81Z"/>
          <path class="cls-27" d="M15.58,19.13l-.12.14a.54.54,0,0,0,.5.57c.22,0,.3-.1.23-.28S15.93,19.07,15.58,19.13Z"/>
          <path class="cls-27" d="M17.93,19.58l-.1.1a.53.53,0,0,0,.35.66.34.34,0,0,0,.29-.15A.53.53,0,0,0,17.93,19.58Z"/>
          <path class="cls-27" d="M13.23,22l-.13.14a.54.54,0,0,0,.58.55c.2,0,.29-.14.18-.33A.57.57,0,0,0,13.23,22Z"/>
          <path class="cls-27" d="M16.16,23.48c0,.36.13.54.43.55a.3.3,0,0,0,.23-.09s0-.16,0-.22a.52.52,0,0,0-.64-.24Z"/>
          <path class="cls-27" d="M15.81,21.58l-.06.07c-.09.28.06.43.3.52a.31.31,0,0,0,.27,0,.3.3,0,0,0,0-.28C16.22,21.68,16.08,21.51,15.81,21.58Z"/>
          <path class="cls-27" d="M18.36,22,18.3,22v.07a.48.48,0,0,0,.43.49s.16-.11.17-.19a.47.47,0,0,0-.47-.5Z"/>
          <path class="cls-27" d="M12.1,10.37l-.08.06c0,.08,0,.2,0,.22a1.5,1.5,0,0,0,.42.15s.11-.08.17-.13a1.33,1.33,0,0,0-.27-.26C12.29,10.36,12.18,10.38,12.1,10.37Z"/>
          <path class="cls-27" d="M15.05,10.79l.08.37h.47c0-.06,0-.16,0-.18a3.3,3.3,0,0,0-.41-.23S15.09,10.78,15.05,10.79Z"/>
          <path class="cls-27" d="M10.71,18.15s.13-.14.14-.24c0-.26-.37-.69-.59-.63a.51.51,0,0,0-.33.34C9.87,17.85,10.31,18.17,10.71,18.15Z"/>
          <path class="cls-27" d="M12,13.43s.18-.12.2-.22-.42-.64-.68-.59a.52.52,0,0,0-.31.32C11.12,13.18,11.51,13.44,12,13.43Z"/>
          <path class="cls-27" d="M9.61,14.43c0,.43.53.75.82.63a.33.33,0,0,0,.14-.17c0-.26-.37-.74-.63-.69S9.68,14.38,9.61,14.43Z"/>
          <path class="cls-27" d="M12.92,16.31s.16-.14.18-.24c0-.26-.37-.71-.61-.66a.53.53,0,0,0-.33.34C12.11,16,12.53,16.31,12.92,16.31Z"/>
          <path class="cls-27" d="M13.36,11.73c-.06.42.12.64.5.65s.34-.13.22-.35a.62.62,0,0,0-.73-.3Z"/>
        </g>
      </g>
      <g>
        <path class="cls-30" d="M48.71,10.18a1.9,1.9,0,0,1-1.22-.46L47,9.32c-.22-.2-.43-.38-.65-.55a1.68,1.68,0,0,0-.49-.26l-.16,0,0,.17a1.78,1.78,0,0,1-1.61,1.49h-.22a1.42,1.42,0,0,1-1.46-1.81c.15-.8.33-1.61.5-2.39l.21-1,.12-.53c.08-.36.16-.73.23-1.1a1.65,1.65,0,0,1,1.65-1.41h.63c.84,0,1.94,0,3.06.11a3.56,3.56,0,0,1,1.67.69,2.69,2.69,0,0,1,1.12,1.81,2.69,2.69,0,0,1-.63,2.05,7.66,7.66,0,0,1-1,1h0l.17.19a1.42,1.42,0,0,1,.34,1.16,1.38,1.38,0,0,1-.72,1A2,2,0,0,1,48.71,10.18ZM46.27,5.74a3.39,3.39,0,0,0,.44,0h0a2.56,2.56,0,0,0,.93-.16c.27-.11.58-.29.55-.57s-.36-.34-.64-.35h-.26l-.7,0h-.08Z"/>
        <path class="cls-30" d="M81.38,10.29a1.68,1.68,0,0,1-1.08-.4l-.19-.16A8.36,8.36,0,0,1,79.27,9a.79.79,0,0,0-.61-.32H78.6a3.26,3.26,0,0,1-.24.6,1.59,1.59,0,0,1-1,.89,3.15,3.15,0,0,1-.61.06,2.1,2.1,0,0,1-.94-.19c-.78-.39-.58-1.3-.5-1.64.32-1.4.69-3.06,1-4.72a1.69,1.69,0,0,1,1.69-1.49h0a31.26,31.26,0,0,1,3.74.16A2.65,2.65,0,0,1,84.2,4.44a3,3,0,0,1-1.13,3,3.32,3.32,0,0,1-.42.32l.09.11a1.45,1.45,0,0,1,.34,1.3,1.42,1.42,0,0,1-.91,1A2.32,2.32,0,0,1,81.38,10.29Zm-2.19-4.4a2.42,2.42,0,0,0,.45,0h0a1.66,1.66,0,0,0,1.11-.39c.23-.19.27-.32.27-.34A.7.7,0,0,0,80.66,5a5.3,5.3,0,0,0-1.12-.13h-.13Z"/>
        <path class="cls-30" d="M73.68,10.28a1.4,1.4,0,0,1-1.06-.45,1.56,1.56,0,0,1-.37-1.23l0-.23-1.8.06c0,.15-.09.3-.12.46a1.7,1.7,0,0,1-1.51,1.33,1.51,1.51,0,0,1-.3,0,1.35,1.35,0,0,1-1.1-.46,1.44,1.44,0,0,1-.26-1.26A32.29,32.29,0,0,1,68,5a3.63,3.63,0,0,1,1.14-1.67,5.31,5.31,0,0,1,3.35-1.25,5.54,5.54,0,0,1,1.69.28,2.69,2.69,0,0,1,1.93,3.4c-.08.41-.18.81-.27,1.22-.14.61-.28,1.24-.41,1.86a1.73,1.73,0,0,1-1.16,1.34A1.88,1.88,0,0,1,73.68,10.28Zm-1.41-5.4a1.53,1.53,0,0,0-.66.15c-.29.15-.46.3-.49.58l1.78-.06c.1-.29.06-.39-.05-.51A.85.85,0,0,0,72.27,4.88Z"/>
        <path class="cls-30" d="M54.88,10.29h-.12l-.55-.1A9.84,9.84,0,0,1,53.13,10,2.83,2.83,0,0,1,51,6.44c.09-.44.19-.9.29-1.33s.25-1.11.36-1.66A1.7,1.7,0,0,1,53.08,2a2,2,0,0,1,.42,0,1.36,1.36,0,0,1,1,.43,1.5,1.5,0,0,1,.33,1.18,15.57,15.57,0,0,1-.28,1.57c0,.23-.09.45-.13.67s0,.24-.08.36a5.77,5.77,0,0,0-.13.76c0,.28,0,.36.38.43a1.39,1.39,0,0,0,.35,0,1.24,1.24,0,0,0,1.26-1.08l.21-1c.13-.62.25-1.26.4-1.89A1.77,1.77,0,0,1,58.63,2h.09a1.41,1.41,0,0,1,1.12.52,1.36,1.36,0,0,1,.24,1.15c-.27,1.34-.52,2.55-.84,3.76A3.35,3.35,0,0,1,57.18,9.6a10.76,10.76,0,0,1-1.55.51l-.57.15Z"/>
        <path class="cls-30" d="M63.14,10.28a1.58,1.58,0,0,1-1.48-1.11C61.1,7.59,60.53,5.92,60,4.22a1.71,1.71,0,0,1,0-1.34A1.52,1.52,0,0,1,61,2.15,2.53,2.53,0,0,1,61.63,2a1.54,1.54,0,0,1,1.49,1.15c.16.41.31.84.46,1.25s.22.63.33.94c0,0,0,.07,0,.11l.25-.3,1.43-1.8L66,2.93a1.94,1.94,0,0,1,1.46-.83l.22,0a1.76,1.76,0,0,1,1.2.66,1.45,1.45,0,0,1-.09,1.43,11,11,0,0,1-.72,1l-.27.34c-.24.3-.47.61-.7.91-.7.91-1.43,1.86-2.15,2.78a3.24,3.24,0,0,1-1,.83A1.88,1.88,0,0,1,63.14,10.28Z"/>
        <path class="cls-30" d="M36.68,10.08a1.46,1.46,0,0,1-1.17-.49,1.57,1.57,0,0,1-.25-1.36c.21-1.11.45-2.23.68-3.31l.33-1.54A1.64,1.64,0,0,1,37.84,1.9c.83,0,1.68,0,2.54,0l2.06,0a1.28,1.28,0,0,1,1.39,1.25A1.5,1.5,0,0,1,42.58,4.6a2.76,2.76,0,0,1-.6.06H40.89c-.35,0-.64,0-.91,0h-.39a1.34,1.34,0,0,0-.26,0s0,.13,0,.24L40.69,5h.09a2.69,2.69,0,0,1,.62.12,1.25,1.25,0,0,1,.82,1,1.15,1.15,0,0,1-.42,1.09,2.68,2.68,0,0,1-1.33.52c-.53.06-1,.07-1.56.08h-.16l-.28,1A1.64,1.64,0,0,1,37,10.06l-.31,0Z"/>
        <path class="cls-11" d="M49,7.57c.22.22.43.41.61.62a.72.72,0,0,1-.21,1.17,1.22,1.22,0,0,1-1.48-.13c-.38-.31-.74-.66-1.14-1A2,2,0,0,0,46,7.9c-.62-.15-.8,0-1,.6a1.17,1.17,0,0,1-1.06,1c-.73.07-1.14-.33-1-1,.21-1.13.47-2.25.71-3.37.12-.55.25-1.09.35-1.64a1,1,0,0,1,1-.89c1.21,0,2.42,0,3.63.1a2.93,2.93,0,0,1,1.35.57,2,2,0,0,1,.38,2.95A17.1,17.1,0,0,1,49,7.57ZM45.51,6.24a3.84,3.84,0,0,0,2.36-.06c.67-.26,1-.7,1-1.22s-.49-.87-1.23-.91c-.49,0-1,0-1.59,0Z"/>
        <path class="cls-11" d="M81.66,7.67a8,8,0,0,1,.59.6.75.75,0,0,1-.31,1.27,1.13,1.13,0,0,1-1.23-.13,10,10,0,0,1-1-.87,1.41,1.41,0,0,0-1.64-.42,5.47,5.47,0,0,1-.29.83c-.13.23-.33.53-.54.57a1.87,1.87,0,0,1-1.15-.08c-.32-.15-.24-.58-.16-.94.35-1.57.7-3.14,1-4.72a1.08,1.08,0,0,1,1.07-1,30.45,30.45,0,0,1,3.7.16,2,2,0,0,1,1.83,1.63A2.4,2.4,0,0,1,82.65,7,10.89,10.89,0,0,1,81.66,7.67ZM78.91,4.2l-.47,2.14A2.66,2.66,0,0,0,81.15,6c.77-.63.64-1.36-.32-1.62A11.87,11.87,0,0,0,78.91,4.2Z"/>
        <path class="cls-11" d="M73,7.71l-3,.1c-.08.28-.18.6-.26.92a1.06,1.06,0,0,1-1,.87c-.72.09-1.09-.25-1-1a33.75,33.75,0,0,1,.78-3.45,2.87,2.87,0,0,1,.92-1.35A4.54,4.54,0,0,1,74,3a2.07,2.07,0,0,1,1.51,2.67c-.23,1-.48,2.05-.69,3.08a1.06,1.06,0,0,1-.75.87.83.83,0,0,1-1.16-.93C72.91,8.39,73,8.12,73,7.71Zm.32-1.54c.24-.51.44-1,0-1.54a1.84,1.84,0,0,0-2-.16,1.4,1.4,0,0,0-.76,1.8Z"/>
        <path class="cls-11" d="M54.88,9.66c-.61-.11-1.1-.17-1.57-.3a2.2,2.2,0,0,1-1.67-2.79c.2-1,.45-2,.65-3a1.05,1.05,0,0,1,.92-.92c.68-.14,1.11.19,1,.88S54,5,53.85,5.72a9.94,9.94,0,0,0-.22,1.19A.93.93,0,0,0,54.51,8a1.89,1.89,0,0,0,2.36-1.53c.2-1,.38-1.95.61-2.92a1.13,1.13,0,0,1,1.21-.92c.57,0,.88.36.77.91-.25,1.25-.51,2.5-.83,3.73A2.8,2.8,0,0,1,56.92,9,16.29,16.29,0,0,1,54.88,9.66Z"/>
        <path class="cls-11" d="M63.77,6.66c.37-.43.65-.74.92-1.07l1.79-2.26a1.15,1.15,0,0,1,1.87-.2c.11.16,0,.55-.11.76-.28.44-.63.84-.95,1.26-1,1.23-1.89,2.47-2.85,3.69a2.37,2.37,0,0,1-.75.66A1,1,0,0,1,62.26,9C61.67,7.32,61.11,5.67,60.57,4c-.22-.67,0-1.09.56-1.26a1,1,0,0,1,1.4.65c.28.73.52,1.46.79,2.19C63.43,5.91,63.58,6.21,63.77,6.66Z"/>
        <path class="cls-11" d="M38.71,5.47l1.92.17a2,2,0,0,1,.55.08.56.56,0,0,1,.22,1,2,2,0,0,1-1,.38c-.7.08-1.42.07-2.14.09l-.4,1.51a1,1,0,0,1-1,.76c-.8.1-1.19-.28-1-1.08.31-1.62.67-3.23,1-4.84.11-.54.39-1,1-1,1.52,0,3,0,4.57,0,.36,0,.76.14.77.64a.88.88,0,0,1-.76.82A2.4,2.4,0,0,1,42,4c-.66,0-1.31,0-2,0C38.76,4,38.63,4.08,38.71,5.47Z"/>
      </g>
      <g>
        <path class="cls-30" d="M77.81,22.91a6,6,0,0,1-1.09-.12,1.94,1.94,0,0,1-1.34-.87,6.18,6.18,0,0,1-.61.37,4.59,4.59,0,0,1-1.06.41,3.15,3.15,0,0,1-.82.11A1.88,1.88,0,0,1,71.32,22l-.14.08a4.94,4.94,0,0,1-1,.46,3.42,3.42,0,0,1-1.09.2,2.05,2.05,0,0,1-1.5-.64l-.41.24a3.18,3.18,0,0,1-1.56.42h-.25a2.14,2.14,0,0,1-2-2.7,5.4,5.4,0,0,1,.34-1c.1-.24.21-.47.32-.69s.25-.51.36-.76v0c.3-.73.62-1.48.87-2.23a1.61,1.61,0,0,1,1.41-1.2l.22,0a1.84,1.84,0,0,1,1.62,1,2.06,2.06,0,0,1,.21,1.36c.14-.34.28-.7.42-1.05a1.68,1.68,0,0,1,1.53-1.29,2,2,0,0,1,1.94,2.23v.07c.16-.39.31-.76.44-1.1a1.61,1.61,0,0,1,1.51-1.18h.16a1.82,1.82,0,0,1,1.74,1.59,3.74,3.74,0,0,1-.06.95l.13-.26a2.21,2.21,0,0,0,.13-.41c0-.11,0-.23.09-.35l0-.13A4,4,0,0,1,77,15a1.31,1.31,0,0,1,1.28-.82h.09l2.73.1,1,0a1.57,1.57,0,0,1,1.33.72,1.49,1.49,0,0,1,.15,1.21,6.26,6.26,0,0,1,.76-.6,7.93,7.93,0,0,1,3.41-1.41,4.29,4.29,0,0,1,.69-.06,3.39,3.39,0,0,1,1.25.23,1.85,1.85,0,0,1,1.2,2.29A9.73,9.73,0,0,1,90.45,18L90,19a.71.71,0,0,1,.32.07.78.78,0,0,1,.42.47c.22.62.21,1.55-1.09,2.49a3.55,3.55,0,0,1-2,.74,2.7,2.7,0,0,1-1.37-.38c-.17.07-.35.14-.54.2a4.61,4.61,0,0,1-1.29.21,2.74,2.74,0,0,1-2.26-1.13A7.88,7.88,0,0,1,78,22.91Zm8.68-5a3.91,3.91,0,0,0-.94,1.56,1.68,1.68,0,0,0-.06.4.24.24,0,0,0,.17-.15l.26-.58ZM82,18.27c-.35.36-.71.71-1.07,1.06a3,3,0,0,0,1-1Z"/>
        <path class="cls-30" d="M54.5,16.75a1.83,1.83,0,0,0-1.23-2.36,3.44,3.44,0,0,0-1.2-.21,4.85,4.85,0,0,0-.83.08A7.94,7.94,0,0,0,46,17.68c.49-1.16,1-2.34,1.47-3.51a4.63,4.63,0,0,0,.33-1.23A1.85,1.85,0,0,0,46,10.78h-.2a1.45,1.45,0,0,0-1.47,1.15c0,.16-.09.31-.13.45a5.14,5.14,0,0,1-.21.69l-.39.89a4.85,4.85,0,0,0,.25-1.08,1.9,1.9,0,0,0-.45-1.47A2,2,0,0,0,42,10.77h-.17a1.43,1.43,0,0,0-1.35,1.12,8.35,8.35,0,0,1-.23.83c-.32.94-.7,1.88-1.12,2.85a1.92,1.92,0,0,0-1.55-1.31A2.74,2.74,0,0,0,37,14.2a3.36,3.36,0,0,0-.71.08,5.35,5.35,0,0,0-1.33.45,7.58,7.58,0,0,0-2.17,1.59,8.59,8.59,0,0,0-.85,1A5.76,5.76,0,0,0,31,19.24a2.94,2.94,0,0,0,.11,2,2.12,2.12,0,0,0,.11.21,2.54,2.54,0,0,0,.94.9,3.51,3.51,0,0,0,.86.34,5.06,5.06,0,0,0,1.17.14,6.15,6.15,0,0,0,2.49-.58l.61-.29a1.84,1.84,0,0,0,1.62.88,3.44,3.44,0,0,0,.94-.15,6.73,6.73,0,0,0,1.25-.54l.17-.09a1.92,1.92,0,0,0,1.6.77,3.23,3.23,0,0,0,.66-.07,5.24,5.24,0,0,0,2.17-1,2.18,2.18,0,0,0,1.28.89,4.51,4.51,0,0,0,2.79-.19l0,0a2.74,2.74,0,0,0,1.36.38,3.42,3.42,0,0,0,1.88-.64,2.34,2.34,0,0,0,1.32-2.5.81.81,0,0,0-.37-.53.87.87,0,0,0-.41-.11h0c.09-.18.17-.36.25-.55A14.76,14.76,0,0,0,54.5,16.75Zm-5.41,3.1V19.8a2.14,2.14,0,0,1,.06-.27,3.83,3.83,0,0,1,.94-1.62c-.26.58-.54,1.18-.8,1.78C49.27,19.74,49.24,19.8,49.09,19.85Z"/>
        <path class="cls-30" d="M33.48,14.28A2.84,2.84,0,0,0,33.16,12a2.77,2.77,0,0,0-1.94-1.16,7,7,0,0,0-.84-.05h-.45l-.87,0-.27,0h-.11l-.25,0c-.46,0-.91.05-1.36.05H27a1.53,1.53,0,0,0-1.47.88,4.87,4.87,0,0,0-.24.57l-.08.23a1.42,1.42,0,0,0,.44,1.55l-.12.3-1,2.21-.65,1.46-.21.46A13.49,13.49,0,0,0,23.09,20a2.16,2.16,0,0,0,0,1.75,1.74,1.74,0,0,0,.11.18,2.26,2.26,0,0,0,1.29.87,7.29,7.29,0,0,0,2.08.31h.35a7.53,7.53,0,0,0,.83-.1,7,7,0,0,0,2.44-1,4.68,4.68,0,0,0,.92-.78,5,5,0,0,0,.44-.59A4.59,4.59,0,0,0,32.18,19a2.58,2.58,0,0,0,0-1.21,2.18,2.18,0,0,0-.21-.47,1.7,1.7,0,0,0-.26-.34A5.11,5.11,0,0,0,33.48,14.28Zm-6,4.8A3.13,3.13,0,0,1,28,19a1.93,1.93,0,0,1,.65.1h.05a.14.14,0,0,1,0,.06,1.27,1.27,0,0,1-.18.35,1.14,1.14,0,0,1-.46.33,1.56,1.56,0,0,1-.62.12,1.75,1.75,0,0,1-.4,0ZM29,15.21l.28-.83.63-.05a.54.54,0,0,1-.1.16A2.82,2.82,0,0,1,29,15.21Z"/>
        <path class="cls-30" d="M60.09,23.08a4.37,4.37,0,0,1-1.26-.19A3.11,3.11,0,0,1,56.6,20.1a2.12,2.12,0,0,1,.65-1.53,2.39,2.39,0,0,1,1.68-.79,1.61,1.61,0,0,1,.44.06,1.38,1.38,0,0,1,.84.9,3.16,3.16,0,0,1,.11.51,2.17,2.17,0,0,0,0,.25c.09.25.2.25.26.25a.36.36,0,0,0,.36-.38,1.86,1.86,0,0,0-.24-.68c-.15-.28-.33-.55-.52-.84l-.16-.23c-1.18-1.78-1.07-3.36.33-5.13a5.18,5.18,0,0,1,3.15-1.87,4,4,0,0,1,.76-.07,3.57,3.57,0,0,1,1.89.53,2.2,2.2,0,0,1,1,1.44,2.17,2.17,0,0,1-.51,1.7,2.33,2.33,0,0,1-1.67,1H65a.82.82,0,0,1-.72-.44l-.19-.38a.48.48,0,0,0-.4-.31.5.5,0,0,0-.39.26,1,1,0,0,0-.14,1,4.8,4.8,0,0,0,.44.83l0,0c.11.19.24.38.37.58s.26.4.39.61a3.16,3.16,0,0,1-.06,3.44A5.05,5.05,0,0,1,60.09,23.08Z"/>
        <path class="cls-30" d="M75.45,14.59a1.54,1.54,0,0,1-1.39-2.23,2.37,2.37,0,0,1,2.16-1.55h0a1.49,1.49,0,0,1,1.26.59,1.44,1.44,0,0,1,.16,1.35,2.53,2.53,0,0,1-1.56,1.73A2.27,2.27,0,0,1,75.45,14.59Z"/>
        <path class="cls-31" d="M78,16.53c-.31.59-.59,1.18-.92,1.73a8,8,0,0,1-3,3.09,4.11,4.11,0,0,1-.88.34,1.35,1.35,0,0,1-1.88-1.05c-.29.18-.55.39-.84.55a4.74,4.74,0,0,1-.86.39,1.58,1.58,0,0,1-2.17-.73c-.32.2-.63.41-1,.59a2.39,2.39,0,0,1-1.36.32A1.33,1.33,0,0,1,63.87,20a4.06,4.06,0,0,1,.28-.83c.21-.49.47-1,.68-1.46.32-.76.64-1.53.91-2.31a.83.83,0,0,1,.74-.66,1,1,0,0,1,1,.51,1.21,1.21,0,0,1,.1,1c-.16.42-.33.83-.51,1.24-.31.67-.64,1.33-.94,2a6.56,6.56,0,0,0-.19.82c.51.18.77-.1,1-.33a7.49,7.49,0,0,0,1.69-2.33c.35-.7.64-1.43.92-2.16s.51-.86,1.06-.74A1.09,1.09,0,0,1,71.53,16a3.92,3.92,0,0,1-.28.9c-.37.86-.77,1.72-1.16,2.58-.1.24-.27.48,0,.75.41.06.67-.21.94-.44a6,6,0,0,0,1.46-1.91c.39-.81.72-1.64,1-2.47.21-.52.41-.7.86-.66a1,1,0,0,1,1,.84,2.48,2.48,0,0,1-.15,1.05c-.37.93-.8,1.84-1.2,2.77-.1.23-.17.48-.25.72a.56.56,0,0,0,.79-.1,7.36,7.36,0,0,0,1.15-1.22A21.84,21.84,0,0,0,77,16.62a6.16,6.16,0,0,0,.28-.89c.06-.22.12-.43.2-.64a.56.56,0,0,1,.6-.33c1.25.06,2.51.1,3.76.14a.7.7,0,0,1,.68,1,2.08,2.08,0,0,1-.43.59l-2.92,2.89c-.25.25-.52.49-.8.75a3.69,3.69,0,0,0,4-1.67,8.08,8.08,0,0,1,2.19-2.43,7.21,7.21,0,0,1,3.08-1.27,2.91,2.91,0,0,1,1.52.12,1,1,0,0,1,.7,1.34,7.71,7.71,0,0,1-.4,1.14c-.31.72-.66,1.42-1,2.14a5,5,0,0,0-.22.71c.72.18,1-.48,1.43-.66.19.53-.08,1-.8,1.56a2.15,2.15,0,0,1-2.84.11c-.28.11-.57.25-.87.34a2.28,2.28,0,0,1-3.09-1.29s-.1,0-.12,0a6.5,6.5,0,0,1-4.28,1.53,3.82,3.82,0,0,1-1.06-.11c-.9-.18-1.13-.77-.57-1.52a9.28,9.28,0,0,1,1-1.09c.72-.68,1.46-1.33,2.18-2,.21-.19.4-.41.66-.69Zm7,3.94a1.19,1.19,0,0,0,1-.67c.44-1,.89-1.95,1.33-2.93.09-.22.29-.47,0-.68s-.51-.09-.75,0l-.18.09A5,5,0,0,0,84.49,19a2.61,2.61,0,0,0-.1.92C84.41,20.28,84.65,20.46,85.06,20.47Z"/>
        <path class="cls-31" d="M51.86,20.28c.73.14,1-.53,1.46-.68.13.61-.19,1.14-1,1.65a2.13,2.13,0,0,1-2.69.05,7.43,7.43,0,0,1-1.36.4,4,4,0,0,1-1.39-.09,1.76,1.76,0,0,1-1.19-1.35l-.43.33a5,5,0,0,1-2.18,1.13,1.35,1.35,0,0,1-1.79-1c-.15.09-.29.2-.44.27a9.86,9.86,0,0,1-1.52.69c-1.11.32-1.62,0-2-1.08-.43.23-.85.49-1.3.68a4.74,4.74,0,0,1-3.14.39,1.81,1.81,0,0,1-1.44-2.44,5.75,5.75,0,0,1,1.56-2.55,6,6,0,0,1,3.08-1.82,2.59,2.59,0,0,1,1,0,1.13,1.13,0,0,1,1,1.39,2.64,2.64,0,0,1-.27.82A4.52,4.52,0,0,1,35,19.23a8.2,8.2,0,0,1-1.12.08,1,1,0,0,0,1.27,1.21,4,4,0,0,0,3.08-2.05,39.36,39.36,0,0,0,2.51-5.72c.1-.29.18-.6.26-.9a.61.61,0,0,1,.63-.5,1.08,1.08,0,0,1,1.2,1.2,4.26,4.26,0,0,1-.29,1.1c-.74,1.8-1.51,3.59-2.27,5.38a8.16,8.16,0,0,0-.34.81c0,.11,0,.32,0,.36a.57.57,0,0,0,.42.07,1.81,1.81,0,0,0,.52-.3,4.6,4.6,0,0,0,1.32-1.59c.79-1.74,1.55-3.48,2.31-5.23a10.11,10.11,0,0,0,.37-1.22.68.68,0,0,1,.84-.58,1.06,1.06,0,0,1,1,1.25,4.46,4.46,0,0,1-.27,1c-.7,1.7-1.42,3.39-2.14,5.08-.16.39-.36.78-.5,1.17s.06.5.37.41a1.65,1.65,0,0,0,.58-.32,5.08,5.08,0,0,0,1.33-1.58,7.05,7.05,0,0,1,5-3.56,2.87,2.87,0,0,1,1.59.09,1,1,0,0,1,.73,1.38c-.17.55-.4,1.09-.62,1.63s-.54,1.13-.79,1.71A4.54,4.54,0,0,0,51.86,20.28ZM48,19.55c0,.78.37,1.06,1,.86a1.08,1.08,0,0,0,.74-.63c.42-.94.85-1.88,1.28-2.81a2.65,2.65,0,0,0,.17-.44c.07-.28-.06-.46-.34-.43a1.39,1.39,0,0,0-.63.21,4.9,4.9,0,0,0-2.14,2.75C48,19.25,48,19.46,48,19.55ZM34.3,18.08a2.84,2.84,0,0,0,1.85-1.2c.18-.22.38-.45.18-.83C35.23,16.3,34.76,17.19,34.3,18.08Z"/>
        <path class="cls-31" d="M30,16.76l.4.25a1.45,1.45,0,0,1,.68,1.62,3.58,3.58,0,0,1-1.63,2.46,5.83,5.83,0,0,1-5,.67A1.18,1.18,0,0,1,23.56,20c.22-.61.51-1.19.77-1.79.55-1.22,1.11-2.45,1.65-3.68.13-.3.23-.62.36-1-.14-.08-.26-.13-.37-.2a.63.63,0,0,1-.27-.76,4.12,4.12,0,0,1,.27-.69.73.73,0,0,1,.75-.42c1,0,2-.1,3-.14a7.2,7.2,0,0,1,1.14,0,1.84,1.84,0,0,1,1.6,2.45,4.34,4.34,0,0,1-1.67,2.38Zm-4.31,3.35a2.36,2.36,0,0,0,3.16-.29,2,2,0,0,0,.32-.58.77.77,0,0,0-.54-1.11,3.52,3.52,0,0,0-1.85,0,.48.48,0,0,0-.3.22C26.23,18.91,26,19.5,25.71,20.11Zm2.7-6.71-1,2.91a4.46,4.46,0,0,0,2.75-1.56,1.71,1.71,0,0,0,.29-.53c.19-.58,0-.92-.66-.93S28.83,13.36,28.41,13.4Z"/>
        <path class="cls-31" d="M64.69,14.18c-.07-.15-.13-.27-.19-.38a1.21,1.21,0,0,0-2.17-.15,1.82,1.82,0,0,0-.24,1.73,6.1,6.1,0,0,0,.53,1c.24.4.52.78.76,1.18a2.36,2.36,0,0,1-.05,2.61,4.22,4.22,0,0,1-4.54,1.71,2.29,2.29,0,0,1-1.67-2.06,1.61,1.61,0,0,1,1.74-1.44c.13,0,.25.23.3.38s.07.53.17.78a1.07,1.07,0,0,0,1.32.74A1.12,1.12,0,0,0,61.51,19a3.29,3.29,0,0,0-.33-.94c-.21-.39-.47-.76-.72-1.13-1-1.51-.89-2.71.29-4.19a4.34,4.34,0,0,1,2.66-1.58,2.84,2.84,0,0,1,2.07.36,1.22,1.22,0,0,1,.32,2A1.58,1.58,0,0,1,64.69,14.18Z"/>
        <path class="cls-31" d="M75.94,11.39c.56,0,.84.35.67.88a1.74,1.74,0,0,1-1.07,1.21.81.81,0,0,1-.93-.17.74.74,0,0,1-.09-.87A1.54,1.54,0,0,1,75.94,11.39Z"/>
      </g>
      <path class="cls-30" d="M92.76,12.69A.75.75,0,0,1,93,13a.85.85,0,0,1,0,.76.65.65,0,0,1-.26.26.76.76,0,0,1-.37.1A.8.8,0,0,1,92,14a.72.72,0,0,1-.26-.26.85.85,0,0,1,0-.76.84.84,0,0,1,.26-.27.79.79,0,0,1,.38-.09A.75.75,0,0,1,92.76,12.69Zm.06,1.09a.68.68,0,0,0,0-.88.55.55,0,0,0-.43-.18.54.54,0,0,0-.43.18.65.65,0,0,0,0,.88.53.53,0,0,0,.43.17A.54.54,0,0,0,92.82,13.78Zm-.16-.45a.28.28,0,0,1-.15.08l.23.32h-.19l-.21-.31h-.08v.31H92.1v-.79h.34a.32.32,0,0,1,.2.06.23.23,0,0,1,.07.18A.25.25,0,0,1,92.66,13.33Zm-.4-.05h.17s.07,0,.09,0a.1.1,0,0,0,0-.08.08.08,0,0,0,0-.07.12.12,0,0,0-.09,0h-.17Z"/>
      <g>
        <path class="cls-30" d="M29.37,25.3a1.38,1.38,0,0,1,.48-.42,1.44,1.44,0,0,1,.62-.14,1,1,0,0,1,.65.21.82.82,0,0,1,.29.59H30.8a.37.37,0,0,0-.16-.22.45.45,0,0,0-.27-.07.6.6,0,0,0-.44.18.74.74,0,0,0-.24.47.47.47,0,0,0,0,.16.48.48,0,0,0,.13.36.44.44,0,0,0,.34.13.59.59,0,0,0,.53-.29h.61a1.27,1.27,0,0,1-.49.58,1.26,1.26,0,0,1-.73.22,1,1,0,0,1-.51-.12.68.68,0,0,1-.33-.32,1,1,0,0,1-.12-.48,1.94,1.94,0,0,1,0-.24A1.35,1.35,0,0,1,29.37,25.3Z"/>
        <path class="cls-30" d="M33.62,26.64h-.85l-.21.4H32l1.23-2.28h.64L34.27,27h-.58Zm-.06-.42-.14-.85-.43.85Z"/>
        <path class="cls-30" d="M37,24.92a.52.52,0,0,1,.19.42c0,.05,0,.1,0,.14a.93.93,0,0,1-.2.41,1,1,0,0,1-.43.25L37,27h-.63L36,26.18h-.13l-.15.86h-.56l.4-2.28h.94A.82.82,0,0,1,37,24.92Zm-.39.52a.24.24,0,0,0-.06-.17.37.37,0,0,0-.2-.05h-.34l-.1.57h.34a.35.35,0,0,0,.36-.29Z"/>
        <path class="cls-30" d="M40,27h-.55l-.68-1.4L38.49,27h-.55l.4-2.28h.55l.68,1.41.25-1.41h.56Z"/>
        <path class="cls-30" d="M41.9,25.2l-.08.47h.75l-.08.42h-.74l-.09.51h.84l-.08.44H41l.41-2.28h1.39l-.08.44Z"/>
        <path class="cls-30" d="M43.73,26.9a.52.52,0,0,1-.23-.45.34.34,0,0,1,0-.09h.57a.27.27,0,0,0,.06.19.29.29,0,0,0,.21.08.32.32,0,0,0,.2-.06.19.19,0,0,0,.07-.16.19.19,0,0,0-.09-.16,1.09,1.09,0,0,0-.29-.15,1.66,1.66,0,0,1-.3-.15.63.63,0,0,1-.21-.19.49.49,0,0,1-.09-.3.71.71,0,0,1,.11-.39.73.73,0,0,1,.32-.25,1.08,1.08,0,0,1,.46-.09,1.3,1.3,0,0,1,.41.07.7.7,0,0,1,.29.21.64.64,0,0,1,.1.33.56.56,0,0,1,0,.07h-.59s0,0,0,0a.17.17,0,0,0-.07-.14.24.24,0,0,0-.17-.06.29.29,0,0,0-.19.06.17.17,0,0,0-.07.15.18.18,0,0,0,.09.16,1.3,1.3,0,0,0,.28.16l.31.16a.8.8,0,0,1,.21.2.5.5,0,0,1,.09.31.66.66,0,0,1-.11.36.7.7,0,0,1-.31.24,1.13,1.13,0,0,1-.47.09A1,1,0,0,1,43.73,26.9Z"/>
        <path class="cls-30" d="M49.43,26.51l.45.53h-.64l-.18-.2a1.36,1.36,0,0,1-.79.24.91.91,0,0,1-.56-.16.52.52,0,0,1-.21-.43.63.63,0,0,1,.17-.45,1.14,1.14,0,0,1,.44-.33.6.6,0,0,1-.1-.3.61.61,0,0,1,.11-.35.55.55,0,0,1,.28-.24,1,1,0,0,1,.42-.09.65.65,0,0,1,.45.14.41.41,0,0,1,.16.33.34.34,0,0,1,0,.1H48.9v0a.1.1,0,0,0,0-.09.13.13,0,0,0-.1,0,.2.2,0,0,0-.15.06.17.17,0,0,0-.07.14.53.53,0,0,0,.13.28l.46.54.06-.09.16-.2h.55l-.2.28C49.6,26.29,49.51,26.41,49.43,26.51Zm-.65,0L48.36,26a.58.58,0,0,0-.21.16.28.28,0,0,0-.08.21.19.19,0,0,0,.08.17.32.32,0,0,0,.23.07A.72.72,0,0,0,48.78,26.51Z"/>
        <path class="cls-30" d="M52.52,25.3a1.38,1.38,0,0,1,.48-.42,1.44,1.44,0,0,1,.62-.14,1,1,0,0,1,.66.21.85.85,0,0,1,.28.59H54a.37.37,0,0,0-.16-.22.45.45,0,0,0-.27-.07.6.6,0,0,0-.44.18.74.74,0,0,0-.24.47,1,1,0,0,0,0,.16.48.48,0,0,0,.13.36.44.44,0,0,0,.34.13.59.59,0,0,0,.53-.29h.61a1.27,1.27,0,0,1-.49.58,1.26,1.26,0,0,1-.73.22,1,1,0,0,1-.51-.12.68.68,0,0,1-.33-.32,1,1,0,0,1-.12-.48,1.94,1.94,0,0,1,0-.24A1.35,1.35,0,0,1,52.52,25.3Z"/>
        <path class="cls-30" d="M55.86,26.94a.83.83,0,0,1-.34-.33,1.06,1.06,0,0,1-.12-.5,1.53,1.53,0,0,1,.17-.72,1.23,1.23,0,0,1,.48-.48,1.35,1.35,0,0,1,.7-.18,1.07,1.07,0,0,1,.51.12.9.9,0,0,1,.34.33,1,1,0,0,1,.12.5,1.52,1.52,0,0,1-.17.71,1.36,1.36,0,0,1-.48.5,1.48,1.48,0,0,1-.7.17A1,1,0,0,1,55.86,26.94Zm1-.5a.75.75,0,0,0,.25-.3.9.9,0,0,0,.09-.4.45.45,0,0,0-.5-.5.65.65,0,0,0-.37.11.73.73,0,0,0-.26.29,1,1,0,0,0-.09.41.55.55,0,0,0,.13.37.49.49,0,0,0,.37.13A.7.7,0,0,0,56.83,26.44Z"/>
        <path class="cls-30" d="M60.35,24.92a.52.52,0,0,1,.19.42.59.59,0,0,1,0,.14.81.81,0,0,1-.19.41,1,1,0,0,1-.43.25l.37.9h-.63l-.32-.86h-.13L59,27h-.56l.4-2.28h.93A.83.83,0,0,1,60.35,24.92Zm-.39.52a.24.24,0,0,0-.06-.17.37.37,0,0,0-.2-.05h-.34l-.1.57h.34A.35.35,0,0,0,60,25.5Z"/>
        <path class="cls-30" d="M63.29,24.76l-.08.44H62.6L62.28,27h-.56l.33-1.84h-.6l.07-.44Z"/>
        <path class="cls-30" d="M64.69,25.2l-.08.47h.74l-.07.42h-.75l-.09.51h.84l-.07.44h-1.4l.4-2.28h1.4l-.08.44Z"/>
        <path class="cls-30" d="M66.52,26.9a.5.5,0,0,1-.23-.45v-.09h.58a.2.2,0,0,0,.06.19.26.26,0,0,0,.21.08.32.32,0,0,0,.2-.06.22.22,0,0,0,.07-.16.19.19,0,0,0-.09-.16A1.09,1.09,0,0,0,67,26.1a1.8,1.8,0,0,1-.31-.15.6.6,0,0,1-.2-.19.49.49,0,0,1-.09-.3.64.64,0,0,1,.11-.39.7.7,0,0,1,.31-.25,1.14,1.14,0,0,1,.46-.09,1.32,1.32,0,0,1,.42.07A.61.61,0,0,1,68,25a.56.56,0,0,1,.1.33v.07h-.59v0a.17.17,0,0,0-.06-.14.24.24,0,0,0-.17-.06.27.27,0,0,0-.19.06.18.18,0,0,0-.08.15.18.18,0,0,0,.09.16,1.43,1.43,0,0,0,.29.16l.31.16a.8.8,0,0,1,.21.2.5.5,0,0,1,.09.31.66.66,0,0,1-.11.36.76.76,0,0,1-.31.24,1.13,1.13,0,0,1-.47.09A1,1,0,0,1,66.52,26.9Z"/>
      </g>
    </g>
  </g>
</svg>
