<svg xmlns="http://www.w3.org/2000/svg" viewBox="0 0 11.3 8.93">
  <defs>
    <style>
      .cls-1 {
        fill: #23401d;
      }

      .cls-2 {
        fill: #fff;
      }

      .cls-3 {
        fill: #28451e;
      }

      .cls-4 {
        fill: #2d5123;
      }

      .cls-5 {
        fill: #483215;
      }

      .cls-6 {
        fill: #26451e;
      }

      .cls-7 {
        fill: #31381a;
      }

      .cls-8 {
        fill: #245225;
      }

      .cls-9 {
        fill: #7cb928;
      }

      .cls-10 {
        fill: #7fba28;
      }

      .cls-11 {
        fill: #289938;
      }

      .cls-12 {
        fill: #72b62f;
      }

      .cls-13 {
        fill: #82bb26;
      }

      .cls-14 {
        fill: #815b13;
      }

      .cls-15 {
        fill: #6b4910;
      }

      .cls-16 {
        fill: #4dad33;
      }

      .cls-17 {
        fill: #64a530;
      }

      .cls-18 {
        fill: #9bc42c;
      }

      .cls-19 {
        fill: #a1c630;
      }

      .cls-20 {
        fill: #2e5324;
      }

      .cls-21 {
        fill: #fdfdfd;
      }

      .cls-22 {
        fill: #da0e15;
      }

      .cls-23 {
        fill: #b31917;
      }

      .cls-24 {
        fill: #eb7a7f;
      }

      .cls-25 {
        fill: #60b22f;
      }

      .cls-26 {
        fill: #348a35;
      }

      .cls-27 {
        fill: #f1872c;
      }

      .cls-28 {
        fill: #0d1111;
      }

      .cls-29 {
        fill: #cfe9ee;
      }
    </style>
  </defs>
  <g id="Capa_2" data-name="Capa 2">
    <g id="Capa_1-2" data-name="Capa 1">
      <g>
        <path class="cls-1" d="M6.47,8.64l-.16.07-.24,0L6,8.7l0,0-.06,0h0l0,0-.25-.17h0l-.1-.06h0l0,0h0l0,0-.29-.2L5.22,8a1.94,1.94,0,0,0,.29.21h0l.14.09.09.05.38.19h0l.11,0h0A.9.9,0,0,0,6.47,8.64Z"/>
        <path class="cls-2" d="M8.6,8.4l.32,0a2.77,2.77,0,0,1-1.25.48,1.18,1.18,0,0,1-.42,0L6.9,8.84a1.33,1.33,0,0,0,.26-.21l.12,0a.9.9,0,0,0,.4,0A3.67,3.67,0,0,0,8.6,8.4Z"/>
        <path class="cls-2" d="M9.53,3,9.45,3l0,0L9,3.09a3.65,3.65,0,0,1,.35.14h0a1.06,1.06,0,0,0-.31,0,1.4,1.4,0,0,0-.29-.09A.81.81,0,0,0,8,3.2a.52.52,0,0,0-.11-.1l0-.07H7.64V2.89l.34,0V2.74a2.2,2.2,0,0,1,.07-.92v0h0c.06,0,.08,0,.12.05s0,0,0,0a2.37,2.37,0,0,0-.06.7.43.43,0,0,0,0,.11h0a1.59,1.59,0,0,1,.33-.63l.15.1,0,.05a1,1,0,0,0-.22.58c0,.13,0,.17.17.17a3.26,3.26,0,0,0,.82-.13C9.38,2.92,9.46,3,9.53,3Z"/>
        <path class="cls-3" d="M9.85,3.73l0,0h0l0,0Z"/>
        <path class="cls-4" d="M4.79,3.19l.15,0,0,0h0l-.06,0,0,0a.27.27,0,0,0-.08.07h0l0,0h0l0,0,0,0,0,0,0,0,0,0,0,0,0,0h0l0,0,0,0v0l0,0,0,0,0,0v0l0,.05,0,0,0,.1v.09l0,0,0,0v0h0v.07h0v0h0v0h0v.22a.15.15,0,0,0,0,.07s0,0,0,.06v0s0,0,0,.07V5h0v.18a4,4,0,0,0,.05.6l0,0h0v.09h0l0,0h0L4,6.05a4.15,4.15,0,0,1-.07-1.36s0-.07,0-.1l0-.15a.44.44,0,0,1,0-.1.64.64,0,0,0,0-.07,1.46,1.46,0,0,1,.07-.19,1.37,1.37,0,0,1,.16-.32l0-.06h0l0,0,0,0,.14-.16.15-.14Z"/>
        <path class="cls-2" d="M7.4,3,7.08,3a3.57,3.57,0,0,0-1.42,0H5.6L5.53,3h-.1L5.3,2.94l.25-.08A3.63,3.63,0,0,1,7,2.83l.38,0Z"/>
        <path class="cls-5" d="M7.4,2.82c0-.16-.07-.32-.12-.47a1.16,1.16,0,0,0-.54-.74.22.22,0,0,1-.1-.3A.51.51,0,0,1,7.28,1a.24.24,0,0,1,.12.14,4.4,4.4,0,0,1,.21,1.08c0,.18,0,.37,0,.55H7.56c0-.17,0-.34,0-.5s-.07-.49-.11-.73-.09-.29-.13-.43,0,0-.08,0a.39.39,0,0,0-.36.07.57.57,0,0,0-.12.15c0,.08,0,.14.1.13a.47.47,0,0,0,.44-.28s0,0,0,0a2,2,0,0,1-.1.21l0,.06-.25.13a1.88,1.88,0,0,1,.54,1.26Z"/>
        <path class="cls-6" d="M4,6.05,4.08,6l0,0a5.3,5.3,0,0,0,.3,1,2.57,2.57,0,0,0,.41.67l.38.4-.14.12a3.1,3.1,0,0,1-.73-1A3.9,3.9,0,0,1,4,6.05Z"/>
        <path class="cls-2" d="M9.62.43a3.56,3.56,0,0,1,.84-.16,1.1,1.1,0,0,0,.61-.22c.09-.08.12-.07.16.05a1.64,1.64,0,0,1,0,.73c0,.22-.08.43-.13.65a2.34,2.34,0,0,1-.09.24.14.14,0,0,1-.11-.1.43.43,0,0,1,0-.05A2.5,2.5,0,0,0,11.13.33c0-.13,0-.15-.17-.1l-.29.1-.21,0a1,1,0,0,0-.25,0l-.6.13Z"/>
        <path class="cls-2" d="M11,1.62a.14.14,0,0,0,.11.1A2,2,0,0,1,9.87,2.86,1.93,1.93,0,0,1,9.53,3c-.07,0-.15-.05-.15-.15l.35-.11a1.65,1.65,0,0,0,1-.73C10.81,1.87,10.88,1.74,11,1.62Z"/>
        <path class="cls-2" d="M9.62.43V.51l-.23.1a2,2,0,0,0-1.2,1.22s-.06-.08-.12-.05A1.77,1.77,0,0,1,8.58,1,2.82,2.82,0,0,1,9.62.43Z"/>
        <path class="cls-7" d="M7.56,2.8h.08V3l0,.28.22-.2L8,3.2l-.13.1a1.42,1.42,0,0,0-.13.12.25.25,0,0,1-.31.06c-.06,0-.07-.06,0-.12a.5.5,0,0,0,0-.13V2.82h0l0,.5s0,.06,0,.08,0,0,0-.08Z"/>
        <path class="cls-8" d="M9.41,3l0,0Z"/>
        <path class="cls-6" d="M7.35,8.22h0Z"/>
        <path class="cls-6" d="M7.48,8.24h0Z"/>
        <path class="cls-8" d="M8.06,1.79v0Z"/>
        <path class="cls-9" d="M7.15,7.85h0v0a1,1,0,0,1-.5.66l-.18.09a.9.9,0,0,1-.22-.06h0l-.11,0h0l-.38-.19-.09-.05L5.51,8.2h0A1.94,1.94,0,0,1,5.22,8l-.38-.4V7.48l.31-.27,0-.09.16.13.17.13,0,0,.07,0h0a.41.41,0,0,0,.11.07,2.22,2.22,0,0,0,.6.24l.18,0h.69Z"/>
        <path class="cls-9" d="M8.27,8.32l.33.08a3.67,3.67,0,0,1-.92.3.9.9,0,0,1-.4,0l-.12,0A1.39,1.39,0,0,0,7.51,8h0a.4.4,0,0,0,0-.15v0A1.26,1.26,0,0,0,8.27,8.32Z"/>
        <path class="cls-10" d="M8.46,3.58a1,1,0,0,0-.16.24,3.65,3.65,0,0,0-.14.35H8a.58.58,0,0,1-.19,0l-.5-.05L6.91,4a1,1,0,0,1-.18-.13l.06-.06h0l.11-.11L7,3.59a.18.18,0,0,1,.07,0H7c.08,0,.16.12.25.17a.35.35,0,0,0,.28.08l.36-.12A1.39,1.39,0,0,1,8.46,3.58Z"/>
        <path class="cls-10" d="M9,3.27a1,1,0,0,0-.42.23,1.55,1.55,0,0,0-.43,0A.58.58,0,0,0,8,3.38L7.86,3.3,8,3.2a.81.81,0,0,1,.68,0A1.4,1.4,0,0,1,9,3.27Z"/>
        <path class="cls-11" d="M9.73,2.71l-.35.11A3.26,3.26,0,0,1,8.56,3c-.14,0-.17,0-.17-.17a1,1,0,0,1,.22-.58l0-.05a2.73,2.73,0,0,1,.27-.31,5.47,5.47,0,0,1,1.15-.73c.22-.12.43-.25.64-.39A2.23,2.23,0,0,0,11,.45s0,0,0,.08a1,1,0,0,1-.38.55l-.74.44A1.41,1.41,0,0,0,9.39,2a.44.44,0,0,0,.09.57C9.56,2.62,9.65,2.66,9.73,2.71Z"/>
        <path class="cls-12" d="M8.18,1.83A2,2,0,0,1,9.38.61l.23-.1.6-.13a1,1,0,0,1,.25,0l-.14,0A3.51,3.51,0,0,0,9,1a.75.75,0,0,0-.32.36.65.65,0,0,0,0,.51l-.15.19a1.59,1.59,0,0,0-.33.63h0a.43.43,0,0,1,0-.11,2.37,2.37,0,0,1,.06-.7S8.18,1.85,8.18,1.83Z"/>
        <path class="cls-2" d="M8.49,2.05l.15-.19a4.12,4.12,0,0,1,.85-.58c.35-.18.71-.36,1-.55a.72.72,0,0,0,.2-.14c.09-.07.16-.15.24-.22h0l0,.08a2.23,2.23,0,0,1-.26.27c-.21.14-.42.27-.64.39a5.47,5.47,0,0,0-1.15.73,2.73,2.73,0,0,0-.27.31Z"/>
        <path class="cls-10" d="M7.88,3.1l-.22.2,0-.28h.29Z"/>
        <path class="cls-13" d="M4.94,3.22a1.91,1.91,0,0,1,.36.13h0l0,0h0l0,0H5l0,0H5l0,0,0,0,0,0,0,0h0l0,0,0,0,0,0h0v0l0,0,0,0,0,0,0,0-.09.13,0,0,0,0h0V4l0,0,0,0,0,0v0l0,0v0s0,.07,0,.11v0a.19.19,0,0,0,0,.08V4.5a.19.19,0,0,0,0,.08v.09h0v0a1.09,1.09,0,0,0,0,.18v.19h0v.15h0v0h0v.35h0v.24l0,0V6l0,0v0l0,0v.05a.59.59,0,0,1,0,.08l0,0v0a.83.83,0,0,0,.07.13v0a.41.41,0,0,1,0,.09h0l.08.12h0a1.58,1.58,0,0,0,.12.15L5,7l.15.17,0,.09-.31.27v.11a2.57,2.57,0,0,1-.41-.67.61.61,0,0,0,0-.12l-.06-.15a.88.88,0,0,0-.05-.15v0c0-.17-.09-.34-.13-.51h0V5.82a4,4,0,0,1-.05-.6V5h0V4.9s0-.05,0-.07v0s0,0,0-.06a.15.15,0,0,1,0-.07V4.44h0v0h0v0h0V4.26h0v0l0,0,0,0V4l0-.1,0,0,0-.05v0l0,0,0,0,0,0v0l0,0,0,0h0l0,0,0,0,0,0,0,0,0,0,0,0,0,0h0l0,0h0a.27.27,0,0,1,.08-.07l0,0,.06,0h0Z"/>
        <path class="cls-13" d="M7.4,3v.24c-.1,0-.21,0-.31,0A1,1,0,0,0,7,3.33a1.3,1.3,0,0,0-.49-.17s0,0,0,0l0,0c.15.08.3.16.44.25A.6.6,0,0,1,7,3.54a.18.18,0,0,0-.07,0c-.08.08-.16.15-.23.23s0,0-.05,0l-.47-.33,0,0h0l0,0h0L6,3.36H6A2.48,2.48,0,0,0,5.43,3h.1l.07,0h.06A3.57,3.57,0,0,1,7.08,3Z"/>
        <path class="cls-6" d="M4.11,5.82v0h0Z"/>
        <path class="cls-14" d="M7.51,3.4s0,0,0-.08l0-.5A1.88,1.88,0,0,0,6.9,1.56l.25-.13a.64.64,0,0,1,.1.13,1.75,1.75,0,0,1,.12.32,4.63,4.63,0,0,1,.14,1C7.52,3,7.51,3.22,7.51,3.4Z"/>
        <path class="cls-15" d="M7.51,3.4c0-.18,0-.36,0-.54a4.63,4.63,0,0,0-.14-1,1.75,1.75,0,0,0-.12-.32.64.64,0,0,0-.1-.13l0-.06a2,2,0,0,0,.1-.21v0c0,.14.1.28.13.43s.08.48.11.73,0,.33,0,.5v.52S7.53,3.38,7.51,3.4Z"/>
        <path class="cls-14" d="M7.28,1.14v0s0,0,0,0a.47.47,0,0,1-.44.28c-.09,0-.13-.05-.1-.13a.57.57,0,0,1,.12-.15A.39.39,0,0,1,7.2,1.1S7.25,1.13,7.28,1.14Z"/>
        <path class="cls-16" d="M11,.37c-.08.07-.15.15-.24.22a.72.72,0,0,1-.2.14c-.34.19-.7.37-1,.55a4.12,4.12,0,0,0-.85.58.65.65,0,0,1,0-.51A.75.75,0,0,1,9,1,3.51,3.51,0,0,1,10.32.4l.14,0,.21,0L11,.23c.13-.05.15,0,.17.1A2.5,2.5,0,0,1,11,1.57a.43.43,0,0,0,0,.05c-.07.12-.14.25-.22.36a1.65,1.65,0,0,1-1,.73c-.08,0-.17-.09-.25-.15A.44.44,0,0,1,9.39,2a1.41,1.41,0,0,1,.47-.47l.74-.44A1,1,0,0,0,11,.53s0-.05,0-.08l0-.08v0h0Z"/>
        <path class="cls-17" d="M7,3.33a1,1,0,0,1,.15-.07c.1,0,.21,0,.31,0a.5.5,0,0,1,0,.13c0,.06,0,.1,0,.12a.25.25,0,0,0,.31-.06,1.42,1.42,0,0,1,.13-.12L8,3.38a.58.58,0,0,1,.1.12l-.39.1a.47.47,0,0,1-.33,0Z"/>
        <path class="cls-18" d="M7.16,7.81H6.47l-.18,0a2.22,2.22,0,0,1-.6-.24.41.41,0,0,1-.11-.07h0l-.07,0,0,0-.17-.13-.16-.13L5,7l-.07-.11L5,6.77l.56-.6,0,0L5.67,6h0l.08-.09.34-.36,0,0,.29-.32.1-.11c0,.23.08.46.11.68A5,5,0,0,0,7,7.1,1.64,1.64,0,0,1,7.16,7.81Z"/>
        <path class="cls-18" d="M8.21,4.92c-.08.2-.17.4-.26.59s-.15.33-.22.5a1,1,0,0,0-.07.15c-.07.16-.15.33-.22.52A1.19,1.19,0,0,0,7.36,7l-.05-.09A4.28,4.28,0,0,1,7,5.81v-.1c0-.07,0-.14,0-.22,0-.24-.08-.5-.13-.75.15-.16.3-.33.46-.49s0-.08,0-.11l.5.05a.58.58,0,0,0,.19,0h.12A1,1,0,0,0,8.21,4.92Z"/>
        <path class="cls-19" d="M6.91,4a1,1,0,0,1-.18-.13s0,0-.05,0l-.47-.33,0,0h0l0,0h0L6,3.36a2.43,2.43,0,0,1,.81,1.29s0,.06,0,.09c.15-.16.3-.33.46-.49s0-.08,0-.11ZM5.3,3.35h0l0,0h0l0,0H5l0,0H5l0,0,0,0,0,0,0,0h0l0,0,0,0,0,0h0v0l0,0,0,0,0,0,0,0-.09.13,0,0,0,0h0V4l0,0,0,0,0,0v0l0,0v0s0,.07,0,.11v0a.19.19,0,0,0,0,.08V4.5a.19.19,0,0,0,0,.08v.09h0v0a1.09,1.09,0,0,0,0,.18v.19h0v.15h0v0h0v.35h0v.24l0,0V6l0,0v0l0,0v.05a.59.59,0,0,1,0,.08l0,0v0a.83.83,0,0,0,.07.13v0a.41.41,0,0,1,0,.09h0l.08.12h0a1.58,1.58,0,0,0,.12.15L5,6.77l.56-.6,0,0L5.67,6h0l.08-.09.34-.36,0,0,.29-.32.1-.11c0-.12,0-.24-.07-.36A2.08,2.08,0,0,0,5.3,3.35Zm-.17.47v0h0l0,0h0l0,0h.07l0,0h.18a.76.76,0,0,1,.16,0c.07,0,.13,0,.14.12h0v0h0s0,0,0,0h0l0,0h0l0,0h0l0,0h0L5.5,4h0L5.43,4h0A.36.36,0,0,1,5.2,4c-.11,0-.14-.11-.07-.21Z"/>
        <path class="cls-20" d="M8.54,3.5a.6.6,0,0,0-.08.08,1.39,1.39,0,0,0-.54.09l-.36.12a.35.35,0,0,1-.28-.08c-.09,0-.17-.12-.25-.17H7l0,0,0,0H7l0,0c-.14-.09-.29-.17-.44-.25l0,0s0,0,0,0h.21l0,0,0,0h.06l.05,0,.06,0H7l.44.25a.47.47,0,0,0,.33,0l.39-.1A1.55,1.55,0,0,1,8.54,3.5Z"/>
        <path class="cls-8" d="M11,.37l0,0h0v0Z"/>
        <polygon class="cls-8" points="11 0.34 11 0.33 11 0.34 11 0.34"/>
        <path class="cls-21" d="M5.54,3.61a.76.76,0,0,1,.16,0c.07,0,.13,0,.14.12s0,.11-.09.14A3,3,0,0,1,5.43,4,.36.36,0,0,1,5.2,4c-.11,0-.14-.11-.07-.21A.57.57,0,0,1,5.54,3.61Z"/>
        <g>
          <path class="cls-3" d="M7,7.1a5,5,0,0,1-.34-1.33c0-.22-.07-.45-.11-.68s0-.24-.07-.36A2.08,2.08,0,0,0,5.3,3.35a1.91,1.91,0,0,0-.36-.13l-.15,0a1.93,1.93,0,0,0-1.13.18l-.05,0a1.76,1.76,0,0,0-.5-1.06l-.33-.49c0-.08-.11-.09-.14,0s-.12.41-.16.61,0,.25,0,.39A2,2,0,0,1,2.18,2s-.09,0-.12,0A.48.48,0,0,0,2,2.09H2l0,0h0A2,2,0,0,0,1.66,3c0,.15,0,.31,0,.46s-.28,0-.41,0a2.72,2.72,0,0,0-.88.31L.07,4s0,.08-.07.11l.11.05H.2L1,4.41v0l-.17.08A1.33,1.33,0,0,0,.06,5.8a.1.1,0,0,0,0,.08s.06,0,.08,0a1.43,1.43,0,0,1,.88-.42l.17,0A4.48,4.48,0,0,0,1.12,6a1.82,1.82,0,0,0,.34,1.16A3.43,3.43,0,0,0,3.57,8.63a6,6,0,0,0,2.5.12l.24,0,.16-.07.18-.09a1,1,0,0,0,.5-.66v0h0v0A1.64,1.64,0,0,0,7,7.1ZM5.27,8.31a4.91,4.91,0,0,1-1.85-.25A2.88,2.88,0,0,1,1.88,6.91a2,2,0,0,1-.15-.29h0a1.25,1.25,0,0,1-.09-.25,1.21,1.21,0,0,1,.05-.68l.12,0,.12,0,.39-.11.23-.08.11,0,.15-.07.2-.1.1,0,.05,0,.1-.06.06,0a.53.53,0,0,0,.11-.14h0l0-.07a.41.41,0,0,1,0-.09c.05-.11.11-.21.16-.31l.16-.33h0a1.2,1.2,0,0,0,.09-.21l0-.07H4l0,0h0l0,0h0l0,0h.27l.28,0a2,2,0,0,1,.39.13l.06,0h0l.12.07L5.43,4a1.45,1.45,0,0,1,.22.21,1.27,1.27,0,0,1,.18.27h0l.09.2A3,3,0,0,1,6,5a2.5,2.5,0,0,1,0,.29l0,.16v.09l0,.11v.12l0,.24a.36.36,0,0,1,0,.1v0h0c0,.17.07.35.11.52A3.37,3.37,0,0,0,6.4,7a3.76,3.76,0,0,0,.2.46.49.49,0,0,1,0,.07h0a.65.65,0,0,1,0,.24.37.37,0,0,1-.21.26h0l0,0h0l0,0H6.22l-.06,0h0l-.26,0-.21,0H5.6l-.23,0h-.1ZM1.48,4h.07L1.48,4h0l0,0h0L1.24,4Zm4.4-.65h0Zm0,0h0Z"/>
          <path class="cls-2" d="M7,7.1a5,5,0,0,1-.34-1.33c0-.22-.07-.45-.11-.68s0-.24-.07-.36A2.08,2.08,0,0,0,5.3,3.35a1.91,1.91,0,0,0-.36-.13l-.15,0a1.93,1.93,0,0,0-1.13.18l-.05,0a1.76,1.76,0,0,0-.5-1.06l-.33-.49c0-.08-.11-.09-.14,0s-.12.41-.16.61,0,.25,0,.39A2,2,0,0,1,2.18,2s-.09,0-.12,0A.48.48,0,0,0,2,2.09H2l0,0h0A2,2,0,0,0,1.66,3c0,.15,0,.31,0,.46s-.28,0-.41,0a2.72,2.72,0,0,0-.88.31L.07,4s0,.08-.07.11l.11.05H.2L1,4.41v0l-.17.08A1.33,1.33,0,0,0,.06,5.8a.1.1,0,0,0,0,.08s.06,0,.08,0a1.43,1.43,0,0,1,.88-.42l.17,0A4.48,4.48,0,0,0,1.12,6a1.82,1.82,0,0,0,.34,1.16A3.43,3.43,0,0,0,3.57,8.63a6,6,0,0,0,2.5.12l.24,0,.16-.07.18-.09a1,1,0,0,0,.5-.66v0h0v0A1.64,1.64,0,0,0,7,7.1ZM2.7,2l.3.4.11.18h0l.23.34a1.27,1.27,0,0,1-.11,1.33l0-.59c0-.1-.07-.19-.11-.28h0c0,.11,0,.22,0,.34s0,.5,0,.78a2.47,2.47,0,0,0-.2-.37,1.22,1.22,0,0,1-.25-.66A3,3,0,0,1,2.7,2ZM1.79,3a.31.31,0,0,1,0-.1.61.61,0,0,1,0-.14h0a.64.64,0,0,1,0-.07h0V2.59h0v0h0v0h0V2.44s0,0,0,0v0l0,0,0,0,0,0v0H2s0,0,0,0h0s0,0,0,0a2.63,2.63,0,0,0,.39.85s0,0,0,.06c0,.22.07.43.1.65h0l-.29-.15-.39-.12h0l0,0h0V3.25h0c0-.08,0-.15,0-.23ZM.73,4.21a5,5,0,0,0-.5-.15,3,3,0,0,1,.82-.4,1.72,1.72,0,0,1,1.44.24c.3.15.56.52.44.8l-.51-.17-.12,0-.52-.22h0l.49.3.49.17a1.59,1.59,0,0,1-1-.11l-.25-.09C1.27,4.44,1,4.31.73,4.21Zm0,1.18H.64l-.06,0H.52l0,0H.4l-.07,0h0l0,0h0l0,0V5.56a.13.13,0,0,1,0-.06h0a.24.24,0,0,0,0-.08l0,0v0l0,0,0,0v0s0-.1.08-.14L.44,5l0,0h0v0l0,0h0l0,0h0l0,0,.05,0,0,0h0l0,0h0l0,0h0l0,0,0,0,0,0,0,0,0,0H1l0,0H1l.05,0c.22-.09.35.07.52.14l-.06,0-.17.06-.22.07v0l.41,0,.13,0,.32,0,.47.07a2,2,0,0,1-.38.15l-.23.06-.12,0-.28.07-.3.07H1.09A3.58,3.58,0,0,1,.74,5.39ZM7,7.9V8S7,8,7,8l0,.05a.33.33,0,0,1-.06.1h0l0,0h0l0,0,0,0h0l0,0h0l0,0,0,0H6.55l0,0,0,0h0l-.14.07H4.44l-.22,0L4,8.6l-.16,0H3.73l-.07,0-.12,0-.06,0,0,0h0l-.05,0h0l-.06,0-.12-.05,0,0h0l0,0,0,0h0l0,0-.06,0L2.6,8.1l-.05,0h0l0,0h0l0,0,0,0h0l0,0,0,0h0l0,0,0,0h0l0,0h0l0,0L2,7.61l-.05-.05,0,0,0,0-.12-.14v0a.1.1,0,0,1,0,0l0,0h0l0-.05v0l0,0a1.66,1.66,0,0,1-.2-1.65l0,0v0l0,0h0l.05,0a8.54,8.54,0,0,0,.9-.27l.07,0,.06,0h0l.06,0,.29-.15L3,4.8H3l0,0,0,0h0l0,0,.21-.4.1-.2.1-.19,0-.08a1.17,1.17,0,0,1,0-.11l0-.08v0a.31.31,0,0,1,.25-.19H4l0,0H4.1a1.33,1.33,0,0,1,.34-.05h.4l.08,0h.13l.07,0h0l0,0a1.68,1.68,0,0,1,.3.15l0,0h0l0,0h0l0,0,0,0h0l0,0a.6.6,0,0,1,.08.08h0l0,0h0l0,0,.07.07L6,4,6,4l0,.07,0,0a.43.43,0,0,0,0,.07l0,0,0,0,0,0,0,0,0,0h0l0,0v0l0,0v.08l0,0,.06.21h0s0,0,0,.08,0,.07,0,.1V5.2l0,.1v.11l0,.2,0,.1v0a.68.68,0,0,0,0,.14V6a.52.52,0,0,1,0,.11h0s0,.08,0,.11l.06.28c0,.06,0,.11,0,.17h0l0,0v0l0,.06h0l0,0h0l0,0V7l0,0,0,0,0,.06a1.11,1.11,0,0,0,.07.16l0,.05,0,0s0,0,0,0v0s0,0,0,.06v0H7v0H7v0H7v.07a.09.09,0,0,1,0,0v0H7v.1A.11.11,0,0,0,7,7.9Z"/>
          <path class="cls-22" d="M3.93,3.41H3.88a5.38,5.38,0,0,0-.2.51,2.56,2.56,0,0,1-.4.79s0,0,0,.07a.31.31,0,0,1,.28-.07c.14,0,.19,0,.18-.16s0-.07,0-.11a.3.3,0,0,1,.08-.33.3.3,0,0,1,.35,0c.16.07.2.06.32-.06A.33.33,0,0,1,4.87,4a.8.8,0,0,1,.35.79L5,4.72a.3.3,0,0,0-.33.16.27.27,0,0,0,0,.32l.2.27c.13.2.06.35-.17.38a3.57,3.57,0,0,1-.47,0,.26.26,0,0,0-.25.2.81.81,0,0,0,0,.22c0,.17-.06.28-.21.28a.59.59,0,0,1-.57-.87s0,0,0,0a.27.27,0,0,0,0-.34.48.48,0,0,1,0-.54c-.24.12-.49.23-.73.37s-.24.26-.09.48.12.24-.07.34l0,0a.32.32,0,0,0-.11.51.79.79,0,0,0,.45.3.74.74,0,0,1,.52.48.36.36,0,0,0,.11.16.85.85,0,0,0,.55.23A.65.65,0,0,1,4.35,8a.77.77,0,0,0,.71.3.58.58,0,0,1,.42.14.75.75,0,0,0,.27.13,1.31,1.31,0,0,0,.65,0l0-.05a.74.74,0,0,0,.25-.76c-.07-.22-.17-.44-.26-.65a.16.16,0,0,1-.25,0,.22.22,0,0,1-.08-.31l.05,0c.06-.1.13,0,.19,0a1.89,1.89,0,0,1,0-.23c0-.13,0-.27-.16-.35h0l0,0A.76.76,0,0,1,6,6a.17.17,0,0,1,0-.22l0,0,.12,0-.07-.44a.14.14,0,0,1-.21.05.73.73,0,0,1-.18-.17s0-.07,0-.11h0c0-.09.11-.12.19-.07a.91.91,0,0,1,.13.08,1.44,1.44,0,0,0-.22-.63c0,.08,0,.17-.09.2s-.31-.1-.31-.22,0-.07.06-.1h0s0-.06.08-.07a.34.34,0,0,1,.14,0L5.42,3.9c-.09,0-.18.06-.23-.06s-.05-.09-.05-.14a1.51,1.51,0,0,0-.7-.27A4.35,4.35,0,0,0,3.93,3.41ZM6.3,7.54l0,0a.16.16,0,0,1,.23.11.16.16,0,0,1,0,.22.19.19,0,0,1-.22-.1s-.09-.12,0-.18Zm-2.16-4s.09,0,.12,0a.26.26,0,0,1,.14.11s0,.12-.05.12a.51.51,0,0,1-.22,0c-.06,0-.06-.09,0-.15Zm.3,3.29-.05,0a1.16,1.16,0,0,1-.18-.2.11.11,0,0,1,.07-.17h0a.1.1,0,0,1,.16-.08,2.27,2.27,0,0,1,.25.18.22.22,0,0,1,.06.31.21.21,0,0,1-.31,0ZM5.21,5h0a.22.22,0,0,1,.14.27.2.2,0,0,1-.27.1L5,5.27a.41.41,0,0,1-.11-.07.23.23,0,0,1-.07-.3c.06-.09.16-.11.29,0A.47.47,0,0,1,5.18,5Zm.21,2.44c.1-.08.2,0,.26.1s0,.12,0,.15a.12.12,0,0,1-.14,0,.37.37,0,0,1-.17-.13s0-.09,0-.14Zm.13.65h0a.15.15,0,0,1,.24,0c.06.06.14.11.06.21s-.17.08-.27,0S5.46,8.15,5.55,8.06ZM4.49,7.61l0-.05c.1-.11.17,0,.24,0s.15.14.08.24a.17.17,0,0,1-.1.06.23.23,0,0,1-.26-.11S4.42,7.66,4.49,7.61Zm.81-1,0-.05a.19.19,0,0,1,.25,0,.22.22,0,0,1,0,.28.23.23,0,0,1-.28,0A.15.15,0,0,1,5.3,6.61Zm.06-.51-.08,0a.21.21,0,0,1-.08-.29.19.19,0,0,1,.26-.08,1.66,1.66,0,0,1,.21.16.18.18,0,0,1,.09.23c0,.09-.1.12-.19.11ZM2.93,5.81a.33.33,0,0,1-.33-.27.23.23,0,0,1,.19-.22.36.36,0,0,1,.31.33C3.1,5.76,3.05,5.81,2.93,5.81ZM3.3,7.09a.22.22,0,0,1,.21-.2.35.35,0,0,1,.28.33.17.17,0,0,1-.17.18A.38.38,0,0,1,3.3,7.09Zm-.56-.68,0,0c0,.16-.12.26-.26.17a.77.77,0,0,1-.19-.21.17.17,0,0,1,.07-.24.16.16,0,0,1,.24,0A2.07,2.07,0,0,1,2.74,6.41Z"/>
          <path class="cls-23" d="M6.4,8.47a1.31,1.31,0,0,1-.65,0,.75.75,0,0,1-.27-.13.58.58,0,0,0-.42-.14A.77.77,0,0,1,4.35,8a.65.65,0,0,0-.53-.24.85.85,0,0,1-.55-.23.36.36,0,0,1-.11-.16.74.74,0,0,0-.52-.48.79.79,0,0,1-.45-.3A.32.32,0,0,1,2.3,6l0,0c.19-.1.2-.16.07-.34s-.14-.36.09-.48.49-.25.73-.37h0l0,0h0s0,0,0-.07a2.56,2.56,0,0,0,.4-.79,5.38,5.38,0,0,1,.2-.51.31.31,0,0,0-.25.19c0,.1-.07.21-.12.31l-.41.79a.4.4,0,0,1-.16.12,3.48,3.48,0,0,1-.52.24,8.54,8.54,0,0,1-.9.27.2.2,0,0,0-.15.13,1.66,1.66,0,0,0,.2,1.65,3.19,3.19,0,0,0,1.72,1.3,5.91,5.91,0,0,0,2.89.18,1.49,1.49,0,0,0,.39-.17ZM1.77,6.57l-.07.09-.14-.18s.06-.11.09-.11S1.76,6.45,1.77,6.57ZM4,8.16,3.76,8l.1-.11L4,8S4,8.1,4,8.16ZM2.81,7.49c-.11,0-.22-.09-.21-.15s.06-.07.09-.1a1.37,1.37,0,0,1,.17.17ZM2,5.69l-.09.11a.69.69,0,0,1-.11-.13s0-.06.07-.09ZM2,7.35l.1-.09.13.14-.06.06Z"/>
          <path class="cls-24" d="M6.4,8.47l.17,0A.77.77,0,0,0,7,7.48a1,1,0,0,0,0-.16,5.29,5.29,0,0,1-.46-1.71,5.86,5.86,0,0,0-.2-1A1.89,1.89,0,0,0,4.1,3.35a1.15,1.15,0,0,0-.17.06,4.35,4.35,0,0,1,.51,0,1.51,1.51,0,0,1,.7.27h0c.06-.08.13-.05.2,0a.16.16,0,0,1,.06.21l.29.34h0l0,0,.1.16a1.44,1.44,0,0,1,.22.63l0,.22.07.44.08,0a.29.29,0,0,1,.1.28c0,.11-.13.08-.21.09.14.08.14.22.16.35a1.89,1.89,0,0,0,0,.23l.09.3c.09.21.19.43.26.65a.74.74,0,0,1-.25.76Z"/>
          <path class="cls-25" d="M1.17,4Zm0,0Zm0,0,0,0Z"/>
          <path class="cls-16" d="M1.05,3.66a1.72,1.72,0,0,1,1.44.24,1.17,1.17,0,0,1,0,.2.46.46,0,0,1-.12.43.42.42,0,0,1-.12,0l-.52-.22-.05,0h0l0,0h0l.49.3-.34,0-.12,0-.25-.09C1.27,4.44,1,4.31.73,4.21a5,5,0,0,0-.5-.15A3,3,0,0,1,1.05,3.66ZM1.17,4h0l0,0Z"/>
          <path class="cls-25" d="M3.11,2.56Z"/>
          <path class="cls-16" d="M2.7,2l.3.4.11.18h0l.23.34,0,.25a.51.51,0,0,1-.16.49L3.1,3.36h0c0,.11,0,.22,0,.34a.38.38,0,0,1-.39-.18l-.07-.07A3,3,0,0,1,2.7,2Zm.36,1.34h0v0a0,0,0,0,0,0,0Z"/>
          <path class="cls-16" d="M1.67,4.81l-.54.07v0l.45-.15c-.17-.07-.3-.23-.52-.14a1.32,1.32,0,0,0-.84.92.17.17,0,0,0,0,.07v.06a3,3,0,0,1,1-.33l.07-.06a2.69,2.69,0,0,0,.29-.16C1.6,5,1.69,4.94,1.67,4.81Z"/>
          <path class="cls-11" d="M2.31,3.65l.29.15h0c0-.22-.07-.43-.1-.65,0,0,0,0,0-.06a2.63,2.63,0,0,1-.39-.85.24.24,0,0,0-.05.1,2.26,2.26,0,0,0,0,.52C2.11,3.13,2.22,3.39,2.31,3.65Z"/>
          <path class="cls-25" d="M2.31,3.65c-.09-.26-.2-.52-.27-.79a2.26,2.26,0,0,1,0-.52.24.24,0,0,1,.05-.1c0-.08-.05,0-.07,0a1.35,1.35,0,0,0-.21.65,4.21,4.21,0,0,0,0,.5.14.14,0,0,0,.11.13Z"/>
          <path class="cls-11" d="M2.42,4.53l.51.17c.12-.28-.14-.65-.44-.8a1.17,1.17,0,0,1,0,.2A.46.46,0,0,1,2.42,4.53Z"/>
          <path class="cls-11" d="M1.67,4.81c0,.13-.07.2-.16.26a2.69,2.69,0,0,1-.29.16l-.07.06.93-.22a2,2,0,0,0,.38-.15Z"/>
          <path class="cls-11" d="M2.67,3.46a1.22,1.22,0,0,0,.25.66,2.47,2.47,0,0,1,.2.37c0-.28,0-.53,0-.78a.38.38,0,0,1-.39-.18Z"/>
          <path class="cls-11" d="M3.21,3.64l0,.59A1.27,1.27,0,0,0,3.34,2.9l0,.25A.51.51,0,0,1,3.21,3.64Z"/>
          <path class="cls-11" d="M1.79,4.65a1.59,1.59,0,0,0,1,.11l-.49-.17-.34,0Z"/>
          <polygon class="cls-26" points="2.6 3.8 2.61 3.81 2.6 3.8 2.6 3.8"/>
          <path class="cls-22" d="M3.23,4.82a.48.48,0,0,0,0,.54.27.27,0,0,1,0,.34s0,0,0,0a.59.59,0,0,0,.57.87c.15,0,.24-.11.21-.28a.81.81,0,0,1,0-.22.26.26,0,0,1,.25-.2,3.57,3.57,0,0,0,.47,0c.23,0,.3-.18.17-.38l-.2-.27a.27.27,0,0,1,0-.32A.3.3,0,0,1,5,4.72l.22,0A.8.8,0,0,0,4.87,4,.33.33,0,0,0,4.45,4c-.12.12-.16.13-.32.06a.3.3,0,0,0-.35,0,.3.3,0,0,0-.08.33s0,.07,0,.11,0,.19-.18.16a.31.31,0,0,0-.28.07h0l0,0ZM4.59,4h0a.11.11,0,0,1,.19,0,.62.62,0,0,1,.16.2s0,.06,0,.09-.2.06-.31,0A.15.15,0,0,1,4.59,4ZM3.68,6.35a.33.33,0,0,1-.33-.27.19.19,0,0,1,.19-.21.36.36,0,0,1,.31.31A.16.16,0,0,1,3.68,6.35Zm.44-1.62a.34.34,0,0,1-.34-.25A.2.2,0,0,1,4,4.27a.35.35,0,0,1,.33.29A.18.18,0,0,1,4.12,4.73Zm-.54.56A.33.33,0,0,1,3.24,5a.22.22,0,0,1,.19-.21.35.35,0,0,1,.31.31A.15.15,0,0,1,3.58,5.29Zm.87.42a.34.34,0,0,1-.34-.27.21.21,0,0,1,.19-.21.36.36,0,0,1,.32.31A.16.16,0,0,1,4.45,5.71Z"/>
          <path class="cls-23" d="M2.93,5.81c.12,0,.17,0,.17-.16a.36.36,0,0,0-.31-.33.23.23,0,0,0-.19.22A.33.33,0,0,0,2.93,5.81Zm-.27-.33a.24.24,0,0,1,.11-.08c.09,0,.21.11.21.21a.11.11,0,0,1-.08.08A.23.23,0,0,1,2.66,5.48Z"/>
          <path class="cls-23" d="M3.3,7.09a.38.38,0,0,0,.32.31.17.17,0,0,0,.17-.18.35.35,0,0,0-.28-.33A.22.22,0,0,0,3.3,7.09Zm.38.11s0,.07-.08.08-.24-.13-.22-.21A.15.15,0,0,1,3.48,7C3.56,6.92,3.67,7.05,3.68,7.2Z"/>
          <path class="cls-23" d="M2.74,6.41a2.07,2.07,0,0,0-.17-.24.16.16,0,0,0-.24,0,.17.17,0,0,0-.07.24.77.77,0,0,0,.19.21c.14.09.26,0,.26-.17Zm-.13,0s0,.06-.09.06-.23-.13-.21-.21a.17.17,0,0,1,.11-.12C2.5,6.15,2.61,6.3,2.61,6.44Z"/>
          <path class="cls-23" d="M5.18,5a.47.47,0,0,0-.12-.09c-.13-.07-.23-.05-.29,0a.23.23,0,0,0,.07.3A.41.41,0,0,0,5,5.27H5c.18,0,.26-.09.2-.26l0,0h0Zm-.11.23c-.15,0-.28-.09-.28-.18s0-.12.12-.12.24.13.23.21S5.08,5.16,5.07,5.18Z"/>
          <path class="cls-23" d="M4.69,6.54a2.27,2.27,0,0,0-.25-.18.1.1,0,0,0-.16.08.23.23,0,0,1,.31.18c0,.07,0,.11-.1.11a.23.23,0,0,1-.21-.29.11.11,0,0,0-.07.17,1.16,1.16,0,0,0,.18.2l.05,0H4.5c.16,0,.22-.06.19-.23Z"/>
          <path class="cls-23" d="M5.67,5.84a1.66,1.66,0,0,0-.21-.16.19.19,0,0,0-.26.08.21.21,0,0,0,.08.29l.08,0C5.63,6.16,5.7,6.1,5.67,5.84ZM5.5,6c-.14,0-.29-.08-.27-.16a.19.19,0,0,1,.11-.12c.08,0,.24.12.23.2A.14.14,0,0,1,5.5,6Z"/>
          <path class="cls-23" d="M5.83,4.42l-.1-.16,0,0h0a.34.34,0,0,0-.14,0s-.05,0-.08.07.16,0,.21.06a.58.58,0,0,1,0,.14s-.09,0-.13,0a.15.15,0,0,1-.11-.2s-.06.07-.06.1.2.24.31.22S5.83,4.5,5.83,4.42Z"/>
          <path class="cls-23" d="M6.09,5.27l0-.22A.91.91,0,0,0,5.92,5c-.08,0-.14,0-.19.07A.17.17,0,0,1,6,5.16c0,.06,0,.09-.07.09A.2.2,0,0,1,5.73,5s-.05.09,0,.11a.73.73,0,0,0,.18.17A.14.14,0,0,0,6.09,5.27Z"/>
          <path class="cls-23" d="M6.13,6.13c.08,0,.18,0,.21-.09a.29.29,0,0,0-.1-.28l-.08,0L6,5.76h0a.16.16,0,0,1,.2.16.14.14,0,0,1-.07.1c-.06,0-.17-.11-.17-.19s0,0,0,0H6A.17.17,0,0,0,6,6a.76.76,0,0,0,.08.11l0,0Z"/>
          <path class="cls-23" d="M5.3,6.61a.15.15,0,0,0,0,.24.23.23,0,0,0,.28,0,.22.22,0,0,0,0-.28.19.19,0,0,0-.25,0h0c.12,0,.17.06.21.15s0,.1-.08.09a.17.17,0,0,1-.17-.19Z"/>
          <path class="cls-23" d="M6.43,7l-.09-.3c-.06,0-.13-.09-.19,0h0c.11,0,.21.1.18.2S6.27,7,6.24,7a.19.19,0,0,1-.12-.23l0,0a.22.22,0,0,0,.08.31A.16.16,0,0,0,6.43,7Z"/>
          <path class="cls-23" d="M4.49,7.61c-.07,0,0,.11,0,.16a.23.23,0,0,0,.26.11.17.17,0,0,0,.1-.06c.07-.1,0-.18-.08-.24s-.14-.13-.24,0h0a.2.2,0,0,1,.22.12c0,.06,0,.11-.06.11a.18.18,0,0,1-.2-.19Z"/>
          <path class="cls-23" d="M5.55,8.06c-.09.09,0,.16,0,.22s.22.08.27,0,0-.15-.06-.21a.15.15,0,0,0-.24,0,.18.18,0,0,1,.22.09s0,.06,0,.07a.11.11,0,0,1-.08,0C5.6,8.25,5.55,8.19,5.55,8.06Z"/>
          <path class="cls-23" d="M5.4,7.43c0,.05-.05.11,0,.14a.37.37,0,0,0,.17.13.12.12,0,0,0,.14,0s0-.11,0-.15-.16-.18-.26-.1h0c.09,0,.14,0,.18.1a.11.11,0,0,1,0,.1H5.51c-.08,0-.13-.08-.1-.17Z"/>
          <path class="cls-24" d="M5.21,5l0,0c.06.17,0,.28-.2.26H5l.13.07a.2.2,0,0,0,.27-.1A.22.22,0,0,0,5.21,5Z"/>
          <path class="cls-23" d="M6.28,7.56c-.09.06,0,.13,0,.18a.19.19,0,0,0,.22.1.16.16,0,0,0,0-.22.16.16,0,0,0-.23-.11h0a.17.17,0,0,1,.16.17.09.09,0,0,1-.06.07.17.17,0,0,1-.15-.17s0,0,0,0Z"/>
          <path class="cls-24" d="M4.69,6.54v.07c0,.17,0,.23-.19.23H4.44a.21.21,0,0,0,.31,0A.22.22,0,0,0,4.69,6.54Z"/>
          <path class="cls-24" d="M5.67,5.84c0,.26,0,.32-.31.26l.21.08c.09,0,.17,0,.19-.11A.18.18,0,0,0,5.67,5.84Z"/>
          <path class="cls-23" d="M4.12,3.57c0,.06,0,.13,0,.15a.51.51,0,0,0,.22,0s.06-.1.05-.12a.26.26,0,0,0-.14-.11s-.08,0-.12,0h.1l.09.09s0,0-.06,0l-.14,0s0-.05,0-.08Z"/>
          <path class="cls-23" d="M5.42,3.9a.16.16,0,0,0-.06-.21c-.07,0-.14-.07-.2,0h0s0,0,0,0a.39.39,0,0,1,.14.08s0,0,0,.06H5.19C5.24,4,5.33,3.94,5.42,3.9Z"/>
          <path class="cls-23" d="M5.16,3.7h0s-.06.12.05.14h0l0-.12Z"/>
          <path class="cls-23" d="M4.53,7.56l0,.05h0l0,0Z"/>
          <path class="cls-23" d="M5.34,6.56l0,.05h0l0,0Z"/>
          <path class="cls-23" d="M6.15,6.72l-.05,0,0,0,0,0Z"/>
          <path class="cls-24" d="M4.44,6.84l-.05,0Z"/>
          <path class="cls-24" d="M6.13,6.13l0,0Z"/>
          <path class="cls-23" d="M4.14,3.55l0,0h0l0,0Z"/>
          <path class="cls-23" d="M6,5.76l0,0H6l0,0Z"/>
          <path class="cls-23" d="M6.32,7.51l0,0h0l0,0Z"/>
          <path class="cls-23" d="M6.3,7.54l0,0h0l0,0Z"/>
          <path class="cls-24" d="M5.18,5l0,0Z"/>
          <path class="cls-23" d="M5.42,7.41l0,0h0l0,0Z"/>
          <path class="cls-27" d="M1.77,6.57c0-.12,0-.21-.12-.2s-.1.09-.09.11l.14.18Z"/>
          <path class="cls-27" d="M4,8.16C4,8.1,4,8.05,4,8l-.17-.17L3.76,8Z"/>
          <path class="cls-27" d="M2.81,7.49l0-.08a1.37,1.37,0,0,0-.17-.17s-.08.06-.09.1S2.7,7.49,2.81,7.49Z"/>
          <path class="cls-27" d="M2,5.69l-.13-.11s-.08.07-.07.09a.69.69,0,0,0,.11.13Z"/>
          <path class="cls-27" d="M2,7.35l.17.11.06-.06-.13-.14Z"/>
          <path class="cls-22" d="M3.23,4.81l0,0Z"/>
          <path class="cls-22" d="M5.7,4.24l0,0Z"/>
          <polygon class="cls-24" points="1.17 3.95 1.17 3.95 1.17 3.95 1.17 3.95"/>
          <path class="cls-26" d="M1.17,4l0,0Z"/>
          <path class="cls-28" d="M1.72,4.26l0,0h0l-.05,0Z"/>
          <path class="cls-28" d="M1.71,4.25h0Z"/>
          <polygon class="cls-29" points="3.11 2.56 3.11 2.56 3.11 2.56 3.11 2.56 3.11 2.56"/>
          <path class="cls-28" d="M3.06,3.32h0v0a0,0,0,0,0,0,0Z"/>
          <path class="cls-23" d="M3.68,6.35a.16.16,0,0,0,.17-.17.36.36,0,0,0-.31-.31.19.19,0,0,0-.19.21A.33.33,0,0,0,3.68,6.35Zm0-.12c-.14,0-.29-.1-.27-.18a.22.22,0,0,1,.11-.12c.08,0,.22.13.21.22A.28.28,0,0,1,3.68,6.23Z"/>
          <path class="cls-23" d="M4.12,4.73a.18.18,0,0,0,.18-.17A.35.35,0,0,0,4,4.27a.2.2,0,0,0-.19.21A.34.34,0,0,0,4.12,4.73Zm0-.12c-.16,0-.29-.08-.27-.17a.17.17,0,0,1,.1-.1c.09,0,.25.11.24.2S4.12,4.6,4.11,4.61Z"/>
          <path class="cls-23" d="M3.58,5.29a.15.15,0,0,0,.16-.17.35.35,0,0,0-.31-.31A.22.22,0,0,0,3.24,5,.33.33,0,0,0,3.58,5.29ZM3.3,5s.07-.07.11-.08.24.14.22.23a.1.1,0,0,1,0,.06A.24.24,0,0,1,3.3,5Z"/>
          <path class="cls-23" d="M4.45,5.71a.16.16,0,0,0,.17-.17.36.36,0,0,0-.32-.31.21.21,0,0,0-.19.21A.34.34,0,0,0,4.45,5.71Zm0-.11c-.14,0-.28-.11-.26-.19a.17.17,0,0,1,.11-.12c.08,0,.22.14.21.23S4.45,5.58,4.44,5.6Z"/>
          <path class="cls-23" d="M4.59,4a.15.15,0,0,0,0,.24c.11.08.25.09.31,0s0-.07,0-.09A.62.62,0,0,0,4.78,4a.11.11,0,0,0-.19,0,.21.21,0,0,1,.25.1c0,.08,0,.13-.08.12S4.57,4.17,4.59,4Z"/>
          <path class="cls-27" d="M2.66,5.48a.23.23,0,0,0,.24.21A.11.11,0,0,0,3,5.61c0-.1-.12-.23-.21-.21A.24.24,0,0,0,2.66,5.48Z"/>
          <path class="cls-27" d="M3.68,7.2c0-.15-.12-.28-.2-.25a.15.15,0,0,0-.1.12c0,.08.14.22.22.21S3.66,7.22,3.68,7.2Z"/>
          <path class="cls-27" d="M2.61,6.44c0-.14-.11-.29-.19-.27a.17.17,0,0,0-.11.12c0,.08.13.23.21.21S2.59,6.45,2.61,6.44Z"/>
          <path class="cls-27" d="M5.07,5.18s.06,0,.07-.09-.14-.2-.23-.21-.11,0-.12.12S4.92,5.18,5.07,5.18Z"/>
          <path class="cls-27" d="M4.28,6.44a.23.23,0,0,0,.21.29c.08,0,.11,0,.1-.11a.23.23,0,0,0-.31-.18Z"/>
          <path class="cls-27" d="M5.5,6a.14.14,0,0,0,.07-.08c0-.08-.15-.23-.23-.2a.19.19,0,0,0-.11.12C5.21,5.93,5.36,6,5.5,6Z"/>
          <path class="cls-27" d="M5.49,4.3a.15.15,0,0,0,.11.2s.09,0,.13,0a.58.58,0,0,0,0-.14c0-.08-.12-.12-.21-.06Z"/>
          <path class="cls-27" d="M5.73,5a.2.2,0,0,0,.19.21c.07,0,.09,0,.07-.09A.17.17,0,0,0,5.73,5Z"/>
          <path class="cls-27" d="M6.06,5.77l0,0s0,0,0,0,.11.21.17.19a.14.14,0,0,0,.07-.1A.16.16,0,0,0,6.06,5.77Z"/>
          <path class="cls-27" d="M5.35,6.57l0,0a.17.17,0,0,0,.17.19c.08,0,.11,0,.08-.09S5.47,6.55,5.35,6.57Z"/>
          <path class="cls-27" d="M6.16,6.73l0,0A.19.19,0,0,0,6.24,7s.1,0,.1-.06S6.27,6.73,6.16,6.73Z"/>
          <path class="cls-27" d="M4.54,7.57l0,0a.18.18,0,0,0,.2.19c.07,0,.1,0,.06-.11A.2.2,0,0,0,4.54,7.57Z"/>
          <path class="cls-27" d="M5.55,8.06c0,.13,0,.19.15.19a.11.11,0,0,0,.08,0s0-.05,0-.07a.18.18,0,0,0-.22-.09Z"/>
          <path class="cls-27" d="M5.43,7.41l0,0c0,.09,0,.14.1.17H5.6a.11.11,0,0,0,0-.1C5.57,7.45,5.52,7.39,5.43,7.41Z"/>
          <path class="cls-27" d="M6.31,7.54l0,0s0,0,0,0a.17.17,0,0,0,.15.17.09.09,0,0,0,.06-.07.17.17,0,0,0-.16-.17Z"/>
          <path class="cls-27" d="M4.15,3.56l0,0s0,.07,0,.08l.14,0s0,0,.06,0l-.09-.09Z"/>
          <path class="cls-27" d="M5.17,3.71l0,.12h.16s0-.06,0-.06a.39.39,0,0,0-.14-.08S5.18,3.7,5.17,3.71Z"/>
          <path class="cls-27" d="M3.68,6.23a.28.28,0,0,0,0-.08c0-.09-.13-.24-.21-.22a.22.22,0,0,0-.11.12C3.39,6.13,3.54,6.24,3.68,6.23Z"/>
          <path class="cls-27" d="M4.11,4.61s.06,0,.07-.07-.15-.22-.24-.2a.17.17,0,0,0-.1.1C3.82,4.53,4,4.62,4.11,4.61Z"/>
          <path class="cls-27" d="M3.3,5a.24.24,0,0,0,.28.21.1.1,0,0,0,0-.06c0-.09-.13-.25-.22-.23S3.33,4.94,3.3,5Z"/>
          <path class="cls-27" d="M4.44,5.6s0,0,.06-.08-.13-.25-.21-.23a.17.17,0,0,0-.11.12C4.16,5.49,4.3,5.6,4.44,5.6Z"/>
          <path class="cls-27" d="M4.59,4c0,.14,0,.22.17.22s.12,0,.08-.12A.21.21,0,0,0,4.59,4Z"/>
        </g>
      </g>
    </g>
  </g>
</svg>
