<?xml version="1.0" encoding="utf-8"?>
<!-- Generator: Adobe Illustrator 26.3.1, SVG Export Plug-In . SVG Version: 6.00 Build 0)  -->
<svg version="1.1" id="Capa_1" xmlns="http://www.w3.org/2000/svg" xmlns:xlink="http://www.w3.org/1999/xlink" x="0px" y="0px"
	 viewBox="0 0 45.7 60.4" style="enable-background:new 0 0 45.7 60.4;" xml:space="preserve">
<style type="text/css">
	.st0{opacity:0.88;}
	.st1{fill:#E00814;}
	.st2{fill:#FFFFFF;}
	.st3{fill:url(#SVGID_1_);}
	.st4{fill:url(#SVGID_00000026154298087848246270000002673429368206726814_);}
</style>
<g id="Capa_2_00000173161693190524122170000013527646560071616651_" class="st0">
	<g id="Capa_1-2">
		<rect class="st1" width="45.7" height="60.4"/>
		<path class="st2" d="M45.7,60.4V35.4h-0.2c-1.4-0.2-2.8-0.1-4.2,0.2c-3.7,0.8-5.9,3.3-8.1,6c-2.7,3.4-5.3,7.1-10.5,8.2
			c-8,1.7-10.8-5.2-18.3-2.6c-1.5,0.6-3,1.3-4.5,2.1v11.2H45.7z"/>
		
			<linearGradient id="SVGID_1_" gradientUnits="userSpaceOnUse" x1="-1229.2781" y1="-0.3582" x2="-1247.7681" y2="19.9918" gradientTransform="matrix(-1 0 0 -1 -1199.05 62)">
			<stop  offset="0" style="stop-color:#0C8938"/>
			<stop  offset="1" style="stop-color:#42AD52"/>
		</linearGradient>
		<path class="st3" d="M45.7,60.4V43.1c-7.7,0.1-15,3.5-20,9.4c-2.3,2.9-4.8,5.5-7.5,7.9H45.7z"/>
		<path class="st2" d="M0,0v25.1h0.2c1.4,0.2,2.8,0.1,4.2-0.2c3.7-0.8,5.9-3.3,8.1-6c2.7-3.4,5.3-7.1,10.5-8.2
			c8-1.6,10.8,5.3,18.3,2.6c1.5-0.6,3-1.3,4.5-2.1V0H0z"/>
		
			<linearGradient id="SVGID_00000109015751595788004400000006158206289949459842_" gradientUnits="userSpaceOnUse" x1="88.722" y1="728.8918" x2="70.232" y2="749.2418" gradientTransform="matrix(1 0 0 1 -73.22 -730.82)">
			<stop  offset="0" style="stop-color:#0C8938"/>
			<stop  offset="1" style="stop-color:#42AD52"/>
		</linearGradient>
		<path style="fill:url(#SVGID_00000109015751595788004400000006158206289949459842_);" d="M0,0v17.3c7.7-0.1,15-3.5,20-9.4
			C22.3,5,24.8,2.4,27.5,0H0z"/>
	</g>
</g>
</svg>
