<svg xmlns="http://www.w3.org/2000/svg" xmlns:xlink="http://www.w3.org/1999/xlink" viewBox="0 0 192 108">
  <defs>
    <style>
      .cls-1 {
        fill: none;
      }

      .cls-2 {
        opacity: 0.11;
      }

      .cls-3 {
        clip-path: url(#clip-path);
      }

      .cls-4 {
        fill: #2d5123;
      }

      .cls-5 {
        fill: #483215;
      }

      .cls-6 {
        fill: #26451e;
      }

      .cls-7 {
        fill: #7cb928;
      }

      .cls-8 {
        fill: #7fba28;
      }

      .cls-9 {
        fill: #82bb26;
      }

      .cls-10 {
        fill: #815b13;
      }

      .cls-11 {
        fill: #6b4910;
      }

      .cls-12 {
        fill: #64a530;
      }

      .cls-13 {
        fill: #9bc42c;
      }

      .cls-14 {
        fill: #a1c630;
      }

      .cls-15 {
        fill: #2e5324;
      }

      .cls-16 {
        fill: #fdfdfd;
      }

      .cls-17 {
        fill: #28451e;
      }

      .cls-18 {
        fill: #da0e15;
      }

      .cls-19 {
        fill: #b31917;
      }

      .cls-20 {
        fill: #eb7a7f;
      }

      .cls-21 {
        fill: #60b22f;
      }

      .cls-22 {
        fill: #4dad33;
      }

      .cls-23 {
        fill: #289938;
      }

      .cls-24 {
        fill: #348a35;
      }

      .cls-25 {
        fill: #f1872c;
      }

      .cls-26 {
        fill: #0d1111;
      }

      .cls-27 {
        fill: #cfe9ee;
      }
    </style>
    <clipPath id="clip-path">
      <rect class="cls-1" width="192" height="108"/>
    </clipPath>
  </defs>
  <g id="Capa_2" data-name="Capa 2">
    <g id="Capa_1-2" data-name="Capa 1">
      <g class="cls-2">
        <g class="cls-3">
          <g>
            <path class="cls-4" d="M166.06,63c.52.08,1,.18,1.54.31l-.2.13-.2.14-.65.47-.33.25c-.27.22-.54.44-.8.67l-.07.07-.33.3-.07.07-.37.36-.24.25-.21.21-.27.3-.22.26-.23.27-.21.26,0,0-.21.27-.21.28-.16.22c-.1.15-.21.3-.3.45a3,3,0,0,0-.2.29l-.15.24-.14.22-.12.21-.33.57-.25.48c-.17.33-.33.67-.48,1l-.12.29-.15.35c0,.1-.07.19-.11.29s-.13.34-.18.5-.1.29-.15.43,0,.16-.08.24l-.06.2c0,.07,0,.14-.07.22l-.12.45a.14.14,0,0,0,0,.06c0,.13-.07.26-.1.38s0,.06,0,.09-.07.29-.1.43v0a.19.19,0,0,0,0,.07c0,.15-.07.3-.1.46s-.06.3-.08.45-.05.25-.07.37a.77.77,0,0,0,0,.15l-.06.39c0,.09,0,.19-.05.28s0,.12,0,.17l-.09.68c0,.24-.05.47-.07.7l0,.35c0,.23,0,.46-.05.69s0,.23,0,.35l0,.69v.34s0,0,0,0V83c0,.17,0,.34,0,.51a54.46,54.46,0,0,0,.54,6.08l-.34.18.38.13c.06.31.11.62.17.93h0l-.42.35h0l-.11.1-.71.61a41.36,41.36,0,0,1-.64-13.8c.05-.33.1-.67.16-1,.08-.49.17-1,.28-1.46.08-.34.16-.68.25-1s.13-.47.2-.71c.2-.67.41-1.31.66-1.93a21.3,21.3,0,0,1,1.62-3.32l.34-.54h0l.09-.12.25-.38.42-.57a18.58,18.58,0,0,1,1.41-1.65,18.92,18.92,0,0,1,1.46-1.37C165.08,63.7,165.56,63.33,166.06,63Z"/>
            <path class="cls-4" d="M192.56,60.94c-1.09-.14-2.21-.2-3.29-.42a35.94,35.94,0,0,0-14.39-.17l-.3.06-.26.06-.71.17-.42.12-.39.11-.22.07h0c-.45-.2-.9-.38-1.35-.56.82-.29,1.67-.55,2.55-.77a36.27,36.27,0,0,1,14.89-.35c1.28.2,2.57.28,3.86.42Z"/>
            <path class="cls-5" d="M192.49,59.21c-.37-1.61-.68-3.22-1.13-4.8A11.93,11.93,0,0,0,185.88,47a2.24,2.24,0,0,1-1-3.12c.83-2.33,4.23-3.83,6.46-2.75a2.78,2.78,0,0,1,1.22,1.49,45.24,45.24,0,0,1,2.15,10.93c.14,1.86.18,3.72.26,5.58l-.83-.13c-.12-1.69-.17-3.39-.38-5.08-.31-2.48-.66-4.95-1.13-7.4a41.47,41.47,0,0,0-1.28-4.3,2.89,2.89,0,0,0-.8-.48,4.3,4.3,0,0,0-3.68.75A4,4,0,0,0,185.67,44c-.37.82.05,1.35.93,1.25,1.93-.2,3.65-.78,4.47-2.79,0-.08.17-.11.26-.16-.33.73-.66,1.47-1,2.2-.1.21-.24.4-.35.6l-2.49,1.28c3.76,3.5,5,8,5.48,12.77Z"/>
            <path class="cls-6" d="M158.12,92l.71-.61.55-.48a50.8,50.8,0,0,0,3.07,10,26.08,26.08,0,0,0,4.11,6.73l3.84,4.08L169,112.84a29.93,29.93,0,0,1-7.35-9.75A40.59,40.59,0,0,1,158.12,92Z"/>
            <path class="cls-7" d="M190.05,110.25h0l-.12.33a9.92,9.92,0,0,1-5,6.73,18.39,18.39,0,0,1-1.78.88,7.62,7.62,0,0,1-2.24-.53h0c-.37-.14-.74-.3-1.1-.45l-.2-.09a42.08,42.08,0,0,1-3.93-1.93l-.88-.52c-.47-.28-.94-.56-1.39-.86h0c-1-.68-2-1.4-3-2.17l-3.84-4.09c0-.3,0-.61,0-1l3.17-2.78c0-.18-.14-.53-.23-.88.53.41,1.07.81,1.59,1.25s1.16,1,1.76,1.39l.39.27.77.53h0c.38.25.78.49,1.18.72a21.34,21.34,0,0,0,6.1,2.38c.58.13,1.17.23,1.77.31.24,0,.48.07.73.09l1,.1.8.06a29,29,0,0,0,3.09,0h0c.46,0,.93-.07,1.39-.13C190.06,110,190.06,110.1,190.05,110.25Z"/>
            <path class="cls-8" d="M203.3,66.92a10.88,10.88,0,0,0-1.64,2.46,23.94,23.94,0,0,0-1.4,3.54h-1.21a16.09,16.09,0,0,1-1.92.21c-1.7-.15-3.39-.39-5.09-.59-1.49-.62-3-1.21-4.46-1.89a14,14,0,0,1-1.84-1.27l.57-.6h0l1.14-1.19c.19-.2.38-.4.58-.59a4.72,4.72,0,0,1,.72-.52h0c.84.58,1.66,1.2,2.53,1.75a3.5,3.5,0,0,0,2.89.78c1.21-.34,2.39-.77,3.58-1.19A14.19,14.19,0,0,1,203.3,66.92Z"/>
            <path class="cls-9" d="M167.6,63.3a19.75,19.75,0,0,1,3.65,1.29l-.24.07-.2.06-.45.14-.19.07-.46.18-.21.09-.31.14,0,0a.8.8,0,0,0-.16.08,1.51,1.51,0,0,0-.22.11h0l-.25.14a4.49,4.49,0,0,0-.42.24l-.19.12-.28.19a2.83,2.83,0,0,0-.28.2l-.27.2-.21.16-.14.12-.2.17-.24.22a1.8,1.8,0,0,0-.2.19l-.17.16-.16.17-.23.24-.29.33-.22.26-.24.3q-.49.65-.93,1.32l-.16.26-.2.33h0l-.18.32-.21.38c0,.09-.09.18-.14.27l-.18.37-.15.31-.17.39c0,.08-.07.17-.11.25-.15.37-.29.75-.42,1.13l-.09.28c-.08.27-.17.54-.24.82a2.86,2.86,0,0,0-.07.28,1.82,1.82,0,0,0-.07.25l-.06.26q-.1.45-.18.9c0,.1,0,.2-.05.3s0,.2,0,.3a2.7,2.7,0,0,0,0,.28V78l0,.27c-.08.6-.12,1.22-.15,1.84,0,.12,0,.23,0,.35s0,.47,0,.7,0,.24,0,.36l0,.51v.07c0,.15,0,.3,0,.45s0,.35,0,.52l.06.51a.28.28,0,0,0,0,.09l.06.49s0,0,0,.08c0,.27.07.54.11.8,0,.1,0,.2,0,.3l.06.38c0,.16,0,.33.07.49s0,.28.06.42l0,.22c0,.13.05.25.07.37s.06.35.1.53a.36.36,0,0,0,0,.1c0,.18.07.36.11.54l.12.54.1.4c0,.14.07.29.11.43s.09.34.14.51.09.29.13.44l.12.4.19.57c.05.12.09.24.13.36s.11.29.16.44.11.29.17.43.23.57.35.86l.19.43c.05.12.11.23.16.35q.32.68.66,1.32l.16.3c.16.3.33.6.51.89a.05.05,0,0,0,0,0q.36.61.75,1.2h0l.08.12a18.7,18.7,0,0,0,1.25,1.57c.24.34.45.7.71,1,.49.61,1,1.2,1.52,1.8.09.35.19.7.23.88l-3.17,2.78c0,.43,0,.74,0,1a26.08,26.08,0,0,1-4.11-6.73c-.19-.4-.36-.81-.53-1.22s-.39-1-.57-1.53-.35-1-.51-1.55l-.15-.49c-.5-1.7-.91-3.43-1.31-5.17h0c0-.31-.1-.62-.16-.93l0-.31a54.46,54.46,0,0,1-.54-6.08c0-.17,0-.34,0-.51V81.69s0,0,0,0v-.34l0-.69c0-.12,0-.24,0-.35s0-.46.05-.69l0-.35c0-.23,0-.46.07-.7l.09-.68s0-.11,0-.17,0-.19.05-.28l.06-.39a.77.77,0,0,1,0-.15c0-.12,0-.25.07-.37s0-.3.08-.45.07-.31.1-.46a.19.19,0,0,1,0-.07v0c0-.14.06-.29.1-.43s0-.06,0-.09.06-.25.1-.38a.14.14,0,0,1,0-.06l.12-.45c0-.08,0-.15.07-.22l.06-.2c0-.08,0-.16.08-.24s.09-.29.15-.43l.18-.5c0-.1.08-.19.11-.29l.15-.35.12-.29c.15-.34.31-.68.48-1l.25-.48.33-.57.12-.21.14-.22.15-.24a3,3,0,0,1,.2-.29c.09-.15.2-.3.3-.45l.16-.22.21-.28.21-.27,0,0,.21-.26.23-.27.22-.26.27-.3.21-.21.24-.25.37-.36.07-.07.33-.3.07-.07c.26-.23.53-.45.8-.67l.33-.25.65-.47.2-.14Z"/>
            <path class="cls-9" d="M192.56,60.94l.09,2.48c-1.05.08-2.12.09-3.15.27a6.22,6.22,0,0,0-1.52.73,13.82,13.82,0,0,0-5-1.79c.12.23.13.32.18.36a2.47,2.47,0,0,0,.36.19c1.49.84,3,1.66,4.47,2.53a4,4,0,0,1,.76.77A6.48,6.48,0,0,0,188,67c-.77.78-1.52,1.58-2.28,2.38a4.92,4.92,0,0,1-.56-.29c-1.57-1.13-3.1-2.32-4.71-3.39l-.27-.17-.27-.16s0,0,0,0l-.23-.12-.08,0-.25-.13-.2-.1-.63-.26-.16-.13A25.17,25.17,0,0,0,172.55,61h0l.22-.07.39-.11.42-.12.71-.17.26-.06.3-.06a35.94,35.94,0,0,1,14.39.17C190.35,60.74,191.47,60.8,192.56,60.94Z"/>
            <path class="cls-6" d="M159.18,89.61l0,.32-.38-.13Z"/>
            <path class="cls-10" d="M193.68,65.14c-.16-.29-.45-.58-.47-.88-.11-1.69-.16-3.38-.24-5.07-.51-4.78-1.72-9.27-5.48-12.77L190,45.14a6.33,6.33,0,0,1,1.07,1.27,25,25,0,0,1,1.22,3.26c1,3.25,1,6.63,1.35,10C193.78,61.46,193.67,63.31,193.68,65.14Z"/>
            <path class="cls-11" d="M193.68,65.14c0-1.83.1-3.68-.06-5.5-.31-3.34-.39-6.72-1.35-10a25,25,0,0,0-1.22-3.26A6.33,6.33,0,0,0,190,45.14c.11-.2.25-.39.35-.6.34-.73.67-1.47,1-2.2a.61.61,0,0,0,0-.14,41.47,41.47,0,0,1,1.28,4.3c.47,2.45.82,4.92,1.13,7.4.21,1.69.26,3.39.38,5.08s0,3.55,0,5.32C194.13,64.59,193.84,64.86,193.68,65.14Z"/>
            <path class="cls-10" d="M191.32,42.2a.61.61,0,0,1,0,.14c-.09,0-.23.08-.26.16-.82,2-2.54,2.59-4.47,2.79-.88.1-1.3-.43-.93-1.25a4,4,0,0,1,1.17-1.57,4.3,4.3,0,0,1,3.68-.75A2.89,2.89,0,0,1,191.32,42.2Z"/>
            <path class="cls-12" d="M188,64.42a6.22,6.22,0,0,1,1.52-.73c1-.18,2.1-.19,3.15-.27a5.44,5.44,0,0,1-.34,1.29A.78.78,0,0,0,192.7,66a2.56,2.56,0,0,0,3.16-.69A14.51,14.51,0,0,1,197.22,64a10.79,10.79,0,0,1,1.48.86,9,9,0,0,1,1.05,1.17c-1.33.35-2.66.7-4,1a4.82,4.82,0,0,1-3.33-.22C190.91,66.13,189.46,65.25,188,64.42Z"/>
            <path class="cls-13" d="M190.07,109.82c-.46.06-.93.1-1.39.13h0a29,29,0,0,1-3.09,0l-.8-.06-1-.1c-.25,0-.49-.05-.73-.09-.6-.08-1.19-.18-1.77-.31a21.34,21.34,0,0,1-6.1-2.38c-.4-.23-.8-.47-1.18-.72h0l-.77-.53-.39-.27c-.6-.44-1.19-.9-1.76-1.39s-1.06-.84-1.59-1.25c-.51-.6-1-1.19-1.52-1.8-.26-.32-.47-.68-.71-1,.2-.25.39-.52.61-.75l5.67-6.14.47-.51,1-1.06h0c.28-.3.55-.6.83-.89L179.25,87l.39-.43,3-3.2,1-1.12c.4,2.3.75,4.62,1.13,6.93.74,4.59,1.37,9.21,3.44,13.44A15.27,15.27,0,0,1,190.07,109.82Z"/>
            <path class="cls-13" d="M200.78,80.56c-.89,2-1.78,4-2.65,5.92l-2.29,5.1c-.22.51-.46,1-.69,1.53-.72,1.58-1.54,3.36-2.22,5.27a14.83,14.83,0,0,0-.83,3.45c-.15-.33-.3-.63-.44-.92-1.67-3.41-2.29-7.28-2.95-11.37l-.16-1c-.12-.74-.24-1.49-.35-2.24-.4-2.49-.8-5-1.32-7.6l4.6-5a4.43,4.43,0,0,0,.56-1.18c1.7.2,3.39.44,5.09.59a16.09,16.09,0,0,0,1.92-.21h1.21A10.31,10.31,0,0,0,200.78,80.56Z"/>
            <path class="cls-14" d="M187.58,70.65a13,13,0,0,1-1.84-1.26,4.92,4.92,0,0,1-.56-.29c-1.57-1.13-3.1-2.32-4.71-3.39l-.27-.17-.27-.16s0,0,0,0l-.23-.12-.08,0-.25-.13-.2-.1-.63-.26a24.19,24.19,0,0,1,8.18,13.11c.07.3.13.59.18.89l4.6-5a4.43,4.43,0,0,0,.56-1.18C190.55,71.93,189,71.34,187.58,70.65Zm-16.33-6.06-.24.07-.2.06-.45.14-.19.07-.46.18-.21.09-.31.14,0,0a.8.8,0,0,0-.16.08,1.51,1.51,0,0,0-.22.11h0l-.25.14a4.49,4.49,0,0,0-.42.24l-.19.12-.28.19a2.83,2.83,0,0,0-.28.2l-.27.2-.21.16-.14.12-.2.17-.24.22a1.8,1.8,0,0,0-.2.19l-.17.16-.16.17-.23.24-.29.33-.22.26-.24.3q-.49.65-.93,1.32l-.16.26-.2.33h0l-.18.32-.21.38c0,.09-.09.18-.14.27l-.18.37-.15.31-.17.39c0,.08-.07.17-.11.25-.15.37-.29.75-.42,1.13l-.09.28c-.08.27-.17.54-.24.82a2.86,2.86,0,0,0-.07.28,1.82,1.82,0,0,0-.07.25l-.06.26q-.1.45-.18.9c0,.1,0,.2-.05.3s0,.2,0,.3,0,.19,0,.28V78l0,.27c-.08.6-.12,1.22-.15,1.84,0,.12,0,.23,0,.35s0,.47,0,.7,0,.24,0,.36l0,.51v.07c0,.15,0,.3,0,.45s0,.35,0,.52l.06.51a.28.28,0,0,0,0,.09l.06.49s0,0,0,.08c0,.27.07.54.11.8,0,.1,0,.2,0,.3l.06.38c0,.16,0,.33.07.49s0,.28.06.42l0,.22c0,.13.05.25.07.37s.06.35.1.53a.36.36,0,0,0,0,.1c0,.18.07.36.11.54l.12.54.1.4c0,.15.07.29.11.43s.09.34.14.51.09.29.13.44l.12.4.19.57c.05.12.09.24.13.36s.11.29.16.44.11.29.17.43.23.57.35.86c.06.14.13.28.19.43s.11.23.16.35q.32.68.66,1.32l.16.3c.16.3.33.6.51.89l0,0h0q.36.61.75,1.2h0l.08.12a18.7,18.7,0,0,0,1.25,1.57c.2-.25.39-.52.61-.75l5.67-6.14.47-.51,1-1.06h0c.28-.3.55-.6.83-.89L179.25,87l.39-.43,3-3.2,1-1.12c-.21-1.21-.44-2.42-.69-3.62C181.77,73.06,177.29,67.4,171.25,64.59Zm-1.71,4.71.11-.14.1-.11.28-.28.16-.13.16-.13.35-.24,0,0,.15-.09a1.18,1.18,0,0,1,.19-.11l.2-.11.19-.09.39-.17.11,0,.23-.08c.16-.06.32-.1.47-.14l.1,0a3.4,3.4,0,0,1,.46-.09l.18,0h.3c.54.08,1.08.12,1.6.24.68.16,1.31.41,1.44,1.22,0,0,0,.1,0,.15a.49.49,0,0,1,0,.12h0a.31.31,0,0,1,0,.1v0l0,.09a.56.56,0,0,1,0,.12l0,.09a1.89,1.89,0,0,1-.2.27h0a1.51,1.51,0,0,1-.23.21L176,70l-.25.15-.27.14-.54.24-.17.07c-.5.2-1,.37-1.54.54l-.06,0-.62.21h0a3.79,3.79,0,0,1-2.31.12c-1.16-.31-1.48-1.1-.79-2.09l0,0Z"/>
            <path class="cls-15" d="M204.13,66.08a9.41,9.41,0,0,0-.83.84,14.19,14.19,0,0,0-5.54.91c-1.19.42-2.37.85-3.58,1.19a3.5,3.5,0,0,1-2.89-.78c-.87-.55-1.69-1.17-2.53-1.75l-.1-.11-.14-.16a2.75,2.75,0,0,0-.22-.26l-.1-.1a1.59,1.59,0,0,0-.21-.15c-1.48-.87-3-1.69-4.48-2.53a3,3,0,0,1-.35-.19s-.06-.13-.18-.36l.28,0,.14,0,.29,0,.25.05.1,0,.27.07.09,0,.28.08.22.08.2.06.52.2.3.13.3.14.3.13.58.29.59.29.29.14c1.48.83,2.94,1.71,4.45,2.46a4.83,4.83,0,0,0,3.33.22c1.33-.33,2.66-.68,4-1A23.73,23.73,0,0,1,204.13,66.08Z"/>
            <path class="cls-16" d="M173.7,67.24c.54.08,1.08.12,1.6.24.68.15,1.31.41,1.44,1.22s-.51,1.19-1,1.43a23.93,23.93,0,0,1-3.21,1.24,3.83,3.83,0,0,1-2.32.12c-1.16-.31-1.48-1.1-.79-2.09A6.08,6.08,0,0,1,173.7,67.24Z"/>
            <g>
              <path class="cls-17" d="M188.2,102.61c-2.07-4.23-2.7-8.85-3.44-13.44-.38-2.31-.73-4.63-1.13-6.93-.21-1.21-.44-2.42-.69-3.62-1.17-5.56-5.65-11.22-11.69-14a19.75,19.75,0,0,0-3.65-1.29c-.51-.13-1-.23-1.54-.31a18.92,18.92,0,0,0-11.43,1.83,4.34,4.34,0,0,1-.56.19c0-4.44-2.65-7.55-5-10.81-1.16-1.61-2.25-3.26-3.33-4.92-.53-.8-1.12-.88-1.42,0a52.7,52.7,0,0,0-1.63,6.16,25.86,25.86,0,0,0-.21,4,19.62,19.62,0,0,1-2.85-8.91,3.64,3.64,0,0,0-1.27.19,4.37,4.37,0,0,0-.92,1h0l-.2.22a1.34,1.34,0,0,1-.11.14l-.11.13a18.42,18.42,0,0,0-2.65,8.86c0,1.57.1,3.14.17,4.72-1.37,0-2.8,0-4.2.19a27,27,0,0,0-8.89,3.17c-1.1.77-2.23,1.51-3.28,2.33-.32.25-.45.74-.67,1.11.38.15.76.31,1.14.43s.62.11.93.17l8.14,2.11-.06.38c-.57.26-1.16.5-1.72.78-5.28,2.68-7.73,7.08-7.82,12.9a1.16,1.16,0,0,0,.41.86c.14.1.64-.08.8-.27,2.34-2.82,5.64-3.55,9-4.21l1.71-.31a55.15,55.15,0,0,0-1.19,6.26c-.35,4.33,1.19,8.19,3.53,11.76,5.13,7.81,12.52,12.36,21.4,14.67A62.45,62.45,0,0,0,179,119.35q1.25-.18,2.49-.42l1.65-.74a18.39,18.39,0,0,0,1.78-.88,9.92,9.92,0,0,0,5-6.73l.12-.33h0c0-.15,0-.29,0-.43A15.27,15.27,0,0,0,188.2,102.61ZM171,114.94a51.46,51.46,0,0,1-18.85-2.58,28.76,28.76,0,0,1-15.54-11.68A20.73,20.73,0,0,1,135,97.8h0a15.47,15.47,0,0,1-.87-2.59,11.62,11.62,0,0,1,.52-6.91l1.23-.33,1.16-.32c1.32-.37,2.66-.76,4-1.19q1.13-.36,2.25-.75c.4-.13.78-.28,1.16-.44s1-.43,1.48-.67c.71-.34,1.41-.7,2.09-1.06l1-.53.5-.26a9.08,9.08,0,0,0,.95-.6,5.11,5.11,0,0,0,.65-.52,5.32,5.32,0,0,0,1.15-1.43l.08-.13.34-.63.54-1c.56-1.06,1.1-2.11,1.62-3.14S156,73.06,156.52,72l0-.1c.37-.76.66-1.51.91-2.18l.25-.66L158,69l.52-.16.38-.13.55-.24.13,0a2.43,2.43,0,0,1,.43-.17l.54-.13.57-.1.09,0c.31,0,.62-.09.93-.11l.58,0h.08a13.36,13.36,0,0,1,2.75.2,15,15,0,0,1,4,1.29l.68.36h0c.41.22.81.47,1.2.73s.83.58,1.22.9a16.32,16.32,0,0,1,2.18,2.14,15.4,15.4,0,0,1,1.85,2.75h0a14.18,14.18,0,0,1,.86,2,28,28,0,0,1,.87,3.27c.19,1,.36,1.93.51,2.93.09.55.17,1.11.26,1.67,0,.29.08.58.13.87s.11.74.17,1.12l.09.57c0,.15.05.3.07.44s0,.17,0,.26c.12.79.25,1.58.38,2.37.05.34.11.68.17,1l.09.49h0c.31,1.78.66,3.56,1.13,5.34.29,1.14.63,2.28,1,3.4a32.75,32.75,0,0,0,2,4.7,4.75,4.75,0,0,1,.23.72l0,.08a5.08,5.08,0,0,1,.08,2.38,3.77,3.77,0,0,1-2.14,2.71l-.15.07-.23.11-.47.22-.16.08-.51.26-.19.1-.11.06-.2.1-.08,0c-.24.12-.43.2-.59.27l-.08,0,0,0-.07,0h0l-.15,0s0,0,0,0c-.87.15-1.73.27-2.58.38s-1.46.18-2.17.25l-.54,0h0c-.79.07-1.57.13-2.34.17h-.09l-.84,0Zm-38.51-44h.71a4.1,4.1,0,0,0-.64.61l0,0-.1.12a3.45,3.45,0,0,0-.35.5l-.23-.11L130,71.25A13.21,13.21,0,0,1,132.47,70.92Zm44.65-6.61.52.12Zm-.54-.1.54.1Z"/>
              <path class="cls-17" d="M188.2,102.61c-2.07-4.23-2.7-8.85-3.44-13.44-.38-2.31-.73-4.63-1.13-6.93-.21-1.21-.44-2.42-.69-3.62-1.17-5.56-5.65-11.22-11.69-14a19.75,19.75,0,0,0-3.65-1.29c-.51-.13-1-.23-1.54-.31a18.92,18.92,0,0,0-11.43,1.83,4.34,4.34,0,0,1-.56.19c0-4.44-2.65-7.55-5-10.81-1.16-1.61-2.25-3.26-3.33-4.92-.53-.8-1.12-.88-1.42,0a52.7,52.7,0,0,0-1.63,6.16,25.86,25.86,0,0,0-.21,4,19.62,19.62,0,0,1-2.85-8.91,3.64,3.64,0,0,0-1.27.19,4.37,4.37,0,0,0-.92,1h0l-.2.22a1.34,1.34,0,0,1-.11.14l-.11.13a18.42,18.42,0,0,0-2.65,8.86c0,1.57.1,3.14.17,4.72-1.37,0-2.8,0-4.2.19a27,27,0,0,0-8.89,3.17c-1.1.77-2.23,1.51-3.28,2.33-.32.25-.45.74-.67,1.11.38.15.76.31,1.14.43s.62.11.93.17l8.14,2.11-.06.38c-.57.26-1.16.5-1.72.78-5.28,2.68-7.73,7.08-7.82,12.9a1.16,1.16,0,0,0,.41.86c.14.1.64-.08.8-.27,2.34-2.82,5.64-3.55,9-4.21l1.71-.31a55.15,55.15,0,0,0-1.19,6.26c-.35,4.33,1.19,8.19,3.53,11.76,5.13,7.81,12.52,12.36,21.4,14.67A62.45,62.45,0,0,0,179,119.35q1.25-.18,2.49-.42l1.65-.74a18.39,18.39,0,0,0,1.78-.88,9.92,9.92,0,0,0,5-6.73l.12-.33h0c0-.15,0-.29,0-.43A15.27,15.27,0,0,0,188.2,102.61Zm-43.32-51.9c1.08,1.45,2.05,2.73,3,4,.43.6.8,1.23,1.19,1.85h0c.76,1.15,1.51,2.3,2.27,3.44,2.49,3.52,1.65,9.22-1.09,13.45l-.24-6L149,64.68l-.27.11.57,3.41c-.05,2.56-.1,5.13-.16,7.94a20.86,20.86,0,0,0-2-3.73c-1.67-2-2.14-4.27-2.51-6.66A29.75,29.75,0,0,1,144.88,50.71ZM135.66,61c0-.33,0-.67,0-1a13.22,13.22,0,0,1,.16-1.41v0c0-.23.08-.46.14-.69a.09.09,0,0,1,0-.05l.07-.29.09-.34c0-.1.06-.19.08-.28l0,0a2.76,2.76,0,0,1,.08-.27l.06-.18c0-.07.05-.14.08-.2s0-.08,0-.11l.12-.31.06-.15.12-.27c.08-.18.16-.35.25-.53l.12-.25.09-.17c.05-.09.1-.19.16-.28l.22-.38c.07-.13.15-.26.23-.38s0-.09.08-.14a.75.75,0,0,0,.07-.12.56.56,0,0,1,0-.08c.09-.13.19-.2.3-.1l0,0,0,0,0,.06a2.34,2.34,0,0,1,.11.28,26,26,0,0,0,4,8.58,1.51,1.51,0,0,1,.25.66c.37,2.18.72,4.36,1.08,6.55l.05,0,0,0h0l-.11-.08-2.92-1.56c-1.32-.42-2.62-.92-4-1.24l-.17,0-.1,0-.11,0h0l-.1,0a1.16,1.16,0,0,1-.34-.27l-.06-.08h0a.21.21,0,0,1,0-.06l0-.06a0,0,0,0,1,0,0l0-.07s0,0,0,0,0,0,0,0,0-.05,0-.07a.06.06,0,0,0,0,0s0-.05,0-.08,0,0,0,0,0-.06,0-.1,0-.08,0-.13c0-.25,0-.51,0-.77s0-.51,0-.77h0c-.05-.77-.1-1.53-.11-2.29ZM124.91,73.27c-1.59-.62-3.29-.94-5.08-1.44a25.9,25.9,0,0,1,8.27-4.06,17.21,17.21,0,0,1,14.64,2.36c3,1.55,5.64,5.33,4.45,8.19L142,76.6a8.54,8.54,0,0,1-1.23-.32c-1.76-.75-3.51-1.54-5.26-2.31l-.09.1-.08.1h0l4.92,3,5,1.73a16.48,16.48,0,0,1-9.62-1.08c-.85-.33-1.72-.62-2.55-1C130.36,75.64,127.67,74.36,124.91,73.27Zm.1,12.06-.31.08-.32.09-.44.13-.57.18-.23.08-.41.14-.3.12-.3.12-.3.12-.27.12c-.26.12-.52.24-.78.38l-.18.1-.23.13-.28.17-.25.15-.32.21c0-.33,0-.48,0-.64a4.28,4.28,0,0,1,.09-.61.29.29,0,0,1,0-.09c.07-.29.16-.57.25-.84s.09-.28.14-.41l.15-.4c0-.13.1-.26.16-.39s.11-.25.17-.38l.18-.37a12.26,12.26,0,0,1,.81-1.41c.14-.22.3-.43.46-.65l.26-.33a1,1,0,0,0,.13-.16l.14-.16.14-.16.23-.24,0,0a3.83,3.83,0,0,1,.28-.29l0,0,.28-.27.47-.4.29-.24,0,0,.29-.22.13-.09.23-.17.13-.09.37-.23.42-.26.44-.24.44-.23.42-.2.09,0,.4-.18h0l.48-.2c2.2-.85,3.53.75,5.23,1.44-.21.06-.4.13-.6.2l-1.73.57-2.22.74.09.27,4.22-.6,1.32-.19,3.25.46,4.68.66A16.63,16.63,0,0,1,138.62,82l-2.36.58-1.18.28-2.86.65-3.06.7h0l-.61.17C127.38,84.74,126.19,85,125,85.33Zm63.53,25.44c0,.08,0,.17-.07.26a2,2,0,0,1-.07.26,2.76,2.76,0,0,0-.08.27c-.06.17-.12.34-.19.5l-.24.54a9,9,0,0,1-.6,1l-.06.09a.76.76,0,0,1-.11.14v0l-.16.21h0l-.18.21-.37.39-.12.11-.09.08L186,115l-.17.15-.36.27-.13.09-.42.26-.23.13-.12.06-.09,0-.14.07-.22.1h0l-.24.11-.42.2-.24.12-.24.12c-.48.25-1,.5-1.45.71a2.62,2.62,0,0,1-.39.15l-.15.06-.08,0h0l-.08,0-.08,0h-.05l-.52.12-.76.12-.14,0-.63.1-.25,0-.62.09-.17,0-.68.09h0c-.26,0-.51.07-.77.09l-.67.08-.65.06-1.58.13-.65,0-.69,0h-.05c-.23,0-.46,0-.69,0-.92,0-1.83.06-2.75,0H167.3l-.64,0h-.45l-.48,0h-.06l-.55,0-.48,0-.52,0-.54,0-.55,0h0l-.5,0c-.73-.07-1.46-.16-2.18-.27s-1.69-.26-2.53-.42q-.85-.17-1.71-.36l-.32-.08-.48-.11-.63-.16-1.25-.34-.63-.18-.47-.15-.47-.14-.47-.15-.46-.16c-.23-.08-.46-.15-.68-.24-.42-.14-.83-.3-1.24-.46l-.44-.18-.09,0-.55-.23-.49-.21-.2-.09-.43-.2-.55-.27c-.81-.39-1.61-.82-2.37-1.27l-.55-.33-.06,0-.49-.31-.16-.1-.49-.33-.42-.29,0,0-.25-.19-.41-.29-.45-.34-.18-.14-.05,0-.41-.32-.43-.37-.16-.13,0,0c-.13-.11-.26-.21-.38-.33l-.11-.09-.45-.41q-.5-.46-1-1l-.45-.47-.36-.39c-.07-.08-.15-.16-.22-.25-.4-.44-.78-.89-1.15-1.36l-.16-.2c-.14-.17-.27-.35-.41-.53l-.39-.53-.06-.09-.33-.47-.12-.18-.33-.5c-3.41-5.24-4.57-10.76-2-16.71a3.42,3.42,0,0,1,.25-.47l.15-.19a1.74,1.74,0,0,1,.36-.31l.22-.13a3.27,3.27,0,0,1,.53-.19c3.07-.81,6.13-1.66,9.12-2.7l.68-.25.67-.29.33-.14.66-.31c1-.48,2-1,2.92-1.51l.62-.33.11-.07a3,3,0,0,0,.41-.29l.2-.17.08-.09a1.12,1.12,0,0,0,.21-.29q1.09-2,2.11-4c.35-.67.68-1.34,1-2s.67-1.35,1-2c.13-.25.24-.5.35-.76s.31-.77.46-1.16.19-.52.3-.78l.15-.38a3,3,0,0,1,2.53-1.9l.52-.16.21-.08.4-.18h0l.4-.17.21-.08.42-.13a17,17,0,0,1,3.5-.5h1.19l.36,0,.32,0h.27l.34,0h0l.38,0,.37,0h.06l.36.06.31.06.86.19.23.06.3.08.24.07.2.06.29.09.73.25.12,0,.33.13.32.13a20.13,20.13,0,0,1,3,1.57l.34.23h0l.28.2h0c.16.1.31.22.46.33l.46.34a.18.18,0,0,0,.07.05l.22.19c.3.24.59.48.86.74a.86.86,0,0,1,.14.13,4,4,0,0,1,.3.28l.15.15.23.22c.22.23.44.45.64.69s.42.47.61.71.18.21.26.32l.51.67.24.35c.15.23.31.46.45.69s.15.24.22.36l.21.35c.06.12.13.24.19.37s.13.24.19.36l.18.35,0,0c0,.11.11.22.16.34l.16.37c.05.11.09.22.13.33s.13.31.19.47.08.23.11.34l.15.43c.22.7.41,1.41.58,2.13l0,.08c.07.3.14.59.2.89s.14.66.2,1l.12.66c0,.2.07.39.1.59s.07.39.1.58c0,.35.11.69.16,1s.1.69.16,1c.1.7.2,1.38.31,2.07l.15,1,.09.55c.08.47.15.94.22,1.41s.11.65.16,1,.13.75.19,1.12h0c.07.37.13.74.2,1.11.18.93.37,1.87.58,2.79.14.57.28,1.14.43,1.71l0,.1c0,.17.09.34.14.51s.11.38.17.57.11.36.17.55c0,0,0,0,0,.06l.17.5a.25.25,0,0,0,0,.07l.14.39a2.34,2.34,0,0,0,.09.24c.05.15.11.31.17.46s.14.37.22.56.15.37.23.56c.23.55.49,1.1.76,1.65l.29.54c.06.12.12.25.17.38s.1.26.14.39a1.18,1.18,0,0,1,.07.2c.06.2.11.4.17.6s.06.21.08.31l0,0a2.56,2.56,0,0,1,.05.27s0,0,0,.05,0,.2,0,.3h0c0,.1,0,.2.05.31s0,.28,0,.42,0,.35,0,.53v.35a1.09,1.09,0,0,0,0,.18c0,.12,0,.23,0,.35s0,.23,0,.35a2.51,2.51,0,0,1,0,.27C188.61,110.41,188.58,110.59,188.54,110.77Z"/>
              <path class="cls-18" d="M157.38,65.18l-.52.16c-.7,1.71-1.53,3.37-2.07,5.12a26.28,26.28,0,0,1-4,8,2.51,2.51,0,0,0-.27.74,3.48,3.48,0,0,1,2.88-.75c1.41.34,1.92-.17,1.79-1.63a7.76,7.76,0,0,0-.2-1c-.29-1.26-.3-2.5.8-3.39a3.29,3.29,0,0,1,3.6-.22c1.58.7,2,.62,3.25-.61s2.45-1.41,4.2-.73c2.34.91,4.2,5.46,3.61,8.09-.77-.16-1.53-.34-2.3-.46a3.09,3.09,0,0,0-3.32,1.6c-.73,1.22-.22,2.29.51,3.29s1.45,1.8,2.07,2.77c1.27,2,.62,3.49-1.7,3.87-1.6.26-3.24.28-4.86.41a2.53,2.53,0,0,0-2.49,2,6.58,6.58,0,0,0,0,2.21c.24,1.7-.61,2.86-2.17,2.87-5,0-7.9-4.39-5.81-8.88a1.39,1.39,0,0,1,.11-.21,2.73,2.73,0,0,0-.08-3.46,4.79,4.79,0,0,1-.16-5.48c-2.5,1.24-5.07,2.38-7.49,3.75-2.25,1.28-2.4,2.7-.86,5,1.27,1.84,1.16,2.36-.75,3.42l-.42.23a3.25,3.25,0,0,0-1.1,5.12,8.13,8.13,0,0,0,4.55,3.07,7.42,7.42,0,0,1,5.29,4.84,4.83,4.83,0,0,0,1.1,1.65,8.47,8.47,0,0,0,5.59,2.28c2.14.17,4.17.75,5.45,2.5,1.84,2.53,4.32,3.14,7.19,3a6,6,0,0,1,4.25,1.49A7,7,0,0,0,175.8,117a13.43,13.43,0,0,0,6.56-.52,6,6,0,0,1,.46-.54c2.25-2.11,3.36-4.67,2.48-7.7-.66-2.26-1.72-4.4-2.6-6.59a1.63,1.63,0,0,1-2.58.39c-1.21-.9-1.47-2-.73-3.08l.46-.27c.63-1,1.3,0,2,0-.18-.8-.37-1.6-.52-2.41C181,95,181,93.58,179.65,92.8h0l-.39-.23a8.11,8.11,0,0,1-.83-1.12c-.39-.73-.66-1.51.09-2.21.07-.09.15-.17.22-.25l1.2-.5L179.24,84a1.54,1.54,0,0,1-2.15.58,7.06,7.06,0,0,1-1.84-1.78c-.12-.15.25-.69.4-1h0c.41-1,1-1.25,1.9-.77a11.66,11.66,0,0,1,1.25.87,14.12,14.12,0,0,0-2.17-6.42c0,.81.17,1.71-1,2s-3.06-1-3.09-2.13c0-.35.4-.71.63-1.07h0c.26-.25.5-.65.81-.73a4.46,4.46,0,0,1,1.35.09l-2.89-3.4c-.92.35-1.81.56-2.37-.58-1-.22-.54-.93-.48-1.5a15.84,15.84,0,0,0-7.15-2.74C160.79,65.15,159.08,65.23,157.38,65.18Zm24,41.86.23-.25a1.68,1.68,0,0,1,2.3,1.1c.32.8.46,1.64-.48,2.19a2,2,0,0,1-2.29-1c-.27-.56-.89-1.24,0-1.84ZM159.5,66.62c.41-.09.9-.37,1.21-.23a3.33,3.33,0,0,1,1.42,1.17c.13.21-.34,1.15-.57,1.16a4.39,4.39,0,0,1-2.19-.35c-.56-.28-.65-1-.09-1.51Zm3,33.31-.5-.22a14.6,14.6,0,0,1-1.81-2.06,1.06,1.06,0,0,1,.72-1.7h0a1,1,0,0,1,1.58-.79A18.19,18.19,0,0,1,165,97c1.1,1,1.35,2.29.62,3.12s-2,.78-3.14-.17ZM170.36,81h0a2.42,2.42,0,0,1,1.43,2.76c-.33.94-1.44,1.37-2.74,1A6.89,6.89,0,0,1,167.7,84a9.67,9.67,0,0,1-1.12-.66,2.29,2.29,0,0,1-.72-3c.57-.95,1.65-1.15,2.95-.5a8.86,8.86,0,0,1,1.22.92Zm2.14,24.71c.92-.76,2-.41,2.61,1a1.92,1.92,0,0,1,0,1.61,1.58,1.58,0,0,1-1.45.37,4,4,0,0,1-1.69-1.35c-.19-.26.19-.92.31-1.4Zm1.26,6.67h0a1.49,1.49,0,0,1,2.41,0c.62.59,1.42,1.18.67,2.19a1.91,1.91,0,0,1-2.76,0C173.34,114,172.9,113.26,173.76,112.39ZM163,107.75l.46-.5c.92-1,1.68-.31,2.39.28s1.49,1.33.79,2.41a1.65,1.65,0,0,1-1,.59,2.53,2.53,0,0,1-2.69-1.11C162.61,108.89,162.32,108.3,163,107.75Zm8.19-10.11.46-.5a1.78,1.78,0,0,1,2.46.35c.82.87,1,2.19.43,2.81s-1.87.49-2.85-.25A1.59,1.59,0,0,1,171.21,97.64Zm.64-5.19c-.27-.16-.55-.31-.81-.48a2.15,2.15,0,0,1-.83-2.89,1.91,1.91,0,0,1,2.66-.82A13.76,13.76,0,0,1,175,89.89a1.84,1.84,0,0,1,.92,2.32,1.56,1.56,0,0,1-1.92,1A12,12,0,0,1,171.85,92.45Zm-24.62-2.89c-1.57,0-3.34-1.39-3.38-2.75a2.24,2.24,0,0,1,1.92-2.21c1.46-.07,3.12,1.67,3.14,3.31C148.93,89,148.41,89.53,147.23,89.56Zm3.76,13a2.11,2.11,0,0,1,2-2c1.4,0,2.93,1.7,2.92,3.3a1.84,1.84,0,0,1-1.75,1.88A3.83,3.83,0,0,1,151,102.54Zm-5.77-7-.29.2c.08,1.65-1.23,2.63-2.55,1.78a7.05,7.05,0,0,1-2-2.12c-.65-1-.16-1.83.68-2.45a1.76,1.76,0,0,1,2.49.15A18,18,0,0,1,145.22,95.59Z"/>
              <path class="cls-19" d="M182.36,116.52a13.43,13.43,0,0,1-6.56.52,7,7,0,0,1-2.71-1.31,6,6,0,0,0-4.25-1.49c-2.87.16-5.35-.45-7.19-3-1.28-1.75-3.31-2.33-5.45-2.5a8.47,8.47,0,0,1-5.59-2.28,4.83,4.83,0,0,1-1.1-1.65,7.42,7.42,0,0,0-5.29-4.84,8.13,8.13,0,0,1-4.55-3.07,3.25,3.25,0,0,1,1.1-5.12l.42-.23c1.91-1.06,2-1.58.75-3.42-1.54-2.25-1.39-3.67.86-5,2.42-1.37,5-2.51,7.49-3.75h0l.24-.26,0,0a2.51,2.51,0,0,1,.27-.74,26.28,26.28,0,0,0,4-8c.54-1.75,1.37-3.41,2.07-5.12a3,3,0,0,0-2.53,1.9c-.43,1-.77,2.09-1.26,3.08-1.33,2.7-2.68,5.39-4.13,8a3.76,3.76,0,0,1-1.63,1.24,42.8,42.8,0,0,1-5.26,2.5c-3,1-6.05,1.89-9.12,2.7a2,2,0,0,0-1.51,1.29c-2.62,6-1.46,11.47,2,16.71A32.64,32.64,0,0,0,150.9,116c9.58,3.25,19.38,3.48,29.27,1.84a18.37,18.37,0,0,0,4-1.69Zm-46.9-19.28-.71.89a9.67,9.67,0,0,1-1.4-1.83c-.1-.21.53-1.09.84-1.1C135.21,95.16,135.38,96,135.46,97.24Zm22.19,16.14-2-1.81,1-1.1a23.42,23.42,0,0,1,1.77,1.68C158.47,112.22,158.05,112.74,157.65,113.38ZM146,106.55c-1.15,0-2.28-.86-2.13-1.52.08-.39.58-.69.9-1a21.57,21.57,0,0,1,1.66,1.8C146.53,105.91,146.12,106.39,146,106.55Zm-8.19-18.21L137,89.48a7.23,7.23,0,0,1-1.13-1.36c-.08-.16.43-.61.66-.93Zm-.28,16.81a10.59,10.59,0,0,1,1-.87,10.66,10.66,0,0,1,1.34,1.43s-.5.6-.59.55A17.14,17.14,0,0,1,137.55,105.15Z"/>
              <path class="cls-20" d="M182.36,116.52l1.8-.37a8.63,8.63,0,0,0,3.69-11.25c-2.9-5.44-3.68-11.43-4.63-17.4A63.48,63.48,0,0,0,181.12,77C178.31,68.76,168.8,62.07,159,64.54a16.54,16.54,0,0,0-1.65.64c1.7,0,3.41,0,5.09.18a15.84,15.84,0,0,1,7.15,2.74h.2c.64-.77,1.33-.48,2,0a1.55,1.55,0,0,1,.67,2.12l2.89,3.4,0,0,.29.25,1,1.58a14.12,14.12,0,0,1,2.17,6.42c.15.72.3,1.44.44,2.16.24,1.5.47,3,.71,4.48a5.34,5.34,0,0,1,.8.49,2.83,2.83,0,0,1,1,2.84c-.27,1.2-1.31.87-2.11,1,1.37.78,1.39,2.18,1.63,3.49.15.81.34,1.61.52,2.41l.9,3c.88,2.19,1.94,4.33,2.6,6.59.88,3-.23,5.59-2.48,7.7A6,6,0,0,0,182.36,116.52Z"/>
              <path class="cls-21" d="M129.39,70.63Zm0,0Zm0,0a2.43,2.43,0,0,1,.32.24A2.43,2.43,0,0,0,129.39,70.63Z"/>
              <path class="cls-22" d="M128.1,67.77a17.21,17.21,0,0,1,14.64,2.36c.18.68.39,1.36.52,2.05A4.6,4.6,0,0,1,142,76.6a8.54,8.54,0,0,1-1.23-.32c-1.76-.75-3.51-1.54-5.26-2.31l-.46-.24-.27,0,.16.15.4.33h0l4.92,3c-1.13.14-2.27.26-3.4.41-.42.06-.83.16-1.25.24-.84-.33-1.71-.62-2.54-1-2.72-1.18-5.41-2.46-8.17-3.55-1.59-.62-3.29-.94-5.08-1.44A25.9,25.9,0,0,1,128.1,67.77Zm1.29,2.86h0a2.43,2.43,0,0,1,.32.24A2.43,2.43,0,0,0,129.39,70.63Z"/>
              <path class="cls-21" d="M149.05,56.59h0Z"/>
              <path class="cls-22" d="M144.88,50.71c1.08,1.45,2.05,2.73,3,4,.43.6.8,1.23,1.19,1.85h0L151.33,60c.11.83.24,1.66.3,2.49.14,1.87.11,3.7-1.63,5L149,64.68l-.27.1.57,3.42a3.71,3.71,0,0,1-3.94-1.74,4.53,4.53,0,0,0-.74-.71A29.75,29.75,0,0,1,144.88,50.71Zm3.63,13.59a.26.26,0,0,0,.15,0c0-.06,0-.13-.08-.28a.73.73,0,0,0-.09.18S148.49,64.3,148.51,64.3Z"/>
              <path class="cls-22" d="M134.46,79.37l-5.54.78-.09-.26,4.55-1.51c-1.7-.69-3-2.29-5.23-1.44a13.33,13.33,0,0,0-8.54,9.37,4.24,4.24,0,0,0-.11.7c0,.16,0,.31,0,.64,3-2.05,6.41-2.44,9.64-3.41a4.58,4.58,0,0,1,.7-.55c1-.56,2-1,3-1.67S134.65,80.7,134.46,79.37Z"/>
              <path class="cls-23" d="M140.94,67.61l2.92,1.56,0,0c-.36-2.19-.71-4.37-1.08-6.55a1.47,1.47,0,0,0-.25-.66,26,26,0,0,1-4-8.58c-.18.32-.53.65-.53,1a21,21,0,0,0,.14,5.27C138.88,62.33,140,65,140.94,67.61Z"/>
              <path class="cls-21" d="M140.94,67.61c-.94-2.66-2.06-5.28-2.74-8a21,21,0,0,1-.14-5.27c0-.32.35-.65.53-1-.29-.88-.52-.21-.69,0A13.7,13.7,0,0,0,135.69,60a48.09,48.09,0,0,0,.17,5.09A1.23,1.23,0,0,0,137,66.37C138.32,66.69,139.62,67.19,140.94,67.61Z"/>
              <path class="cls-23" d="M142,76.6l5.18,1.72c1.19-2.86-1.44-6.64-4.45-8.19.18.68.39,1.36.52,2.05A4.6,4.6,0,0,1,142,76.6Z"/>
              <path class="cls-23" d="M134.46,79.37c.19,1.33-.73,2-1.63,2.65s-2,1.11-3,1.67a4.58,4.58,0,0,0-.7.55c3.16-.73,6.32-1.41,9.46-2.21a17.1,17.1,0,0,0,3.77-1.54Z"/>
              <path class="cls-23" d="M144.57,65.75c.37,2.39.84,4.71,2.51,6.66a20.86,20.86,0,0,1,2,3.73c.06-2.81.11-5.38.16-7.94a3.71,3.71,0,0,1-3.94-1.74A4.53,4.53,0,0,0,144.57,65.75Z"/>
              <path class="cls-23" d="M150,67.5l.24,6c2.74-4.23,3.58-9.93,1.09-13.45.11.83.24,1.66.3,2.49C151.77,64.4,151.74,66.23,150,67.5Z"/>
              <path class="cls-23" d="M135.62,77.8a16.52,16.52,0,0,0,9.63,1.08l-5-1.73c-1.13.14-2.27.26-3.4.41C136.45,77.62,136,77.72,135.62,77.8Z"/>
              <path class="cls-24" d="M143.86,69.17l.11.09-.09-.11Z"/>
              <path class="cls-18" d="M150.29,79.45a4.79,4.79,0,0,0,.16,5.48,2.73,2.73,0,0,1,.08,3.46,1.39,1.39,0,0,0-.11.21c-2.09,4.49.81,8.92,5.81,8.88,1.56,0,2.41-1.17,2.17-2.87a6.58,6.58,0,0,1,0-2.21,2.53,2.53,0,0,1,2.49-2c1.62-.13,3.26-.15,4.86-.41,2.32-.38,3-1.9,1.7-3.87-.62-1-1.39-1.83-2.07-2.77s-1.24-2.07-.51-3.29a3.09,3.09,0,0,1,3.32-1.6c.77.12,1.53.3,2.3.46.59-2.63-1.27-7.18-3.61-8.09-1.75-.68-2.85-.58-4.2.73s-1.67,1.31-3.25.61a3.29,3.29,0,0,0-3.6.22c-1.1.89-1.09,2.13-.8,3.39a7.76,7.76,0,0,1,.2,1c.13,1.46-.38,2-1.79,1.63a3.48,3.48,0,0,0-2.88.75l0,0-.24.26Zm13.72-8h0a1.26,1.26,0,0,1,1.94-.33,8,8,0,0,1,1.69,2.09c.11.16-.07.62-.24.85-.58.78-2.07.69-3.11-.14A1.54,1.54,0,0,1,164,71.46ZM154.8,95a3.34,3.34,0,0,1-3.35-2.74,2.14,2.14,0,0,1,1.89-2.19,3.65,3.65,0,0,1,3.18,3.15A1.58,1.58,0,0,1,154.8,95Zm4.46-16.47c-1.65.07-3.33-1.17-3.42-2.51a2,2,0,0,1,1.89-2.16,3.6,3.6,0,0,1,3.33,3A1.71,1.71,0,0,1,159.26,78.56Zm-5.48,5.73a3.32,3.32,0,0,1-3.4-2.8,2.13,2.13,0,0,1,1.89-2.09,3.66,3.66,0,0,1,3.19,3.16A1.59,1.59,0,0,1,153.78,84.29Zm8.84,4.23a3.47,3.47,0,0,1-3.44-2.7,2.17,2.17,0,0,1,1.92-2.2c1.38-.08,3.14,1.67,3.21,3.17A1.6,1.6,0,0,1,162.62,88.52Z"/>
              <path class="cls-19" d="M147.23,89.56c1.18,0,1.7-.54,1.68-1.65,0-1.64-1.68-3.38-3.14-3.31a2.24,2.24,0,0,0-1.92,2.21C143.89,88.17,145.66,89.6,147.23,89.56Zm-2.76-3.4c.24-.19.63-.72,1.11-.83.87-.19,2.14,1.12,2.1,2.14a1.22,1.22,0,0,1-.77.88A2.36,2.36,0,0,1,144.47,86.16Z"/>
              <path class="cls-19" d="M151,102.54a3.83,3.83,0,0,0,3.22,3.17,1.84,1.84,0,0,0,1.75-1.88c0-1.6-1.52-3.33-2.92-3.3A2.11,2.11,0,0,0,151,102.54Zm3.78,1.13c-.15.15-.41.66-.78.74-.78.18-2.4-1.24-2.27-2a1.91,1.91,0,0,1,1.06-1.29C153.58,100.8,154.68,102.14,154.77,103.67Z"/>
              <path class="cls-19" d="M145.22,95.59a18,18,0,0,0-1.65-2.44,1.76,1.76,0,0,0-2.49-.15c-.84.62-1.33,1.48-.68,2.45a7.05,7.05,0,0,0,2,2.12c1.32.85,2.63-.13,2.55-1.78Zm-1.29.32c-.19.15-.51.6-.9.66-.85.12-2.34-1.33-2.15-2.16A2,2,0,0,1,142,93.19C142.81,93,143.91,94.49,143.93,95.91Z"/>
              <path class="cls-19" d="M170,80.77a8.86,8.86,0,0,0-1.22-.92c-1.3-.65-2.38-.45-2.95.5a2.29,2.29,0,0,0,.72,3,9.67,9.67,0,0,0,1.12.66,7.67,7.67,0,0,0,.81.15c1.83.15,2.63-.9,2-2.63l-.18-.55h0Zm-1.17,2.37c-1.53,0-2.83-.92-2.78-1.8a1.12,1.12,0,0,1,1.21-1.19c.91,0,2.38,1.28,2.28,2.12C169.52,82.64,169,83,168.86,83.14Z"/>
              <path class="cls-19" d="M165,97a18.19,18.19,0,0,0-2.51-1.82,1,1,0,0,0-1.58.79,2.31,2.31,0,0,1,3.09,1.8c.14.74-.18,1.16-1,1.11a2.21,2.21,0,0,1-2.13-2.9,1.06,1.06,0,0,0-.72,1.7A14.6,14.6,0,0,0,162,99.71l.5.22h0l.58,0c1.71,0,2.25-.58,2-2.28C165.05,97.43,165,97.2,165,97Z"/>
              <path class="cls-19" d="M175,89.89a13.76,13.76,0,0,0-2.14-1.63,1.91,1.91,0,0,0-2.66.82A2.15,2.15,0,0,0,171,92c.26.17.54.32.81.48C174.54,93.11,175.34,92.46,175,89.89Zm-1.7,1.72c-1.5.08-3-.88-2.78-1.72a1.88,1.88,0,0,1,1.14-1.21c.75-.21,2.39,1.3,2.29,2C173.91,91.11,173.45,91.44,173.31,91.61Z"/>
              <path class="cls-19" d="M176.63,75.44l-1-1.58-.29-.25,0,0a4.46,4.46,0,0,0-1.35-.09c-.31.08-.55.48-.81.73a1.38,1.38,0,0,1,2.09.59,4.79,4.79,0,0,1,.35,1.4,3.52,3.52,0,0,1-1.4.05c-.88-.35-1.44-1-1-2-.23.36-.64.72-.63,1.07,0,1.12,2,2.4,3.09,2.13S176.61,76.25,176.63,75.44Z"/>
              <path class="cls-19" d="M179.24,84c-.14-.72-.29-1.44-.44-2.16a11.66,11.66,0,0,0-1.25-.87c-.87-.48-1.49-.21-1.9.77a1.68,1.68,0,0,1,2.63,1.17c.12.6-.08.9-.72.91a2,2,0,0,1-1.91-2.07c-.15.36-.52.9-.4,1a7.06,7.06,0,0,0,1.84,1.78A1.54,1.54,0,0,0,179.24,84Z"/>
              <path class="cls-19" d="M179.65,92.8c.8-.1,1.84.23,2.11-1a2.83,2.83,0,0,0-1-2.84,5.34,5.34,0,0,0-.8-.49l-1.2.5.15.16a1.55,1.55,0,0,1,2,1.61,1.23,1.23,0,0,1-.62,1c-.69.16-1.72-1.07-1.72-1.93a1.85,1.85,0,0,1,.11-.45l-.16-.13c-.75.7-.48,1.48-.09,2.21a8.11,8.11,0,0,0,.83,1.12l.39.23Z"/>
              <path class="cls-19" d="M171.21,97.64a1.59,1.59,0,0,0,.5,2.41c1,.74,2.26.86,2.85.25s.39-1.94-.43-2.81a1.78,1.78,0,0,0-2.46-.35l.09.1c1.2-.21,1.75.57,2.11,1.49.26.65,0,1.09-.81,1a1.86,1.86,0,0,1-1.74-2Z"/>
              <path class="cls-19" d="M182.7,101.69l-.9-3c-.65,0-1.32-.94-2,0a.39.39,0,0,1,.08.1,1.79,1.79,0,0,1,1.88,2.09,1.16,1.16,0,0,1-1,.54,1.87,1.87,0,0,1-1.23-2.29l-.19-.17c-.74,1.07-.48,2.18.73,3.08A1.63,1.63,0,0,0,182.7,101.69Z"/>
              <path class="cls-19" d="M163,107.75c-.7.55-.41,1.14,0,1.67a2.53,2.53,0,0,0,2.69,1.11,1.65,1.65,0,0,0,1-.59c.7-1.08,0-1.79-.79-2.41s-1.47-1.33-2.39-.28l.09.1a2,2,0,0,1,2.19,1.24c.38.67.06,1.08-.63,1.16a1.86,1.86,0,0,1-2-1.92Z"/>
              <path class="cls-19" d="M172.27,106c-.12.48-.5,1.14-.31,1.4a4,4,0,0,0,1.69,1.35,1.58,1.58,0,0,0,1.45-.37,1.92,1.92,0,0,0,0-1.61c-.64-1.43-1.69-1.78-2.61-1l.07.07c.92-.24,1.42.33,1.78,1a1,1,0,0,1,0,1,1.11,1.11,0,0,1-.94.07c-.82-.3-1.34-.85-1-1.82Z"/>
              <path class="cls-20" d="M170.34,81l.18.55c.62,1.73-.18,2.78-2,2.63a7.67,7.67,0,0,1-.81-.15,6.89,6.89,0,0,0,1.33.72c1.3.38,2.41,0,2.74-1A2.42,2.42,0,0,0,170.34,81Z"/>
              <path class="cls-19" d="M181.15,107.28c-.9.6-.28,1.28,0,1.84a2,2,0,0,0,2.29,1c.94-.55.8-1.39.48-2.19a1.68,1.68,0,0,0-2.3-1.1l.09.1a1.65,1.65,0,0,1,1.62,1.76c0,.25-.44.68-.6.65a1.71,1.71,0,0,1-1.51-1.71c0-.08,0-.16,0-.24Z"/>
              <path class="cls-20" d="M165,97c0,.23,0,.46.07.69.24,1.7-.3,2.31-2,2.28l-.58,0c1.1,1,2.39,1,3.14.17S166.12,98,165,97Z"/>
              <path class="cls-20" d="M175,89.89c.33,2.57-.47,3.22-3.16,2.56a12,12,0,0,0,2.16.8,1.56,1.56,0,0,0,1.92-1A1.84,1.84,0,0,0,175,89.89Z"/>
              <path class="cls-19" d="M159.28,66.86c-.56.55-.47,1.23.09,1.51a4.39,4.39,0,0,0,2.19.35c.23,0,.7-1,.57-1.16a3.33,3.33,0,0,0-1.42-1.17c-.31-.14-.8.14-1.21.23l.12.13a2.35,2.35,0,0,1,.9.11,6.15,6.15,0,0,1,.92.92c-.2.16-.43.47-.6.44a4.59,4.59,0,0,1-1.44-.51c-.12-.06,0-.5,0-.77Z"/>
              <path class="cls-19" d="M172.47,70.18a1.55,1.55,0,0,0-.67-2.12c-.65-.43-1.34-.72-2,0l.09.08c.15,0,.34-.14.45-.09a9.52,9.52,0,0,1,1.43.8c.11.08,0,.41,0,.63H170.3a.35.35,0,0,1-.11,0l-.09.11C170.66,70.74,171.55,70.53,172.47,70.18Z"/>
              <path class="cls-19" d="M169.82,68.11h-.2c-.06.57-.57,1.28.48,1.5l.09-.11c-.1-.43-.19-.86-.28-1.3Z"/>
              <path class="cls-19" d="M163.48,107.25l-.46.5.11.08.44-.48Z"/>
              <path class="cls-19" d="M171.67,97.14l-.46.5.11.09c.15-.16.3-.32.44-.49Z"/>
              <path class="cls-19" d="M179.85,98.73l-.46.27.19.17.35-.34A.39.39,0,0,0,179.85,98.73Z"/>
              <path class="cls-20" d="M162.52,99.93l-.5-.22Z"/>
              <path class="cls-20" d="M179.66,92.81l-.39-.23Z"/>
              <path class="cls-19" d="M159.5,66.62l-.22.24.09.08.25-.19Z"/>
              <path class="cls-19" d="M178.75,89c-.07.08-.15.16-.22.25l.16.13.21-.22Z"/>
              <path class="cls-19" d="M181.61,106.79l-.23.25.05,0,.27-.19Z"/>
              <path class="cls-19" d="M181.38,107l-.23.24.08.07.2-.27Z"/>
              <path class="cls-20" d="M170,80.77l.33.24Z"/>
              <path class="cls-19" d="M172.5,105.72l-.23.25.06,0,.24-.23Z"/>
              <path class="cls-25" d="M135.46,97.24c-.08-1.23-.25-2.08-1.27-2-.31,0-.94.89-.84,1.1a9.67,9.67,0,0,0,1.4,1.83Z"/>
              <path class="cls-25" d="M146,106.55c.1-.16.51-.64.43-.75a21.57,21.57,0,0,0-1.66-1.8c-.32.34-.82.64-.9,1C143.74,105.69,144.87,106.56,146,106.55Z"/>
              <path class="cls-25" d="M137.83,88.34l-1.31-1.15c-.23.32-.74.77-.66.93A7.23,7.23,0,0,0,137,89.48Z"/>
              <path class="cls-25" d="M137.55,105.15a17.14,17.14,0,0,0,1.78,1.11c.09,0,.61-.53.59-.55a10.66,10.66,0,0,0-1.34-1.43A10.59,10.59,0,0,0,137.55,105.15Z"/>
              <path class="cls-18" d="M150.26,79.44l.24-.26Z"/>
              <path class="cls-18" d="M175.34,73.61l.29.25Z"/>
              <polygon class="cls-20" points="129.39 70.63 129.39 70.63 129.39 70.63 129.39 70.63"/>
              <path class="cls-24" d="M129.39,70.63a2.43,2.43,0,0,1,.32.24A2.43,2.43,0,0,0,129.39,70.63Z"/>
              <path class="cls-26" d="M135,73.84l.4.33h0l.17-.2-.46-.24Z"/>
              <path class="cls-26" d="M134.79,73.69l.16.15.11-.11Z"/>
              <path class="cls-27" d="M149,56.6h0Z"/>
              <path class="cls-26" d="M148.51,64.3a.26.26,0,0,0,.15,0c0-.06,0-.13-.08-.28a.73.73,0,0,0-.09.18S148.49,64.3,148.51,64.3Z"/>
              <path class="cls-19" d="M154.8,95a1.58,1.58,0,0,0,1.72-1.78,3.65,3.65,0,0,0-3.18-3.15,2.14,2.14,0,0,0-1.89,2.19A3.34,3.34,0,0,0,154.8,95Zm0-1.21c-1.37.07-2.89-1-2.71-1.84a1.89,1.89,0,0,1,1.15-1.19c.79-.2,2.16,1.3,2.08,2.2C155.26,93.34,154.88,93.66,154.77,93.82Z"/>
              <path class="cls-19" d="M159.26,78.56a1.71,1.71,0,0,0,1.8-1.67,3.6,3.6,0,0,0-3.33-3,2,2,0,0,0-1.89,2.16C155.93,77.39,157.61,78.63,159.26,78.56Zm-.1-1.15c-1.6,0-2.95-.87-2.77-1.73a1.74,1.74,0,0,1,1.09-1.09c.9-.21,2.47,1.19,2.35,2C159.78,77,159.28,77.27,159.16,77.41Z"/>
              <path class="cls-19" d="M153.78,84.29a1.59,1.59,0,0,0,1.68-1.73,3.66,3.66,0,0,0-3.19-3.16,2.13,2.13,0,0,0-1.89,2.09A3.32,3.32,0,0,0,153.78,84.29ZM151,80.88c.25-.18.65-.72,1.13-.81.91-.18,2.37,1.5,2.19,2.4a1,1,0,0,1-.49.59C152.81,83.48,151.06,82.37,151,80.88Z"/>
              <path class="cls-19" d="M162.62,88.52a1.6,1.6,0,0,0,1.69-1.73c-.07-1.5-1.83-3.25-3.21-3.17a2.17,2.17,0,0,0-1.92,2.2A3.47,3.47,0,0,0,162.62,88.52Zm-.14-1.1c-1.34,0-2.81-1.12-2.64-1.94A1.84,1.84,0,0,1,161,84.3c.84-.2,2.26,1.38,2.12,2.29C163,87,162.62,87.25,162.48,87.42Z"/>
              <path class="cls-19" d="M164,71.46a1.54,1.54,0,0,0,.27,2.48c1,.83,2.53.92,3.11.14.17-.23.35-.69.24-.85a8,8,0,0,0-1.69-2.09,1.26,1.26,0,0,0-1.94.33,2.14,2.14,0,0,1,2.52,1.06c.41.75.09,1.25-.76,1.22C164.42,73.7,163.83,72.92,164,71.46Z"/>
              <path class="cls-25" d="M144.47,86.16a2.36,2.36,0,0,0,2.44,2.19,1.22,1.22,0,0,0,.77-.88c0-1-1.23-2.33-2.1-2.14C145.1,85.44,144.71,86,144.47,86.16Z"/>
              <path class="cls-25" d="M154.77,103.67c-.09-1.53-1.19-2.87-2-2.6a1.91,1.91,0,0,0-1.06,1.29c-.13.81,1.49,2.23,2.27,2C154.36,104.33,154.62,103.82,154.77,103.67Z"/>
              <path class="cls-25" d="M143.93,95.91c0-1.42-1.12-2.93-1.9-2.72a2,2,0,0,0-1.15,1.22c-.19.83,1.3,2.28,2.15,2.16C143.42,96.51,143.74,96.06,143.93,95.91Z"/>
              <path class="cls-25" d="M168.86,83.14c.16-.18.66-.5.71-.87.1-.84-1.37-2.11-2.28-2.12a1.12,1.12,0,0,0-1.21,1.19C166,82.22,167.33,83.15,168.86,83.14Z"/>
              <path class="cls-25" d="M160.93,96a2.21,2.21,0,0,0,2.13,2.9c.78.05,1.1-.37,1-1.11a2.31,2.31,0,0,0-3.09-1.8Z"/>
              <path class="cls-25" d="M173.31,91.61c.14-.17.6-.5.65-.88.1-.75-1.54-2.26-2.29-2a1.88,1.88,0,0,0-1.14,1.21C170.35,90.73,171.81,91.69,173.31,91.61Z"/>
              <path class="cls-25" d="M173.2,74.22c-.4,1.06.16,1.69,1,2a3.52,3.52,0,0,0,1.4-.05,4.79,4.79,0,0,0-.35-1.4,1.38,1.38,0,0,0-2.09-.59Z"/>
              <path class="cls-25" d="M175.65,81.77a2,2,0,0,0,1.91,2.07c.64,0,.84-.31.72-.91a1.68,1.68,0,0,0-2.63-1.17Z"/>
              <path class="cls-25" d="M178.9,89.16l-.21.22a1.85,1.85,0,0,0-.11.45c0,.86,1,2.09,1.72,1.93a1.23,1.23,0,0,0,.62-1A1.55,1.55,0,0,0,178.9,89.16Z"/>
              <path class="cls-25" d="M171.76,97.24c-.14.17-.29.33-.44.49a1.86,1.86,0,0,0,1.74,2c.8.1,1.07-.34.81-1C173.51,97.81,173,97,171.76,97.24Z"/>
              <path class="cls-25" d="M179.93,98.83l-.35.34a1.87,1.87,0,0,0,1.23,2.29,1.16,1.16,0,0,0,1-.54A1.79,1.79,0,0,0,179.93,98.83Z"/>
              <path class="cls-25" d="M163.57,107.35l-.44.48a1.86,1.86,0,0,0,2,1.92c.69-.08,1-.49.63-1.16A2,2,0,0,0,163.57,107.35Z"/>
              <path class="cls-25" d="M172.57,105.79l-.24.23c-.29,1,.23,1.52,1,1.82a1.11,1.11,0,0,0,.94-.07,1,1,0,0,0,0-1C174,106.12,173.49,105.55,172.57,105.79Z"/>
              <path class="cls-25" d="M181.43,107.08l-.2.27c0,.08,0,.16,0,.24a1.71,1.71,0,0,0,1.51,1.71c.16,0,.56-.4.6-.65a1.65,1.65,0,0,0-1.62-1.76Z"/>
              <path class="cls-25" d="M159.62,66.75l-.25.19c0,.27-.09.71,0,.77a4.59,4.59,0,0,0,1.44.51c.17,0,.4-.28.6-.44a6.15,6.15,0,0,0-.92-.92A2.35,2.35,0,0,0,159.62,66.75Z"/>
              <path class="cls-25" d="M169.91,68.19c.09.44.18.87.28,1.3a.35.35,0,0,0,.11,0h1.53c0-.22.07-.55,0-.63a9.52,9.52,0,0,0-1.43-.8C170.25,68.05,170.06,68.16,169.91,68.19Z"/>
              <path class="cls-25" d="M154.77,93.82c.11-.16.49-.48.52-.83.08-.9-1.29-2.4-2.08-2.2A1.89,1.89,0,0,0,152.06,92C151.88,92.8,153.4,93.89,154.77,93.82Z"/>
              <path class="cls-25" d="M159.16,77.41c.12-.14.62-.43.67-.78.12-.85-1.45-2.25-2.35-2a1.74,1.74,0,0,0-1.09,1.09C156.21,76.54,157.56,77.45,159.16,77.41Z"/>
              <path class="cls-25" d="M151,80.88c.09,1.49,1.84,2.6,2.83,2.18a1,1,0,0,0,.49-.59c.18-.9-1.28-2.58-2.19-2.4C151.62,80.16,151.22,80.7,151,80.88Z"/>
              <path class="cls-25" d="M162.48,87.42c.14-.17.56-.47.62-.83.14-.91-1.28-2.49-2.12-2.29a1.84,1.84,0,0,0-1.14,1.18C159.67,86.3,161.14,87.42,162.48,87.42Z"/>
              <path class="cls-25" d="M164,71.46c-.18,1.46.41,2.24,1.75,2.29.85,0,1.17-.47.76-1.22A2.14,2.14,0,0,0,164,71.47Z"/>
            </g>
          </g>
        </g>
      </g>
    </g>
  </g>
</svg>
