<svg xmlns="http://www.w3.org/2000/svg" viewBox="0 0 118.37 67.18">
  <defs>
    <style>
      .cls-1 {
        fill: #23401d;
      }

      .cls-2 {
        fill: #fff;
      }

      .cls-3 {
        fill: #28451e;
      }

      .cls-4 {
        fill: #2d5123;
      }

      .cls-5 {
        fill: #483215;
      }

      .cls-6 {
        fill: #26451e;
      }

      .cls-7 {
        fill: #31381a;
      }

      .cls-8 {
        fill: #245225;
      }

      .cls-9 {
        fill: #7cb928;
      }

      .cls-10 {
        fill: #7fba28;
      }

      .cls-11 {
        fill: #289938;
      }

      .cls-12 {
        fill: #72b62f;
      }

      .cls-13 {
        fill: #82bb26;
      }

      .cls-14 {
        fill: #815b13;
      }

      .cls-15 {
        fill: #6b4910;
      }

      .cls-16 {
        fill: #4dad33;
      }

      .cls-17 {
        fill: #64a530;
      }

      .cls-18 {
        fill: #9bc42c;
      }

      .cls-19 {
        fill: #a1c630;
      }

      .cls-20 {
        fill: #2e5324;
      }

      .cls-21 {
        fill: #fdfdfd;
      }

      .cls-22 {
        fill: #da0e15;
      }

      .cls-23 {
        fill: #b31917;
      }

      .cls-24 {
        fill: #eb7a7f;
      }

      .cls-25 {
        fill: #60b22f;
      }

      .cls-26 {
        fill: #348a35;
      }

      .cls-27 {
        fill: #f1872c;
      }

      .cls-28 {
        fill: #0d1111;
      }

      .cls-29 {
        fill: #cfe9ee;
      }

      .cls-30 {
        fill: #e00814;
      }

      .cls-31 {
        fill: #039239;
      }

      .cls-32 {
        fill: #2b2a2b;
      }
    </style>
  </defs>
  <g id="Capa_2" data-name="Capa 2">
    <g id="Capa_1-2" data-name="Capa 1">
      <g>
        <g>
          <path class="cls-1" d="M24,32l-.6.27-.91.16-.39-.19-.14-.07L21.68,32l-.05,0-.13-.08-.92-.65h0L20.21,31h0L20,30.88h0l-.17-.12L18.79,30l.52-.44c.36.28.72.55,1.1.79h0l.5.32.33.19a14.55,14.55,0,0,0,1.43.7l.07,0,.4.17h0A2.52,2.52,0,0,0,24,32Z"/>
          <path class="cls-2" d="M31.81,31.09a10.3,10.3,0,0,0,1.21.16A10.79,10.79,0,0,1,28.37,33a4.46,4.46,0,0,1-1.54-.11,9.56,9.56,0,0,0-1.29-.19,5.68,5.68,0,0,0,1-.77l.44.11a3.25,3.25,0,0,0,1.48.13A12.25,12.25,0,0,0,31.81,31.09Z"/>
          <path class="cls-2" d="M35.28,11l-.29.07-.17.05-1.68.32c.42.17.86.3,1.27.5h-.1a5.22,5.22,0,0,0-1.13.15c-.36-.13-.73-.24-1.11-.35a3,3,0,0,0-2.49.09l-.4-.38.16-.23-1-.06c0-.16,0-.33,0-.49l1.27.11c0-.21,0-.42,0-.63a8.88,8.88,0,0,1,.26-3.44l0-.08s0,0,0,0c.22-.12.28.13.42.18a.76.76,0,0,1,0,.15A8.74,8.74,0,0,0,30,9.53a2.7,2.7,0,0,0,.08.39h.11a6.21,6.21,0,0,1,1.22-2.33l.56.35a2.12,2.12,0,0,1-.11.21,3.84,3.84,0,0,0-.81,2.14c0,.5.13.62.63.63a12.13,12.13,0,0,0,3-.48C34.74,10.81,35,10.9,35.28,11Z"/>
          <path class="cls-3" d="M36.46,13.8l-.18.14h0l-.14-.12Z"/>
          <path class="cls-4" d="M17.73,11.82a5.54,5.54,0,0,1,.56.11.18.18,0,0,0-.07.05l-.08,0-.23.17-.12.09a3.47,3.47,0,0,0-.29.25l0,0-.12.11,0,0-.13.14-.09.09A.6.6,0,0,0,17,13l-.09.1-.09.1-.08.1-.08.09h0l-.08.1-.08.1a.35.35,0,0,0-.05.08l-.12.16a.41.41,0,0,1-.07.11l-.05.09a.35.35,0,0,0-.05.08l-.05.08-.12.2-.09.18c-.06.12-.12.24-.17.37s0,.07-.05.1,0,.09,0,.13,0,.07,0,.11a1.34,1.34,0,0,0-.07.18.75.75,0,0,0,0,.16l0,.09a.14.14,0,0,0,0,.07l0,.08c0,.05,0,.11,0,.16v0a.57.57,0,0,1,0,.14v0a.83.83,0,0,0,0,.15h0v0l0,.16,0,.17,0,.13a.13.13,0,0,1,0,.06s0,.09,0,.14,0,.07,0,.1v.06c0,.09,0,.17,0,.25s0,.17,0,.26,0,.08,0,.12a2.28,2.28,0,0,0,0,.26s0,.08,0,.12,0,.17,0,.26v.12h0v.68a18.51,18.51,0,0,0,.2,2.21l-.13.07.14,0,.06.34h0l-.15.13h0l0,0-.26.23a15,15,0,0,1-.23-5c0-.12,0-.25.05-.37s.07-.35.11-.53l.09-.37c0-.09.05-.17.07-.26.07-.24.15-.48.24-.71a8,8,0,0,1,.6-1.21l.12-.19h0l0-.05.09-.14.16-.21a5.84,5.84,0,0,1,.51-.59c.17-.18.35-.35.53-.51A6.55,6.55,0,0,1,17.73,11.82Z"/>
          <path class="cls-2" d="M27.4,11.07c-.4-.05-.81-.07-1.2-.15A13.07,13.07,0,0,0,21,10.85l-.11,0-.1,0-.26.06-.15,0-.14,0-.08,0h0l-.5-.2c.3-.11.61-.2.94-.29A13.42,13.42,0,0,1,26,10.46c.47.07.94.1,1.41.15C27.39,10.76,27.39,10.91,27.4,11.07Z"/>
          <path class="cls-5" d="M27.38,10.43c-.14-.58-.26-1.17-.42-1.75A4.39,4.39,0,0,0,25,6a.83.83,0,0,1-.38-1.14,1.89,1.89,0,0,1,2.36-1,1,1,0,0,1,.45.54,17,17,0,0,1,.79,4c.05.67.06,1.35.09,2l-.3-.05c0-.61-.07-1.24-.14-1.85-.12-.9-.24-1.81-.42-2.7A14.13,14.13,0,0,0,27,4.23a1.33,1.33,0,0,0-.3-.18,1.57,1.57,0,0,0-1.34.28,1.54,1.54,0,0,0-.43.57c-.13.3,0,.49.35.46a1.76,1.76,0,0,0,1.63-1s.06,0,.09-.06c-.12.27-.24.54-.37.8a1.55,1.55,0,0,1-.12.22l-.91.47a7,7,0,0,1,2,4.66Z"/>
          <path class="cls-6" d="M14.83,22.39l.26-.23.2-.17a18.38,18.38,0,0,0,1.12,3.63,9.55,9.55,0,0,0,1.5,2.46l1.4,1.49-.52.44a10.89,10.89,0,0,1-2.68-3.56A14.88,14.88,0,0,1,14.83,22.39Z"/>
          <path class="cls-2" d="M35.62,1.58A12.22,12.22,0,0,1,38.73,1,4,4,0,0,0,41,.18c.35-.28.44-.24.59.19a6,6,0,0,1,.21,2.7c-.12.81-.31,1.6-.49,2.4a7.2,7.2,0,0,1-.33.88A.47.47,0,0,1,40.53,6c0-.06,0-.12,0-.17a9.36,9.36,0,0,0,.62-4.59C41.13.73,41,.67,40.57.85s-.72.26-1.09.36a6.66,6.66,0,0,1-.78.11,7,7,0,0,0-.91.08c-.74.15-1.47.32-2.21.48Z"/>
          <path class="cls-2" d="M40.53,6a.47.47,0,0,0,.42.37,7.32,7.32,0,0,1-4.41,4.25c-.41.16-.84.27-1.26.41-.26-.11-.54-.2-.55-.57L36,10a6.19,6.19,0,0,0,3.7-2.68C40,6.9,40.27,6.44,40.53,6Z"/>
          <path class="cls-2" d="M35.62,1.58l0,.3-.86.38a7.35,7.35,0,0,0-4.46,4.52c-.14,0-.2-.3-.42-.18a6.06,6.06,0,0,1,1.93-2.95A10.36,10.36,0,0,1,35.62,1.58Z"/>
          <path class="cls-7" d="M28,10.35l.3.05v.28l0,.49,0,1,.84-.75.4.38-.48.36a5.35,5.35,0,0,0-.5.45.93.93,0,0,1-1.15.25c-.21-.1-.26-.24-.14-.46a2.15,2.15,0,0,0,.12-.47l0-.9,0-.46v-.18h.17c0,.62,0,1.23.09,1.85,0,.11.11.21.17.32.06-.1.16-.2.16-.3C28,11.65,28,11,28,10.35Z"/>
          <path class="cls-8" d="M34.82,11.13l.17-.05Z"/>
          <path class="cls-6" d="M27.2,30.42l.15,0Z"/>
          <path class="cls-6" d="M27.67,30.48l.16,0Z"/>
          <path class="cls-8" d="M29.83,6.64l0,.08Z"/>
          <path class="cls-9" d="M26.48,29.06h0s0,.08,0,.12a3.62,3.62,0,0,1-1.84,2.45c-.21.12-.43.22-.65.32a2.52,2.52,0,0,1-.81-.19h0l-.4-.17-.07,0a14.55,14.55,0,0,1-1.43-.7l-.33-.19-.5-.32h0c-.38-.24-.74-.51-1.1-.79-.46-.5-.93-1-1.4-1.49V27.7l1.15-1c0-.06-.05-.19-.08-.32l.58.46c.21.18.42.35.64.51l.14.1.28.19h0c.14.09.28.18.43.26a7.61,7.61,0,0,0,2.22.87c.21.05.43.09.65.12l.26,0,.36,0,.3,0A8.37,8.37,0,0,0,26,29h0l.51,0A.76.76,0,0,1,26.48,29.06Z"/>
          <path class="cls-9" d="M30.59,30.8a11.32,11.32,0,0,0,1.22.29,12.25,12.25,0,0,1-3.39,1.1,3.25,3.25,0,0,1-1.48-.13L26.5,32a4.91,4.91,0,0,0,1.3-2.37v0a1.3,1.3,0,0,0,.08-.58v-.06A4.79,4.79,0,0,0,30.59,30.8Z"/>
          <path class="cls-10" d="M31.32,13.25a3.54,3.54,0,0,0-.6.9,8.25,8.25,0,0,0-.51,1.29h-.44a5.78,5.78,0,0,1-.7.08c-.62,0-1.24-.14-1.86-.21-.54-.23-1.09-.44-1.63-.7a4.2,4.2,0,0,1-.67-.46l.21-.22h0l.41-.43.21-.22a2.61,2.61,0,0,1,.27-.19h0c.31.22.61.44.92.64A1.32,1.32,0,0,0,28,14c.44-.13.87-.28,1.31-.44A5.36,5.36,0,0,1,31.32,13.25Z"/>
          <path class="cls-10" d="M33.18,12.1a3.88,3.88,0,0,0-1.56.84,9.5,9.5,0,0,0-1.6,0,3.08,3.08,0,0,0-.38-.43,4.74,4.74,0,0,0-.54-.31l.48-.36a3,3,0,0,1,2.49-.09C32.45,11.86,32.82,12,33.18,12.1Z"/>
          <path class="cls-11" d="M36,10l-1.29.41a12.13,12.13,0,0,1-3,.48c-.5,0-.64-.13-.63-.63a3.84,3.84,0,0,1,.81-2.14L32,7.94c.34-.37.64-.78,1-1.11a19.13,19.13,0,0,1,4.24-2.72,21.14,21.14,0,0,0,2.37-1.45,6.44,6.44,0,0,0,1-1c0,.09.1.2.08.28a3.42,3.42,0,0,1-1.38,2c-.9.58-1.83,1.09-2.74,1.64a5,5,0,0,0-1.74,1.73,1.62,1.62,0,0,0,.34,2.14A5.46,5.46,0,0,0,36,10Z"/>
          <path class="cls-12" d="M30.26,6.78a7.35,7.35,0,0,1,4.46-4.52l.86-.38c.74-.16,1.47-.33,2.21-.48a7,7,0,0,1,.91-.08l-.49.14a13.12,13.12,0,0,0-5,2.2A3.11,3.11,0,0,0,32,5,2.43,2.43,0,0,0,32,6.88l-.58.71a6.21,6.21,0,0,0-1.22,2.33h-.11A2.7,2.7,0,0,1,30,9.53a8.74,8.74,0,0,1,.25-2.6A.76.76,0,0,0,30.26,6.78Z"/>
          <path class="cls-2" d="M31.41,7.59,32,6.88a14.89,14.89,0,0,1,3.14-2.14c1.3-.67,2.61-1.34,3.9-2a3.85,3.85,0,0,0,.74-.53c.3-.26.58-.55.87-.82h0l-.11.3a6.44,6.44,0,0,1-1,1,21.14,21.14,0,0,1-2.37,1.45A19.13,19.13,0,0,0,33,6.83c-.37.33-.67.74-1,1.11Z"/>
          <path class="cls-10" d="M29.18,11.46l-.84.75,0-1,1,.06Z"/>
          <path class="cls-13" d="M18.29,11.93a6.77,6.77,0,0,1,1.33.47l-.09,0-.07,0-.16.05-.07,0-.17.07-.08,0-.11.05h0l-.06,0-.08,0h0l-.09.05-.15.09-.07,0-.11.07-.1.07-.1.07-.07.06-.05,0-.08.07-.09.08-.07.07-.06,0-.06.07a.6.6,0,0,0-.08.08l-.11.12-.08.1-.09.11q-.18.24-.33.48a.36.36,0,0,0-.07.1.75.75,0,0,1-.07.12h0a.41.41,0,0,1-.07.11l-.07.14-.05.1a.91.91,0,0,0-.07.14.54.54,0,0,0-.05.11l-.07.14a.42.42,0,0,1,0,.1l-.15.41,0,.1-.09.3,0,.1s0,.06,0,.09a.36.36,0,0,0,0,.1c0,.11,0,.22-.07.33s0,.07,0,.11a.52.52,0,0,1,0,.11s0,.06,0,.1v0s0,.06,0,.1c0,.22,0,.44-.05.67v.13a1,1,0,0,0,0,.25v.13c0,.06,0,.13,0,.19v0a.86.86,0,0,1,0,.16c0,.06,0,.13,0,.19s0,.12,0,.19v0a1.1,1.1,0,0,0,0,.18v0c0,.09,0,.19,0,.29S16,20,16,20a.78.78,0,0,0,0,.14,1.1,1.1,0,0,0,0,.18l0,.15a.22.22,0,0,0,0,.08c0,.05,0,.09,0,.13a1.42,1.42,0,0,0,0,.2v0c0,.07,0,.14.05.2a1.42,1.42,0,0,0,0,.2.57.57,0,0,0,0,.14.75.75,0,0,0,0,.16,1.8,1.8,0,0,0,.05.19,1.42,1.42,0,0,0,.05.16c0,.05,0,.09,0,.14s.05.14.07.21a.69.69,0,0,0,.05.13.75.75,0,0,0,.05.16.77.77,0,0,0,.07.16l.12.31.07.16.06.13.24.48.06.11c.06.11.12.22.19.33h0l.28.44h0l0,0c.13.2.3.38.45.57s.17.26.26.38.37.43.56.65c0,.13.06.26.08.32l-1.15,1v.38a9.55,9.55,0,0,1-1.5-2.46c-.07-.14-.13-.29-.19-.44s-.15-.37-.21-.56-.13-.38-.19-.57,0-.12-.05-.18c-.18-.62-.33-1.25-.48-1.88h0l-.06-.34v-.12a18.51,18.51,0,0,1-.2-2.21v-.68h0v-.12c0-.09,0-.17,0-.26s0-.08,0-.12a2.28,2.28,0,0,1,0-.26s0-.08,0-.12,0-.17,0-.26,0-.16,0-.25v-.06s0-.07,0-.1,0-.1,0-.14a.13.13,0,0,0,0-.06l0-.13,0-.17,0-.16v0h0a.83.83,0,0,1,0-.15v0a.57.57,0,0,0,0-.14v0c0-.05,0-.11,0-.16l0-.08a.14.14,0,0,1,0-.07l0-.09a.75.75,0,0,1,0-.16,1.34,1.34,0,0,1,.07-.18s0-.07,0-.11,0-.08,0-.13,0-.07.05-.1.11-.25.17-.37L16,14.4l.12-.2.05-.08a.35.35,0,0,1,.05-.08l.05-.09a.41.41,0,0,0,.07-.11l.12-.16.05-.08.08-.1.08-.1h0l.08-.09.08-.1.09-.1L17,13a.6.6,0,0,1,.08-.08l.09-.09.13-.14,0,0,.12-.11,0,0a3.47,3.47,0,0,1,.29-.25l.12-.09.23-.17.08,0A.18.18,0,0,1,18.29,11.93Z"/>
          <path class="cls-13" d="M27.4,11.07l0,.9c-.38,0-.77,0-1.15.1a2.16,2.16,0,0,0-.55.27,5.06,5.06,0,0,0-1.83-.65c.05.08.05.11.07.13l.13.07c.54.3,1.09.6,1.63.92a1.48,1.48,0,0,1,.28.28,2.61,2.61,0,0,0-.27.19l-.83.87a.78.78,0,0,1-.2-.11c-.58-.41-1.13-.84-1.72-1.23l-.1-.06-.1-.06h0l-.08,0,0,0-.09,0-.08,0-.23-.1-.05,0a9.51,9.51,0,0,0-2.12-1.33h0l.08,0,.14,0,.15,0,.26-.06.1,0,.11,0a13.07,13.07,0,0,1,5.25.07C26.59,11,27,11,27.4,11.07Z"/>
          <path class="cls-6" d="M15.22,21.53v.12l-.14,0Z"/>
          <path class="cls-14" d="M27.81,12.6c-.06-.11-.17-.21-.17-.32-.05-.62-.06-1.23-.09-1.85a7,7,0,0,0-2-4.66l.91-.47a2.43,2.43,0,0,1,.39.47A9.83,9.83,0,0,1,27.29,7a17.91,17.91,0,0,1,.49,3.64C27.84,11.26,27.8,11.93,27.81,12.6Z"/>
          <path class="cls-15" d="M27.81,12.6c0-.67,0-1.34,0-2A17.91,17.91,0,0,0,27.29,7a9.83,9.83,0,0,0-.44-1.18,2.43,2.43,0,0,0-.39-.47,1.55,1.55,0,0,0,.12-.22c.13-.26.25-.53.37-.8v0a14.13,14.13,0,0,1,.46,1.57c.18.89.3,1.8.42,2.7.07.61.09,1.24.14,1.85s0,1.3,0,2C28,12.4,27.87,12.5,27.81,12.6Z"/>
          <path class="cls-14" d="M27,4.23v0s-.08,0-.09.06a1.76,1.76,0,0,1-1.63,1c-.33,0-.48-.16-.35-.46a1.54,1.54,0,0,1,.43-.57,1.57,1.57,0,0,1,1.34-.28A1.33,1.33,0,0,1,27,4.23Z"/>
          <path class="cls-16" d="M40.64,1.36c-.29.27-.57.56-.87.82a3.85,3.85,0,0,1-.74.53c-1.29.69-2.6,1.36-3.9,2A14.89,14.89,0,0,0,32,6.88,2.43,2.43,0,0,1,32,5a3.11,3.11,0,0,1,1.21-1.33,13.12,13.12,0,0,1,5-2.2l.49-.14a6.66,6.66,0,0,0,.78-.11c.37-.1.73-.23,1.09-.36s.56-.12.62.37a9.36,9.36,0,0,1-.62,4.59c0,.05,0,.11,0,.17-.26.46-.52.92-.81,1.37A6.19,6.19,0,0,1,36,10a5.46,5.46,0,0,1-.91-.54,1.62,1.62,0,0,1-.34-2.14,5,5,0,0,1,1.74-1.73c.91-.55,1.84-1.06,2.74-1.64a3.42,3.42,0,0,0,1.38-2c0-.08-.05-.19-.08-.28l.11-.3.05-.12v0Z"/>
          <path class="cls-17" d="M25.73,12.34a2.16,2.16,0,0,1,.55-.27c.38-.06.77-.07,1.15-.1a2.15,2.15,0,0,1-.12.47c-.12.22-.07.36.14.46a.93.93,0,0,0,1.15-.25,5.35,5.35,0,0,1,.5-.45,4.74,4.74,0,0,1,.54.31,3.08,3.08,0,0,1,.38.43l-1.45.38a1.77,1.77,0,0,1-1.22-.09C26.8,13,26.27,12.64,25.73,12.34Z"/>
          <path class="cls-18" d="M26.49,28.91,26,29h0a8.37,8.37,0,0,1-1.12,0l-.3,0-.36,0-.26,0c-.22,0-.44-.07-.65-.12a7.61,7.61,0,0,1-2.22-.87c-.15-.08-.29-.17-.43-.26h0l-.28-.19-.14-.1c-.22-.16-.43-.33-.64-.51L19,26.36c-.19-.22-.38-.43-.56-.65s-.17-.25-.26-.38l.23-.27,2.07-2.24.17-.19.36-.38h0l.3-.33,1.24-1.35.15-.15,1.07-1.17c.13-.13.25-.27.38-.41.15.84.27,1.69.41,2.53a16.84,16.84,0,0,0,1.26,4.9A5.73,5.73,0,0,1,26.49,28.91Z"/>
          <path class="cls-18" d="M30.4,18.23c-.32.73-.65,1.45-1,2.16l-.83,1.86c-.08.19-.17.37-.26.56-.26.57-.56,1.23-.81,1.92a6,6,0,0,0-.3,1.26c-.05-.12-.11-.23-.16-.33A14.7,14.7,0,0,1,26,21.5l0-.35c-.05-.28-.09-.55-.13-.82-.15-.91-.3-1.85-.48-2.78.56-.6,1.12-1.21,1.67-1.82a1.5,1.5,0,0,0,.21-.42c.62.07,1.24.16,1.86.21a5.78,5.78,0,0,0,.7-.08h.44A3.77,3.77,0,0,0,30.4,18.23Z"/>
          <path class="cls-19" d="M25.58,14.61a4.2,4.2,0,0,1-.67-.46.78.78,0,0,1-.2-.11c-.58-.41-1.13-.84-1.72-1.23l-.1-.06-.1-.06h0l-.08,0,0,0-.09,0-.08,0-.23-.1a8.84,8.84,0,0,1,3,4.79c0,.11,0,.21.07.32.56-.6,1.12-1.21,1.67-1.82a1.5,1.5,0,0,0,.21-.42C26.67,15.08,26.12,14.86,25.58,14.61Zm-6-2.21-.09,0-.07,0-.16.05-.07,0-.17.07-.08,0-.11.05h0l-.06,0-.08,0h0l-.09.05-.15.09-.07,0-.11.07-.1.07-.1.07-.07.06-.05,0-.08.07-.09.08-.07.07-.06,0-.06.07a.6.6,0,0,0-.08.08l-.11.12-.08.1-.09.11q-.18.24-.33.48a.36.36,0,0,0-.07.1.75.75,0,0,1-.07.12h0a.41.41,0,0,1-.07.11l-.07.14-.05.1a.91.91,0,0,0-.07.14.54.54,0,0,0-.05.11l-.07.14a.42.42,0,0,1,0,.1l-.15.41,0,.1-.09.3,0,.1s0,.06,0,.09a.36.36,0,0,0,0,.1c0,.11,0,.22-.07.33s0,.07,0,.11a.52.52,0,0,1,0,.11v.12l0,.1c0,.22,0,.44-.05.67v.13a1,1,0,0,0,0,.25v.13c0,.06,0,.13,0,.19v0a.86.86,0,0,1,0,.16c0,.06,0,.13,0,.19s0,.12,0,.19v0l0,.18v0c0,.09,0,.19,0,.29S16,20,16,20a.78.78,0,0,0,0,.14,1.1,1.1,0,0,0,0,.18l0,.15a.22.22,0,0,0,0,.08c0,.05,0,.09,0,.13a1.42,1.42,0,0,0,0,.2v0c0,.07,0,.14.05.2a1.42,1.42,0,0,0,0,.2.57.57,0,0,0,0,.14.75.75,0,0,0,0,.16,1.8,1.8,0,0,0,.05.19,1.42,1.42,0,0,0,.05.16c0,.05,0,.09,0,.14s.05.14.07.21a.69.69,0,0,0,.05.13.75.75,0,0,0,.05.16,1.11,1.11,0,0,0,.07.16l.12.31.07.16.06.13.24.48.06.11c.06.11.12.22.19.33h0l.28.44h0l0,0c.13.2.3.38.45.57l.23-.27,2.07-2.24.17-.19.36-.38h0l.3-.33,1.24-1.35.15-.15,1.07-1.17c.13-.13.25-.27.38-.41-.08-.44-.16-.88-.25-1.32A7.75,7.75,0,0,0,19.62,12.4ZM19,14.12l0,0,0,0,.1-.1.05,0,.06-.05.13-.09h0l.06,0,.07,0,.07,0,.07,0,.14-.06,0,0,.09,0,.17-.05h0l.17,0h.18a3.88,3.88,0,0,1,.58.09c.25,0,.48.14.53.44V14h0v0h0v0s0,0,0,0,0,0,0,0a.23.23,0,0,1-.07.1h0a.6.6,0,0,1-.08.08l-.06,0-.09.05-.1.05-.2.09-.06,0a5.31,5.31,0,0,1-.56.2h0l-.23.08h0a1.45,1.45,0,0,1-.85.05c-.42-.11-.54-.4-.29-.77h0Z"/>
          <path class="cls-20" d="M31.62,12.94c-.1.1-.21.2-.3.31a5.36,5.36,0,0,0-2,.33c-.44.16-.87.31-1.31.44a1.32,1.32,0,0,1-1.06-.29c-.31-.2-.61-.42-.92-.64l0,0a.15.15,0,0,1-.05-.06l-.09-.09,0,0a.21.21,0,0,0-.08-.06c-.54-.32-1.09-.62-1.63-.92L24,11.82s0-.05-.06-.13h.15l.1,0,.09,0h0l.1,0h0l.1,0,.09,0,.07,0,.19.07L25,12l.11,0,.1.05.22.1.21.11.11.05c.54.3,1.07.62,1.62.89a1.77,1.77,0,0,0,1.22.09L30,12.94A9.5,9.5,0,0,1,31.62,12.94Z"/>
          <path class="cls-8" d="M40.64,1.36l.07-.11h0l-.05.12Z"/>
          <path class="cls-8" d="M40.71,1.25v0Z"/>
          <path class="cls-21" d="M20.52,13.37a5.81,5.81,0,0,1,.58.09c.25,0,.48.14.53.44a.52.52,0,0,1-.35.52,8.3,8.3,0,0,1-1.17.45,1.45,1.45,0,0,1-.85.05c-.42-.11-.54-.4-.29-.77A2.22,2.22,0,0,1,20.52,13.37Z"/>
          <g>
            <path class="cls-3" d="M25.81,26.27a16.84,16.84,0,0,1-1.26-4.9c-.14-.84-.26-1.69-.41-2.53-.08-.44-.16-.88-.25-1.32a7.75,7.75,0,0,0-4.27-5.12,6.77,6.77,0,0,0-1.33-.47,5.54,5.54,0,0,0-.56-.11,6.91,6.91,0,0,0-4.17.66,1,1,0,0,1-.21.07c0-1.62-1-2.75-1.83-3.94C11.1,8,10.7,7.42,10.3,6.81c-.19-.29-.4-.32-.51,0a17.78,17.78,0,0,0-.6,2.25,10.79,10.79,0,0,0-.08,1.46,7.34,7.34,0,0,1-1-3.26,1.39,1.39,0,0,0-.46.07c-.14.08-.22.25-.33.38h0a.6.6,0,0,1-.08.08l0,0,0,.05a6.76,6.76,0,0,0-1,3.23c0,.58,0,1.15.07,1.73-.5,0-1,0-1.53.06a9.88,9.88,0,0,0-3.25,1.16c-.4.28-.81.55-1.2.85a1.48,1.48,0,0,0-.24.41c.14.05.27.11.42.15a1.7,1.7,0,0,0,.34.07l3,.77a.78.78,0,0,1,0,.14l-.62.28A5,5,0,0,0,.22,21.46a.44.44,0,0,0,.15.31s.23,0,.29-.1a5.24,5.24,0,0,1,3.28-1.53c.22-.05.45-.08.63-.11a18,18,0,0,0-.44,2.28A6.7,6.7,0,0,0,5.42,26.6,12.74,12.74,0,0,0,13.23,32a22.77,22.77,0,0,0,9.22.44l.91-.16L24,32c.22-.1.44-.2.65-.32a3.62,3.62,0,0,0,1.84-2.45s0-.08,0-.12h0a.76.76,0,0,0,0-.15A5.73,5.73,0,0,0,25.81,26.27Zm-6.29,4.51a18.88,18.88,0,0,1-6.87-1A10.44,10.44,0,0,1,7,25.57a7.83,7.83,0,0,1-.57-1.05h0a5.06,5.06,0,0,1-.32-.95,4.2,4.2,0,0,1,.19-2.52l.45-.12.42-.11c.48-.14,1-.28,1.46-.44.28-.08.55-.18.83-.27L9.85,20l.54-.25.76-.38.37-.2.19-.09a3.81,3.81,0,0,0,.34-.22l.24-.19a1.81,1.81,0,0,0,.42-.52l0-.05.12-.23.2-.37.59-1.14.6-1.2v0c.14-.28.24-.55.34-.8l.09-.24.08,0L15,14l.14-.05.2-.08,0,0a.54.54,0,0,1,.16-.06l.19-.05.21,0h0l.34-.05h.24a4.86,4.86,0,0,1,1,.07,5.37,5.37,0,0,1,1.45.48l.25.13h0l.44.26a4.59,4.59,0,0,1,.44.33,6.56,6.56,0,0,1,.8.78,5.71,5.71,0,0,1,.67,1h0a4.75,4.75,0,0,1,.32.73,9,9,0,0,1,.31,1.19c.07.35.13.7.19,1.07l.09.61.05.31.06.41,0,.21,0,.16s0,.07,0,.1c0,.28.09.57.14.86l.06.38,0,.18h0c.11.65.24,1.3.41,1.95.11.41.23.83.38,1.24a11.62,11.62,0,0,0,.74,1.71,1.83,1.83,0,0,1,.08.27v0a1.68,1.68,0,0,1,0,.86,1.35,1.35,0,0,1-.78,1l-.05,0-.09,0-.17.08-.06,0-.18.09-.07,0,0,0-.08,0h0l-.22.1h-.08l-.06,0h0l-.94.14-.8.09-.19,0h0l-.86.06h0l-.31,0Zm-14-16.07h.26a1.2,1.2,0,0,0-.23.22h0l0,0-.13.18-.08,0-.67-.3A4.84,4.84,0,0,1,5.47,14.71ZM21.76,12.3l.19,0Zm-.19,0,.19,0Z"/>
            <path class="cls-2" d="M25.81,26.27a16.84,16.84,0,0,1-1.26-4.9c-.14-.84-.26-1.69-.41-2.53-.08-.44-.16-.88-.25-1.32a7.75,7.75,0,0,0-4.27-5.12,6.77,6.77,0,0,0-1.33-.47,5.54,5.54,0,0,0-.56-.11,6.91,6.91,0,0,0-4.17.66,1,1,0,0,1-.21.07c0-1.62-1-2.75-1.83-3.94C11.1,8,10.7,7.42,10.3,6.81c-.19-.29-.4-.32-.51,0a17.78,17.78,0,0,0-.6,2.25,10.79,10.79,0,0,0-.08,1.46,7.34,7.34,0,0,1-1-3.26,1.39,1.39,0,0,0-.46.07c-.14.08-.22.25-.33.38h0a.6.6,0,0,1-.08.08l0,0,0,.05a6.76,6.76,0,0,0-1,3.23c0,.58,0,1.15.07,1.73-.5,0-1,0-1.53.06a9.88,9.88,0,0,0-3.25,1.16c-.4.28-.81.55-1.2.85a1.48,1.48,0,0,0-.24.41c.14.05.27.11.42.15a1.7,1.7,0,0,0,.34.07l3,.77a.78.78,0,0,1,0,.14l-.62.28A5,5,0,0,0,.22,21.46a.44.44,0,0,0,.15.31s.23,0,.29-.1a5.24,5.24,0,0,1,3.28-1.53c.22-.05.45-.08.63-.11a18,18,0,0,0-.44,2.28A6.7,6.7,0,0,0,5.42,26.6,12.74,12.74,0,0,0,13.23,32a22.77,22.77,0,0,0,9.22.44l.91-.16L24,32c.22-.1.44-.2.65-.32a3.62,3.62,0,0,0,1.84-2.45s0-.08,0-.12h0a.76.76,0,0,0,0-.15A5.73,5.73,0,0,0,25.81,26.27ZM10,7.33c.39.53.75,1,1.09,1.48.16.22.29.45.43.67h0c.28.42.56.84.83,1.26.91,1.28.61,3.36-.4,4.91l-.08-2.19-.39-1-.09,0c.06.42.13.83.2,1.25,0,.93,0,1.87-.05,2.89a8.26,8.26,0,0,0-.74-1.35,4.57,4.57,0,0,1-.91-2.44A10.77,10.77,0,0,1,10,7.33ZM6.63,11.09c0-.12,0-.24,0-.37l.06-.51h0a2.21,2.21,0,0,1,0-.25v0l0-.1,0-.13,0-.1h0l0-.1a.14.14,0,0,1,0-.06l0-.08v0s0-.07,0-.11l0,0a1,1,0,0,1,0-.1l.09-.2,0-.09,0-.06,0-.1.09-.14a.64.64,0,0,1,.08-.14l0-.05,0,0v0s.07-.08.11,0h0v0a.23.23,0,0,1,0,.1,9.51,9.51,0,0,0,1.45,3.13.7.7,0,0,1,.09.24l.39,2.39,0,0,0,0h0l0,0L8.56,13.5c-.48-.15-1-.33-1.45-.45l-.06,0H6.93a.4.4,0,0,1-.12-.1l0,0h0l0,0v0h0a0,0,0,0,1,0,0v0h0v0h0v0h0v-.09c0-.09,0-.18,0-.28a2.64,2.64,0,0,0,0-.28h0c0-.28,0-.56,0-.84ZM2.71,15.57c-.58-.23-1.2-.34-1.86-.53a9.64,9.64,0,0,1,3-1.48,6.31,6.31,0,0,1,5.35.86c1.1.57,2.06,2,1.62,3L9,16.78a2.28,2.28,0,0,1-.45-.11l-1.92-.85,0,0,0,0h0L8.32,17l1.81.64a6.1,6.1,0,0,1-3.51-.4c-.31-.12-.62-.22-.93-.36C4.7,16.43,3.72,16,2.71,15.57Zm0,4.4-.12,0-.11,0-.16,0-.21.06-.09,0-.15.06-.11,0-.11,0-.1.05-.1,0-.29.14-.06,0-.09,0-.1.06-.09.06-.12.08a1.85,1.85,0,0,1,0-.24.83.83,0,0,1,0-.22v0A2.81,2.81,0,0,1,.87,20a.88.88,0,0,1,.05-.15c0-.05,0-.1,0-.14L1,19.58l.06-.14.07-.13c.09-.18.19-.35.29-.51l.17-.24.1-.12.05-.06.05-.06.05-.06L2,18.17H2l.1-.1,0,0,.11-.1.17-.15.1-.08h0l.1-.08,0,0,.09-.06,0,0,.13-.09.15-.09.16-.09.17-.08.15-.08h0L3.71,17h0l.17-.07c.8-.31,1.29.27,1.91.52l-.22.07L5,17.71,4.14,18l0,.1,1.54-.22.49-.07L7.38,18l1.71.24a6.1,6.1,0,0,1-1.38.57L6.85,19l-.43.1-1,.24-1.12.25h0L4,19.64Zm23.18,9.28s0,.07,0,.1l0,.1,0,.09c0,.06,0,.12-.07.19a.82.82,0,0,1-.09.19,2.12,2.12,0,0,1-.21.36l0,0a.21.21,0,0,0,0,.06h0l-.06.08h0l-.07.07-.13.14,0,0,0,0-.05.05-.06.05-.13.1,0,0-.16.1-.08.05,0,0,0,0-.06,0-.08,0h0l-.09,0-.15.07-.09,0-.08.05-.53.26-.15.05,0,0h-.12l-.19,0-.28.05h-.05l-.23,0h-.09L22,32h-.06l-.25,0h0l-.28,0-.25,0-.24,0-.57,0H20.1l-.25,0h-.27l-1,0H17l-.2,0-.2,0h0l-.18,0c-.27,0-.53-.06-.8-.1s-.61-.09-.92-.15l-.62-.13-.12,0-.18,0-.23-.06-.45-.12-.23-.07-.17-.05-.17,0-.18-.06-.17-.06L12,31.08l-.46-.17-.16-.07h0l-.2-.09-.18-.07-.07,0-.16-.07-.2-.1c-.3-.14-.58-.3-.87-.46l-.2-.12,0,0-.18-.11-.05,0L9,29.59l-.16-.1h0l-.09-.07-.15-.11-.17-.12-.06-.05,0,0L8.18,29,8,28.86l0,0H8l-.14-.12,0,0-.16-.15-.36-.35L7.09,28,7,27.84l-.09-.09-.42-.5,0-.07L6.25,27a1.33,1.33,0,0,1-.14-.19l0,0L6,26.58l0-.06-.12-.18a6.07,6.07,0,0,1-.71-6.1.68.68,0,0,1,.09-.17L5.23,20a.74.74,0,0,1,.13-.12l.08,0,.2-.07c1.12-.3,2.23-.61,3.32-1l.25-.09.25-.1.12-.06.24-.11c.36-.17.71-.37,1.07-.55l.22-.12,0,0s.11-.07.15-.11l.07-.06,0,0a.39.39,0,0,0,.08-.1c.27-.48.52-1,.77-1.46.13-.24.25-.49.37-.73s.25-.49.37-.74a2.36,2.36,0,0,0,.12-.28c.06-.13.12-.28.17-.42s.07-.19.11-.28l.06-.14a1.06,1.06,0,0,1,.92-.69l.19-.06.08,0,.14-.07h0l.15-.06.08,0,.15,0a5.72,5.72,0,0,1,1.28-.18h.92l.14,0,.13,0h0l.13,0,.11,0,.31.07.09,0,.11,0,.08,0,.08,0,.11,0,.26.1h0l.12.05.12.05a7.53,7.53,0,0,1,1.09.57l.12.08h0l.11.08h0l.17.12.16.12,0,0,.08.07.32.27.05,0a.94.94,0,0,1,.1.1l.06.05.08.09.24.25.22.25.1.12.18.25.09.12.16.26a.57.57,0,0,1,.08.13l.08.13s.05.08.07.13l.07.13.06.13v0l.06.12.06.14a.61.61,0,0,0,.05.12l.06.17.05.12a.75.75,0,0,0,.05.16c.08.26.15.51.21.78v0c0,.1.05.21.07.32s.05.24.07.36,0,.16.05.24l0,.22a1.55,1.55,0,0,1,0,.21l.06.38.06.38c0,.25.07.5.11.75l.06.36,0,.2c0,.17.05.34.08.51l.06.36c0,.13,0,.27.07.41h0c0,.13.05.27.07.4q.09.51.21,1c.05.21.1.42.16.63v0c0,.06,0,.12.05.19l.06.21.06.19v0l.06.18v0c0,.05,0,.1.05.15l0,.09a1.11,1.11,0,0,0,.07.16,1.8,1.8,0,0,0,.08.21,1.67,1.67,0,0,0,.08.2c.09.2.18.4.28.6l.1.2a.91.91,0,0,1,.07.14l.05.14a.64.64,0,0,0,0,.07,1.42,1.42,0,0,0,.07.22l0,.12v0s0,.06,0,.1h0A.36.36,0,0,0,26,28h0s0,.07,0,.11,0,.1,0,.15,0,.13,0,.19v.2a.53.53,0,0,0,0,.13s0,.08,0,.12,0,.07,0,.1A1.18,1.18,0,0,1,25.93,29.25Z"/>
            <path class="cls-22" d="M14.56,12.62l-.19.06c-.26.62-.56,1.22-.76,1.86a9.53,9.53,0,0,1-1.46,2.92,1.15,1.15,0,0,0-.09.28,1.23,1.23,0,0,1,1-.28c.51.13.7-.06.65-.59a2.66,2.66,0,0,0-.07-.39A1.11,1.11,0,0,1,14,15.25a1.18,1.18,0,0,1,1.31-.08c.58.25.72.22,1.19-.23A1.22,1.22,0,0,1,18,14.68a3,3,0,0,1,1.32,2.95c-.28-.06-.56-.13-.84-.17a1.13,1.13,0,0,0-1.21.58,1,1,0,0,0,.19,1.21c.24.34.52.66.75,1,.46.72.23,1.27-.62,1.41-.58.09-1.18.1-1.77.15a.92.92,0,0,0-.91.73,2.21,2.21,0,0,0,0,.81c.09.62-.22,1-.79,1A2.2,2.2,0,0,1,12,21.16a.59.59,0,0,1,0-.08,1,1,0,0,0,0-1.26,1.73,1.73,0,0,1-.06-2c-.91.45-1.85.86-2.73,1.36s-.88,1-.31,1.81.42.86-.28,1.25l-.15.08a1.18,1.18,0,0,0-.4,1.87,3,3,0,0,0,1.66,1.12,2.73,2.73,0,0,1,1.93,1.77,1.71,1.71,0,0,0,.4.6,3.08,3.08,0,0,0,2,.83,2.55,2.55,0,0,1,2,.91,2.73,2.73,0,0,0,2.62,1.09,2.12,2.12,0,0,1,1.55.55,2.59,2.59,0,0,0,1,.47,4.9,4.9,0,0,0,2.4-.19,1.46,1.46,0,0,1,.16-.19,2.66,2.66,0,0,0,.91-2.81c-.24-.83-.63-1.61-.95-2.41a.59.59,0,0,1-.94.14A.76.76,0,0,1,22.59,25l.17-.1c.23-.36.47,0,.71,0-.06-.29-.13-.59-.19-.88-.08-.48-.09-1-.59-1.27h0l-.14-.09a2.32,2.32,0,0,1-.3-.4c-.15-.27-.24-.55,0-.81l.08-.09.44-.18-.26-1.64a.56.56,0,0,1-.79.21,2.58,2.58,0,0,1-.67-.65c0-.05.09-.25.15-.38h0c.15-.36.38-.46.69-.29.16.09.31.22.46.32a5.19,5.19,0,0,0-.8-2.34c0,.29.07.62-.35.72s-1.12-.37-1.13-.78c0-.12.15-.26.23-.39h0c.1-.09.19-.23.3-.26a1.64,1.64,0,0,1,.49,0l-1.05-1.24c-.34.13-.66.2-.87-.21-.38-.08-.19-.34-.17-.55a5.81,5.81,0,0,0-2.61-1C15.8,12.61,15.18,12.63,14.56,12.62Zm8.76,15.27.08-.09a.61.61,0,0,1,.84.4c.12.3.17.6-.17.8a.72.72,0,0,1-.84-.35c-.1-.2-.32-.45,0-.67Zm-8-14.75c.15,0,.33-.13.45-.08a1.17,1.17,0,0,1,.51.42c.05.08-.12.42-.2.43a1.54,1.54,0,0,1-.8-.13c-.21-.1-.24-.35,0-.55ZM16.44,25.3l-.19-.08a5.81,5.81,0,0,1-.66-.75.39.39,0,0,1,.27-.63h0a.37.37,0,0,1,.57-.29,6.54,6.54,0,0,1,.92.67c.4.37.49.83.23,1.14a.8.8,0,0,1-1.15-.07Zm2.86-6.91h0a.87.87,0,0,1,.52,1,.76.76,0,0,1-1,.36,3.2,3.2,0,0,1-.48-.26,4,4,0,0,1-.41-.24.84.84,0,0,1-.26-1.11c.2-.34.6-.42,1.07-.18a3.45,3.45,0,0,1,.45.33Zm.78,9c.34-.28.72-.15,1,.37a.71.71,0,0,1,0,.59.56.56,0,0,1-.53.13,1.42,1.42,0,0,1-.62-.49c-.07-.09.07-.33.12-.51Zm.46,2.44h0a.54.54,0,0,1,.88,0c.22.22.51.43.24.8a.71.71,0,0,1-1,0C20.39,30.43,20.22,30.16,20.54,29.85Zm-3.92-1.7.17-.18c.33-.38.61-.12.87.1s.54.49.29.88a.61.61,0,0,1-.36.22.94.94,0,0,1-1-.41C16.47,28.57,16.36,28.35,16.62,28.15Zm3-3.69.17-.18a.64.64,0,0,1,.89.13c.3.32.38.8.16,1s-.68.18-1-.09A.58.58,0,0,1,19.61,24.46Zm.23-1.89-.3-.18a.78.78,0,0,1-.3-1.05.69.69,0,0,1,1-.3,4.92,4.92,0,0,1,.79.59.68.68,0,0,1,.33.85.57.57,0,0,1-.7.38A4.69,4.69,0,0,1,19.84,22.57Zm-9-1.06a1.26,1.26,0,0,1-1.24-1,.82.82,0,0,1,.7-.81,1.3,1.3,0,0,1,1.15,1.21C11.48,21.32,11.29,21.5,10.86,21.51Zm1.37,4.74a.77.77,0,0,1,.75-.73A1.23,1.23,0,0,1,14,26.72a.68.68,0,0,1-.64.69A1.39,1.39,0,0,1,12.23,26.25Zm-2.11-2.54-.1.08c0,.6-.45,1-.94.65a2.84,2.84,0,0,1-.72-.78c-.24-.35,0-.67.25-.89a.64.64,0,0,1,.91.05A6,6,0,0,1,10.12,23.71Z"/>
            <path class="cls-23" d="M23.68,31.35a4.9,4.9,0,0,1-2.4.19,2.59,2.59,0,0,1-1-.47,2.12,2.12,0,0,0-1.55-.55,2.73,2.73,0,0,1-2.62-1.09,2.55,2.55,0,0,0-2-.91,3.08,3.08,0,0,1-2-.83,1.71,1.71,0,0,1-.4-.6,2.73,2.73,0,0,0-1.93-1.77A3,3,0,0,1,8.1,24.2a1.18,1.18,0,0,1,.4-1.87l.15-.08c.7-.39.74-.58.28-1.25s-.51-1.34.31-1.81,1.82-.91,2.73-1.36h0l.09-.1v0a1.15,1.15,0,0,1,.09-.28,9.53,9.53,0,0,0,1.46-2.92c.2-.64.5-1.24.76-1.86a1.06,1.06,0,0,0-.92.69c-.16.37-.28.76-.46,1.12-.49,1-1,2-1.51,2.93a1.35,1.35,0,0,1-.59.45A16.13,16.13,0,0,1,9,18.78c-1.09.38-2.2.69-3.32,1a.72.72,0,0,0-.55.47,6.07,6.07,0,0,0,.71,6.1,11.85,11.85,0,0,0,6.39,4.82,21.66,21.66,0,0,0,10.69.67,6.49,6.49,0,0,0,1.45-.61Zm-17.12-7-.26.32A3.6,3.6,0,0,1,5.79,24c0-.07.19-.4.31-.4C6.47,23.56,6.53,23.87,6.56,24.32Zm8.1,5.89-.74-.66.36-.4a6.32,6.32,0,0,1,.65.61S14.8,30,14.66,30.21Zm-4.25-2.5c-.42,0-.83-.31-.77-.55s.21-.25.32-.38c.21.22.43.43.61.66C10.6,27.48,10.45,27.65,10.41,27.71Zm-3-6.64-.31.42a2.37,2.37,0,0,1-.41-.5c0-.06.15-.23.24-.34ZM7.32,27.2c.19-.16.36-.33.38-.31a3.46,3.46,0,0,1,.49.52s-.18.22-.22.2C7.77,27.51,7.59,27.37,7.32,27.2Z"/>
            <path class="cls-24" d="M23.68,31.35l.65-.13a2.93,2.93,0,0,0,1.56-3.54,3,3,0,0,0-.21-.57A19.65,19.65,0,0,1,24,20.76a23.6,23.6,0,0,0-.76-3.83,7,7,0,0,0-8.07-4.55,6.25,6.25,0,0,0-.6.24c.62,0,1.24,0,1.86.06a5.81,5.81,0,0,1,2.61,1h.07c.23-.28.49-.17.72,0a.56.56,0,0,1,.25.77l1.05,1.24h0l.11.09.36.58a5.19,5.19,0,0,1,.8,2.34c.05.27.11.53.16.79l.26,1.64a1.53,1.53,0,0,1,.29.18,1,1,0,0,1,.37,1c-.1.44-.48.32-.77.36.5.28.51.79.59,1.27.06.29.13.59.19.88l.33,1.09c.32.8.71,1.58.95,2.41a2.66,2.66,0,0,1-.91,2.81A1.46,1.46,0,0,0,23.68,31.35Z"/>
            <path class="cls-25" d="M4.35,14.61Zm0,0Zm0,0,.11.08Z"/>
            <path class="cls-16" d="M3.87,13.56a6.31,6.31,0,0,1,5.35.86c.06.25.14.5.19.75A1.69,1.69,0,0,1,9,16.78a2.28,2.28,0,0,1-.45-.11l-1.92-.85-.17-.08-.09,0,0,.06.15.12h0L8.32,17l-1.24.15c-.16,0-.31.06-.46.09-.31-.12-.62-.22-.93-.36-1-.43-2-.89-3-1.29-.58-.23-1.2-.34-1.86-.53A9.64,9.64,0,0,1,3.87,13.56Zm.48,1h0l.11.08Z"/>
            <path class="cls-25" d="M11.52,9.48h0Z"/>
            <path class="cls-16" d="M10,7.33c.39.53.75,1,1.09,1.48.16.22.29.45.43.68h0c.28.42.56.84.83,1.26,0,.3.09.61.11.91a1.82,1.82,0,0,1-.59,1.81l-.39-1-.1,0,.21,1.25a1.35,1.35,0,0,1-1.44-.64,1.34,1.34,0,0,0-.27-.26A10.88,10.88,0,0,1,10,7.33Zm1.32,5h.06a.29.29,0,0,1,0-.1l0,.07S11.32,12.29,11.32,12.3Z"/>
            <path class="cls-16" d="M6.2,17.79l-2,.29,0-.1,1.66-.55c-.62-.25-1.11-.83-1.91-.52A4.85,4.85,0,0,0,.78,20.33a.73.73,0,0,0,0,.25,1.85,1.85,0,0,0,0,.24,11.5,11.5,0,0,1,3.52-1.25,1.64,1.64,0,0,1,.26-.2c.36-.21.74-.38,1.08-.61S6.26,18.28,6.2,17.79Z"/>
            <path class="cls-11" d="M8.56,13.5l1.07.57h0c-.14-.79-.27-1.59-.4-2.39a.7.7,0,0,0-.09-.24A9.51,9.51,0,0,1,7.7,8.3c-.06.12-.19.24-.19.36a7.68,7.68,0,0,0,0,1.92C7.81,11.58,8.22,12.53,8.56,13.5Z"/>
            <path class="cls-25" d="M8.56,13.5c-.34-1-.75-1.92-1-2.92a7.68,7.68,0,0,1,0-1.92c0-.12.13-.24.19-.36-.1-.32-.19-.07-.25,0a5.05,5.05,0,0,0-.81,2.4c0,.62,0,1.24.07,1.86a.45.45,0,0,0,.4.47C7.61,13.17,8.08,13.35,8.56,13.5Z"/>
            <path class="cls-11" d="M9,16.78l1.89.63c.44-1-.52-2.42-1.62-3,.06.25.14.5.19.75A1.69,1.69,0,0,1,9,16.78Z"/>
            <path class="cls-11" d="M6.2,17.79c.06.49-.27.75-.6,1s-.72.4-1.08.61a1.64,1.64,0,0,0-.26.2c1.15-.26,2.31-.51,3.45-.8a6.1,6.1,0,0,0,1.38-.57Z"/>
            <path class="cls-11" d="M9.88,12.82a4.66,4.66,0,0,0,.92,2.44,8.26,8.26,0,0,1,.74,1.35c0-1,0-2,.05-2.89a1.35,1.35,0,0,1-1.44-.64A1.34,1.34,0,0,0,9.88,12.82Z"/>
            <path class="cls-11" d="M11.87,13.46,12,15.65c1-1.55,1.31-3.63.4-4.91,0,.3.09.61.11.91A1.82,1.82,0,0,1,11.87,13.46Z"/>
            <path class="cls-11" d="M6.62,17.22a6.1,6.1,0,0,0,3.51.4L8.32,17l-1.24.15C6.92,17.15,6.77,17.19,6.62,17.22Z"/>
            <path class="cls-26" d="M9.63,14.07l0,0,0,0Z"/>
            <path class="cls-22" d="M12,17.83a1.73,1.73,0,0,0,.06,2,1,1,0,0,1,0,1.26.59.59,0,0,0,0,.08,2.2,2.2,0,0,0,2.12,3.24c.57,0,.88-.42.79-1a2.21,2.21,0,0,1,0-.81.92.92,0,0,1,.91-.73c.59-.05,1.19-.06,1.77-.15.85-.14,1.08-.69.62-1.41-.23-.35-.51-.67-.75-1A1,1,0,0,1,17.28,18a1.13,1.13,0,0,1,1.21-.58c.28,0,.56.11.84.17A3,3,0,0,0,18,14.68a1.22,1.22,0,0,0-1.53.26c-.47.45-.61.48-1.19.23a1.18,1.18,0,0,0-1.31.08,1.11,1.11,0,0,0-.29,1.23,2.66,2.66,0,0,1,.07.39c.05.53-.14.72-.65.59a1.23,1.23,0,0,0-1,.28v0l-.09.1Zm5-2.92h0a.46.46,0,0,1,.71-.12,3,3,0,0,1,.61.76c0,.06,0,.23-.09.31-.21.29-.75.26-1.13,0A.56.56,0,0,1,17,14.91Zm-3.36,8.6a1.21,1.21,0,0,1-1.22-1,.78.78,0,0,1,.69-.8,1.33,1.33,0,0,1,1.16,1.15A.58.58,0,0,1,13.62,23.51Zm1.63-6A1.2,1.2,0,0,1,14,16.58a.72.72,0,0,1,.69-.79,1.32,1.32,0,0,1,1.21,1.1A.62.62,0,0,1,15.25,17.5Zm-2,2.09a1.21,1.21,0,0,1-1.24-1,.77.77,0,0,1,.69-.76A1.33,1.33,0,0,1,13.86,19,.58.58,0,0,1,13.25,19.59Zm3.22,1.54a1.25,1.25,0,0,1-1.25-1,.8.8,0,0,1,.7-.81,1.37,1.37,0,0,1,1.17,1.16A.58.58,0,0,1,16.47,21.13Z"/>
            <path class="cls-23" d="M10.86,21.51c.43,0,.62-.19.61-.6a1.3,1.3,0,0,0-1.15-1.21.82.82,0,0,0-.7.81A1.26,1.26,0,0,0,10.86,21.51Zm-1-1.24c.09-.07.23-.26.4-.3.32-.07.78.41.77.78a.45.45,0,0,1-.28.32A.86.86,0,0,1,9.85,20.27Z"/>
            <path class="cls-23" d="M12.23,26.25a1.39,1.39,0,0,0,1.17,1.16.68.68,0,0,0,.64-.69A1.23,1.23,0,0,0,13,25.52.77.77,0,0,0,12.23,26.25Zm1.38.41c-.06.06-.15.24-.29.27s-.87-.45-.83-.74a.69.69,0,0,1,.39-.47C13.17,25.61,13.57,26.1,13.61,26.66Z"/>
            <path class="cls-23" d="M10.12,23.71a6,6,0,0,0-.6-.89.64.64,0,0,0-.91-.05c-.3.22-.49.54-.25.89a2.84,2.84,0,0,0,.72.78c.49.31,1-.05.94-.65Zm-.47.12c-.07.05-.19.22-.33.24-.31.05-.85-.49-.78-.79A.71.71,0,0,1,9,22.84C9.24,22.76,9.64,23.31,9.65,23.83Z"/>
            <path class="cls-23" d="M19.18,18.3a3.45,3.45,0,0,0-.45-.33c-.47-.24-.87-.16-1.07.18a.84.84,0,0,0,.26,1.11,4,4,0,0,0,.41.24l.29.05c.67.05,1-.33.74-1a1.59,1.59,0,0,1-.07-.2h0Zm-.43.87c-.56,0-1-.34-1-.66a.4.4,0,0,1,.44-.43c.33,0,.86.47.83.77C19,19,18.81,19.1,18.75,19.17Z"/>
            <path class="cls-23" d="M17.35,24.22a6.54,6.54,0,0,0-.92-.67.37.37,0,0,0-.57.29A.84.84,0,0,1,17,24.5c.05.27-.06.42-.35.4a.8.8,0,0,1-.77-1.06.39.39,0,0,0-.27.63,5.81,5.81,0,0,0,.66.75l.19.08h.2c.62,0,.82-.21.73-.83C17.36,24.39,17.36,24.3,17.35,24.22Z"/>
            <path class="cls-23" d="M21,21.63a4.92,4.92,0,0,0-.79-.59.69.69,0,0,0-1,.3.78.78,0,0,0,.3,1.05l.3.18C20.82,22.81,21.11,22.57,21,21.63Zm-.62.63c-.55,0-1.09-.32-1-.63a.71.71,0,0,1,.41-.44c.28-.07.88.48.84.75S20.42,22.2,20.38,22.26Z"/>
            <path class="cls-23" d="M21.58,16.36l-.36-.58-.11-.09h0a1.64,1.64,0,0,0-.49,0c-.11,0-.2.17-.3.26a.51.51,0,0,1,.77.22,1.66,1.66,0,0,1,.12.51,1.27,1.27,0,0,1-.51,0,.55.55,0,0,1-.38-.75c-.08.13-.23.27-.23.39,0,.41.73.88,1.13.78S21.58,16.65,21.58,16.36Z"/>
            <path class="cls-23" d="M22.54,19.49c-.05-.26-.11-.52-.16-.79-.15-.1-.3-.23-.46-.32-.31-.17-.54-.07-.69.29a.61.61,0,0,1,1,.43c0,.21,0,.32-.27.32a.7.7,0,0,1-.69-.75c-.06.13-.19.33-.15.38a2.58,2.58,0,0,0,.67.65A.56.56,0,0,0,22.54,19.49Z"/>
            <path class="cls-23" d="M22.69,22.7c.29,0,.67.08.77-.36a1,1,0,0,0-.37-1,1.53,1.53,0,0,0-.29-.18l-.44.18.05.06a.57.57,0,0,1,.74.59.41.41,0,0,1-.23.35c-.25.07-.62-.38-.62-.7a.47.47,0,0,1,0-.16l-.06-.05c-.27.26-.18.54,0,.81a2.32,2.32,0,0,0,.3.4l.14.09Z"/>
            <path class="cls-23" d="M19.61,24.46a.58.58,0,0,0,.18.88c.36.27.83.32,1,.09s.14-.7-.16-1a.64.64,0,0,0-.89-.13l0,0c.44-.08.64.21.77.54s0,.4-.3.36a.68.68,0,0,1-.63-.72Z"/>
            <path class="cls-23" d="M23.8,25.94l-.33-1.09c-.24,0-.48-.35-.71,0l0,0a.67.67,0,0,1,.69.77.44.44,0,0,1-.37.2.69.69,0,0,1-.45-.84L22.59,25a.76.76,0,0,0,.27,1.12A.59.59,0,0,0,23.8,25.94Z"/>
            <path class="cls-23" d="M16.62,28.15c-.26.2-.15.42,0,.61a.94.94,0,0,0,1,.41A.61.61,0,0,0,18,29c.25-.39,0-.65-.29-.88s-.54-.48-.87-.1l0,0a.73.73,0,0,1,.8.45c.14.24,0,.39-.23.42a.67.67,0,0,1-.73-.7Z"/>
            <path class="cls-23" d="M20.54,29.85c-.32.31-.15.58.11.8a.71.71,0,0,0,1,0c.27-.37,0-.58-.24-.8a.54.54,0,0,0-.88,0,.66.66,0,0,1,.81.31c0,.07.08.22,0,.27a.45.45,0,0,1-.3.12C20.71,30.53,20.54,30.3,20.54,29.85Z"/>
            <path class="cls-23" d="M20,27.5c-.05.18-.19.42-.12.51a1.42,1.42,0,0,0,.62.49.56.56,0,0,0,.53-.13.71.71,0,0,0,0-.59c-.23-.52-.61-.65-1-.37l0,0c.34-.09.52.12.65.37a.34.34,0,0,1,0,.35c0,.06-.24.06-.34,0-.3-.11-.49-.3-.38-.66Z"/>
            <path class="cls-24" d="M19.29,18.39a1.59,1.59,0,0,0,.07.2c.22.63-.07,1-.74,1l-.29-.05a3.2,3.2,0,0,0,.48.26.76.76,0,0,0,1-.36A.87.87,0,0,0,19.29,18.39Z"/>
            <path class="cls-23" d="M23.24,28c-.33.22-.11.47,0,.67a.72.72,0,0,0,.84.35c.34-.2.29-.5.17-.8a.61.61,0,0,0-.84-.4l0,0a.6.6,0,0,1,.6.64c0,.09-.16.25-.22.24a.62.62,0,0,1-.55-.63.19.19,0,0,1,0-.08Z"/>
            <path class="cls-24" d="M17.35,24.22c0,.08,0,.17,0,.25.09.62-.11.84-.73.83h-.21a.8.8,0,0,0,1.15.07C17.84,25.05,17.75,24.59,17.35,24.22Z"/>
            <path class="cls-24" d="M21,21.63c.11.94-.18,1.18-1.16.94a4.69,4.69,0,0,0,.79.29.57.57,0,0,0,.7-.38A.68.68,0,0,0,21,21.63Z"/>
            <path class="cls-23" d="M15.25,13.23c-.2.2-.17.45,0,.55a1.54,1.54,0,0,0,.8.13c.08,0,.25-.35.2-.43a1.17,1.17,0,0,0-.51-.42c-.12-.05-.3,0-.45.08l.05,0a.88.88,0,0,1,.33,0,2.06,2.06,0,0,1,.33.33c-.07.06-.16.17-.22.16a1.61,1.61,0,0,1-.52-.18c-.05,0,0-.18,0-.28Z"/>
            <path class="cls-23" d="M20.07,14.44a.56.56,0,0,0-.25-.77c-.23-.16-.49-.27-.72,0l0,0c.06,0,.13-.06.17,0a4.35,4.35,0,0,1,.52.29s0,.15,0,.23h-.61l0,0C19.41,14.64,19.73,14.57,20.07,14.44Z"/>
            <path class="cls-23" d="M19.1,13.68H19c0,.21-.21.47.17.55l0,0c0-.16-.06-.32-.1-.47Z"/>
            <path class="cls-23" d="M16.79,28l-.17.18,0,0,.16-.17Z"/>
            <path class="cls-23" d="M19.78,24.28l-.17.18,0,0,.16-.18Z"/>
            <path class="cls-23" d="M22.76,24.86l-.17.1.07.06a1.59,1.59,0,0,0,.13-.13Z"/>
            <path class="cls-24" d="M16.44,25.3l-.19-.08Z"/>
            <path class="cls-24" d="M22.69,22.7l-.14-.09Z"/>
            <path class="cls-23" d="M15.33,13.14l-.08.09,0,0,.09-.07Z"/>
            <path class="cls-23" d="M22.36,21.31l-.08.09.06.05.07-.08Z"/>
            <path class="cls-23" d="M23.4,27.8l-.08.09,0,0,.09-.07Z"/>
            <path class="cls-23" d="M23.32,27.89l-.08.09,0,0,.07-.1Z"/>
            <path class="cls-24" d="M19.18,18.3l.12.09Z"/>
            <path class="cls-23" d="M20.08,27.41,20,27.5l0,0,.08-.08Z"/>
            <path class="cls-27" d="M6.56,24.32c0-.45-.09-.76-.46-.75-.12,0-.35.33-.31.4a3.6,3.6,0,0,0,.51.67Z"/>
            <path class="cls-27" d="M14.66,30.21c.14-.24.3-.43.27-.45a6.32,6.32,0,0,0-.65-.61l-.36.4Z"/>
            <path class="cls-27" d="M10.41,27.71c0-.06.19-.23.16-.27-.18-.23-.4-.44-.61-.66-.11.13-.29.24-.32.38S10,27.72,10.41,27.71Z"/>
            <path class="cls-27" d="M7.43,21.07,7,20.65c-.09.11-.27.28-.24.34a2.37,2.37,0,0,0,.41.5Z"/>
            <path class="cls-27" d="M7.32,27.2c.27.17.45.31.65.41,0,0,.23-.2.22-.2a3.46,3.46,0,0,0-.49-.52S7.51,27,7.32,27.2Z"/>
            <path class="cls-22" d="M12,17.82l.09-.1Z"/>
            <path class="cls-22" d="M21.11,15.69l.11.09Z"/>
            <polygon class="cls-24" points="4.35 14.6 4.35 14.61 4.35 14.61 4.35 14.6"/>
            <path class="cls-26" d="M4.35,14.61l.11.08Z"/>
            <path class="cls-28" d="M6.37,15.78l.15.12h0l.06-.08-.17-.08Z"/>
            <path class="cls-28" d="M6.32,15.72l0,.06,0,0Z"/>
            <polygon class="cls-29" points="11.52 9.48 11.52 9.48 11.52 9.48 11.52 9.48 11.52 9.48"/>
            <path class="cls-28" d="M11.32,12.3h.06a.29.29,0,0,1,0-.1l0,.07S11.32,12.29,11.32,12.3Z"/>
            <path class="cls-23" d="M13.62,23.51a.58.58,0,0,0,.63-.65,1.33,1.33,0,0,0-1.16-1.15.78.78,0,0,0-.69.8A1.21,1.21,0,0,0,13.62,23.51Zm0-.44c-.5,0-1.06-.38-1-.67A.71.71,0,0,1,13,22c.29-.07.79.48.76.81C13.79,22.89,13.65,23,13.61,23.07Z"/>
            <path class="cls-23" d="M15.25,17.5a.62.62,0,0,0,.65-.61,1.32,1.32,0,0,0-1.21-1.1.72.72,0,0,0-.69.79A1.2,1.2,0,0,0,15.25,17.5Zm0-.42c-.58,0-1.08-.32-1-.63a.64.64,0,0,1,.4-.4c.32-.08.9.43.85.74C15.44,16.92,15.26,17,15.21,17.08Z"/>
            <path class="cls-23" d="M13.25,19.59a.58.58,0,0,0,.61-.63,1.33,1.33,0,0,0-1.16-1.15.77.77,0,0,0-.69.76A1.21,1.21,0,0,0,13.25,19.59Zm-1-1.24c.09-.07.24-.27.41-.3.33-.07.87.55.8.88a.34.34,0,0,1-.18.21C12.89,19.3,12.25,18.89,12.22,18.35Z"/>
            <path class="cls-23" d="M16.47,21.13a.58.58,0,0,0,.62-.63,1.37,1.37,0,0,0-1.17-1.16.8.8,0,0,0-.7.81A1.25,1.25,0,0,0,16.47,21.13Zm0-.4c-.49,0-1-.41-1-.71a.65.65,0,0,1,.41-.43c.31-.07.83.51.78.84C16.63,20.56,16.47,20.67,16.42,20.73Z"/>
            <path class="cls-23" d="M17,14.91a.56.56,0,0,0,.1.9c.38.31.92.34,1.13,0,.07-.08.13-.25.09-.31a3,3,0,0,0-.61-.76.46.46,0,0,0-.71.12.78.78,0,0,1,.92.39c.15.27,0,.45-.28.44C17.13,15.72,16.91,15.44,17,14.91Z"/>
            <path class="cls-27" d="M9.85,20.27a.86.86,0,0,0,.89.8.45.45,0,0,0,.28-.32c0-.37-.45-.85-.77-.78C10.08,20,9.94,20.2,9.85,20.27Z"/>
            <path class="cls-27" d="M13.61,26.66c0-.56-.44-1.05-.73-.94a.69.69,0,0,0-.39.47c0,.29.55.81.83.74S13.55,26.72,13.61,26.66Z"/>
            <path class="cls-27" d="M9.65,23.83c0-.52-.41-1.07-.69-1a.71.71,0,0,0-.42.44c-.07.3.47.84.78.79C9.46,24.05,9.58,23.88,9.65,23.83Z"/>
            <path class="cls-27" d="M18.75,19.17c.06-.07.24-.18.26-.32,0-.3-.5-.77-.83-.77a.4.4,0,0,0-.44.43C17.72,18.83,18.19,19.17,18.75,19.17Z"/>
            <path class="cls-27" d="M15.86,23.84a.8.8,0,0,0,.77,1.06c.29,0,.4-.13.35-.4a.84.84,0,0,0-1.12-.66Z"/>
            <path class="cls-27" d="M20.38,22.26c0-.06.21-.18.23-.32s-.56-.82-.84-.75a.71.71,0,0,0-.41.44C19.29,21.94,19.83,22.29,20.38,22.26Z"/>
            <path class="cls-27" d="M20.33,15.91a.55.55,0,0,0,.38.75,1.27,1.27,0,0,0,.51,0,1.66,1.66,0,0,0-.12-.51.51.51,0,0,0-.77-.22Z"/>
            <path class="cls-27" d="M21.23,18.67a.7.7,0,0,0,.69.75c.24,0,.31-.11.27-.32a.61.61,0,0,0-1-.43Z"/>
            <path class="cls-27" d="M22.41,21.37l-.07.08a.47.47,0,0,0,0,.16c0,.32.37.77.62.7a.41.41,0,0,0,.23-.35A.57.57,0,0,0,22.41,21.37Z"/>
            <path class="cls-27" d="M19.81,24.32l-.16.18a.68.68,0,0,0,.63.72c.29,0,.39-.12.3-.36S20.25,24.24,19.81,24.32Z"/>
            <path class="cls-27" d="M22.79,24.89a1.59,1.59,0,0,1-.13.13.69.69,0,0,0,.45.84.44.44,0,0,0,.37-.2A.67.67,0,0,0,22.79,24.89Z"/>
            <path class="cls-27" d="M16.82,28l-.16.17a.67.67,0,0,0,.73.7c.25,0,.37-.18.23-.42A.73.73,0,0,0,16.82,28Z"/>
            <path class="cls-27" d="M20.54,29.85c0,.45.17.68.55.7a.45.45,0,0,0,.3-.12c0-.05,0-.2,0-.27a.66.66,0,0,0-.81-.31Z"/>
            <path class="cls-27" d="M20.1,27.44l-.08.08c-.11.36.08.55.38.66.1,0,.29,0,.34,0a.34.34,0,0,0,0-.35C20.62,27.56,20.44,27.35,20.1,27.44Z"/>
            <path class="cls-27" d="M23.34,27.91l-.07.1a.19.19,0,0,0,0,.08.62.62,0,0,0,.55.63c.06,0,.2-.15.22-.24a.6.6,0,0,0-.6-.64Z"/>
            <path class="cls-27" d="M15.38,13.19l-.09.07c0,.1,0,.26,0,.28a1.61,1.61,0,0,0,.52.18c.06,0,.15-.1.22-.16a2.06,2.06,0,0,0-.33-.33A.88.88,0,0,0,15.38,13.19Z"/>
            <path class="cls-27" d="M19.13,13.72c0,.15.07.31.1.47h.61c0-.08,0-.2,0-.23a4.35,4.35,0,0,0-.52-.29S19.19,13.7,19.13,13.72Z"/>
            <path class="cls-27" d="M13.61,23.07c0-.06.18-.18.19-.3,0-.33-.47-.88-.76-.81a.71.71,0,0,0-.42.44C12.55,22.69,13.11,23.09,13.61,23.07Z"/>
            <path class="cls-27" d="M15.21,17.08s.23-.16.24-.29c.05-.31-.53-.82-.85-.74a.64.64,0,0,0-.4.4C14.13,16.76,14.63,17.09,15.21,17.08Z"/>
            <path class="cls-27" d="M12.22,18.35c0,.54.67.95,1,.79a.34.34,0,0,0,.18-.21c.07-.33-.47-.95-.8-.88C12.46,18.08,12.31,18.28,12.22,18.35Z"/>
            <path class="cls-27" d="M16.42,20.73c0-.06.21-.17.23-.3.05-.33-.47-.91-.78-.84a.65.65,0,0,0-.41.43C15.4,20.32,15.93,20.73,16.42,20.73Z"/>
            <path class="cls-27" d="M17,14.91c-.07.53.15.81.64.83.31,0,.43-.17.28-.44a.78.78,0,0,0-.92-.39Z"/>
          </g>
        </g>
        <g>
          <path class="cls-2" d="M61.92,12.94a2.38,2.38,0,0,1-1.54-.59c-.21-.16-.41-.34-.6-.51s-.55-.48-.83-.69a1.83,1.83,0,0,0-.63-.33l-.2,0a1.29,1.29,0,0,0-.06.22,2.25,2.25,0,0,1-2,1.89h-.29a1.88,1.88,0,0,1-1.51-.64,1.91,1.91,0,0,1-.35-1.66c.19-1,.42-2,.64-3l.27-1.26.15-.66c.1-.46.2-.94.29-1.41a2.08,2.08,0,0,1,2.1-1.78h.8c1.07,0,2.47,0,3.89.14a4.56,4.56,0,0,1,2.12.88,3.4,3.4,0,0,1,1.43,2.3,3.41,3.41,0,0,1-.8,2.6,10,10,0,0,1-1.32,1.28h0l.21.24a1.73,1.73,0,0,1-.48,2.71A2.5,2.5,0,0,1,61.92,12.94Zm-3.1-5.65a3.78,3.78,0,0,0,.56,0h0a3.06,3.06,0,0,0,1.18-.22c.34-.13.74-.36.7-.72S60.8,6,60.45,6h-.34l-.88,0h-.11Z"/>
          <path class="cls-2" d="M103.46,13.08a2.07,2.07,0,0,1-1.38-.51l-.24-.2a10.56,10.56,0,0,1-1.06-1A1,1,0,0,0,100,11h-.07a3.38,3.38,0,0,1-.31.76,2,2,0,0,1-1.22,1.13,3.5,3.5,0,0,1-.78.08,2.65,2.65,0,0,1-1.2-.25c-1-.49-.73-1.65-.63-2.08.4-1.78.87-3.89,1.31-6a2.15,2.15,0,0,1,2.14-1.9h.06A41.14,41.14,0,0,1,104,3a3.37,3.37,0,0,1,3,2.7,3.78,3.78,0,0,1-1.44,3.81c-.17.15-.35.28-.53.41l.11.13a1.86,1.86,0,0,1,.44,1.65,1.83,1.83,0,0,1-1.16,1.22A2.72,2.72,0,0,1,103.46,13.08Zm-2.79-5.59a3.88,3.88,0,0,0,.57,0h0a2.14,2.14,0,0,0,1.41-.5c.29-.23.34-.4.34-.43a.87.87,0,0,0-.45-.24,7.38,7.38,0,0,0-1.43-.17H101Z"/>
          <path class="cls-2" d="M93.66,13.07a1.78,1.78,0,0,1-1.35-.58,2,2,0,0,1-.46-1.56l0-.29-2.28.08c-.06.19-.11.38-.16.58A2.17,2.17,0,0,1,87.52,13l-.37,0a1.73,1.73,0,0,1-1.41-.59,1.84,1.84,0,0,1-.32-1.6,40.59,40.59,0,0,1,1-4.46,4.55,4.55,0,0,1,1.44-2.12A6.55,6.55,0,0,1,94.28,3a3.41,3.41,0,0,1,2.45,4.32c-.11.51-.23,1-.34,1.54-.18.78-.36,1.58-.53,2.37A2.16,2.16,0,0,1,94.39,13,2.37,2.37,0,0,1,93.66,13.07ZM91.88,6.21A1.9,1.9,0,0,0,91,6.4c-.36.19-.58.38-.62.74l2.26-.08c.13-.37.08-.5,0-.65A1.13,1.13,0,0,0,91.88,6.21Z"/>
          <path class="cls-2" d="M69.76,13.08h-.15L68.92,13c-.48-.08-.93-.16-1.38-.28a3.6,3.6,0,0,1-2.68-4.48c.11-.57.24-1.14.37-1.7s.32-1.41.46-2.11a2.14,2.14,0,0,1,1.79-1.8A2.46,2.46,0,0,1,68,2.52a1.71,1.71,0,0,1,1.33.55,1.86,1.86,0,0,1,.43,1.5c-.08.69-.22,1.36-.36,2-.06.28-.12.56-.17.85s-.06.3-.1.45a7.25,7.25,0,0,0-.16,1c0,.35,0,.45.48.55a2.28,2.28,0,0,0,.44,0,1.59,1.59,0,0,0,1.61-1.38l.27-1.33c.15-.78.32-1.59.5-2.39a2.25,2.25,0,0,1,2.25-1.8h.12a1.84,1.84,0,0,1,1.43.67,1.73,1.73,0,0,1,.29,1.45C76,6.38,75.71,7.92,75.3,9.46a4.23,4.23,0,0,1-2.61,2.75,14.5,14.5,0,0,1-2,.64c-.26.06-.5.13-.73.2A.91.91,0,0,1,69.76,13.08Z"/>
          <path class="cls-2" d="M80.27,13.06a2,2,0,0,1-1.88-1.41c-.72-2-1.44-4.12-2.15-6.29a2.08,2.08,0,0,1,.05-1.69,1.87,1.87,0,0,1,1.19-.93,2.8,2.8,0,0,1,.86-.14,2,2,0,0,1,1.91,1.45c.2.53.39,1.07.57,1.6l.42,1.19a.78.78,0,0,1,.05.14l.32-.38,1.82-2.29.46-.58a2.46,2.46,0,0,1,1.86-1.06l.27,0a2.28,2.28,0,0,1,1.53.84,1.85,1.85,0,0,1-.12,1.83,11.86,11.86,0,0,1-.92,1.25L86.18,7l-.9,1.16c-.89,1.16-1.81,2.36-2.73,3.53a4.1,4.1,0,0,1-1.22,1.06A2.32,2.32,0,0,1,80.27,13.06Z"/>
          <path class="cls-2" d="M46.63,12.81a1.78,1.78,0,0,1-1.48-.62,2,2,0,0,1-.33-1.73c.28-1.41.58-2.83.87-4.2l.42-2a2.07,2.07,0,0,1,2-1.87c1,0,2.13,0,3.22,0L54,2.4A1.64,1.64,0,0,1,55.72,4a1.91,1.91,0,0,1-1.59,1.84,3.24,3.24,0,0,1-.77.08H52c-.45,0-.81,0-1.15,0h-.5l-.33,0c0,.07,0,.17,0,.31.58,0,1.16.09,1.74.15h.12a2.49,2.49,0,0,1,.79.14,1.63,1.63,0,0,1,1,1.23,1.46,1.46,0,0,1-.54,1.37,3.24,3.24,0,0,1-1.7.67c-.66.07-1.33.08-2,.1h-.2l-.36,1.34A2.08,2.08,0,0,1,47,12.79a2.68,2.68,0,0,1-.39,0Z"/>
          <path class="cls-11" d="M62.25,9.62c.28.29.55.52.78.79a.92.92,0,0,1-.27,1.49,1.54,1.54,0,0,1-1.87-.17c-.49-.4-1-.84-1.46-1.22a2.51,2.51,0,0,0-.92-.47c-.8-.19-1,0-1.23.76a1.49,1.49,0,0,1-1.34,1.29c-.93.09-1.46-.42-1.28-1.34.27-1.43.6-2.85.91-4.28.15-.69.31-1.39.44-2.08a1.27,1.27,0,0,1,1.32-1.14c1.54,0,3.08,0,4.61.13a3.75,3.75,0,0,1,1.72.73,2.48,2.48,0,0,1,.48,3.74A18.22,18.22,0,0,1,62.25,9.62Zm-4.4-1.68a4.89,4.89,0,0,0,3-.08c.86-.33,1.28-.9,1.21-1.56s-.62-1.1-1.56-1.16c-.62,0-1.25,0-2,.06Z"/>
          <path class="cls-11" d="M103.81,9.75a10.35,10.35,0,0,1,.75.76,1,1,0,0,1-.39,1.62A1.47,1.47,0,0,1,102.6,12a16.23,16.23,0,0,1-1.24-1.1,1.79,1.79,0,0,0-2.08-.54,5.49,5.49,0,0,1-.37,1c-.16.3-.41.68-.68.74A2.45,2.45,0,0,1,96.76,12c-.4-.2-.3-.74-.2-1.19q.68-3,1.32-6a1.37,1.37,0,0,1,1.35-1.26,41.14,41.14,0,0,1,4.71.21,2.57,2.57,0,0,1,2.32,2.07,3,3,0,0,1-1.19,3C104.72,9.17,104.3,9.4,103.81,9.75Zm-3.5-4.41-.59,2.72a3.39,3.39,0,0,0,3.44-.4c1-.8.81-1.72-.41-2.06A15.61,15.61,0,0,0,100.31,5.34Z"/>
          <path class="cls-11" d="M92.81,9.8,89,9.93c-.1.36-.23.76-.33,1.17a1.35,1.35,0,0,1-1.24,1.1c-.91.11-1.38-.31-1.22-1.22a43.36,43.36,0,0,1,1-4.38,3.66,3.66,0,0,1,1.17-1.72A5.78,5.78,0,0,1,94,3.78,2.62,2.62,0,0,1,96,7.16c-.29,1.31-.6,2.61-.87,3.93a1.38,1.38,0,0,1-1,1.1A1.06,1.06,0,0,1,92.65,11C92.68,10.67,92.74,10.33,92.81,9.8Zm.4-2c.31-.65.57-1.31,0-2a2.37,2.37,0,0,0-2.56-.19,1.78,1.78,0,0,0-1,2.27Z"/>
          <path class="cls-11" d="M69.76,12.28c-.76-.15-1.4-.21-2-.38a2.81,2.81,0,0,1-2.12-3.55c.27-1.27.58-2.54.83-3.81a1.36,1.36,0,0,1,1.17-1.17c.87-.18,1.42.24,1.33,1.12s-.34,1.86-.52,2.79a12.91,12.91,0,0,0-.27,1.51,1.18,1.18,0,0,0,1.12,1.4,2.42,2.42,0,0,0,3-1.95c.26-1.24.49-2.48.77-3.71a1.47,1.47,0,0,1,1.55-1.18c.72,0,1.12.46,1,1.17-.31,1.58-.64,3.17-1,4.73a3.54,3.54,0,0,1-2.17,2.23A20.22,20.22,0,0,1,69.76,12.28Z"/>
          <path class="cls-11" d="M81.07,8.47c.47-.55.82-1,1.16-1.37.77-.95,1.53-1.91,2.29-2.87a1.54,1.54,0,0,1,1.39-.74,1.52,1.52,0,0,1,1,.49,1.15,1.15,0,0,1-.15,1,16.81,16.81,0,0,1-1.2,1.61c-1.2,1.56-2.4,3.13-3.62,4.68a3.25,3.25,0,0,1-1,.85,1.21,1.21,0,0,1-1.82-.7Q78,8.26,77,5.11c-.28-.85,0-1.39.72-1.6a1.25,1.25,0,0,1,1.78.83c.35.92.65,1.86,1,2.78C80.64,7.52,80.83,7.9,81.07,8.47Z"/>
          <path class="cls-11" d="M49.2,7l2.45.21a2.75,2.75,0,0,1,.7.1.71.71,0,0,1,.28,1.23A2.51,2.51,0,0,1,51.36,9c-.9.1-1.8.08-2.72.11-.19.71-.35,1.31-.52,1.92a1.26,1.26,0,0,1-1.2,1c-1,.13-1.51-.36-1.31-1.38.4-2,.85-4.1,1.28-6.15.15-.69.5-1.22,1.24-1.24,1.93-.05,3.87-.05,5.8,0,.46,0,1,.18,1,.82a1.14,1.14,0,0,1-1,1,2.32,2.32,0,0,1-.59.06c-.83,0-1.66,0-2.49,0C49.27,5,49.1,5.18,49.2,7Z"/>
        </g>
        <g>
          <path class="cls-2" d="M98.92,29.13A7.84,7.84,0,0,1,97.53,29a2.37,2.37,0,0,1-1.7-1.11q-.37.26-.78.48a6.12,6.12,0,0,1-1.35.52,4.52,4.52,0,0,1-1,.14,2.36,2.36,0,0,1-2-1l-.18.1a6.89,6.89,0,0,1-1.27.59,4.6,4.6,0,0,1-1.39.25,2.65,2.65,0,0,1-1.91-.81l-.52.3a4.13,4.13,0,0,1-2,.54l-.32,0A2.87,2.87,0,0,1,81,27.86a2.84,2.84,0,0,1-.42-2.32A7.26,7.26,0,0,1,81,24.3l.42-.88c.16-.33.31-.64.45-1v0c.39-.92.79-1.88,1.11-2.83a2.06,2.06,0,0,1,1.8-1.53H85a2.31,2.31,0,0,1,2.06,1.21A2.61,2.61,0,0,1,87.36,21c.18-.44.35-.89.53-1.34a2.14,2.14,0,0,1,2-1.63,2.91,2.91,0,0,1,.57.06,2.39,2.39,0,0,1,1.89,2.77s0,.06,0,.09l.56-1.4A2,2,0,0,1,94.77,18H95a2.32,2.32,0,0,1,2.21,2,4.41,4.41,0,0,1-.08,1.21l.17-.33a3,3,0,0,0,.16-.52,4.16,4.16,0,0,1,.12-.44l0-.17a5.38,5.38,0,0,1,.25-.74,1.68,1.68,0,0,1,1.63-1h.12c1.15.05,2.33.09,3.46.12l1.31.05a2,2,0,0,1,1.7.9,1.89,1.89,0,0,1,.18,1.55,9.81,9.81,0,0,1,1-.77,10.16,10.16,0,0,1,4.35-1.79,5.39,5.39,0,0,1,.88-.07,4.34,4.34,0,0,1,1.58.28,2.36,2.36,0,0,1,1.52,2.92,10,10,0,0,1-.57,1.6c-.19.45-.4.91-.61,1.35a1,1,0,0,1,.41.09,1.08,1.08,0,0,1,.54.59c.27.79.26,2-1.4,3.17a4.49,4.49,0,0,1-2.59.94,3.37,3.37,0,0,1-1.73-.48,7,7,0,0,1-.69.25,5.84,5.84,0,0,1-1.65.27,3.48,3.48,0,0,1-2.87-1.44,10,10,0,0,1-5.24,1.55Zm11-6.39a4.85,4.85,0,0,0-1.18,2,2,2,0,0,0-.09.52.34.34,0,0,0,.23-.2l.33-.73C109.47,23.79,109.7,23.27,109.94,22.74Zm-5.74.49-1.36,1.34a3.76,3.76,0,0,0,1.32-1.28Z"/>
          <path class="cls-2" d="M69.28,21.3a2.35,2.35,0,0,0-1.56-3A4.36,4.36,0,0,0,66.19,18a5.51,5.51,0,0,0-1,.11,10.05,10.05,0,0,0-6.67,4.34c.62-1.47,1.25-3,1.87-4.46a6.47,6.47,0,0,0,.41-1.56,2.44,2.44,0,0,0-.48-1.87,2.48,2.48,0,0,0-1.74-.88h-.26a1.83,1.83,0,0,0-1.86,1.47c-.06.19-.12.38-.17.57a5.6,5.6,0,0,1-.27.87c-.17.38-.33.76-.49,1.14a6.42,6.42,0,0,0,.31-1.38,2.32,2.32,0,0,0-.57-1.86,2.44,2.44,0,0,0-1.84-.81h-.22a1.79,1.79,0,0,0-1.71,1.42c-.11.43-.2.76-.3,1.05-.41,1.2-.88,2.39-1.42,3.62a2.46,2.46,0,0,0-2-1.67,4.65,4.65,0,0,0-.75-.06,4.53,4.53,0,0,0-.91.09,7.39,7.39,0,0,0-1.7.57,9.85,9.85,0,0,0-2.75,2A10.34,10.34,0,0,0,40.58,22a7.42,7.42,0,0,0-1.16,2.43A3.73,3.73,0,0,0,39.56,27c0,.09.09.18.15.27a3.08,3.08,0,0,0,1.18,1.14,4.13,4.13,0,0,0,1.1.43,5.67,5.67,0,0,0,1.48.19,7.75,7.75,0,0,0,3.17-.74c.27-.12.52-.24.77-.38A2.35,2.35,0,0,0,49.48,29a4.3,4.3,0,0,0,1.19-.19,7.61,7.61,0,0,0,1.59-.68l.22-.11a2.43,2.43,0,0,0,2,1,4.38,4.38,0,0,0,.84-.09,6.69,6.69,0,0,0,2.75-1.27,2.86,2.86,0,0,0,1.64,1.13,6.39,6.39,0,0,0,1.45.17,5.07,5.07,0,0,0,.68,0,7,7,0,0,0,1.42-.37l.06,0a3.39,3.39,0,0,0,1.72.48,4.39,4.39,0,0,0,2.39-.81c1.38-.89,2-2,1.69-3.18a1.06,1.06,0,0,0-.48-.67,1.08,1.08,0,0,0-.53-.14h0c.11-.23.21-.46.31-.7A18.78,18.78,0,0,0,69.28,21.3Zm-6.87,3.94v-.07a1.45,1.45,0,0,1,.07-.35,5,5,0,0,1,1.2-2.06c-.34.75-.69,1.51-1,2.27A.36.36,0,0,1,62.41,25.24Z"/>
          <path class="cls-2" d="M42.56,18.15a3.58,3.58,0,0,0-.4-2.9,3.53,3.53,0,0,0-2.47-1.48,6.94,6.94,0,0,0-1.07-.07h-.57l-1.1.06-.35,0h-.14l-.32,0c-.59,0-1.16.06-1.73.07h-.08A2,2,0,0,0,32.45,15a7,7,0,0,0-.3.73c0,.09-.07.19-.1.29a1.79,1.79,0,0,0,.56,2,3.34,3.34,0,0,1-.16.38c-.41.94-.83,1.88-1.25,2.82L30.36,23c-.08.19-.17.38-.26.58-.26.56-.53,1.15-.75,1.76a2.77,2.77,0,0,0,0,2.23l.13.23a2.89,2.89,0,0,0,1.65,1.1,9.13,9.13,0,0,0,2.65.41l.44,0a7.34,7.34,0,0,0,1-.12A8.69,8.69,0,0,0,38.39,28a5.34,5.34,0,0,0,1.17-1,5,5,0,0,0,.56-.74,6.09,6.09,0,0,0,.79-2.06,3.16,3.16,0,0,0-.07-1.54,2.66,2.66,0,0,0-.26-.6,4.59,4.59,0,0,0-.33-.44A6.4,6.4,0,0,0,42.56,18.15Zm-7.68,6.11a4.11,4.11,0,0,1,.75-.07,2.45,2.45,0,0,1,.83.13l.06,0a.25.25,0,0,1,0,.07,1.32,1.32,0,0,1-.81.86,2.09,2.09,0,0,1-1.3.1C34.55,25,34.71,24.62,34.88,24.26Zm2-4.93.36-1c.26,0,.54-.05.8-.06a1.37,1.37,0,0,1-.13.2A3.48,3.48,0,0,1,36.88,19.33Z"/>
          <path class="cls-2" d="M76.38,29.34a5.23,5.23,0,0,1-1.59-.24A4,4,0,0,1,72,25.55a2.71,2.71,0,0,1,.83-1.95,3.1,3.1,0,0,1,2.13-1,2.1,2.1,0,0,1,.56.08,1.74,1.74,0,0,1,1.07,1.14,3.13,3.13,0,0,1,.14.66,1.61,1.61,0,0,0,.07.31c.11.32.25.32.32.32l.15,0a.4.4,0,0,0,.32-.47,3,3,0,0,0-.31-.86,11.55,11.55,0,0,0-.67-1.06l-.19-.3c-1.5-2.26-1.37-4.27.41-6.52a6.63,6.63,0,0,1,4-2.38,5.5,5.5,0,0,1,1-.09,4.46,4.46,0,0,1,2.39.68,2.55,2.55,0,0,1,.66,4,2.9,2.9,0,0,1-2.11,1.26h-.09a1,1,0,0,1-.92-.56l-.24-.48a.62.62,0,0,0-.51-.4.65.65,0,0,0-.5.32,1.3,1.3,0,0,0-.17,1.27,6.34,6.34,0,0,0,.55,1.06l0,.05c.14.24.3.48.47.73l.5.77a4,4,0,0,1-.07,4.38A6.44,6.44,0,0,1,76.38,29.34Z"/>
          <path class="cls-2" d="M95.91,18.55a2,2,0,0,1-1.45-.63,1.94,1.94,0,0,1-.31-2.2,3,3,0,0,1,2.75-2h0a1.94,1.94,0,0,1,1.6.75,1.91,1.91,0,0,1,.21,1.72,3.23,3.23,0,0,1-2,2.19A2.56,2.56,0,0,1,95.91,18.55Z"/>
          <path class="cls-30" d="M99.2,21c-.4.75-.75,1.49-1.18,2.2a10.16,10.16,0,0,1-3.83,3.92,4.82,4.82,0,0,1-1.11.43,1.71,1.71,0,0,1-2.39-1.34c-.36.24-.7.5-1.07.71a6.31,6.31,0,0,1-1.09.5,2,2,0,0,1-2.76-.94c-.41.25-.8.53-1.22.76a3.07,3.07,0,0,1-1.73.4,1.69,1.69,0,0,1-1.63-2.19,5.66,5.66,0,0,1,.36-1c.27-.62.6-1.22.87-1.85.4-1,.81-1.95,1.15-2.94a1,1,0,0,1,.94-.84,1.31,1.31,0,0,1,1.3.65,1.5,1.5,0,0,1,.12,1.24c-.19.54-.41,1.06-.65,1.58-.38.86-.81,1.69-1.18,2.56a4.93,4.93,0,0,0-.24,1,1.15,1.15,0,0,0,1.3-.42,9.5,9.5,0,0,0,2.15-3c.45-.89.81-1.82,1.17-2.75s.64-1.09,1.35-.93a1.36,1.36,0,0,1,1.1,1.58,5,5,0,0,1-.35,1.14c-.48,1.1-1,2.18-1.47,3.28-.14.3-.35.61,0,1a1.49,1.49,0,0,0,1.18-.56,7.73,7.73,0,0,0,1.86-2.43c.5-1,.92-2.09,1.34-3.14.26-.66.51-.89,1.09-.85a1.31,1.31,0,0,1,1.27,1.08,3.16,3.16,0,0,1-.18,1.33c-.48,1.19-1,2.35-1.54,3.52-.13.3-.21.62-.31.92a.71.71,0,0,0,1-.13A9.7,9.7,0,0,0,96.23,24a28.86,28.86,0,0,0,1.6-2.82A7.15,7.15,0,0,0,98.17,20a7.52,7.52,0,0,1,.27-.8.66.66,0,0,1,.75-.42c1.6.07,3.19.12,4.79.17a.88.88,0,0,1,.86,1.33,2.73,2.73,0,0,1-.55.76q-1.85,1.84-3.71,3.67l-1,1a4.72,4.72,0,0,0,5.1-2.12,9.92,9.92,0,0,1,2.77-3.1,9.35,9.35,0,0,1,3.92-1.62,3.77,3.77,0,0,1,1.94.16,1.33,1.33,0,0,1,.89,1.7,10.38,10.38,0,0,1-.51,1.45c-.4.91-.84,1.81-1.24,2.72a8,8,0,0,0-.28.9c.92.23,1.23-.61,1.82-.84.24.69-.1,1.33-1,2q-2,1.43-3.61.14c-.36.14-.72.31-1.1.43-1.9.56-3,.08-3.93-1.64-.06,0-.12,0-.15,0a8.23,8.23,0,0,1-5.44,1.95,5.23,5.23,0,0,1-1.36-.13c-1.14-.23-1.43-1-.72-1.94a10.34,10.34,0,0,1,1.27-1.38c.9-.87,1.84-1.7,2.76-2.56.27-.25.51-.53.84-.88Zm8.93,5a1.49,1.49,0,0,0,1.33-.84c.57-1.25,1.14-2.49,1.7-3.74.12-.27.36-.59.06-.86s-.64-.11-1,.05l-.22.12a6.24,6.24,0,0,0-2.63,3.37,3.6,3.6,0,0,0-.13,1.18C107.31,25.78,107.62,26,108.13,26Z"/>
          <path class="cls-30" d="M65.93,25.78c.92.18,1.22-.68,1.85-.87.17.78-.24,1.46-1.24,2.11a2.7,2.7,0,0,1-3.42.06,10.4,10.4,0,0,1-1.74.51,5,5,0,0,1-1.76-.11,2.25,2.25,0,0,1-1.51-1.72c-.21.16-.38.28-.54.42a6.41,6.41,0,0,1-2.79,1.43,1.7,1.7,0,0,1-2.26-1.29,5.58,5.58,0,0,1-.56.34,13,13,0,0,1-1.94.88c-1.41.4-2.06,0-2.5-1.37-.55.29-1.09.61-1.66.86a6.11,6.11,0,0,1-4,.5,2.31,2.31,0,0,1-1.82-3.11,7.25,7.25,0,0,1,2-3.25A7.64,7.64,0,0,1,46,18.86a3.56,3.56,0,0,1,1.26,0,1.42,1.42,0,0,1,1.21,1.76,3.17,3.17,0,0,1-.35,1,5.67,5.67,0,0,1-3.62,2.79,9.39,9.39,0,0,1-1.42.11,1.3,1.3,0,0,0,1.61,1.54,5.11,5.11,0,0,0,3.92-2.61,50.07,50.07,0,0,0,3.19-7.27,10.86,10.86,0,0,0,.33-1.15.78.78,0,0,1,.8-.63A1.37,1.37,0,0,1,54.41,16a5.54,5.54,0,0,1-.36,1.4c-.95,2.29-1.93,4.57-2.9,6.85-.14.34-.31.67-.43,1,0,.14-.06.4,0,.46a.73.73,0,0,0,.54.09,2.21,2.21,0,0,0,.66-.39,5.66,5.66,0,0,0,1.68-2c1-2.2,2-4.42,2.93-6.64A14.57,14.57,0,0,0,57,15.17c.19-.61.45-.79,1.06-.74A1.34,1.34,0,0,1,59.37,16,5.47,5.47,0,0,1,59,17.33q-1.34,3.24-2.72,6.46c-.21.5-.45,1-.64,1.49s.08.63.47.51a2.36,2.36,0,0,0,.75-.4,6.57,6.57,0,0,0,1.69-2A9,9,0,0,1,65,18.85,3.7,3.7,0,0,1,67,19a1.32,1.32,0,0,1,.92,1.76,20,20,0,0,1-.79,2.07c-.31.73-.68,1.44-1,2.17A5.09,5.09,0,0,0,65.93,25.78ZM61,24.85c0,1,.47,1.35,1.28,1.1a1.47,1.47,0,0,0,.94-.8c.53-1.2,1.08-2.39,1.62-3.58a2.75,2.75,0,0,0,.23-.56c.09-.35-.08-.58-.44-.54a1.89,1.89,0,0,0-.8.26,6.2,6.2,0,0,0-2.71,3.5A3.79,3.79,0,0,0,61,24.85ZM43.6,23A3.55,3.55,0,0,0,46,21.45c.22-.27.48-.57.23-1.05C44.78,20.72,44.19,21.85,43.6,23Z"/>
          <path class="cls-30" d="M38.16,21.3l.51.32a1.86,1.86,0,0,1,.86,2.07,4.6,4.6,0,0,1-2.06,3.12,7.45,7.45,0,0,1-6.39.86A1.5,1.5,0,0,1,30,25.44c.28-.78.65-1.52,1-2.28.7-1.56,1.41-3.11,2.1-4.67.17-.39.29-.8.46-1.24A4.71,4.71,0,0,1,33,17a.78.78,0,0,1-.35-1,5.41,5.41,0,0,1,.34-.87.93.93,0,0,1,1-.54c1.25,0,2.5-.12,3.75-.17a7.81,7.81,0,0,1,1.45,0,2.34,2.34,0,0,1,2,3.11,5.58,5.58,0,0,1-2.12,3C38.82,20.84,38.53,21,38.16,21.3Zm-5.47,4.27a3,3,0,0,0,4-.37,2.62,2.62,0,0,0,.39-.74,1,1,0,0,0-.67-1.41,4.4,4.4,0,0,0-2.36,0,.64.64,0,0,0-.38.28C33.35,24,33,24.79,32.69,25.57ZM36.11,17l-1.25,3.7a5.69,5.69,0,0,0,3.5-2,2.28,2.28,0,0,0,.36-.67c.24-.74,0-1.18-.84-1.18C37.26,16.9,36.64,17,36.11,17Z"/>
          <path class="cls-30" d="M82.24,18c-.09-.19-.17-.34-.24-.48a1.55,1.55,0,0,0-2.77-.19,2.31,2.31,0,0,0-.29,2.2,7.75,7.75,0,0,0,.66,1.28c.31.51.66,1,1,1.51a3,3,0,0,1-.07,3.31,5.37,5.37,0,0,1-5.77,2.18,2.94,2.94,0,0,1-2.12-2.62,2.06,2.06,0,0,1,2.22-1.83c.16,0,.31.29.37.48s.1.68.22,1a1.35,1.35,0,0,0,1.68.94,1.41,1.41,0,0,0,1.09-1.61A3.93,3.93,0,0,0,77.77,23c-.27-.5-.6-1-.91-1.45-1.27-1.92-1.13-3.43.36-5.31a5.5,5.5,0,0,1,3.39-2,3.52,3.52,0,0,1,2.63.45,1.54,1.54,0,0,1,.41,2.47A1.94,1.94,0,0,1,82.24,18Z"/>
          <path class="cls-30" d="M96.54,14.48c.71,0,1.06.45.85,1.12A2.24,2.24,0,0,1,96,17.14a1.05,1.05,0,0,1-1.19-.21,1,1,0,0,1-.11-1.12A2,2,0,0,1,96.54,14.48Z"/>
        </g>
        <path class="cls-2" d="M117.92,16.14a.83.83,0,0,1,.33.34,1,1,0,0,1,0,1,.87.87,0,0,1-.33.33.89.89,0,0,1-.47.12,1,1,0,0,1-.48-.12.87.87,0,0,1-.33-.33,1,1,0,0,1,0-1,.83.83,0,0,1,.33-.34,1,1,0,0,1,.48-.12A.89.89,0,0,1,117.92,16.14Zm.07,1.38a.78.78,0,0,0,.21-.56.76.76,0,0,0-.21-.56.7.7,0,0,0-.54-.22.71.71,0,0,0-.55.22.76.76,0,0,0-.21.56.78.78,0,0,0,.21.56.71.71,0,0,0,.55.22A.7.7,0,0,0,118,17.52Zm-.2-.57a.35.35,0,0,1-.18.1l.28.4h-.24l-.26-.39h-.11v.39h-.2v-1h.44a.32.32,0,0,1,.24.08.28.28,0,0,1,.09.22A.34.34,0,0,1,117.79,17Zm-.51-.06h.22a.18.18,0,0,0,.11,0,.14.14,0,0,0,0-.1.11.11,0,0,0,0-.1.18.18,0,0,0-.11,0h-.22Z"/>
        <g>
          <path class="cls-2" d="M37.34,32.16a1.73,1.73,0,0,1,1.39-.71,1.25,1.25,0,0,1,.84.27,1.07,1.07,0,0,1,.36.74h-.78a.45.45,0,0,0-.19-.27.65.65,0,0,0-.35-.09.8.8,0,0,0-.57.22,1,1,0,0,0-.3.6,1.83,1.83,0,0,0,0,.21.61.61,0,0,0,.16.45.55.55,0,0,0,.44.17.82.82,0,0,0,.38-.09,1,1,0,0,0,.29-.28h.78a1.65,1.65,0,0,1-1.56,1,1.32,1.32,0,0,1-.64-.15,1,1,0,0,1-.43-.41,1.2,1.2,0,0,1-.15-.61,1.55,1.55,0,0,1,0-.31A1.84,1.84,0,0,1,37.34,32.16Z"/>
          <path class="cls-2" d="M42.74,33.86H41.66l-.27.52h-.73l1.55-2.9H43l.54,2.9h-.75Zm-.08-.53-.17-1.07-.55,1.07Z"/>
          <path class="cls-2" d="M47.09,31.68a.68.68,0,0,1,.24.53.9.9,0,0,1,0,.18,1.05,1.05,0,0,1-.25.52,1.13,1.13,0,0,1-.54.32L47,34.38h-.79l-.41-1.1h-.17l-.19,1.1h-.71l.51-2.9H46.4A1.05,1.05,0,0,1,47.09,31.68Zm-.49.65a.25.25,0,0,0-.09-.2.37.37,0,0,0-.25-.07h-.43l-.13.72h.43a.5.5,0,0,0,.31-.09.4.4,0,0,0,.15-.27S46.6,32.35,46.6,32.33Z"/>
          <path class="cls-2" d="M50.82,34.38h-.71l-.86-1.79-.32,1.79h-.7l.51-2.9h.7l.87,1.79.31-1.79h.71Z"/>
          <path class="cls-2" d="M53.27,32l-.1.6h.94l-.09.53h-1l-.11.65H54l-.1.56H52.15l.51-2.9h1.78l-.1.56Z"/>
          <path class="cls-2" d="M55.59,34.2a.68.68,0,0,1-.29-.58.54.54,0,0,1,0-.11H56a.31.31,0,0,0,.08.25.33.33,0,0,0,.26.09.44.44,0,0,0,.25-.07.27.27,0,0,0,0-.42,2.57,2.57,0,0,0-.37-.18,3.6,3.6,0,0,1-.39-.19.85.85,0,0,1-.26-.24.66.66,0,0,1-.11-.38.84.84,0,0,1,.14-.5.91.91,0,0,1,.4-.32,1.5,1.5,0,0,1,.58-.11,1.44,1.44,0,0,1,.53.09.72.72,0,0,1,.36.27.65.65,0,0,1,.13.41v.09h-.76s0,0,0,0a.26.26,0,0,0-.08-.19.33.33,0,0,0-.22-.08.36.36,0,0,0-.24.08.21.21,0,0,0-.09.19.23.23,0,0,0,.11.21,2.59,2.59,0,0,0,.36.2l.4.2a.92.92,0,0,1,.26.26.6.6,0,0,1,.11.39.82.82,0,0,1-.13.46,1,1,0,0,1-.4.31,1.32,1.32,0,0,1-.59.11A1.3,1.3,0,0,1,55.59,34.2Z"/>
          <path class="cls-2" d="M62.84,33.69l.57.69h-.82l-.22-.27a1.7,1.7,0,0,1-1,.31,1.15,1.15,0,0,1-.71-.2.62.62,0,0,1-.26-.54.83.83,0,0,1,.21-.58,1.48,1.48,0,0,1,.56-.41A.74.74,0,0,1,61,32.3a.77.77,0,0,1,.13-.45.88.88,0,0,1,.36-.3,1.33,1.33,0,0,1,.54-.11.88.88,0,0,1,.57.17.57.57,0,0,1,.2.43.49.49,0,0,1,0,.12h-.66v0a.17.17,0,0,0-.05-.13A.21.21,0,0,0,62,32a.32.32,0,0,0-.19.07.26.26,0,0,0-.08.19.65.65,0,0,0,.17.35l.58.69.07-.12.2-.26h.71l-.26.36A4.24,4.24,0,0,1,62.84,33.69Zm-.82,0-.54-.62a.64.64,0,0,0-.27.2.39.39,0,0,0-.1.27.27.27,0,0,0,.1.22.5.5,0,0,0,.29.08A1,1,0,0,0,62,33.7Z"/>
          <path class="cls-2" d="M66.78,32.16a1.58,1.58,0,0,1,.6-.52,1.67,1.67,0,0,1,.79-.19,1.24,1.24,0,0,1,.83.27,1,1,0,0,1,.36.74h-.77a.46.46,0,0,0-.2-.27A.63.63,0,0,0,68,32.1a.79.79,0,0,0-.56.22,1.08,1.08,0,0,0-.31.6,1.83,1.83,0,0,0,0,.21.65.65,0,0,0,.16.45.57.57,0,0,0,.45.17.78.78,0,0,0,.37-.09.89.89,0,0,0,.3-.28h.77a1.64,1.64,0,0,1-.62.75,1.68,1.68,0,0,1-.93.27,1.33,1.33,0,0,1-.65-.15,1.06,1.06,0,0,1-.43-.41,1.31,1.31,0,0,1-.14-.61,3,3,0,0,1,0-.31A1.73,1.73,0,0,1,66.78,32.16Z"/>
          <path class="cls-2" d="M71,34.25a1,1,0,0,1-.43-.43,1.28,1.28,0,0,1-.15-.63,1.83,1.83,0,0,1,.22-.91,1.62,1.62,0,0,1,.6-.62,1.75,1.75,0,0,1,.89-.22,1.33,1.33,0,0,1,.65.15,1,1,0,0,1,.43.42,1.23,1.23,0,0,1,.16.63,1.94,1.94,0,0,1-.22.91,1.61,1.61,0,0,1-.61.63,1.75,1.75,0,0,1-.89.22A1.36,1.36,0,0,1,71,34.25Zm1.23-.64a.85.85,0,0,0,.32-.38,1.06,1.06,0,0,0,.11-.51.61.61,0,0,0-.16-.46.58.58,0,0,0-.46-.17.8.8,0,0,0-.48.14.83.83,0,0,0-.32.37,1.12,1.12,0,0,0-.11.51.64.64,0,0,0,.16.47.6.6,0,0,0,.46.17A.78.78,0,0,0,72.24,33.61Z"/>
          <path class="cls-2" d="M76.73,31.68a.7.7,0,0,1,.23.53.9.9,0,0,1,0,.18,1,1,0,0,1-.25.52,1,1,0,0,1-.54.32l.47,1.15h-.8l-.41-1.1h-.17l-.19,1.1h-.7l.51-2.9H76A1.07,1.07,0,0,1,76.73,31.68Zm-.5.65a.28.28,0,0,0-.08-.2.37.37,0,0,0-.25-.07h-.44l-.13.72h.44a.5.5,0,0,0,.31-.09.44.44,0,0,0,.14-.27A.34.34,0,0,0,76.23,32.33Z"/>
          <path class="cls-2" d="M80.45,31.48l-.09.56h-.77l-.41,2.34h-.71L78.88,32h-.77l.11-.56Z"/>
          <path class="cls-2" d="M82.24,32l-.11.6h1l-.1.53H82l-.12.65H83l-.1.56H81.12l.51-2.9h1.78l-.1.56Z"/>
          <path class="cls-2" d="M84.56,34.2a.68.68,0,0,1-.29-.58.54.54,0,0,1,0-.11H85a.31.31,0,0,0,.08.25.34.34,0,0,0,.26.09.44.44,0,0,0,.25-.07.22.22,0,0,0,.09-.2.25.25,0,0,0-.11-.22,2.57,2.57,0,0,0-.37-.18,3.6,3.6,0,0,1-.39-.19,1,1,0,0,1-.26-.24.66.66,0,0,1-.11-.38.84.84,0,0,1,.14-.5.91.91,0,0,1,.4-.32,1.51,1.51,0,0,1,.59-.11,1.42,1.42,0,0,1,.52.09.72.72,0,0,1,.36.27.65.65,0,0,1,.13.41v.09h-.75v0a.26.26,0,0,0-.08-.19.31.31,0,0,0-.22-.08.36.36,0,0,0-.24.08.23.23,0,0,0-.09.19.23.23,0,0,0,.11.21,2.59,2.59,0,0,0,.36.2l.4.2a1.1,1.1,0,0,1,.27.26.67.67,0,0,1,.1.39.82.82,0,0,1-.13.46,1,1,0,0,1-.39.31,1.4,1.4,0,0,1-.6.11A1.32,1.32,0,0,1,84.56,34.2Z"/>
        </g>
      </g>
      <rect class="cls-31" x="15.56" y="56.31" width="66.36" height="10.87" rx="5.44"/>
      <rect class="cls-2" x="62.7" y="56.31" width="48.62" height="10.87" rx="5.44"/>
      <g>
        <path class="cls-2" d="M24.45,61.75v.1a0,0,0,0,1,0,0h-.3a.62.62,0,0,1,0-.13c0-.13,0-.25-.05-.37l0-.12A2,2,0,0,0,24,61v0c0-.08-.08-.16-.13-.24a.67.67,0,0,0-.09-.14s0,0,0,0a2.56,2.56,0,0,0-.53-.51L23.07,60l-.24-.13h0a1.5,1.5,0,0,0-.36-.11,2.52,2.52,0,0,0-.47-.06h0s0,0,0,0v-.26s0-.05,0-.05h.09l.19,0h.07l.49.12a2.61,2.61,0,0,1,1.13.84h0l.05.06.13.2c.05.08.08.16.12.24a1.43,1.43,0,0,1,.09.27.13.13,0,0,1,0,.1c0,.12.05.23.07.36s0,.11,0,.17Z"/>
        <path class="cls-2" d="M19.44,60.41s0,0,0,0a.35.35,0,0,1,0-.11.31.31,0,0,1,.07-.09l.29-.3.11-.09a.35.35,0,0,1,.14-.06l.09,0h.14l.12,0a.67.67,0,0,1,.38.36.47.47,0,0,1,.06.2c.05.15.09.32.13.48a.53.53,0,0,1-.07.44.34.34,0,0,1-.09.12c-.05,0-.11.11-.17.15a.1.1,0,0,0,0,.09c0,.07.05.13.07.2s.07.15.11.23a3.94,3.94,0,0,0,.26.4.81.81,0,0,0,.09.1,2.22,2.22,0,0,0,.64.49l.23.11a1.8,1.8,0,0,0,.21.08,0,0,0,0,0,.05,0l.17-.16a.56.56,0,0,1,.47-.18.79.79,0,0,1,.22,0h0l.43.12h0a.7.7,0,0,1,.35.31.54.54,0,0,1,.05.11.38.38,0,0,1,0,.1v.14s0,.07,0,.09a.56.56,0,0,1-.18.27l-.24.25-.11.08a.58.58,0,0,1-.18,0h-.29a1.53,1.53,0,0,1-.3,0l-.33-.07c-.2,0-.39-.11-.59-.18l-.06,0a.43.43,0,0,1-.12,0l-.27-.14-.36-.22-.29-.23c-.1-.1-.2-.18-.29-.28a2.31,2.31,0,0,1-.24-.29l-.07-.08s0,0,0-.05-.16-.23-.23-.35l-.14-.27a.3.3,0,0,0,0-.1c0-.1-.08-.19-.11-.28a2.72,2.72,0,0,1-.11-.38s0-.07,0-.1,0-.1,0-.15a.27.27,0,0,1,0-.09l0-.28c0-.08,0-.16,0-.23v-.08h0Z"/>
        <path class="cls-2" d="M21.94,60.61v-.29l0,0h.33l.31.11a1.57,1.57,0,0,1,.86,1.08h0a.31.31,0,0,1,0,.07c0,.08,0,.14,0,.21s0,.06-.05.05h-.26v0a.23.23,0,0,0,0-.11s0-.05,0-.08,0-.1,0-.15a1.14,1.14,0,0,0-.32-.51,1.18,1.18,0,0,0-.49-.3l-.14,0-.07,0h-.15Z"/>
        <path class="cls-2" d="M22,61.56s0,0,0-.07v-.26a.66.66,0,0,1,.25.05.09.09,0,0,1,.07,0l0,0a.5.5,0,0,1,.14.15l.08.12a.73.73,0,0,1,0,.2v0h0s-.07,0-.11,0H22.3s-.05,0-.05,0a.3.3,0,0,0-.15-.23l-.07,0s0,0,0,0h0Z"/>
      </g>
      <path class="cls-32" d="M70.43,59.64a1.56,1.56,0,0,0-.89-.41,1.49,1.49,0,0,1-.28,0h-.41l-.06,0a1.65,1.65,0,0,0-.43.06A2.06,2.06,0,0,0,67,61.2a2.8,2.8,0,0,0,.28,1.17,6.14,6.14,0,0,0,1.42,1.86.63.63,0,0,0,.3.16h.16a.46.46,0,0,0,.24-.1c.16-.16.34-.31.49-.48a6.55,6.55,0,0,0,.84-1.12,3.23,3.23,0,0,0,.43-1.38,2.06,2.06,0,0,0-.73-1.68h0v0Zm-1.36,2.59a1,1,0,1,1,0-2,1,1,0,0,1,1,1,1,1,0,0,1-1,1h0Z"/>
      <g>
        <path class="cls-2" d="M30.78,61.9a.85.85,0,0,1,.23.6,1,1,0,0,1-.14.5,1,1,0,0,1-.41.35,1.59,1.59,0,0,1-.68.13,2.32,2.32,0,0,1-.65-.09,1.82,1.82,0,0,1-.52-.27l.25-.45a1.25,1.25,0,0,0,.41.23,1.69,1.69,0,0,0,.5.08.78.78,0,0,0,.48-.13.42.42,0,0,0,0-.68.8.8,0,0,0-.51-.13h-.28v-.39l.7-.84H28.76v-.49h2.12v.39l-.76.9A1,1,0,0,1,30.78,61.9Z"/>
        <path class="cls-2" d="M32.47,60.32v3.12h-.58V60.81h-.66v-.49Z"/>
        <path class="cls-2" d="M35.86,62.73h-.55v.71h-.56v-.71H33v-.4l1.53-2h.62l-1.44,1.92h1v-.63h.54v.63h.55Z"/>
        <path class="cls-2" d="M38.07,61.63a.9.9,0,0,1,.38.34.84.84,0,0,1,.14.5.94.94,0,0,1-.15.53,1,1,0,0,1-.41.36,1.34,1.34,0,0,1-.58.12,1.24,1.24,0,0,1-1-.4,1.67,1.67,0,0,1-.36-1.15,1.86,1.86,0,0,1,.2-.89,1.27,1.27,0,0,1,.53-.57,1.6,1.6,0,0,1,.8-.19,1.64,1.64,0,0,1,.45,0,1,1,0,0,1,.37.15l-.21.43a1.11,1.11,0,0,0-.6-.15.88.88,0,0,0-.7.28,1.12,1.12,0,0,0-.25.79h0A.79.79,0,0,1,37,61.6a1.21,1.21,0,0,1,.48-.09A1.23,1.23,0,0,1,38.07,61.63Zm-.21,1.25A.44.44,0,0,0,38,62.5a.46.46,0,0,0-.17-.39.79.79,0,0,0-.91,0,.5.5,0,0,0-.17.38.47.47,0,0,0,.17.38.68.68,0,0,0,.47.15A.63.63,0,0,0,37.86,62.88Z"/>
        <path class="cls-2" d="M39.53,63.29a1.28,1.28,0,0,1-.47-.55,2.26,2.26,0,0,1,0-1.72,1.28,1.28,0,0,1,.47-.55,1.14,1.14,0,0,1,.66-.19,1.17,1.17,0,0,1,.67.19,1.22,1.22,0,0,1,.47.55,2.26,2.26,0,0,1,0,1.72,1.22,1.22,0,0,1-.47.55,1.17,1.17,0,0,1-.67.19A1.14,1.14,0,0,1,39.53,63.29Zm1.19-.59a1.42,1.42,0,0,0,.19-.82,1.4,1.4,0,0,0-.19-.82.63.63,0,0,0-1,0,1.4,1.4,0,0,0-.19.82,1.42,1.42,0,0,0,.19.82.63.63,0,0,0,1,0Z"/>
        <path class="cls-2" d="M44.67,62.73h-.56v.71h-.56v-.71H41.84v-.4l1.54-2H44l-1.45,1.92h1v-.63h.54v.63h.56Z"/>
        <path class="cls-2" d="M47.69,62.73h-.55v.71h-.57v-.71h-1.7v-.4l1.53-2H47l-1.45,1.92h1v-.63h.55v.63h.55Z"/>
        <path class="cls-2" d="M48.56,63.29a1.26,1.26,0,0,1-.46-.55,2.26,2.26,0,0,1,0-1.72,1.26,1.26,0,0,1,.46-.55,1.28,1.28,0,0,1,1.34,0,1.28,1.28,0,0,1,.47.55,2.39,2.39,0,0,1,0,1.72,1.28,1.28,0,0,1-.47.55,1.28,1.28,0,0,1-1.34,0Zm1.2-.59a1.42,1.42,0,0,0,.19-.82,1.4,1.4,0,0,0-.19-.82.61.61,0,0,0-.53-.28.59.59,0,0,0-.52.28,1.39,1.39,0,0,0-.2.82,1.42,1.42,0,0,0,.2.82.59.59,0,0,0,.52.28A.61.61,0,0,0,49.76,62.7Z"/>
        <path class="cls-2" d="M52.89,61.63a.92.92,0,0,1,.39.34.91.91,0,0,1,.13.5.94.94,0,0,1-.15.53,1,1,0,0,1-.41.36,1.34,1.34,0,0,1-.58.12,1.25,1.25,0,0,1-1-.4,1.67,1.67,0,0,1-.35-1.15,1.86,1.86,0,0,1,.19-.89,1.27,1.27,0,0,1,.53-.57,1.6,1.6,0,0,1,.8-.19,1.64,1.64,0,0,1,.45,0,1,1,0,0,1,.37.15l-.21.43a1.08,1.08,0,0,0-.59-.15.91.91,0,0,0-.71.28,1.12,1.12,0,0,0-.25.79h0a.79.79,0,0,1,.35-.24,1.32,1.32,0,0,1,1,0Zm-.21,1.25a.44.44,0,0,0,.17-.38.46.46,0,0,0-.17-.39.79.79,0,0,0-.91,0,.5.5,0,0,0-.17.38.47.47,0,0,0,.17.38.68.68,0,0,0,.47.15A.63.63,0,0,0,52.68,62.88Z"/>
        <path class="cls-2" d="M56.49,62.73h-.55v.71h-.56v-.71H53.67v-.4l1.54-2h.61l-1.44,1.92h1v-.63h.54v.63h.55Z"/>
      </g>
      <g>
        <path class="cls-32" d="M74.83,63.31a1.5,1.5,0,0,1-.56-.53,1.55,1.55,0,0,1-.2-.77,1.52,1.52,0,0,1,.2-.77,1.5,1.5,0,0,1,.56-.53,1.63,1.63,0,0,1,.8-.19,1.75,1.75,0,0,1,.65.12,1.36,1.36,0,0,1,.5.36l-.35.33a1.09,1.09,0,0,0-1.31-.21,1,1,0,0,0-.37.36,1,1,0,0,0-.14.53,1.08,1.08,0,0,0,.14.53,1,1,0,0,0,.37.36,1.08,1.08,0,0,0,1.31-.22l.35.34a1.64,1.64,0,0,1-.5.36,1.76,1.76,0,0,1-.66.12A1.59,1.59,0,0,1,74.83,63.31Z"/>
        <path class="cls-32" d="M77.24,60.38h.52v3.08h-.52Z"/>
        <path class="cls-32" d="M78.37,63.39a.32.32,0,0,1-.1-.25.34.34,0,0,1,.34-.34.31.31,0,0,1,.24.1.3.3,0,0,1,.1.24.32.32,0,0,1-.1.25.33.33,0,0,1-.24.1A.3.3,0,0,1,78.37,63.39Z"/>
        <path class="cls-32" d="M81.44,60.56v2.9h-.53V61h-.62v-.45Z"/>
        <path class="cls-32" d="M84.12,63v.46H82V63.1L83.14,62a1.3,1.3,0,0,0,.26-.32.58.58,0,0,0,.07-.28.38.38,0,0,0-.14-.31.64.64,0,0,0-.4-.11.82.82,0,0,0-.68.31L81.87,61a1.18,1.18,0,0,1,.46-.36,1.67,1.67,0,0,1,.65-.12,1.17,1.17,0,0,1,.75.22.73.73,0,0,1,.28.61,1,1,0,0,1-.1.44,1.6,1.6,0,0,1-.38.48l-.77.73Z"/>
        <path class="cls-32" d="M86.34,60.89A1.56,1.56,0,0,1,86.67,62a1.76,1.76,0,0,1-.18.83,1.17,1.17,0,0,1-.5.53,1.47,1.47,0,0,1-.74.18,1.42,1.42,0,0,1-.42,0,1.21,1.21,0,0,1-.35-.13l.2-.41a1.06,1.06,0,0,0,.56.14.86.86,0,0,0,.65-.26,1,1,0,0,0,.24-.74h0a.83.83,0,0,1-.33.22,1.25,1.25,0,0,1-.45.08,1.19,1.19,0,0,1-.51-.11.9.9,0,0,1-.36-.31,1,1,0,0,1-.13-.47.92.92,0,0,1,.14-.5,1,1,0,0,1,.38-.33,1.19,1.19,0,0,1,.54-.11A1.17,1.17,0,0,1,86.34,60.89Zm-.46.89a.46.46,0,0,0,0-.7.6.6,0,0,0-.44-.14.61.61,0,0,0-.41.13.49.49,0,0,0,0,.72.65.65,0,0,0,.43.14A.6.6,0,0,0,85.88,61.78Z"/>
        <path class="cls-32" d="M90.15,62.38h.56v.37h-.6l-.09.71h-.38l.09-.71H89l-.09.71h-.37l.08-.71h-.56v-.37h.61l.09-.74h-.56v-.38h.61l.09-.7h.37l-.08.7h.69l.09-.7h.38l-.09.7h.56v.38h-.6Zm-.37,0,.09-.74h-.7l-.09.74Z"/>
        <path class="cls-32" d="M93.32,60.56v.36l-1.13,2.54h-.58L92.71,61H91.56v.5h-.5v-.95Z"/>
        <path class="cls-32" d="M96.3,62.21a.78.78,0,0,1,.14.46.67.67,0,0,1-.29.58,1.46,1.46,0,0,1-.85.21H93.86v-2.9h1.36a1.28,1.28,0,0,1,.79.2.63.63,0,0,1,.28.55.67.67,0,0,1-.1.38.75.75,0,0,1-.27.26A.79.79,0,0,1,96.3,62.21ZM94.4,61v.8h.76a.74.74,0,0,0,.43-.1.36.36,0,0,0,0-.6.74.74,0,0,0-.43-.1Zm1.49,1.64c0-.28-.2-.42-.62-.42H94.4V63h.87C95.69,63,95.89,62.9,95.89,62.62Z"/>
        <path class="cls-32" d="M96.85,62.09H98v.43H96.85Z"/>
        <path class="cls-32" d="M101,62.8h-.51v.66H100V62.8H98.38v-.37l1.43-1.87h.58L99,62.34H100v-.58h.51v.58H101Z"/>
        <path class="cls-32" d="M103.07,61.78a.84.84,0,0,1,.36.31.83.83,0,0,1,.13.47.94.94,0,0,1-.14.5,1,1,0,0,1-.38.33,1.33,1.33,0,0,1-.54.11,1.17,1.17,0,0,1-.93-.37,1.57,1.57,0,0,1-.33-1.07,1.8,1.8,0,0,1,.18-.84,1.2,1.2,0,0,1,.5-.52,1.47,1.47,0,0,1,.74-.18,1.87,1.87,0,0,1,.42,0,1.22,1.22,0,0,1,.35.14l-.2.41a1,1,0,0,0-.55-.14.86.86,0,0,0-.66.25,1.07,1.07,0,0,0-.24.75h0a.83.83,0,0,1,.33-.22,1.06,1.06,0,0,1,.45-.08A1.19,1.19,0,0,1,103.07,61.78Zm-.19,1.16a.48.48,0,0,0,0-.72.7.7,0,0,0-.42-.13.65.65,0,0,0-.43.14.46.46,0,0,0-.16.36.43.43,0,0,0,.16.35.64.64,0,0,0,.44.14A.62.62,0,0,0,102.88,62.94Z"/>
      </g>
    </g>
  </g>
</svg>
