<svg xmlns="http://www.w3.org/2000/svg" viewBox="0 0 137.21 58.67">
  <defs>
    <style>
      .cls-1 {
        fill: #fff;
      }

      .cls-2 {
        fill: #0ca23f;
      }

      .cls-3 {
        fill: none;
        stroke: #fff;
        stroke-miterlimit: 10;
        stroke-width: 0.4px;
      }
    </style>
  </defs>
  <g id="Capa_2" data-name="Capa 2">
    <g id="Capa_1-2" data-name="Capa 1">
      <g>
        <path class="cls-1" d="M7.14,8.17h-2l.44-2.29H2.51L2.07,8.17H.1L1,3.51A4.52,4.52,0,0,1,2.35.92,3.88,3.88,0,0,1,5.05,0,3.38,3.38,0,0,1,7.33.7a2.48,2.48,0,0,1,.81,2,3.44,3.44,0,0,1-.1.84Zm-1.24-4L6,3.51a3.6,3.6,0,0,0,.07-.58c0-.75-.42-1.12-1.25-1.12A1.78,1.78,0,0,0,3,3.51l-.13.68Z"/>
        <path class="cls-1" d="M14.36,8.17H8.61l1.56-8h2L11,6.35h3.75Z"/>
        <path class="cls-1" d="M17.52,8.17h-2l1.57-8h2Z"/>
        <path class="cls-1" d="M22,3.08,21,8.17H19l1-5.08A4,4,0,0,1,21.13.77,3.08,3.08,0,0,1,23.28,0a2.21,2.21,0,0,1,2.08,1.07h0A2.81,2.81,0,0,1,27.69,0,2.74,2.74,0,0,1,29.5.59a2.1,2.1,0,0,1,.7,1.72,3.66,3.66,0,0,1-.08.77l-1,5.09h-2l1-5.08a3.73,3.73,0,0,0,0-.47.72.72,0,0,0-.81-.81,1.18,1.18,0,0,0-.81.31,1.68,1.68,0,0,0-.48,1l-1,5.09h-2l1-5.08a2.49,2.49,0,0,0,.05-.46.72.72,0,0,0-.81-.82,1.2,1.2,0,0,0-.81.31A1.75,1.75,0,0,0,22,3.08Z"/>
        <path class="cls-1" d="M36.5,8.17H30.61l1.55-8h5.91L37.72,2H33.81l-.26,1.35h3.19l-.31,1.57H33.25L33,6.35h3.9Z"/>
        <path class="cls-1" d="M44.56,8.17h-2l.94-4.8a2.85,2.85,0,0,0,0-.51q0-1-1.14-1a1.65,1.65,0,0,0-1.15.41,1.92,1.92,0,0,0-.58,1.14l-.93,4.81h-2l.93-4.8A4.28,4.28,0,0,1,40,.89,3.85,3.85,0,0,1,42.59,0a3.23,3.23,0,0,1,2.19.69,2.38,2.38,0,0,1,.8,1.89,4.13,4.13,0,0,1-.08.78Z"/>
        <path class="cls-1" d="M49.47,8.17h-2L48.66,2H46.49L46.86.16H53.2L52.85,2H50.67Z"/>
        <path class="cls-1" d="M61.41,3.44A4.67,4.67,0,0,1,60,6.91,4.87,4.87,0,0,1,56.4,8.32a3.73,3.73,0,0,1-2.65-1,3.24,3.24,0,0,1-1-2.46,4.69,4.69,0,0,1,1.44-3.48A4.87,4.87,0,0,1,57.72,0a3.73,3.73,0,0,1,2.65,1A3.25,3.25,0,0,1,61.41,3.44ZM56.59,6.51a2.66,2.66,0,0,0,2-.8,2.78,2.78,0,0,0,.79-2,2,2,0,0,0-.5-1.38,1.8,1.8,0,0,0-1.35-.53,2.54,2.54,0,0,0-1.93.81,2.78,2.78,0,0,0-.76,2A2,2,0,0,0,55.28,6,1.69,1.69,0,0,0,56.59,6.51Z"/>
        <path class="cls-1" d="M68.35,2.55H66.46a1,1,0,0,0,0-.19c0-.44-.26-.66-.79-.66a1.22,1.22,0,0,0-.85.28.86.86,0,0,0-.3.64.5.5,0,0,0,.25.44,1.63,1.63,0,0,0,.63.24,7.73,7.73,0,0,1,.81.19,6.59,6.59,0,0,1,.82.29,1.44,1.44,0,0,1,.63.55,1.72,1.72,0,0,1,.25,1A2.85,2.85,0,0,1,67,7.52a3.65,3.65,0,0,1-2.51.83,3.21,3.21,0,0,1-2-.56,1.82,1.82,0,0,1-.75-1.53,3.13,3.13,0,0,1,0-.43h2a1.06,1.06,0,0,0,0,.23c0,.41.29.61.89.61a1.42,1.42,0,0,0,.93-.25.84.84,0,0,0,.31-.67.54.54,0,0,0-.25-.44A1.8,1.8,0,0,0,65,5.07a7.73,7.73,0,0,1-.81-.19,7.07,7.07,0,0,1-.82-.3A1.36,1.36,0,0,1,62.76,4a1.72,1.72,0,0,1-.25-1A2.86,2.86,0,0,1,63.42.88,3.35,3.35,0,0,1,65.81,0a2.85,2.85,0,0,1,1.85.59,1.93,1.93,0,0,1,.71,1.56A3.47,3.47,0,0,1,68.35,2.55Z"/>
        <path class="cls-1" d="M6.57,15.77H4.69a.87.87,0,0,0,0-.18c0-.44-.26-.66-.79-.66a1.2,1.2,0,0,0-.86.28.89.89,0,0,0-.3.63.51.51,0,0,0,.26.44,1.39,1.39,0,0,0,.63.24c.25.05.52.11.81.19s.56.18.82.29a1.46,1.46,0,0,1,.63.56,1.79,1.79,0,0,1,.25,1,2.84,2.84,0,0,1-.93,2.23,3.61,3.61,0,0,1-2.51.83,3.12,3.12,0,0,1-2-.56A1.8,1.8,0,0,1,0,19.48a2.15,2.15,0,0,1,0-.43H2a1.31,1.31,0,0,0,0,.23c0,.41.3.62.9.62a1.52,1.52,0,0,0,.93-.25.83.83,0,0,0,.3-.67.5.5,0,0,0-.25-.44,1.39,1.39,0,0,0-.62-.24c-.25-.05-.52-.11-.82-.2a5.92,5.92,0,0,1-.81-.29A1.39,1.39,0,0,1,1,17.25a1.7,1.7,0,0,1-.25-.95,2.86,2.86,0,0,1,.91-2.19A3.29,3.29,0,0,1,4,13.25a2.75,2.75,0,0,1,1.84.59,1.9,1.9,0,0,1,.72,1.55A1.87,1.87,0,0,1,6.57,15.77Z"/>
        <path class="cls-1" d="M12.72,21.39H6.82l1.55-8h5.92l-.36,1.82H10l-.26,1.34H13l-.31,1.57H9.46l-.28,1.47h3.9Z"/>
        <path class="cls-1" d="M19.87,21.39H14.12l1.56-8h2l-1.21,6.2h3.75Z"/>
        <path class="cls-1" d="M26.92,21.39H21l1.55-8h5.92l-.36,1.82h-3.9L24,16.54h3.18l-.31,1.57H23.66l-.28,1.47h3.91Z"/>
        <path class="cls-1" d="M37.3,16.41H35.23a1.6,1.6,0,0,0-.6-1A1.94,1.94,0,0,0,33.41,15a2.64,2.64,0,0,0-1.94.81,2.72,2.72,0,0,0-.79,2,2,2,0,0,0,.47,1.38,1.7,1.7,0,0,0,1.33.53,2.46,2.46,0,0,0,1.3-.37,2.69,2.69,0,0,0,.95-1h2.19a5.12,5.12,0,0,1-1.81,2.31,4.77,4.77,0,0,1-2.83.87,3.74,3.74,0,0,1-2.64-1,3.21,3.21,0,0,1-1-2.47A4.66,4.66,0,0,1,30,14.64a4.91,4.91,0,0,1,3.57-1.42,3.92,3.92,0,0,1,2.64.89A2.91,2.91,0,0,1,37.3,16.41Z"/>
        <path class="cls-1" d="M46.5,16.41H44.43a1.6,1.6,0,0,0-.6-1A2,2,0,0,0,42.6,15a2.6,2.6,0,0,0-1.93.81,2.72,2.72,0,0,0-.8,2,2,2,0,0,0,.47,1.38,1.71,1.71,0,0,0,1.33.53A2.49,2.49,0,0,0,43,19.37a2.77,2.77,0,0,0,1-1h2.19a5.19,5.19,0,0,1-1.81,2.31,4.77,4.77,0,0,1-2.83.87,3.78,3.78,0,0,1-2.65-1,3.25,3.25,0,0,1-1-2.47,4.7,4.7,0,0,1,1.43-3.47,4.92,4.92,0,0,1,3.58-1.42,4,4,0,0,1,2.64.89A2.91,2.91,0,0,1,46.5,16.41Z"/>
        <path class="cls-1" d="M48.71,21.39h-2l1.57-8h2Z"/>
        <path class="cls-1" d="M59.34,16.66a4.68,4.68,0,0,1-1.43,3.47,4.88,4.88,0,0,1-3.58,1.42,3.74,3.74,0,0,1-2.64-1,3.21,3.21,0,0,1-1-2.47,4.66,4.66,0,0,1,1.43-3.47,4.89,4.89,0,0,1,3.57-1.42,3.74,3.74,0,0,1,2.65,1A3.24,3.24,0,0,1,59.34,16.66Zm-4.81,3.08a2.63,2.63,0,0,0,1.95-.81,2.72,2.72,0,0,0,.79-2,1.93,1.93,0,0,0-.5-1.38A1.76,1.76,0,0,0,55.42,15a2.58,2.58,0,0,0-1.93.8,2.8,2.8,0,0,0-.76,2,2,2,0,0,0,.48,1.37A1.7,1.7,0,0,0,54.53,19.74Z"/>
        <path class="cls-1" d="M66.38,21.39h-2l.93-4.8a2.73,2.73,0,0,0,0-.5q0-1-1.14-1.05a1.65,1.65,0,0,0-1.15.4,2,2,0,0,0-.58,1.15l-.94,4.8h-2l.94-4.8a4.28,4.28,0,0,1,1.3-2.48,3.82,3.82,0,0,1,2.64-.89,3.23,3.23,0,0,1,2.19.7,2.37,2.37,0,0,1,.79,1.89,3.56,3.56,0,0,1-.08.78Z"/>
        <path class="cls-1" d="M74.69,21.39h-2l.45-2.29H70.07l-.45,2.29h-2l.9-4.65a4.55,4.55,0,0,1,1.35-2.6,3.9,3.9,0,0,1,2.71-.92,3.35,3.35,0,0,1,2.27.71,2.46,2.46,0,0,1,.81,2,4,4,0,0,1-.09.85Zm-1.23-4,.13-.67a3.56,3.56,0,0,0,.06-.59c0-.74-.42-1.11-1.25-1.11a1.76,1.76,0,0,0-1.87,1.7l-.14.67Z"/>
        <path class="cls-1" d="M79.13,21.39h-3l1.55-8h2.68a4.09,4.09,0,0,1,2.77.87,3,3,0,0,1,1,2.33,4.8,4.8,0,0,1-1.29,3.48A5,5,0,0,1,79.13,21.39Zm-.61-1.81h.79a2.69,2.69,0,0,0,2.07-.74,2.77,2.77,0,0,0,.69-1.95c0-1.13-.62-1.69-1.87-1.69h-.83Z"/>
        <path class="cls-1" d="M93.48,16.66a4.65,4.65,0,0,1-1.43,3.47,4.85,4.85,0,0,1-3.57,1.42,3.78,3.78,0,0,1-2.65-1,3.25,3.25,0,0,1-1-2.47,4.7,4.7,0,0,1,1.43-3.47,4.92,4.92,0,0,1,3.58-1.42,3.7,3.7,0,0,1,2.64,1A3.2,3.2,0,0,1,93.48,16.66Zm-4.81,3.08a2.6,2.6,0,0,0,2-.81,2.72,2.72,0,0,0,.79-2,1.89,1.89,0,0,0-.5-1.38A1.73,1.73,0,0,0,89.57,15a2.56,2.56,0,0,0-1.93.8,2.81,2.81,0,0,0-.77,2,1.92,1.92,0,0,0,.49,1.37A1.69,1.69,0,0,0,88.67,19.74Z"/>
        <path class="cls-1" d="M100.42,15.77H98.54a.87.87,0,0,0,0-.18c0-.44-.26-.66-.79-.66a1.2,1.2,0,0,0-.86.28.86.86,0,0,0-.3.63.51.51,0,0,0,.26.44,1.39,1.39,0,0,0,.63.24c.25.05.52.11.81.19a7.64,7.64,0,0,1,.81.29,1.36,1.36,0,0,1,.63.56,1.71,1.71,0,0,1,.26,1,2.84,2.84,0,0,1-.93,2.23,3.61,3.61,0,0,1-2.51.83,3.12,3.12,0,0,1-2-.56,1.8,1.8,0,0,1-.75-1.53,2.15,2.15,0,0,1,0-.43h2a1.31,1.31,0,0,0,0,.23c0,.41.3.62.9.62a1.52,1.52,0,0,0,.93-.25A.83.83,0,0,0,98,19a.5.5,0,0,0-.25-.44,1.39,1.39,0,0,0-.62-.24c-.25-.05-.52-.11-.82-.2a5.92,5.92,0,0,1-.81-.29,1.39,1.39,0,0,1-.62-.56,1.71,1.71,0,0,1-.26-.95,2.87,2.87,0,0,1,.92-2.19,3.29,3.29,0,0,1,2.39-.86,2.77,2.77,0,0,1,1.84.59,1.9,1.9,0,0,1,.72,1.55A1.87,1.87,0,0,1,100.42,15.77Z"/>
        <path class="cls-2" d="M5.16,32.09c0,.13,0,.21,0,.24a.8.8,0,0,1-.22.07,1.67,1.67,0,0,1-.49,0,1.27,1.27,0,0,1-.78-.43,1.46,1.46,0,0,1-.39-.86,1.38,1.38,0,0,1,0-.53,5,5,0,0,1,.3-.86,11.34,11.34,0,0,1,.53-1c.21-.36.44-.74.69-1.13l.75-1.18c.26-.4.5-.79.74-1.17l.63-1.06a7.76,7.76,0,0,0-1.83,1.17,5.25,5.25,0,0,0-.82.81,2,2,0,0,0-.39.72.44.44,0,0,0,0,.28L4,27.4l-.35,0A1.17,1.17,0,0,1,3,27.3a1.23,1.23,0,0,1-.57-.46,1,1,0,0,1-.18-.34,1.3,1.3,0,0,1-.07-.41,1.36,1.36,0,0,1,0-.49,1.91,1.91,0,0,1,.18-.54,2.85,2.85,0,0,1,.69-.92,5.94,5.94,0,0,1,1.1-.82,10.31,10.31,0,0,1,1.37-.69,13.56,13.56,0,0,1,1.52-.51,9.2,9.2,0,0,1,2.12-.33,4.91,4.91,0,0,1,1,.05,3,3,0,0,1,.79.22,1.84,1.84,0,0,1,.52.36,1.25,1.25,0,0,1,.33.51,1.35,1.35,0,0,1,.85.78,1.19,1.19,0,0,1,.11.6,2.23,2.23,0,0,1-.14.69,3.15,3.15,0,0,1-.34.69,3.81,3.81,0,0,1-.54.71,6.32,6.32,0,0,1-1,.87A8.63,8.63,0,0,1,9.5,28,9.89,9.89,0,0,1,8,28.62a10.09,10.09,0,0,1-1.72.32c-.17.36-.32.71-.47,1s-.26.63-.37.9-.17.52-.23.73A1.24,1.24,0,0,0,5.16,32.09ZM7.21,27l-.49,1,.8-.47L8.38,27c.29-.21.57-.43.86-.66a9.23,9.23,0,0,0,.8-.73A6.2,6.2,0,0,0,11,24.45a2.1,2.1,0,0,0,.36-1.11A5.56,5.56,0,0,0,10,23.27a6.47,6.47,0,0,0-1.31.19,3.29,3.29,0,0,1-.19.6c-.09.25-.2.52-.34.83s-.3.64-.47,1S7.38,26.6,7.21,27Z"/>
        <path class="cls-2" d="M17.76,29a1.84,1.84,0,0,0,.59-.44,5.33,5.33,0,0,0,.63-.87l.14-.28a.29.29,0,0,1,.39-.16.21.21,0,0,1,.12.15.41.41,0,0,1-.05.27c-.11.2-.25.47-.44.8a11.19,11.19,0,0,1-.65,1,5,5,0,0,1-.45.56,5.55,5.55,0,0,1-.5.48,2.21,2.21,0,0,1-.52.32,1.24,1.24,0,0,1-.53.12,1,1,0,0,1-.39,0,1.44,1.44,0,0,1-.41-.21,1.36,1.36,0,0,1-.44-.72,2.12,2.12,0,0,1-.07-.45v-.12c-.18.26-.38.5-.58.74a4.52,4.52,0,0,1-.6.63,3.51,3.51,0,0,1-.59.43,1.23,1.23,0,0,1-.6.16,1.29,1.29,0,0,1-.82-.24,1.17,1.17,0,0,1-.43-.64,1.47,1.47,0,0,1-.09-.53,2.85,2.85,0,0,1,0-.64,5.36,5.36,0,0,1,.4-1.32,7.47,7.47,0,0,1,.63-1.18,6.58,6.58,0,0,1,.81-1,4.26,4.26,0,0,1,.93-.71,1.88,1.88,0,0,1,1-.25,1.71,1.71,0,0,1,.5.1,1.08,1.08,0,0,1,.43.32,2.45,2.45,0,0,1,.26.35,2.94,2.94,0,0,1,.23.47,3.11,3.11,0,0,1,.29-.33,1,1,0,0,1,.5-.29,1.31,1.31,0,0,1,.52,0,.49.49,0,0,1,.27.13.58.58,0,0,1,.21.25.76.76,0,0,1,0,.3.72.72,0,0,1-.2.31,4.27,4.27,0,0,0-.75,1.08,3.57,3.57,0,0,0-.24.6,2.24,2.24,0,0,0-.1.49.63.63,0,0,0,.09.4.21.21,0,0,0,.16.08A.6.6,0,0,0,17.76,29ZM16.13,26.2a.61.61,0,0,0-.58-.29,1,1,0,0,0-.5.24,2.91,2.91,0,0,0-.49.5,4.56,4.56,0,0,0-.46.71,5.35,5.35,0,0,0-.35.78,3.28,3.28,0,0,0-.23.91c0,.28,0,.45.16.53s.32,0,.57-.11a4.16,4.16,0,0,0,.86-.87c.14-.22.28-.44.41-.67s.24-.43.35-.61l0-.05,0-.05.3-.53a.33.33,0,0,0,.06-.25A.88.88,0,0,0,16.13,26.2Z"/>
        <path class="cls-2" d="M19.12,27.44l.55-1.08c.18-.37.34-.74.49-1.13a2,2,0,0,1-.25-.25.48.48,0,0,1-.14-.26,1,1,0,0,1,0-.37,1.34,1.34,0,0,1,.12-.24.23.23,0,0,1,.07-.1.6.6,0,0,1,.08-.08.59.59,0,0,1,.57-.18.4.4,0,0,1,.34.32,1.74,1.74,0,0,1,0,.63L20.8,25l.4.21a7.33,7.33,0,0,1,.73.42,1.3,1.3,0,0,1,.49.62,1.61,1.61,0,0,1,0,1c-.12.37-.25.73-.39,1.07a7,7,0,0,0-.29.7c-.07.2-.06.34,0,.4l0,0a.29.29,0,0,0,.26,0,1.49,1.49,0,0,0,.35-.23,3.23,3.23,0,0,0,.74-.83c.2-.32.38-.64.55-1a.31.31,0,0,1,.18-.16.25.25,0,0,1,.19,0,.28.28,0,0,1,.13.15.32.32,0,0,1,0,.26c-.19.34-.38.68-.58,1s-.4.66-.61,1l-.48.62a4.26,4.26,0,0,1-.5.53,3.49,3.49,0,0,1-.53.38,1.26,1.26,0,0,1-.51.16,1.47,1.47,0,0,1-.46-.06,1,1,0,0,1-.66-.47,1.54,1.54,0,0,1-.19-.77,2.08,2.08,0,0,1,0-.43c0-.15.05-.3.08-.45a7.94,7.94,0,0,1,.28-.77c.1-.25.22-.49.34-.73s.24-.53.34-.78a2.34,2.34,0,0,0,.17-.68.45.45,0,0,0-.06-.32,1.67,1.67,0,0,0-.24-.32c-.15.37-.31.71-.48,1l-.51,1a.32.32,0,0,1-.18.15.43.43,0,0,1-.2,0,.28.28,0,0,1-.12-.14A.29.29,0,0,1,19.12,27.44Z"/>
        <path class="cls-2" d="M29.27,29a2,2,0,0,0,.59-.44,4.8,4.8,0,0,0,.62-.87l.14-.28a.31.31,0,0,1,.19-.17.3.3,0,0,1,.21,0,.21.21,0,0,1,.12.15.37.37,0,0,1-.06.27c-.1.2-.25.47-.44.8a11,11,0,0,1-.64,1,4.15,4.15,0,0,1-.46.56,5.49,5.49,0,0,1-.49.48,2.21,2.21,0,0,1-.52.32A1.28,1.28,0,0,1,28,31a1,1,0,0,1-.39,0,1.22,1.22,0,0,1-.41-.21,1.15,1.15,0,0,1-.29-.33,1.68,1.68,0,0,1-.16-.39,3.06,3.06,0,0,1-.06-.45v-.12c-.19.26-.38.5-.58.74a6.1,6.1,0,0,1-.6.63,3.2,3.2,0,0,1-.6.43,1.22,1.22,0,0,1-.59.16,1.29,1.29,0,0,1-.82-.24,1.24,1.24,0,0,1-.44-.64A2.09,2.09,0,0,1,23,30a3.59,3.59,0,0,1,.05-.64A5.88,5.88,0,0,1,23.43,28a7,7,0,0,1,1.44-2.21,3.83,3.83,0,0,1,.93-.71,1.85,1.85,0,0,1,1-.25,1.71,1.71,0,0,1,.51.1,1.15,1.15,0,0,1,.43.32,2.45,2.45,0,0,1,.26.35c.07.13.15.29.23.47a3.11,3.11,0,0,1,.29-.33.92.92,0,0,1,.49-.29,1.36,1.36,0,0,1,.53,0,.43.43,0,0,1,.26.13.47.47,0,0,1,.21.25.51.51,0,0,1,0,.3.69.69,0,0,1-.19.31,4.33,4.33,0,0,0-.43.53,6.16,6.16,0,0,0-.33.55,3.48,3.48,0,0,0-.23.6,2.24,2.24,0,0,0-.1.49.7.7,0,0,0,.08.4.25.25,0,0,0,.17.08A.62.62,0,0,0,29.27,29ZM27.64,26.2a.62.62,0,0,0-.59-.29,1,1,0,0,0-.49.24,3.37,3.37,0,0,0-.5.5,5.43,5.43,0,0,0-.46.71,6.68,6.68,0,0,0-.35.78,3.68,3.68,0,0,0-.23.91c0,.28,0,.45.16.53s.32,0,.58-.11a4.42,4.42,0,0,0,.86-.87c.14-.22.27-.44.4-.67s.25-.43.35-.61l0-.05,0-.05.29-.53c.07-.11.09-.19.06-.25A1.09,1.09,0,0,0,27.64,26.2Z"/>
        <path class="cls-2" d="M35,23.43h.63l.79,0a13.8,13.8,0,0,1,1.15-1.52h0a.59.59,0,0,1,.6-.16.68.68,0,0,1,.26.11.73.73,0,0,1,.21.23.46.46,0,0,1,.06.23.41.41,0,0,1-.07.23h0c-.09.16-.19.32-.29.48s-.19.34-.3.52l.31.05a.36.36,0,0,1,.2.11.51.51,0,0,1,.09.18.32.32,0,0,1,0,.17.12.12,0,0,1-.11.07l-.39,0h-.41l-.47.87-.46.88c-.24.48-.46.94-.66,1.36a10,10,0,0,0-.43,1.09,1.24,1.24,0,0,0-.07.89.21.21,0,0,0,.17.13.39.39,0,0,0,.19,0l.21-.05a1.91,1.91,0,0,0,.58-.31,4.51,4.51,0,0,0,.51-.47,4.43,4.43,0,0,0,.43-.54c.12-.19.24-.38.34-.57a.23.23,0,0,1,.18-.14.21.21,0,0,1,.19,0,.24.24,0,0,1,.12.14.32.32,0,0,1,0,.23c-.08.13-.18.31-.31.51s-.28.43-.44.67a8.55,8.55,0,0,1-.54.73c-.19.25-.39.48-.6.71a4.58,4.58,0,0,1-.86.75,1.7,1.7,0,0,1-.86.32,1.61,1.61,0,0,1-.62-.1,1.25,1.25,0,0,1-.67-.61,2,2,0,0,1-.14-.41c0-.15,0-.3,0-.46a3.51,3.51,0,0,1,.07-.72,6.08,6.08,0,0,1,.19-.68,17.28,17.28,0,0,1,.74-1.64c.3-.58.62-1.16,1-1.73l.51-.82-.53,0a.51.51,0,0,1-.37-.11.71.71,0,0,1-.24-.28.43.43,0,0,1,0-.29C34.75,23.49,34.83,23.44,35,23.43Z"/>
        <path class="cls-2" d="M43.58,29a2,2,0,0,0,.59-.44,4.8,4.8,0,0,0,.62-.87l.08-.14a1,1,0,0,1,.08-.14.32.32,0,0,1,.18-.18.21.21,0,0,1,.19,0,.25.25,0,0,1,.12.17.55.55,0,0,1-.07.31c-.12.21-.26.48-.44.79s-.39.63-.62.95a6.35,6.35,0,0,1-1,1,1.62,1.62,0,0,1-1,.44.71.71,0,0,1-.39,0,1.06,1.06,0,0,1-.7-.53,1.7,1.7,0,0,1-.21-.85h0c0,.07-.1.15-.16.22s-.1.15-.16.22a5.51,5.51,0,0,1-1,1,1.75,1.75,0,0,1-1.09.4,1.24,1.24,0,0,1-.41-.05,1.2,1.2,0,0,1-.33-.13,1,1,0,0,1-.42-.45,1.77,1.77,0,0,1-.17-.64,3,3,0,0,1,.05-.72,6.3,6.3,0,0,1,.19-.78,8,8,0,0,1,.38-.94c.15-.31.31-.62.49-.92s.38-.58.58-.85a9.49,9.49,0,0,1,.63-.73A.6.6,0,0,1,40,25a1.17,1.17,0,0,1,.49.07l.15.06.13.08a.82.82,0,0,1,.21.25.5.5,0,0,1-.07.58c-.13.19-.26.39-.4.62l-.39.67c-.12.23-.24.46-.34.69a6.19,6.19,0,0,0-.25.66,3,3,0,0,0-.14.56c0,.16,0,.26.07.3v0c.16.09.38,0,.65-.15a3.77,3.77,0,0,0,.48-.44c.17-.19.34-.4.52-.64l.45-.82a1.42,1.42,0,0,1,.08-.18,1,1,0,0,1,.1-.17,8.92,8.92,0,0,1,.52-.82,5.63,5.63,0,0,1,.51-.6.92.92,0,0,1,.49-.29,1.36,1.36,0,0,1,.53,0l.14.05.14.08a.54.54,0,0,1,.19.25.58.58,0,0,1-.19.61,5.25,5.25,0,0,0-.43.53c-.12.19-.23.38-.33.56a4.24,4.24,0,0,0-.23.6,2.17,2.17,0,0,0-.1.48.58.58,0,0,0,.1.4.16.16,0,0,0,.15.08A.62.62,0,0,0,43.58,29Z"/>
        <path class="cls-2" d="M51.12,27.5a.89.89,0,0,0,.39-.4,3.08,3.08,0,0,0,.27-.65,2.16,2.16,0,0,0,.1-.63c0-.19,0-.31-.11-.36a.19.19,0,0,0-.14,0,1.77,1.77,0,0,0-.64.57,8.58,8.58,0,0,0-.72,1.09,7.9,7.9,0,0,0-.47,1.1,2,2,0,0,0-.08.91.61.61,0,0,0,.6.53,2,2,0,0,0,.88-.11,4.12,4.12,0,0,0,.93-.48,5,5,0,0,0,.89-.72,4.7,4.7,0,0,0,.71-.86l.05-.07a.27.27,0,0,1,.18-.15.24.24,0,0,1,.19,0,.21.21,0,0,1,.11.17.33.33,0,0,1-.07.27c-.14.22-.3.47-.48.73s-.39.51-.61.77a9.74,9.74,0,0,1-.7.74,6.19,6.19,0,0,1-.76.63,4.35,4.35,0,0,1-1.29.65,2.16,2.16,0,0,1-1.33,0,1.47,1.47,0,0,1-.9-.67,2.06,2.06,0,0,1-.27-1.06,3,3,0,0,1,.07-.66,4.46,4.46,0,0,1,.18-.67,5.88,5.88,0,0,1,.68-1.32,6.34,6.34,0,0,1,.69-.86,4.79,4.79,0,0,1,.78-.67,2.58,2.58,0,0,1,.83-.38,1.47,1.47,0,0,1,.83,0,1.82,1.82,0,0,1,.67.32,1,1,0,0,1,.34.7,1.42,1.42,0,0,1,0,.58,1.44,1.44,0,0,1-.25.53,1.77,1.77,0,0,1-.4.42,1.56,1.56,0,0,1-.5.25.48.48,0,0,1-.18,0,.78.78,0,0,1-.22,0,.46.46,0,0,1-.17-.09A.22.22,0,0,1,51.12,27.5Z"/>
        <path class="cls-2" d="M59.34,29a2,2,0,0,0,.59-.44,4.8,4.8,0,0,0,.62-.87l.14-.28a.31.31,0,0,1,.19-.17.3.3,0,0,1,.21,0,.21.21,0,0,1,.12.15.37.37,0,0,1-.06.27c-.1.2-.25.47-.44.8a11,11,0,0,1-.64,1,4.15,4.15,0,0,1-.46.56,5.49,5.49,0,0,1-.49.48,2.21,2.21,0,0,1-.52.32,1.28,1.28,0,0,1-.53.12,1,1,0,0,1-.39,0,1.22,1.22,0,0,1-.41-.21,1.15,1.15,0,0,1-.29-.33,1.68,1.68,0,0,1-.16-.39,3.06,3.06,0,0,1-.06-.45v-.12c-.19.26-.38.5-.58.74a6.1,6.1,0,0,1-.6.63,3.2,3.2,0,0,1-.6.43,1.22,1.22,0,0,1-.59.16,1.29,1.29,0,0,1-.82-.24,1.24,1.24,0,0,1-.44-.64A2.09,2.09,0,0,1,53,30a3.59,3.59,0,0,1,.05-.64A5.88,5.88,0,0,1,53.5,28a7,7,0,0,1,1.44-2.21,3.83,3.83,0,0,1,.93-.71,1.85,1.85,0,0,1,1-.25,1.71,1.71,0,0,1,.51.1,1.15,1.15,0,0,1,.43.32,2.45,2.45,0,0,1,.26.35c.07.13.15.29.23.47a3.11,3.11,0,0,1,.29-.33.92.92,0,0,1,.49-.29,1.36,1.36,0,0,1,.53,0,.43.43,0,0,1,.26.13.47.47,0,0,1,.21.25.51.51,0,0,1,0,.3.69.69,0,0,1-.19.31,4.33,4.33,0,0,0-.43.53,6.16,6.16,0,0,0-.33.55,3.48,3.48,0,0,0-.23.6,2.24,2.24,0,0,0-.1.49.7.7,0,0,0,.08.4.25.25,0,0,0,.17.08A.62.62,0,0,0,59.34,29ZM57.71,26.2a.62.62,0,0,0-.59-.29,1,1,0,0,0-.49.24,3.37,3.37,0,0,0-.5.5,5.43,5.43,0,0,0-.46.71,6.68,6.68,0,0,0-.35.78,3.68,3.68,0,0,0-.23.91c0,.28,0,.45.16.53s.32,0,.58-.11a4.42,4.42,0,0,0,.86-.87c.14-.22.27-.44.4-.67s.25-.43.35-.61l0-.05,0-.05.29-.53c.07-.11.09-.19.06-.25A1.09,1.09,0,0,0,57.71,26.2Z"/>
        <path class="cls-2" d="M65.67,29a2.06,2.06,0,0,0,.58-.44,4.79,4.79,0,0,0,.64-.87l.14-.28a.28.28,0,0,1,.17-.15.25.25,0,0,1,.19,0,.34.34,0,0,1,.12.16.32.32,0,0,1,0,.24c-.1.19-.24.46-.43.79a11,11,0,0,1-.64,1,4.15,4.15,0,0,1-.46.56,4.41,4.41,0,0,1-.49.48,2.21,2.21,0,0,1-.52.32,1.24,1.24,0,0,1-.53.12,1,1,0,0,1-.4,0,1.16,1.16,0,0,1-.7-.53,2.26,2.26,0,0,1-.21-.85,2.45,2.45,0,0,1,.1-.74,5.58,5.58,0,0,1,.23-.69q.15-.36.33-.72a10.93,10.93,0,0,0-1.36,1.45,6.27,6.27,0,0,0-.9,1.57,2.28,2.28,0,0,0,0,.64c0,.13,0,.21,0,.24a.45.45,0,0,1-.22.06,1.32,1.32,0,0,1-.45,0,1.49,1.49,0,0,1-.68-.39,1.4,1.4,0,0,1-.32-.77,2.37,2.37,0,0,1,0-.51,6.82,6.82,0,0,1,.37-1.2,11.37,11.37,0,0,1,.58-1.23,9.76,9.76,0,0,1,.75-1.17,7.44,7.44,0,0,1,.8-.92.5.5,0,0,1,.28-.16.86.86,0,0,1,.32,0,.58.58,0,0,1,.26.13.52.52,0,0,1,.2.22.43.43,0,0,1,0,.46c-.22.36-.42.72-.62,1.1s-.39.77-.55,1.15a13.41,13.41,0,0,1,1.52-1.77A7.43,7.43,0,0,1,65.39,25a1,1,0,0,1,.44-.18,1.23,1.23,0,0,1,.43,0,1.38,1.38,0,0,1,.28.13.58.58,0,0,1,.21.26.76.76,0,0,1,0,.3.72.72,0,0,1-.2.31,4.78,4.78,0,0,0-.48.62c-.16.25-.31.5-.45.76s-.27.56-.37.81a2.46,2.46,0,0,0-.15.58.7.7,0,0,0,.08.4.24.24,0,0,0,.17.08A.6.6,0,0,0,65.67,29Z"/>
        <path class="cls-2" d="M72.59,29a2,2,0,0,0,.59-.44,4.8,4.8,0,0,0,.62-.87l.14-.28a.31.31,0,0,1,.19-.17.3.3,0,0,1,.21,0,.21.21,0,0,1,.12.15.37.37,0,0,1-.06.27c-.1.2-.25.47-.44.8a11,11,0,0,1-.64,1,4.15,4.15,0,0,1-.46.56,5.49,5.49,0,0,1-.49.48,2.21,2.21,0,0,1-.52.32,1.28,1.28,0,0,1-.53.12,1,1,0,0,1-.39,0,1.22,1.22,0,0,1-.41-.21,1.15,1.15,0,0,1-.29-.33,1.68,1.68,0,0,1-.16-.39,3.06,3.06,0,0,1-.06-.45v-.12c-.19.26-.38.5-.58.74a6.1,6.1,0,0,1-.6.63,3.2,3.2,0,0,1-.6.43,1.22,1.22,0,0,1-.59.16,1.29,1.29,0,0,1-.82-.24,1.24,1.24,0,0,1-.44-.64,2.09,2.09,0,0,1-.09-.53,3.59,3.59,0,0,1,0-.64A5.88,5.88,0,0,1,66.75,28a7,7,0,0,1,1.44-2.21,3.83,3.83,0,0,1,.93-.71,1.85,1.85,0,0,1,1-.25,1.71,1.71,0,0,1,.51.1,1.15,1.15,0,0,1,.43.32,2.45,2.45,0,0,1,.26.35c.07.13.15.29.23.47a3.11,3.11,0,0,1,.29-.33.92.92,0,0,1,.49-.29,1.36,1.36,0,0,1,.53,0,.43.43,0,0,1,.26.13.47.47,0,0,1,.21.25.51.51,0,0,1,0,.3.69.69,0,0,1-.19.31,4.33,4.33,0,0,0-.43.53,6.16,6.16,0,0,0-.33.55,3.48,3.48,0,0,0-.23.6,2.24,2.24,0,0,0-.1.49.7.7,0,0,0,.08.4.25.25,0,0,0,.17.08A.62.62,0,0,0,72.59,29ZM71,26.2a.62.62,0,0,0-.59-.29,1,1,0,0,0-.49.24,3.37,3.37,0,0,0-.5.5,5.43,5.43,0,0,0-.46.71,6.68,6.68,0,0,0-.35.78,3.68,3.68,0,0,0-.23.91c0,.28,0,.45.16.53s.32,0,.58-.11a4.42,4.42,0,0,0,.86-.87c.14-.22.27-.44.4-.67s.25-.43.35-.61l0-.05,0-.05.29-.53c.07-.11.09-.19.06-.25A1.09,1.09,0,0,0,71,26.2Z"/>
        <path class="cls-2" d="M73.68,28.56c.15.05.35.1.61.16a5.35,5.35,0,0,0,.88.12c0-.26.08-.54.13-.85s.11-.6.17-.9a8.08,8.08,0,0,1,.22-.88,3.78,3.78,0,0,1,.33-.76l0,0a1.75,1.75,0,0,0-.34.29,3.92,3.92,0,0,0-.36.42,6.66,6.66,0,0,0-.44.7c-.16.28-.31.54-.44.79a.3.3,0,0,1-.19.15.27.27,0,0,1-.2,0,.31.31,0,0,1-.12-.15.3.3,0,0,1,0-.23c.13-.27.28-.54.45-.82s.33-.52.47-.74a5.33,5.33,0,0,1,.42-.49A2.24,2.24,0,0,1,75.7,25a1.19,1.19,0,0,1,.49-.17,2,2,0,0,1,.54,0,3.46,3.46,0,0,1,.53.14l.45.21c.07.05.12.09.12.13s0,.14-.11.29a2.66,2.66,0,0,0-.3.71,7.08,7.08,0,0,0-.16.8c0,.28-.06.55-.07.83s0,.55,0,.8a1.62,1.62,0,0,0,.51-.21,2.3,2.3,0,0,0,.43-.34,2.66,2.66,0,0,0,.36-.4c.1-.14.19-.28.27-.41a.41.41,0,0,1,.19-.18.23.23,0,0,1,.2,0,.24.24,0,0,1,.11.16.4.4,0,0,1-.06.28,5.08,5.08,0,0,1-1,1.31,2.51,2.51,0,0,1-1.07.67,1.79,1.79,0,0,1-.07.48,2.41,2.41,0,0,1-.21.5,1.75,1.75,0,0,1-.38.45,1.49,1.49,0,0,1-.57.31,1.83,1.83,0,0,1-1,0,2,2,0,0,1-1.3-.87,3.3,3.3,0,0,1-.47-1.7.46.46,0,0,1,.1-.29C73.35,28.49,73.48,28.49,73.68,28.56Zm.12,1a1.25,1.25,0,0,0,.45.63.42.42,0,0,0,.33,0,.85.85,0,0,0,.28-.18.79.79,0,0,0,.17-.39,1.29,1.29,0,0,1-.42-.1l-.39-.15a2,2,0,0,1-.3-.18l-.19-.13,0,.24C73.77,29.44,73.79,29.52,73.8,29.59Z"/>
        <path class="cls-2" d="M79.62,23.43h.64l.78,0a15.08,15.08,0,0,1,1.16-1.52h0a.56.56,0,0,1,.59-.16.67.67,0,0,1,.27.11,1.1,1.1,0,0,1,.21.23.46.46,0,0,1,0,.23.41.41,0,0,1-.07.23h0c-.09.16-.18.32-.28.48s-.2.34-.3.52l.31.05a.33.33,0,0,1,.19.11.31.31,0,0,1,.09.18.25.25,0,0,1,0,.17.1.1,0,0,1-.11.07l-.39,0h-.4l-.48.87c-.15.3-.31.59-.46.88-.24.48-.46.94-.65,1.36a10.35,10.35,0,0,0-.44,1.09c-.13.44-.16.74-.06.89a.19.19,0,0,0,.16.13.4.4,0,0,0,.19,0l.22-.05a2,2,0,0,0,.58-.31,4.51,4.51,0,0,0,.51-.47,4.34,4.34,0,0,0,.42-.54,5.7,5.7,0,0,0,.34-.57.27.27,0,0,1,.18-.14.23.23,0,0,1,.2,0,.33.33,0,0,1,.12.14.29.29,0,0,1,0,.23c-.07.13-.17.31-.3.51s-.28.43-.44.67-.35.49-.54.73-.4.48-.6.71a5.3,5.3,0,0,1-.86.75,1.7,1.7,0,0,1-.87.32,1.56,1.56,0,0,1-.61-.1,1.25,1.25,0,0,1-.67-.61,1.53,1.53,0,0,1-.14-.41,3.4,3.4,0,0,1-.06-.46,3.53,3.53,0,0,1,.08-.72,4.5,4.5,0,0,1,.19-.68,15.08,15.08,0,0,1,.74-1.64c.29-.58.61-1.16,1-1.73l.5-.82-.53,0a.48.48,0,0,1-.36-.11.83.83,0,0,1-.25-.28.37.37,0,0,1,0-.29C79.4,23.49,79.48,23.44,79.62,23.43Z"/>
        <path class="cls-2" d="M88.27,29a1.93,1.93,0,0,0,.58-.44,4.36,4.36,0,0,0,.63-.87l.14-.28a.31.31,0,0,1,.19-.17.3.3,0,0,1,.21,0,.21.21,0,0,1,.12.15.37.37,0,0,1-.06.27c-.1.2-.25.47-.44.8a9.33,9.33,0,0,1-.65,1,5,5,0,0,1-.45.56,4.48,4.48,0,0,1-.5.48,2,2,0,0,1-.51.32A1.28,1.28,0,0,1,87,31a1,1,0,0,1-.39,0,1.22,1.22,0,0,1-.41-.21,1.15,1.15,0,0,1-.29-.33,1.34,1.34,0,0,1-.16-.39,3.06,3.06,0,0,1-.06-.45v-.12c-.19.26-.38.5-.58.74a6.1,6.1,0,0,1-.6.63,3.2,3.2,0,0,1-.6.43,1.22,1.22,0,0,1-.59.16,1.32,1.32,0,0,1-.83-.24,1.22,1.22,0,0,1-.43-.64A2.09,2.09,0,0,1,82,30a3.59,3.59,0,0,1,0-.64,5.83,5.83,0,0,1,.4-1.32,7.47,7.47,0,0,1,.63-1.18,6.09,6.09,0,0,1,.82-1,4,4,0,0,1,.92-.71,1.91,1.91,0,0,1,1-.25,1.65,1.65,0,0,1,.5.1,1.18,1.18,0,0,1,.44.32,2.41,2.41,0,0,1,.25.35,2.94,2.94,0,0,1,.23.47,3.18,3.18,0,0,1,.3-.33.92.92,0,0,1,.49-.29,1.31,1.31,0,0,1,.52,0,.43.43,0,0,1,.27.13.58.58,0,0,1,.21.25.51.51,0,0,1,0,.3.64.64,0,0,1-.2.31A5.08,5.08,0,0,0,88,27.53a4.68,4.68,0,0,0-.24.6,2.88,2.88,0,0,0-.09.49.63.63,0,0,0,.08.4.23.23,0,0,0,.17.08A.62.62,0,0,0,88.27,29ZM86.64,26.2a.63.63,0,0,0-.59-.29,1,1,0,0,0-.5.24,3.33,3.33,0,0,0-.49.5,4.56,4.56,0,0,0-.46.71,5.35,5.35,0,0,0-.35.78,3.28,3.28,0,0,0-.23.91c0,.28,0,.45.16.53s.32,0,.57-.11a4.43,4.43,0,0,0,.87-.87c.14-.22.27-.44.4-.67l.35-.61,0-.05,0-.05.29-.53c.06-.11.09-.19.06-.25A1.09,1.09,0,0,0,86.64,26.2Z"/>
        <path class="cls-2" d="M97.71,27.7A3.46,3.46,0,0,1,96.45,29a3,3,0,0,1-1.75.42,8.58,8.58,0,0,1,.35,1.88,6.35,6.35,0,0,1-.14,1.87,2.7,2.7,0,0,1-.44.95,1.55,1.55,0,0,1-.65.48,1.3,1.3,0,0,1-.73,0,1.48,1.48,0,0,1-.64-.42,2.39,2.39,0,0,1-.51-1.11,4.63,4.63,0,0,1,0-1.82,13.84,13.84,0,0,1,.55-2.2c.27-.79.57-1.58.93-2.37a20.19,20.19,0,0,1,1.14-2.28,11.17,11.17,0,0,1,1.2-1.73h0a.93.93,0,0,1,.5-.26,1.89,1.89,0,0,1,.63,0,1.2,1.2,0,0,1,.53.15.91.91,0,0,1,.4.34.5.5,0,0,1,0,.47l0,.09a11.45,11.45,0,0,0-1.36,1.75,23,23,0,0,0-1.28,2.24l-.28.58c-.08.18-.17.37-.26.59a3,3,0,0,0,.73,0,2.9,2.9,0,0,0,.73-.19,2.37,2.37,0,0,0,.64-.4,2.14,2.14,0,0,0,.49-.59.34.34,0,0,1,.2-.18.25.25,0,0,1,.19,0,.28.28,0,0,1,.12.16A.32.32,0,0,1,97.71,27.7Zm-3.49,1.92c-.19.5-.36,1-.49,1.41a8.9,8.9,0,0,0-.3,1.18,2,2,0,0,0,0,.85c0,.18.13.27.23.26s.23-.09.35-.26a2.21,2.21,0,0,0,.32-.72A4.48,4.48,0,0,0,94.43,31,6.08,6.08,0,0,0,94.22,29.62Z"/>
        <path class="cls-2" d="M102.81,29a1.84,1.84,0,0,0,.59-.44,5.33,5.33,0,0,0,.63-.87l.14-.28a.29.29,0,0,1,.19-.17.27.27,0,0,1,.2,0,.21.21,0,0,1,.12.15.41.41,0,0,1-.05.27c-.1.2-.25.47-.44.8a11.19,11.19,0,0,1-.65,1,5,5,0,0,1-.45.56,5.55,5.55,0,0,1-.5.48,2.38,2.38,0,0,1-.51.32,1.31,1.31,0,0,1-.53.12,1,1,0,0,1-.4,0,1.44,1.44,0,0,1-.41-.21,1.36,1.36,0,0,1-.44-.72,2.12,2.12,0,0,1-.07-.45v-.12c-.18.26-.38.5-.58.74a5.14,5.14,0,0,1-.59.63,3.56,3.56,0,0,1-.6.43,1.23,1.23,0,0,1-.6.16,1.31,1.31,0,0,1-.82-.24,1.22,1.22,0,0,1-.43-.64,1.47,1.47,0,0,1-.09-.53,2.85,2.85,0,0,1,0-.64A5.83,5.83,0,0,1,97,28a7.47,7.47,0,0,1,.63-1.18,6.58,6.58,0,0,1,.81-1,4.26,4.26,0,0,1,.93-.71,1.88,1.88,0,0,1,1-.25,1.71,1.71,0,0,1,.5.1,1.08,1.08,0,0,1,.43.32,1.87,1.87,0,0,1,.26.35,2.94,2.94,0,0,1,.23.47,3.11,3.11,0,0,1,.29-.33,1,1,0,0,1,.5-.29,1.31,1.31,0,0,1,.52,0,.49.49,0,0,1,.27.13.58.58,0,0,1,.21.25.76.76,0,0,1,0,.3.72.72,0,0,1-.2.31,4.27,4.27,0,0,0-.75,1.08,3.57,3.57,0,0,0-.24.6,2.24,2.24,0,0,0-.1.49.63.63,0,0,0,.09.4.21.21,0,0,0,.16.08A.6.6,0,0,0,102.81,29Zm-1.63-2.83a.6.6,0,0,0-.58-.29,1,1,0,0,0-.5.24,3.33,3.33,0,0,0-.49.5,4.56,4.56,0,0,0-.46.71,5.35,5.35,0,0,0-.35.78,3.28,3.28,0,0,0-.23.91c0,.28,0,.45.16.53s.32,0,.57-.11a4.16,4.16,0,0,0,.86-.87c.14-.22.28-.44.41-.67l.35-.61,0-.05,0-.05.3-.53a.33.33,0,0,0,.06-.25A.88.88,0,0,0,101.18,26.2Z"/>
        <path class="cls-2" d="M106.87,25.35a.43.43,0,0,1,0,.46c-.24.4-.47.82-.69,1.24a13.16,13.16,0,0,0-.6,1.27,10.82,10.82,0,0,1,.83-1c.3-.33.61-.63.93-.92s.64-.54,1-.77a5.88,5.88,0,0,1,.93-.56.8.8,0,0,1,.47-.06.84.84,0,0,1,.27.13.49.49,0,0,1,.19.22.43.43,0,0,1,0,.46c-.28.48-.54.93-.77,1.36a13.44,13.44,0,0,0-.58,1.24q-.11.27-.21.57a13.27,13.27,0,0,1,.8-1.21,11.48,11.48,0,0,1,.95-1.14,10.49,10.49,0,0,1,1.05-1,5.31,5.31,0,0,1,1-.68.91.91,0,0,1,.41-.14,1,1,0,0,1,.39,0,.74.74,0,0,1,.47.39.55.55,0,0,1-.19.61,4.78,4.78,0,0,0-.48.62,6.49,6.49,0,0,0-.44.76,5.74,5.74,0,0,0-.38.81,2,2,0,0,0-.15.58.65.65,0,0,0,.09.4.17.17,0,0,0,.16.08.71.71,0,0,0,.33-.07,1.9,1.9,0,0,0,.57-.44,4.36,4.36,0,0,0,.63-.87s0-.1.08-.14l.06-.14a.41.41,0,0,1,.2-.21.27.27,0,0,1,.2,0,.25.25,0,0,1,.12.17.42.42,0,0,1-.06.29c-.1.2-.25.47-.44.8a11.19,11.19,0,0,1-.65,1,5,5,0,0,1-.45.56,4.48,4.48,0,0,1-.5.48,2.16,2.16,0,0,1-.51.32,1.31,1.31,0,0,1-.53.12,1,1,0,0,1-.39,0,1.21,1.21,0,0,1-.41-.2,1,1,0,0,1-.29-.33,1.7,1.7,0,0,1-.21-.85,2.38,2.38,0,0,1,0-.38c0-.12,0-.24.07-.36a6.34,6.34,0,0,1,.26-.72,7.35,7.35,0,0,1,.34-.76,11.13,11.13,0,0,0-1.36,1.47,6.24,6.24,0,0,0-.92,1.63c0,.08,0,.13,0,.15a.4.4,0,0,1-.2,0,1.31,1.31,0,0,1-.45,0,1.26,1.26,0,0,1-.68-.39,1.22,1.22,0,0,1-.32-.77,1.87,1.87,0,0,1,0-.51,4.73,4.73,0,0,1,.19-.74,7,7,0,0,1,.3-.7,10.31,10.31,0,0,0-1.42,1.38,5.37,5.37,0,0,0-.94,1.54,2.28,2.28,0,0,0,0,.64.38.38,0,0,1,0,.23s-.1.06-.23.07a1.21,1.21,0,0,1-.43,0,1.46,1.46,0,0,1-.7-.39,1.26,1.26,0,0,1-.3-.77,1.29,1.29,0,0,1,0-.51,6.82,6.82,0,0,1,.37-1.2,11.58,11.58,0,0,1,.6-1.23,8.56,8.56,0,0,1,.73-1.17,8.42,8.42,0,0,1,.81-.92.53.53,0,0,1,.29-.16.81.81,0,0,1,.31,0,1.36,1.36,0,0,1,.27.13A.6.6,0,0,1,106.87,25.35Z"/>
        <path class="cls-2" d="M115.92,29a1.84,1.84,0,0,0,.59-.44,5.33,5.33,0,0,0,.63-.87l.14-.28a.33.33,0,0,1,.19-.18.27.27,0,0,1,.2,0,.4.4,0,0,1,.12.16.3.3,0,0,1-.05.24c-.1.2-.25.46-.44.8s-.41.67-.65,1a5,5,0,0,1-.45.56,5.55,5.55,0,0,1-.5.48,2.21,2.21,0,0,1-.52.32,1.24,1.24,0,0,1-.53.12.93.93,0,0,1-.38,0,1.06,1.06,0,0,1-.7-.53,2,2,0,0,1-.23-.85,2.82,2.82,0,0,1,.1-.74,5.47,5.47,0,0,1,.34-.92,11.49,11.49,0,0,1,1.16-2,8.2,8.2,0,0,1,.59-.74,1,1,0,0,1,.49-.29,1.31,1.31,0,0,1,.52,0,.66.66,0,0,1,.28.13.48.48,0,0,1,.19.26.57.57,0,0,1-.18.62,5,5,0,0,0-.5.63,6.59,6.59,0,0,0-.45.76,5,5,0,0,0-.37.79,2.1,2.1,0,0,0-.16.57.63.63,0,0,0,.09.4.21.21,0,0,0,.16.08A.6.6,0,0,0,115.92,29Zm1.85-6.5a.72.72,0,0,1,.57.24.9.9,0,0,1,.17.26.81.81,0,0,1,.06.31.41.41,0,0,1-.15.3l-.34.28c-.13.09-.24.18-.36.28a.67.67,0,0,0-.21.29c0,.07-.09.1-.19.08a.62.62,0,0,1-.48-.43,1.24,1.24,0,0,1,0-.69,1.49,1.49,0,0,1,.35-.64A.78.78,0,0,1,117.77,22.53Z"/>
        <path class="cls-2" d="M121.91,27.44a.23.23,0,0,1,.17-.14.25.25,0,0,1,.19,0,.23.23,0,0,1,.12.15.29.29,0,0,1,0,.23l-.38.64c-.16.27-.35.55-.56.85s-.45.59-.71.88a4.74,4.74,0,0,1-.8.76,2.92,2.92,0,0,1-.85.48,1.31,1.31,0,0,1-.85.05,1.45,1.45,0,0,1-.86-.6,2.35,2.35,0,0,1-.37-1.08,4.63,4.63,0,0,1,.08-1.41,7.75,7.75,0,0,1,.51-1.57,16,16,0,0,1,.93-1.79,12.36,12.36,0,0,1,1.1-1.57,6.28,6.28,0,0,1,1.11-1.09,1.49,1.49,0,0,1,1-.38.92.92,0,0,1,.76.39,1.15,1.15,0,0,1,.2.89,2.32,2.32,0,0,1-.26.75,6.81,6.81,0,0,1-.51.82q-.3.41-.66.81c-.25.26-.48.5-.72.72s-.44.41-.64.57a4.9,4.9,0,0,1-.48.36,2.48,2.48,0,0,0-.19.53,4,4,0,0,0-.11.78,2.14,2.14,0,0,0,.07.73.45.45,0,0,0,.41.34,1.16,1.16,0,0,0,.73-.21,4.16,4.16,0,0,0,.69-.59,6.33,6.33,0,0,0,.57-.71C121.7,27.8,121.82,27.6,121.91,27.44Zm-2.15-1.24.33-.32.51-.57.57-.69c.19-.25.36-.48.51-.7a3.92,3.92,0,0,0,.32-.58c.07-.16.08-.28,0-.33s-.14,0-.25.06a3.82,3.82,0,0,0-.39.44c-.15.2-.31.42-.47.68l-.47.76-.4.72C119.92,25.9,119.82,26.07,119.76,26.2Z"/>
        <path class="cls-2" d="M123.83,29a2,2,0,0,0,.59-.44,5.33,5.33,0,0,0,.63-.87l.13-.28a.37.37,0,0,1,.2-.18.27.27,0,0,1,.2,0,.31.31,0,0,1,.11.16.26.26,0,0,1,0,.24l-.44.8c-.19.33-.41.67-.65,1a4.15,4.15,0,0,1-.46.56,4.41,4.41,0,0,1-.49.48,2.21,2.21,0,0,1-.52.32,1.24,1.24,0,0,1-.53.12,1,1,0,0,1-.39,0,1,1,0,0,1-.69-.53,2,2,0,0,1-.23-.85,2.82,2.82,0,0,1,.1-.74,5.39,5.39,0,0,1,.33-.92c.15-.32.31-.62.48-.92a9.87,9.87,0,0,1,.69-1.07,6.74,6.74,0,0,1,.59-.74.92.92,0,0,1,.49-.29,1.31,1.31,0,0,1,.52,0,.57.57,0,0,1,.27.13.45.45,0,0,1,.2.26.61.61,0,0,1-.18.62,4.2,4.2,0,0,0-.5.63,6.59,6.59,0,0,0-.45.76,6.23,6.23,0,0,0-.38.79,2.41,2.41,0,0,0-.15.57.7.7,0,0,0,.08.4.24.24,0,0,0,.17.08A.6.6,0,0,0,123.83,29Zm1.84-6.5a.73.73,0,0,1,.58.24.9.9,0,0,1,.17.26.81.81,0,0,1,.06.31.41.41,0,0,1-.15.3l-.34.28a3.44,3.44,0,0,0-.36.28.67.67,0,0,0-.21.29c0,.07-.09.1-.19.08a.62.62,0,0,1-.48-.43,1.24,1.24,0,0,1,0-.69,1.59,1.59,0,0,1,.34-.64A.81.81,0,0,1,125.67,22.53Z"/>
        <path class="cls-2" d="M130.75,29a2,2,0,0,0,.59-.44,4.8,4.8,0,0,0,.62-.87l.14-.28a.31.31,0,0,1,.19-.17.3.3,0,0,1,.21,0,.21.21,0,0,1,.12.15.37.37,0,0,1-.06.27c-.1.2-.25.47-.44.8a9.33,9.33,0,0,1-.65,1,4.09,4.09,0,0,1-.45.56,5.49,5.49,0,0,1-.49.48,2.21,2.21,0,0,1-.52.32,1.28,1.28,0,0,1-.53.12,1,1,0,0,1-.39,0,1.22,1.22,0,0,1-.41-.21,1.15,1.15,0,0,1-.29-.33,1.34,1.34,0,0,1-.16-.39,3.06,3.06,0,0,1-.06-.45v-.12c-.19.26-.38.5-.58.74a6.1,6.1,0,0,1-.6.63,3.2,3.2,0,0,1-.6.43,1.22,1.22,0,0,1-.59.16,1.27,1.27,0,0,1-.82-.24,1.24,1.24,0,0,1-.44-.64,2.09,2.09,0,0,1-.09-.53,3.59,3.59,0,0,1,0-.64,5.88,5.88,0,0,1,.41-1.32,7,7,0,0,1,1.44-2.21,3.83,3.83,0,0,1,.93-.71,1.85,1.85,0,0,1,1-.25,1.59,1.59,0,0,1,.5.1,1.11,1.11,0,0,1,.44.32,2.45,2.45,0,0,1,.26.35c.07.13.15.29.23.47a3.11,3.11,0,0,1,.29-.33.92.92,0,0,1,.49-.29,1.36,1.36,0,0,1,.53,0,.43.43,0,0,1,.26.13.52.52,0,0,1,.21.25.51.51,0,0,1,0,.3.69.69,0,0,1-.19.31,4.33,4.33,0,0,0-.43.53,4.45,4.45,0,0,0-.33.55,3.48,3.48,0,0,0-.23.6,2.24,2.24,0,0,0-.1.49.7.7,0,0,0,.08.4.25.25,0,0,0,.17.08A.62.62,0,0,0,130.75,29Zm-1.63-2.83a.63.63,0,0,0-.59-.29,1,1,0,0,0-.49.24,3.37,3.37,0,0,0-.5.5,5.43,5.43,0,0,0-.46.71,6.68,6.68,0,0,0-.35.78,3.68,3.68,0,0,0-.23.91c0,.28,0,.45.16.53s.32,0,.57-.11a4.43,4.43,0,0,0,.87-.87c.14-.22.27-.44.4-.67s.25-.43.35-.61l0-.05,0-.05.29-.53c.07-.11.09-.19.06-.25A1.09,1.09,0,0,0,129.12,26.2Z"/>
        <path class="cls-2" d="M132.1,27.44c.19-.36.37-.72.55-1.08a11.4,11.4,0,0,0,.5-1.13,3.18,3.18,0,0,1-.26-.25.53.53,0,0,1-.13-.26.73.73,0,0,1,0-.37,1.28,1.28,0,0,1,.11-.24.36.36,0,0,1,.07-.1l.08-.08a.6.6,0,0,1,.58-.18.39.39,0,0,1,.33.32,1.38,1.38,0,0,1,0,.63l-.08.29.39.21a6.35,6.35,0,0,1,.73.42,1.32,1.32,0,0,1,.5.62,1.61,1.61,0,0,1,0,1,9,9,0,0,1-.39,1.07,6.78,6.78,0,0,0-.28.7c-.07.2-.06.34,0,.4v0a.32.32,0,0,0,.27,0,1.72,1.72,0,0,0,.35-.23,3.42,3.42,0,0,0,.74-.83c.19-.32.37-.64.54-1a.39.39,0,0,1,.18-.16.27.27,0,0,1,.2,0,.26.26,0,0,1,.12.15.29.29,0,0,1,0,.26c-.18.34-.38.68-.57,1s-.4.66-.61,1-.32.42-.49.62a3.63,3.63,0,0,1-.5.53,3,3,0,0,1-.52.38,1.35,1.35,0,0,1-.52.16,1.51,1.51,0,0,1-.46-.06,1,1,0,0,1-.65-.47,1.55,1.55,0,0,1-.2-.77,2.1,2.1,0,0,1,0-.43,3.54,3.54,0,0,1,.08-.45,7.84,7.84,0,0,1,.27-.77c.11-.25.22-.49.34-.73s.25-.53.35-.78a2.71,2.71,0,0,0,.17-.68.45.45,0,0,0-.06-.32,1.4,1.4,0,0,0-.25-.32c-.15.37-.3.71-.47,1l-.52,1a.27.27,0,0,1-.18.15.39.39,0,0,1-.19,0,.24.24,0,0,1-.12-.14A.28.28,0,0,1,132.1,27.44Z"/>
      </g>
      <rect class="cls-3" x="1.34" y="46.72" width="63.74" height="11.75" rx="5.87"/>
      <g>
        <path class="cls-1" d="M16.64,52.37a1,1,0,0,1-.46.44,1.68,1.68,0,0,1-.79.17h-.65v1.49H14V50.59h1.43a1.79,1.79,0,0,1,.77.15,1.1,1.1,0,0,1,.47.43,1.24,1.24,0,0,1,0,1.2Zm-.81-.17a.5.5,0,0,0,.16-.41q0-.57-.63-.57h-.62v1.13h.62A.65.65,0,0,0,15.83,52.2Z"/>
        <path class="cls-1" d="M17.39,50.89a.42.42,0,0,1-.13-.32.44.44,0,0,1,.13-.33.49.49,0,0,1,.35-.13.47.47,0,0,1,.34.13.44.44,0,0,1,.13.33.42.42,0,0,1-.13.32.47.47,0,0,1-.34.13A.49.49,0,0,1,17.39,50.89Zm.73.5v3.08h-.78V51.39Z"/>
        <path class="cls-1" d="M18.87,52.09a1.46,1.46,0,0,1,.51-.56,1.39,1.39,0,0,1,.72-.19,1.25,1.25,0,0,1,.57.13,1.18,1.18,0,0,1,.44.35V50.36h.79v4.11h-.79V54a1,1,0,0,1-.41.37,1.3,1.3,0,0,1-.6.14,1.39,1.39,0,0,1-.72-.2,1.46,1.46,0,0,1-.51-.56,1.92,1.92,0,0,1-.18-.84A1.84,1.84,0,0,1,18.87,52.09Zm2.13.35a.75.75,0,0,0-.3-.31.8.8,0,0,0-.4-.11.84.84,0,0,0-.41.11.73.73,0,0,0-.29.31.9.9,0,0,0-.12.48,1,1,0,0,0,.12.49.84.84,0,0,0,.3.32.77.77,0,0,0,.4.11.8.8,0,0,0,.4-.11.75.75,0,0,0,.3-.31,1.15,1.15,0,0,0,0-1Z"/>
        <path class="cls-1" d="M25.5,53.16H23.25a.72.72,0,0,0,.74.72.65.65,0,0,0,.62-.38h.84a1.36,1.36,0,0,1-.52.73,1.43,1.43,0,0,1-.92.29,1.51,1.51,0,0,1-.8-.2,1.29,1.29,0,0,1-.55-.56,1.6,1.6,0,0,1-.2-.83,1.74,1.74,0,0,1,.19-.84,1.41,1.41,0,0,1,.55-.56,1.62,1.62,0,0,1,.81-.19,1.55,1.55,0,0,1,.78.19,1.28,1.28,0,0,1,.54.54,1.57,1.57,0,0,1,.19.79A1.37,1.37,0,0,1,25.5,53.16Zm-.78-.52a.64.64,0,0,0-.22-.48A.77.77,0,0,0,24,52a.72.72,0,0,0-.48.17.75.75,0,0,0-.25.49Z"/>
        <path class="cls-1" d="M27.4,52.09a1.33,1.33,0,0,1,1.22-.75,1.27,1.27,0,0,1,.6.14,1.21,1.21,0,0,1,.42.35v-.44h.78v3.08h-.78V54a1.15,1.15,0,0,1-.42.36,1.27,1.27,0,0,1-.6.14,1.33,1.33,0,0,1-.71-.2,1.32,1.32,0,0,1-.51-.56,1.92,1.92,0,0,1-.19-.84A1.85,1.85,0,0,1,27.4,52.09Zm2.13.35a.89.89,0,0,0-.3-.31.84.84,0,0,0-.41-.11.8.8,0,0,0-.4.11.81.81,0,0,0-.3.31,1,1,0,0,0-.11.48,1.1,1.1,0,0,0,.11.49,1,1,0,0,0,.3.32.8.8,0,0,0,.81,0,.89.89,0,0,0,.3-.31,1.15,1.15,0,0,0,0-1Z"/>
        <path class="cls-1" d="M32.49,52.09a1.46,1.46,0,0,1,.51-.56,1.39,1.39,0,0,1,.72-.19,1.25,1.25,0,0,1,.57.13,1.11,1.11,0,0,1,.44.35V50.36h.79v4.11h-.79V54a1,1,0,0,1-.41.37,1.27,1.27,0,0,1-.6.14,1.39,1.39,0,0,1-.72-.2,1.46,1.46,0,0,1-.51-.56,1.92,1.92,0,0,1-.18-.84A1.84,1.84,0,0,1,32.49,52.09Zm2.13.35a.75.75,0,0,0-.3-.31.8.8,0,0,0-.4-.11.77.77,0,0,0-.4.11.69.69,0,0,0-.3.31.9.9,0,0,0-.12.48,1,1,0,0,0,.12.49.84.84,0,0,0,.3.32.77.77,0,0,0,.4.11.8.8,0,0,0,.4-.11.75.75,0,0,0,.3-.31,1.15,1.15,0,0,0,0-1Z"/>
        <path class="cls-1" d="M36.85,54.32a1.32,1.32,0,0,1-.56-.56,1.6,1.6,0,0,1-.21-.83,1.63,1.63,0,0,1,.21-.83,1.46,1.46,0,0,1,.57-.56,1.74,1.74,0,0,1,1.62,0,1.46,1.46,0,0,1,.57.56,1.63,1.63,0,0,1,.21.83,1.6,1.6,0,0,1-.22.83,1.36,1.36,0,0,1-.58.56,1.57,1.57,0,0,1-.81.2A1.51,1.51,0,0,1,36.85,54.32Zm1.2-.58a.73.73,0,0,0,.29-.31,1,1,0,0,0,.11-.5.92.92,0,0,0-.23-.68.8.8,0,0,0-1.12,0,1,1,0,0,0-.23.68,1,1,0,0,0,.22.68.77.77,0,0,0,.56.23A.82.82,0,0,0,38.05,53.74Z"/>
        <path class="cls-1" d="M44.57,51.69a1.32,1.32,0,0,1,.35,1v1.81h-.78v-1.7a.72.72,0,0,0-.19-.55.64.64,0,0,0-.5-.2.67.67,0,0,0-.5.2.76.76,0,0,0-.19.55v1.7H42v-1.7a.76.76,0,0,0-.19-.55.65.65,0,0,0-.5-.2.69.69,0,0,0-.51.2.76.76,0,0,0-.18.55v1.7h-.78V51.39h.78v.37a1,1,0,0,1,.38-.3,1.13,1.13,0,0,1,.52-.11,1.38,1.38,0,0,1,.65.15,1.1,1.1,0,0,1,.44.44,1,1,0,0,1,.43-.43,1.22,1.22,0,0,1,.62-.16A1.25,1.25,0,0,1,44.57,51.69Z"/>
        <path class="cls-1" d="M45.71,50.89a.43.43,0,0,1-.14-.32.48.48,0,0,1,1,0,.43.43,0,0,1-.14.32.51.51,0,0,1-.68,0Zm.72.5v3.08h-.77V51.39Z"/>
        <path class="cls-1" d="M47.2,52.09a1.36,1.36,0,0,1,.54-.55,1.57,1.57,0,0,1,.79-.2,1.5,1.5,0,0,1,.94.29,1.4,1.4,0,0,1,.51.8h-.84a.64.64,0,0,0-.62-.43.65.65,0,0,0-.53.24,1.07,1.07,0,0,0-.19.69,1.06,1.06,0,0,0,.19.68.65.65,0,0,0,.53.24.59.59,0,0,0,.62-.42H50a1.5,1.5,0,0,1-.51.8,1.52,1.52,0,0,1-.94.29,1.48,1.48,0,0,1-.79-.2,1.36,1.36,0,0,1-.54-.55,1.86,1.86,0,0,1,0-1.68Z"/>
        <path class="cls-1" d="M50.6,50.89a.42.42,0,0,1-.13-.32.44.44,0,0,1,.13-.33.48.48,0,0,1,.35-.13.47.47,0,0,1,.34.13.44.44,0,0,1,.13.33.42.42,0,0,1-.13.32A.47.47,0,0,1,51,51,.48.48,0,0,1,50.6,50.89Zm.73.5v3.08h-.78V51.39Z"/>
        <path class="cls-1" d="M52.88,50.36v4.11H52.1V50.36Z"/>
        <path class="cls-1" d="M53.7,50.89a.4.4,0,0,1-.14-.32.42.42,0,0,1,.14-.33.48.48,0,0,1,.82.33.43.43,0,0,1-.14.32.51.51,0,0,1-.68,0Zm.72.5v3.08h-.78V51.39Z"/>
        <path class="cls-1" d="M55.76,54.32a1.32,1.32,0,0,1-.56-.56,1.6,1.6,0,0,1-.21-.83,1.63,1.63,0,0,1,.21-.83,1.46,1.46,0,0,1,.57-.56,1.74,1.74,0,0,1,1.62,0,1.46,1.46,0,0,1,.57.56,1.62,1.62,0,0,1,.2.83,1.6,1.6,0,0,1-.21.83,1.36,1.36,0,0,1-.58.56,1.57,1.57,0,0,1-.81.2A1.51,1.51,0,0,1,55.76,54.32Zm1.2-.58a.73.73,0,0,0,.29-.31,1,1,0,0,0,.11-.5.92.92,0,0,0-.23-.68.8.8,0,0,0-1.12,0,1,1,0,0,0-.23.68,1,1,0,0,0,.22.68.77.77,0,0,0,.56.23A.82.82,0,0,0,57,53.74Z"/>
      </g>
      <circle class="cls-1" cx="6.82" cy="52.93" r="3.04"/>
    </g>
  </g>
</svg>
