<svg xmlns="http://www.w3.org/2000/svg" viewBox="0 0 120.17 78.04">
  <defs>
    <style>
      .cls-1 {
        fill: #23401d;
      }

      .cls-2 {
        fill: #fff;
      }

      .cls-3 {
        fill: #28451e;
      }

      .cls-4 {
        fill: #2d5123;
      }

      .cls-5 {
        fill: #483215;
      }

      .cls-6 {
        fill: #26451e;
      }

      .cls-7 {
        fill: #31381a;
      }

      .cls-8 {
        fill: #245225;
      }

      .cls-9 {
        fill: #7cb928;
      }

      .cls-10 {
        fill: #7fba28;
      }

      .cls-11 {
        fill: #289938;
      }

      .cls-12 {
        fill: #72b62f;
      }

      .cls-13 {
        fill: #82bb26;
      }

      .cls-14 {
        fill: #815b13;
      }

      .cls-15 {
        fill: #6b4910;
      }

      .cls-16 {
        fill: #4dad33;
      }

      .cls-17 {
        fill: #64a530;
      }

      .cls-18 {
        fill: #9bc42c;
      }

      .cls-19 {
        fill: #a1c630;
      }

      .cls-20 {
        fill: #2e5324;
      }

      .cls-21 {
        fill: #fdfdfd;
      }

      .cls-22 {
        fill: #da0e15;
      }

      .cls-23 {
        fill: #b31917;
      }

      .cls-24 {
        fill: #eb7a7f;
      }

      .cls-25 {
        fill: #60b22f;
      }

      .cls-26 {
        fill: #f1872c;
      }

      .cls-27 {
        fill: #348a35;
      }

      .cls-28 {
        fill: #0d1111;
      }

      .cls-29 {
        fill: #e00814;
      }

      .cls-30 {
        fill: #039239;
      }

      .cls-31 {
        fill: #2b2a2b;
      }
    </style>
  </defs>
  <g id="Capa_2" data-name="Capa 2">
    <g id="Capa_1-2" data-name="Capa 1">
      <g>
        <g>
          <path class="cls-1" d="M23.91,32l-.6.27-.91.16-.4-.19-.14-.07L21.59,32h-.05l-.13-.08-.92-.65h0L20.12,31h0l-.21-.12h0l-.17-.12-1-.76.52-.44c.36.28.72.55,1.1.79h0l.5.32.33.19a14.55,14.55,0,0,0,1.43.7h.07l.4.17h0A2.93,2.93,0,0,0,23.91,32Z"/>
          <path class="cls-2" d="M31.72,31.09a9.77,9.77,0,0,0,1.21.16A10.84,10.84,0,0,1,28.28,33a4.68,4.68,0,0,1-1.54-.11,9.56,9.56,0,0,0-1.29-.19,5.78,5.78,0,0,0,1-.77l.44.11a3.23,3.23,0,0,0,1.48.13A12.38,12.38,0,0,0,31.72,31.09Z"/>
          <path class="cls-2" d="M35.19,11l-.29.07h-.17l-1.68.32c.42.17.86.3,1.27.5h-.1a5.39,5.39,0,0,0-1.13.15c-.36-.13-.73-.24-1.11-.35a3,3,0,0,0-2.49.09l-.4-.38.16-.23-1-.06v-.49l1.27.11V10.1a8.88,8.88,0,0,1,.26-3.44v0h0c.22-.12.28.13.42.18V7a8.9,8.9,0,0,0-.29,2.57A2.7,2.7,0,0,0,30,10h.11a6.21,6.21,0,0,1,1.22-2.33l.56.35a2.12,2.12,0,0,1-.11.21,3.82,3.82,0,0,0-.77,2.1c0,.5.13.62.63.63a12.69,12.69,0,0,0,3-.48C34.65,10.81,34.91,10.9,35.19,11Z"/>
          <path class="cls-3" d="M36.37,13.8l-.18.14h0l-.14-.12Z"/>
          <path class="cls-4" d="M17.64,11.82a3.47,3.47,0,0,1,.56.11.18.18,0,0,0-.07.05h-.08l-.23.17-.12.09a3.47,3.47,0,0,0-.29.25h0l-.12.11h0l-.13.14-.09.09a.44.44,0,0,0-.16.17l-.09.1-.09.1-.08.1-.08.09h0l-.08.1-.08.1a.22.22,0,0,0-.05.08l-.12.16a.41.41,0,0,1-.07.11l-.05.09a.22.22,0,0,0-.05.08l-.05.08-.12.2-.09.18c-.06.12-.12.24-.17.37s0,.07-.05.1,0,.09,0,.13v.11a1.34,1.34,0,0,0-.07.18.43.43,0,0,0,0,.16v.09a.09.09,0,0,0,0,.07V16h0a.33.33,0,0,1,0,.14h0v.15h0V18.5h0v.68a18.15,18.15,0,0,0,.2,2.21l-.13.07h.14l.06.34h0l-.15.13h0l-.26.23a15,15,0,0,1-.23-5,1.15,1.15,0,0,1,0-.37,5,5,0,0,0,.11-.53l.09-.37a1.11,1.11,0,0,1,.07-.26c.07-.24.15-.48.24-.71a9.08,9.08,0,0,1,.6-1.21l.12-.19h0l.09-.14.16-.21a5.84,5.84,0,0,1,.51-.59c.17-.18.35-.35.53-.51A.43.43,0,0,0,17.64,11.82Z"/>
          <path class="cls-2" d="M27.31,11.07c-.4-.05-.81-.07-1.2-.15a12.83,12.83,0,0,0-5.2-.07H20.7l-.26.06h-.37l-.5-.2c.3-.11.61-.2.94-.29a13.27,13.27,0,0,1,5.4,0c.47.07.94.1,1.41.15A2.77,2.77,0,0,0,27.31,11.07Z"/>
          <path class="cls-5" d="M27.29,10.43c-.14-.58-.26-1.17-.42-1.75a4.41,4.41,0,0,0-2-2.68.85.85,0,0,1-.4-1.11h0a1.89,1.89,0,0,1,2.36-1,1,1,0,0,1,.45.54,17.08,17.08,0,0,1,.79,4c.05.67.06,1.35.09,2l-.3,0a16.28,16.28,0,0,0-.14-1.85c-.12-.9-.24-1.81-.42-2.7a14.08,14.08,0,0,0-.45-1.57.92.92,0,0,0-.3-.18,1.53,1.53,0,0,0-1.34.28,1.51,1.51,0,0,0-.43.57c-.13.3,0,.49.35.46a1.78,1.78,0,0,0,1.63-1,.11.11,0,0,0,.09-.06c-.12.27-.24.54-.37.8a.94.94,0,0,1-.12.22l-.91.47a7,7,0,0,1,2,4.66Z"/>
          <path class="cls-6" d="M14.74,22.39l.26-.23.2-.17a18.58,18.58,0,0,0,1.12,3.63,9.55,9.55,0,0,0,1.5,2.46l1.4,1.49L18.7,30A10.91,10.91,0,0,1,16,26.45,15,15,0,0,1,14.74,22.39Z"/>
          <path class="cls-2" d="M35.53,1.58A12.2,12.2,0,0,1,38.64,1,4,4,0,0,0,40.91.18c.35-.28.44-.24.59.19a6,6,0,0,1,.21,2.7c-.12.81-.31,1.6-.49,2.4a7.2,7.2,0,0,1-.33.88A.47.47,0,0,1,40.44,6V5.83a9.36,9.36,0,0,0,.62-4.59c0-.51-.15-.57-.58-.39a7,7,0,0,1-1.09.36,7,7,0,0,1-.78.11,7,7,0,0,0-.91.08c-.74.15-1.47.32-2.21.48Z"/>
          <path class="cls-2" d="M40.44,6a.47.47,0,0,0,.42.37,7.35,7.35,0,0,1-4.41,4.25c-.41.16-.84.27-1.26.41-.26-.11-.54-.2-.55-.57L35.91,10a6.21,6.21,0,0,0,3.7-2.68C39.91,6.9,40.18,6.44,40.44,6Z"/>
          <path class="cls-2" d="M35.53,1.58v.3l-.86.38a7.35,7.35,0,0,0-4.46,4.52c-.14,0-.2-.3-.42-.18a6.1,6.1,0,0,1,1.93-2.95A10.34,10.34,0,0,1,35.53,1.58Z"/>
          <path class="cls-7" d="M27.91,10.35l.3.05v1.77l.84-.75.4.38-.48.36a5.35,5.35,0,0,0-.5.45,1,1,0,0,1-1.15.25c-.21-.1-.26-.24-.14-.46a1.91,1.91,0,0,0,.12-.47V10.39h.17a14.33,14.33,0,0,0,.09,1.85c0,.11.11.21.17.32.06-.1.16-.2.16-.3C27.91,11.65,27.91,11,27.91,10.35Z"/>
          <path class="cls-8" d="M34.73,11.13l.17-.05Z"/>
          <path class="cls-9" d="M26.39,29.06h0v.12a3.62,3.62,0,0,1-1.84,2.45c-.21.12-.43.22-.65.32a2.52,2.52,0,0,1-.81-.19h0l-.4-.17h-.07a14.55,14.55,0,0,1-1.43-.7l-.33-.19-.5-.32h0c-.38-.24-.74-.51-1.1-.79-.46-.5-.93-1-1.4-1.49v-.4l1.15-1a3,3,0,0,0-.08-.32l.58.46c.21.18.42.35.64.51l.14.1.28.19h0c.14.09.28.18.43.26a8,8,0,0,0,2.22.87c.21.05.43.09.65.12h.92a8.33,8.33,0,0,0,1.12.11h.51Z"/>
          <path class="cls-9" d="M30.5,30.8c.4.12.81.21,1.22.29a12.24,12.24,0,0,1-3.39,1.1,3.23,3.23,0,0,1-1.48-.13L26.41,32a4.83,4.83,0,0,0,1.3-2.37h0a1.28,1.28,0,0,0,.08-.58V29A4.8,4.8,0,0,0,30.5,30.8Z"/>
          <path class="cls-10" d="M31.23,13.25a3.63,3.63,0,0,0-.6.9,7.21,7.21,0,0,0-.51,1.29h-.44a5.56,5.56,0,0,1-.7.08q-.93-.06-1.86-.21c-.54-.23-1.09-.44-1.63-.7a4.42,4.42,0,0,1-.67-.46l.21-.22h0l.41-.43.21-.22.27-.19h0c.31.22.61.44.92.64a1.33,1.33,0,0,0,1.07.27c.44-.13.87-.28,1.31-.44A5.29,5.29,0,0,1,31.23,13.25Z"/>
          <path class="cls-10" d="M33.09,12.1a3.77,3.77,0,0,0-1.56.84,8.55,8.55,0,0,0-1.6,0,2.6,2.6,0,0,0-.38-.43A3.7,3.7,0,0,0,29,12.2l.48-.36A3,3,0,0,1,32,11.75C32.36,11.86,32.73,12,33.09,12.1Z"/>
          <path class="cls-11" d="M35.91,10l-1.29.41a12.69,12.69,0,0,1-3,.48c-.5,0-.64-.13-.63-.63a3.86,3.86,0,0,1,.81-2.14l.11-.18c.34-.37.64-.78,1-1.11a18.91,18.91,0,0,1,4.24-2.72,22.09,22.09,0,0,0,2.37-1.45,6.75,6.75,0,0,0,1-1c0,.09.1.2.08.28a3.44,3.44,0,0,1-1.38,2c-.9.58-1.83,1.09-2.74,1.64a5.05,5.05,0,0,0-1.74,1.73,1.63,1.63,0,0,0,.34,2.14A5.68,5.68,0,0,0,35.91,10Z"/>
          <path class="cls-12" d="M30.17,6.78a7.35,7.35,0,0,1,4.46-4.52l.86-.38c.74-.16,1.47-.33,2.21-.48a7,7,0,0,1,.91-.08l-.49.14a13,13,0,0,0-5,2.2A3,3,0,0,0,31.91,5a2.45,2.45,0,0,0,0,1.88l-.58.71a6.21,6.21,0,0,0-1.22,2.33H30a2.74,2.74,0,0,1-.09-.39,8.74,8.74,0,0,1,.25-2.6A.76.76,0,0,0,30.17,6.78Z"/>
          <path class="cls-2" d="M31.32,7.59l.59-.71a14.29,14.29,0,0,1,3.14-2.14l3.9-2a4.33,4.33,0,0,0,.74-.53c.3-.26.58-.55.87-.82h0l-.11.3a6.75,6.75,0,0,1-1,1,22.09,22.09,0,0,1-2.37,1.45,18.93,18.93,0,0,0-4.17,2.69,13.18,13.18,0,0,0-1,1.11Z"/>
          <path class="cls-10" d="M29.09,11.46l-.84.75v-1l1,.06Z"/>
          <path class="cls-13" d="M18.2,11.93a7,7,0,0,1,1.33.47h-.39l-.17.07h-.08l-.11,0h-.23l-.15.09h-.07l-.11.07-.1.07-.1.07L18,13h-.1l-.08.07-.09.08-.07.07H17.6l-.06.07-.08.08-.11.12-.08.1-.09.11q-.18.24-.33.48a.36.36,0,0,0-.07.1.75.75,0,0,1-.07.12h0a.41.41,0,0,1-.07.11l-.07.14-.05.1a.61.61,0,0,0-.07.14.37.37,0,0,0-.05.11l-.07.14v.1l-.15.41v.1l-.09.3v.29a.55.55,0,0,1-.07.33c-.07.11,0,.07,0,.11V17h0v.1a3.75,3.75,0,0,1,0,.67v.13a1,1,0,0,0,0,.25v.32h0V19h0v.18h0v.29c0,.1-.06.55-.06.55v.88h0a.29.29,0,0,0,.05.2v.2a.33.33,0,0,0,0,.14.43.43,0,0,0,0,.16,1.33,1.33,0,0,0,0,.19v.3a1.72,1.72,0,0,0,.07.21.69.69,0,0,0,.05.13,1,1,0,0,0,.05.16,1.11,1.11,0,0,0,.07.16l.12.31.07.16.06.13.24.48.06.11c.06.11.12.22.19.33h0l.28.44h0c.13.2.3.38.45.57s.17.26.26.38.37.43.56.65a1.16,1.16,0,0,0,.08.32l-1.15,1V28A9.67,9.67,0,0,1,16,25.53c-.07-.14-.13-.29-.19-.44s-.15-.37-.21-.56L15.41,24c-.06-.19,0-.12,0-.18-.18-.62-.33-1.25-.48-1.88h0l-.06-.34v-.12a18.15,18.15,0,0,1-.2-2.21v-.68h0V16.34h0v-.15h0a.33.33,0,0,0,0-.14h0v-.24a.09.09,0,0,1,0-.07v-.09a.43.43,0,0,1,0-.16,1.34,1.34,0,0,1,.07-.18V15a3.14,3.14,0,0,1,.17-.37l1-.2.12-.2v-.08a.22.22,0,0,1,0-.08l.05-.09a.41.41,0,0,0,.07-.11l.12-.16.05-.08.08-.1.08-.1h0l.08-.09.08-.1.09-.1.08-.11.08-.08.09-.09.13-.14h0l.12-.11h0a3.47,3.47,0,0,1,.29-.25l.12-.09.23-.17H18A.19.19,0,0,1,18.2,11.93Z"/>
          <path class="cls-13" d="M27.31,11.07V12a4.44,4.44,0,0,0-1.15.1,1.88,1.88,0,0,0-.55.27,4.78,4.78,0,0,0-1.83-.65c0,.08,0,.11.07.13l.13.07c.54.3,1.09.6,1.63.92a1.24,1.24,0,0,1,.28.28l-.27.19-.83.87-.2-.11c-.58-.41-1.13-.84-1.72-1.23l-.1-.06-.1-.06h-.25l-.23-.1h-.05A9.24,9.24,0,0,0,20,11.26h.37l.26-.06h.21a13.07,13.07,0,0,1,5.25.07A1.5,1.5,0,0,1,27.31,11.07Z"/>
          <path class="cls-6" d="M15.13,21.53v.12H15Z"/>
          <path class="cls-14" d="M27.72,12.6c-.06-.11-.17-.21-.17-.32-.05-.62-.06-1.23-.09-1.85a7,7,0,0,0-2-4.66l.91-.47a2.5,2.5,0,0,1,.39.47A10.58,10.58,0,0,1,27.2,7a17.81,17.81,0,0,1,.49,3.64C27.75,11.26,27.71,11.93,27.72,12.6Z"/>
          <path class="cls-15" d="M27.72,12.6v-2A17.47,17.47,0,0,0,27.2,7a9.83,9.83,0,0,0-.44-1.18,2.5,2.5,0,0,0-.39-.47.94.94,0,0,0,.12-.22c.13-.26.25-.53.37-.8h0a14.13,14.13,0,0,1,.46,1.57c.18.89.3,1.8.42,2.7.07.61.09,1.24.14,1.85s0,1.3,0,2C27.91,12.4,27.78,12.5,27.72,12.6Z"/>
          <path class="cls-14" d="M26.91,4.23h0s-.08,0-.09.06a1.78,1.78,0,0,1-1.63,1c-.33,0-.48-.16-.35-.46a1.51,1.51,0,0,1,.43-.57A1.53,1.53,0,0,1,26.61,4,1.33,1.33,0,0,1,26.91,4.23Z"/>
          <path class="cls-16" d="M40.55,1.36c-.29.27-.57.56-.87.82a4.33,4.33,0,0,1-.74.53c-1.29.69-2.6,1.36-3.9,2a14.35,14.35,0,0,0-3.13,2.17,2.45,2.45,0,0,1,0-1.88,3,3,0,0,1,1.21-1.33,13,13,0,0,1,5-2.2l.49-.14a7,7,0,0,0,.78-.11c.37-.1.73-.23,1.09-.36s.56-.12.62.37a9.36,9.36,0,0,1-.62,4.59V6c-.26.46-.52.92-.81,1.37A6.26,6.26,0,0,1,35.91,10,5.59,5.59,0,0,1,35,9.46a1.63,1.63,0,0,1-.34-2.14A5.05,5.05,0,0,1,36.4,5.59C37.31,5,38.24,4.53,39.14,4a3.44,3.44,0,0,0,1.38-2,.9.9,0,0,0-.08-.28l.11-.3.05-.12h0Z"/>
          <path class="cls-17" d="M25.64,12.34a1.88,1.88,0,0,1,.55-.27c.38-.06.77-.07,1.15-.1a1.91,1.91,0,0,1-.12.47c-.12.22-.07.36.14.46a1,1,0,0,0,1.15-.25,5.35,5.35,0,0,1,.5-.45,3.6,3.6,0,0,1,.54.31,2.6,2.6,0,0,1,.38.43l-1.45.38a1.83,1.83,0,0,1-1.22-.09A18.06,18.06,0,0,1,25.64,12.34Z"/>
          <path class="cls-18" d="M26.4,28.91l-.49.09h0a10.46,10.46,0,0,1-1.12,0h-.92a3.55,3.55,0,0,1-.65-.12A8,8,0,0,1,21,28c-.15-.08-.29-.17-.43-.26h0l-.28-.19-.14-.1c-.22-.16-.43-.33-.64-.51l-.6-.59c-.19-.22-.38-.43-.56-.65a3.19,3.19,0,0,1-.26-.38l.23-.27,2.07-2.24.17-.19.36-.38h0l.3-.33,1.24-1.35.15-.15,1.07-1.17c.13-.13.25-.27.38-.41.15.84.27,1.69.41,2.53a16.93,16.93,0,0,0,1.26,4.9A5.82,5.82,0,0,1,26.4,28.91Z"/>
          <path class="cls-18" d="M30.31,18.23c-.32.73-.65,1.45-1,2.16l-.83,1.86c-.08.19-.17.37-.26.56-.26.57-.56,1.23-.81,1.92a5.51,5.51,0,0,0-.3,1.26c-.05-.12-.11-.23-.16-.33a14.54,14.54,0,0,1-1-4.16v-.35c-.05-.28-.09-.55-.13-.82-.15-.91-.3-1.85-.48-2.78.56-.6,1.12-1.21,1.67-1.82a1.65,1.65,0,0,0,.21-.42c.62.07,1.24.16,1.86.21a5.56,5.56,0,0,0,.7-.08h.44A3.74,3.74,0,0,0,30.31,18.23Z"/>
          <path class="cls-19" d="M25.49,14.61a4.42,4.42,0,0,1-.67-.46l-.2-.11c-.58-.41-1.13-.84-1.72-1.23l-.1-.06-.1-.06h-.25l-.23-.1a8.82,8.82,0,0,1,3,4.79.52.52,0,0,0,.07.32c.56-.6,1.12-1.21,1.67-1.82a1.65,1.65,0,0,0,.21-.42A12,12,0,0,0,25.49,14.61Zm-6-2.21H19.1l-.17.07h-.08l-.11,0h-.23l-.15.09h-.07l-.11.07-.1.07-.1.07-.07.06h-.05l-.08.07-.09.08-.07.07h-.06l-.06.07a.3.3,0,0,0-.08.08l-.11.12-.08.1-.09.11q-.18.24-.33.48a.36.36,0,0,0-.07.1.75.75,0,0,1-.07.12h0a.41.41,0,0,1-.07.11l-.07.14-.05.1a.61.61,0,0,0-.07.14.37.37,0,0,0-.05.11l-.07.14v.1l-.15.41v.1l-.09.3v.29a.55.55,0,0,1-.07.33c-.07.11,0,.07,0,.11V17a3,3,0,0,1-.05.67v.13a1,1,0,0,0,0,.25v.32h0V19h0v.18h0v1.7h0a.29.29,0,0,0,.05.2v.2a.33.33,0,0,0,0,.14.43.43,0,0,0,0,.16,1.33,1.33,0,0,0,.05.19v.3a1.72,1.72,0,0,0,.07.21.69.69,0,0,0,0,.13,1,1,0,0,0,.05.16,1.11,1.11,0,0,0,.07.16l.12.31.07.16.06.13.24.48.06.11c.06.11.12.22.19.33h0l.28.44h0c.13.2.3.38.45.57L18,25l2.07-2.24.17-.19.36-.38h0l.3-.33,1.24-1.35.15-.15,1.07-1.17c.13-.13.25-.27.38-.41-.08-.44-.16-.88-.25-1.32a7.74,7.74,0,0,0-4-5Zm-.58,1.72h0L19,14h.06l.13-.09h.27l.14-.06h.09l.17,0h.35a2.8,2.8,0,0,1,.58.09.52.52,0,0,1,.53.44V14h0a.23.23,0,0,1-.07.1h0a.6.6,0,0,1-.08.08h-.06l-.09.05h-.1l-.2.09h-.06a5.31,5.31,0,0,1-.56.2h0l-.23.08h0a1.54,1.54,0,0,1-.85,0c-.42-.11-.54-.4-.29-.77h0Z"/>
          <path class="cls-20" d="M31.53,12.94c-.1.1-.21.2-.3.31a5.26,5.26,0,0,0-2,.33c-.44.16-.87.31-1.31.44a1.35,1.35,0,0,1-1.06-.29c-.31-.2-.61-.42-.92-.64h0L25.89,13l-.09-.09h0a.16.16,0,0,0-.08-.06c-.54-.32-1.09-.62-1.63-.92l-.18-.14a.26.26,0,0,0-.06-.13h.7l.19.07.17.24H25l.1,0,.22.1.21.11.11,0c.54.3,1.07.62,1.62.89a1.83,1.83,0,0,0,1.22.09l1.41-.35A9,9,0,0,1,31.53,12.94Z"/>
          <path class="cls-8" d="M40.55,1.36l.07-.11h0v.12Z"/>
          <path class="cls-21" d="M20.43,13.37a5.81,5.81,0,0,1,.58.09.52.52,0,0,1,.53.44.53.53,0,0,1-.35.52,8.3,8.3,0,0,1-1.17.45,1.45,1.45,0,0,1-.85.05c-.42-.11-.54-.4-.29-.77A2.23,2.23,0,0,1,20.43,13.37Z"/>
          <g>
            <path class="cls-3" d="M25.72,26.27a16.93,16.93,0,0,1-1.26-4.9c-.14-.84-.26-1.69-.41-2.53-.08-.44-.16-.88-.25-1.32a7.75,7.75,0,0,0-4.27-5.12,7,7,0,0,0-1.33-.47,3.47,3.47,0,0,0-.56-.11,6.92,6.92,0,0,0-4.17.66l-.21.07c0-1.62-1-2.75-1.83-3.94C11,8,10.61,7.42,10.21,6.81c-.19-.29-.4-.32-.51,0a17.34,17.34,0,0,0-.6,2.25A10.14,10.14,0,0,0,9,10.52,7.35,7.35,0,0,1,8,7.26a1.43,1.43,0,0,0-.46.07c-.14.08-.22.25-.33.38h0l-.08.08h0a6.69,6.69,0,0,0-1,3.23,14.3,14.3,0,0,0,.07,1.73,13,13,0,0,0-1.53.06A9.61,9.61,0,0,0,1.44,14c-.4.28-.81.55-1.2.85a1.52,1.52,0,0,0-.24.41c.14.05.27.11.42.15a1.86,1.86,0,0,0,.34.07l3,.77v.14l-.62.28a5,5,0,0,0-3,4.77.46.46,0,0,0,.15.31s.23,0,.29-.1a5.17,5.17,0,0,1,3.28-1.53c.22-.05.45-.08.63-.11A17.73,17.73,0,0,0,4,22.31,6.75,6.75,0,0,0,5.33,26.6,12.76,12.76,0,0,0,13.14,32a22.93,22.93,0,0,0,9.22.44l.91-.16.64-.28c.22-.1.44-.2.65-.32a3.62,3.62,0,0,0,1.84-2.45v-.12h0V29A5.78,5.78,0,0,0,25.72,26.27Zm-6.29,4.51a19.09,19.09,0,0,1-6.87-1,10.51,10.51,0,0,1-5.65-4.21,7.65,7.65,0,0,1-.57-1.05h0A4.69,4.69,0,0,1,6,23.57a4.18,4.18,0,0,1,.19-2.52l.45-.12.42-.11c.48-.14,1-.28,1.46-.44.28-.08.55-.18.83-.27L9.76,20l.54-.25.76-.38.37-.2.19-.09.34-.22.24-.19a2.09,2.09,0,0,0,.42-.52h0l.12-.23.2-.37.59-1.14.6-1.2h0c.14-.28.24-.55.34-.8l.09-.24h.08l.27-.12.14-.05.2-.08h0a.44.44,0,0,1,.16-.06l.19,0h.79a4.81,4.81,0,0,1,1,.07,5.37,5.37,0,0,1,1.45.48l.25.13h0l.44.26A4.23,4.23,0,0,1,20,15a6.56,6.56,0,0,1,.8.78,5.63,5.63,0,0,1,.67,1h0a4.75,4.75,0,0,1,.32.73,9.91,9.91,0,0,1,.31,1.19c.07.35.13.7.19,1.07l.09.61v.31l.06.41v.47a5,5,0,0,0,.14.86l.06.38V23h0c.11.65.24,1.3.41,2,.11.41.23.83.38,1.24A11.77,11.77,0,0,0,24.17,28a2.76,2.76,0,0,1,.08.27h0a1.79,1.79,0,0,1,0,.86,1.35,1.35,0,0,1-.78,1h-.14l-.17.08H23.1l-.18.09h-.15l-.22.1h-.14l-.94.14-.8.09H20.5l-.86.06h-.31Zm-14-16.07h.26a1.2,1.2,0,0,0-.23.22h0l-.13.18H5.25l-.67-.3a4.27,4.27,0,0,1,.8-.1Z"/>
            <path class="cls-2" d="M25.72,26.27a16.93,16.93,0,0,1-1.26-4.9c-.14-.84-.26-1.69-.41-2.53-.08-.44-.16-.88-.25-1.32a7.75,7.75,0,0,0-4.27-5.12,7,7,0,0,0-1.33-.47,3.47,3.47,0,0,0-.56-.11,6.92,6.92,0,0,0-4.17.66l-.21.07c0-1.62-1-2.75-1.83-3.94C11,8,10.61,7.42,10.21,6.81c-.19-.29-.4-.32-.51,0a17.34,17.34,0,0,0-.6,2.25A10.14,10.14,0,0,0,9,10.52,7.35,7.35,0,0,1,8,7.26a1.43,1.43,0,0,0-.46.07c-.14.08-.22.25-.33.38h0l-.08.08h0a6.69,6.69,0,0,0-1,3.23,14.3,14.3,0,0,0,.07,1.73,13,13,0,0,0-1.53.06A9.61,9.61,0,0,0,1.44,14c-.4.28-.81.55-1.2.85a1.52,1.52,0,0,0-.24.41c.14.05.27.11.42.15a1.86,1.86,0,0,0,.34.07l3,.77v.14l-.62.28a5,5,0,0,0-3,4.77.46.46,0,0,0,.15.31s.23,0,.29-.1a5.17,5.17,0,0,1,3.28-1.53c.22-.05.45-.08.63-.11A17.73,17.73,0,0,0,4,22.31,6.75,6.75,0,0,0,5.33,26.6,12.76,12.76,0,0,0,13.14,32a22.93,22.93,0,0,0,9.22.44l.91-.16.64-.28c.22-.1.44-.2.65-.32a3.62,3.62,0,0,0,1.84-2.45v-.12h0V29A5.78,5.78,0,0,0,25.72,26.27ZM9.91,7.33c.39.53.75,1,1.09,1.48.16.22.29.45.43.67h0c.28.42.56.84.83,1.26.91,1.28.61,3.36-.4,4.91l-.08-2.19-.39-1H11.3c.06.42.13.83.2,1.25,0,.93,0,1.87-.05,2.89a7.35,7.35,0,0,0-.74-1.35,4.62,4.62,0,0,1-.91-2.44A10.71,10.71,0,0,1,9.91,7.33ZM6.54,11.09v-.37l.06-.51h0V10h0V9.63h0V9.39h0V9.28h0v-.1L6.69,9V8.73l.09-.14a.64.64,0,0,1,.08-.14h0s.07-.08.11,0H7a.17.17,0,0,1,0,.1,9.61,9.61,0,0,0,1.45,3.13.5.5,0,0,1,.09.24l.39,2.39h0l-.43-.76c-.48-.15-1-.33-1.45-.45H6.84a.4.4,0,0,1-.12-.1h0v-.7h0v-.84ZM2.62,15.57C2,15.34,1.42,15.23.76,15a9.34,9.34,0,0,1,3-1.48,6.31,6.31,0,0,1,5.35.86c1.1.57,2.06,2,1.62,3l-1.82-.64a2.46,2.46,0,0,1-.45-.11l-1.92-.85h0L8.23,17l1.81.64a6.21,6.21,0,0,1-3.51-.4c-.31-.12-.62-.22-.93-.36C4.61,16.43,3.63,16,2.62,15.57Zm0,4.4H2.23L2,20H1.93l-.15.06H1.56l-.1.05h-.1l-.29.14H.92l-.1.06-.09.06-.12.08a1,1,0,0,1,0-.24.81.81,0,0,1,0-.22H.78V19.7l.08-.13L1,19.44v-.13c.09-.18.19-.35.29-.51l.17-.24.1-.12v-.06l.05-.06,0-.06.16-.09h0l.1-.1H2l.11-.1.17-.15.1-.08h0l.1-.08h0l.09-.06h0l.13-.09.15-.09L3,17.33l.17-.08.15-.08h0l.3-.17h0l.17-.07c.8-.31,1.29.27,1.91.52l-.22.07-.57.19L4.05,18v.1l1.54-.22.49-.07L7.29,18,9,18.24a6.92,6.92,0,0,1-1.38.57L6.76,19l-.43.1-1,.24-1.12.25h0l-.3.05ZM25.8,29.25v.29a.23.23,0,0,1-.07.19.66.66,0,0,1-.09.19,3.35,3.35,0,0,1-.21.36h0v.06h0l-.06.08h0l-.07.07-.13.14h0l-.05.05-.06.05-.13.1h0l-.16.1-.08.05h-.23l-.15.07h-.09l-.08.05-.53.26-.15.05h-.31l-.28.05H22.5l-.59.54H16.33a7,7,0,0,1-.8-.1l-.92-.15L14,31.62h-.3l-.23-.06L13,31.44l-.23-.07-.17-.05h-.17l-.18-.06-.17-.06-.18-.12-.46-.17-.16-.07h0l-.2-.09-.18-.07h-.07l-.16-.07-.2-.1c-.3-.14-.58-.3-.87-.46l-.2-.12h0l-.18-.11h0l-.27-.23-.16-.1h0l-.09-.07-.15-.11-.17-.12-.06-.05h0L8.09,29l-.18-.14h0l-.14-.12h0l-.16-.15-.36-.35L7,28l-.09-.16-.09-.09-.42-.5v-.07L6.16,27A1.46,1.46,0,0,1,6,26.81H6l-.11-.23v-.06l-.12-.18a6.07,6.07,0,0,1-.71-6.1.56.56,0,0,1,.09-.17V20a.49.49,0,0,1,.13-.12h.08l.2-.07c1.12-.3,2.23-.61,3.32-1l.25-.09.25-.1.12-.06.24-.11c.36-.17.71-.37,1.07-.55l.22-.12h0l.15-.11.07-.06h0a.39.39,0,0,0,.08-.1c.27-.48.52-1,.77-1.46.13-.24.25-.49.37-.73s.25-.49.37-.74A1.56,1.56,0,0,0,13,14.3c.06-.13.12-.28.17-.42s.07-.19.11-.28l.06-.14a1,1,0,0,1,.92-.69l.19-.06h.08l.14-.07h0l.15-.06H15a5.56,5.56,0,0,1,1.28-.18h1.43l.31.07h.47l.26.1h.12l.12,0a7.53,7.53,0,0,1,1.09.57l.12.08h0l.11.08h0l.17.12.16.12h0l.08.07L21,14h.05l.1.1.06.05.08.09.24.25.22.25.1.12.18.25.09.12.16.26a.57.57,0,0,1,.08.13l.08.13a.54.54,0,0,1,.07.13l.07.13.06.13h0l.06.12.06.14a.61.61,0,0,0,0,.12l.06.17.05.12A1.54,1.54,0,0,0,23,17c.08.26.15.51.21.78h0a1.83,1.83,0,0,0,.07.32,2.53,2.53,0,0,0,.07.36c0,.12,0,.16,0,.24v.43l.06.38.06.38a4.85,4.85,0,0,0,.11.75l.06.36v.2a3,3,0,0,0,.08.51l.06.36a.83.83,0,0,0,.07.41h0a2.79,2.79,0,0,0,.07.4c.06.34.13.67.21,1s.1.42.16.63h0a.31.31,0,0,0,0,.19l.06.21.06.19h0l.06.18h0a.17.17,0,0,0,.05.15v.09a1.11,1.11,0,0,0,.07.16,1.8,1.8,0,0,0,.08.21,1.67,1.67,0,0,0,.08.2c.09.2.18.4.28.6l.1.2a.61.61,0,0,1,.07.14l.05.14v.07a1.87,1.87,0,0,0,.07.22v.12h0v.1h0a.36.36,0,0,0,.33.39h.15v.65a.29.29,0,0,0,0,.13V29a1.17,1.17,0,0,1-.07.25Z"/>
            <path class="cls-22" d="M14.47,12.62l-.19.06c-.26.62-.56,1.22-.76,1.86a9.64,9.64,0,0,1-1.46,2.92,1.31,1.31,0,0,0-.09.28,1.21,1.21,0,0,1,1-.28c.51.13.7-.06.65-.59a2.66,2.66,0,0,0-.07-.39,1.11,1.11,0,0,1,.36-1.23,1.18,1.18,0,0,1,1.31-.08c.58.25.72.22,1.19-.23a1.21,1.21,0,0,1,1.5-.26,3,3,0,0,1,1.32,2.95c-.28-.06-.56-.13-.84-.17a1.13,1.13,0,0,0-1.21.58,1,1,0,0,0,.19,1.21c.24.34.52.66.75,1,.46.72.23,1.27-.62,1.41-.58.09-1.18.1-1.77.15a.91.91,0,0,0-.91.73,2.21,2.21,0,0,0,0,.81c.09.62-.22,1-.79,1a2.21,2.21,0,0,1-2.35-2,2.17,2.17,0,0,1,.23-1.15v-.08a1,1,0,0,0,0-1.26,1.73,1.73,0,0,1-.06-2c-.91.45-1.85.86-2.73,1.36s-.88,1-.31,1.81.42.86-.28,1.25l-.15.08A1.18,1.18,0,0,0,7.85,24a1,1,0,0,0,.15.24,3,3,0,0,0,1.66,1.12,2.73,2.73,0,0,1,1.93,1.77,1.86,1.86,0,0,0,.4.6,3.08,3.08,0,0,0,2,.83,2.52,2.52,0,0,1,2,.91,2.75,2.75,0,0,0,2.62,1.09,2.07,2.07,0,0,1,1.55.55,2.49,2.49,0,0,0,1,.47,4.89,4.89,0,0,0,2.4-.19,1.46,1.46,0,0,1,.16-.19,2.67,2.67,0,0,0,.91-2.81c-.24-.83-.63-1.61-.95-2.41a.58.58,0,0,1-.78.25h0a.71.71,0,0,1-.14-.1.77.77,0,0,1-.27-1l0,0h0l.17-.1c.23-.36.47,0,.71,0-.06-.29-.13-.59-.19-.88-.08-.48-.09-1-.59-1.27h0l-.14-.09a3.79,3.79,0,0,1-.3-.4c-.15-.27-.24-.55,0-.81l.08-.09.44-.18-.26-1.64a.57.57,0,0,1-.76.23h0A3,3,0,0,1,21,19.1a2.5,2.5,0,0,1,.15-.38h0c.15-.36.38-.46.69-.29s.31.22.46.32a5.11,5.11,0,0,0-.8-2.34c0,.29.07.62-.35.72A1.09,1.09,0,0,1,20,16.35c0-.12.15-.26.23-.39h0c.1-.09.19-.23.3-.26a1.35,1.35,0,0,1,.49,0l-1-1.24c-.34.13-.66.2-.87-.21-.38-.08-.19-.34-.17-.55a5.72,5.72,0,0,0-2.61-1A13.08,13.08,0,0,0,14.47,12.62Zm8.76,15.27.08-.09a.62.62,0,0,1,.81.3v.1c.12.3.17.6-.17.8a.72.72,0,0,1-.84-.35c-.1-.2-.32-.45,0-.67Zm-8-14.75c.15,0,.33-.13.45-.08a1.16,1.16,0,0,1,.51.42c0,.08-.12.42-.2.43a1.58,1.58,0,0,1-.8-.13c-.21-.1-.24-.35,0-.55ZM16.35,25.3l-.19-.08a5.9,5.9,0,0,1-.66-.75.4.4,0,0,1,.06-.55.32.32,0,0,1,.21-.08h0a.36.36,0,0,1,.39-.35h0a.3.3,0,0,1,.18.06,5.55,5.55,0,0,1,.92.67c.4.37.49.83.23,1.14a.79.79,0,0,1-1.12,0h0Zm2.86-6.91h0a.86.86,0,0,1,.52,1,.76.76,0,0,1-1,.36,2.77,2.77,0,0,1-.48-.26,3.38,3.38,0,0,1-.41-.24.84.84,0,0,1-.26-1.11c.2-.34.6-.42,1.07-.18a3.72,3.72,0,0,1,.45.33Zm.78,9c.34-.28.72-.15,1,.37a.68.68,0,0,1,0,.59.57.57,0,0,1-.53.13,1.42,1.42,0,0,1-.62-.49c-.07-.09.07-.33.12-.51Zm.46,2.44h0a.54.54,0,0,1,.75-.13.53.53,0,0,1,.13.13c.22.22.51.43.24.8a.72.72,0,0,1-1,0c-.27-.2-.44-.47-.12-.78Zm-3.92-1.7L16.7,28c.33-.38.61-.12.87.1s.54.49.29.88a.65.65,0,0,1-.36.22.94.94,0,0,1-1-.41c-.12-.17-.23-.39,0-.59Zm3-3.69.17-.18a.64.64,0,0,1,.89.13c.3.32.38.8.16,1a.81.81,0,0,1-1-.09.58.58,0,0,1-.27-.78h0v-.06Zm.23-1.89-.3-.18a.78.78,0,0,1-.3-1.05.67.67,0,0,1,.89-.36h0l.09.05a5.08,5.08,0,0,1,.79.59.68.68,0,0,1,.33.85.58.58,0,0,1-.7.38,6.18,6.18,0,0,1-.83-.27Zm-9-1.06a1.26,1.26,0,0,1-1.24-1,.82.82,0,0,1,.7-.81,1.29,1.29,0,0,1,1.15,1.21c0,.43-.17.61-.6.62Zm1.37,4.74a.77.77,0,0,1,.75-.73,1.23,1.23,0,0,1,1,1.22.68.68,0,0,1-.64.69,1.39,1.39,0,0,1-1.13-1.16ZM10,23.69l-.1.08c0,.6-.45,1-.94.65a2.82,2.82,0,0,1-.72-.78c-.24-.35,0-.67.25-.89a.63.63,0,0,1,.89,0h0a6.28,6.28,0,0,1,.61.91Z"/>
            <path class="cls-23" d="M23.59,31.35a4.89,4.89,0,0,1-2.4.19,2.49,2.49,0,0,1-1-.47,2.07,2.07,0,0,0-1.55-.55A2.75,2.75,0,0,1,16,29.43a2.52,2.52,0,0,0-2-.91,3.08,3.08,0,0,1-2-.83,1.86,1.86,0,0,1-.4-.6,2.73,2.73,0,0,0-1.93-1.77A3,3,0,0,1,8,24.2a1.18,1.18,0,0,1,.09-1.67h0a1.27,1.27,0,0,1,.31-.2l.15-.08c.7-.39.74-.58.28-1.25s-.51-1.34.31-1.81,1.82-.91,2.73-1.36h0l.09-.1h0a1.31,1.31,0,0,1,.09-.28,9.64,9.64,0,0,0,1.46-2.92c.2-.64.5-1.24.76-1.86a1,1,0,0,0-.92.69c-.16.37-.28.76-.46,1.12-.49,1-1,2-1.51,2.93a1.46,1.46,0,0,1-.59.45,18.32,18.32,0,0,1-1.89.92c-1.09.38-2.2.69-3.32,1a.68.68,0,0,0-.55.47,6.07,6.07,0,0,0,.71,6.1,11.89,11.89,0,0,0,6.39,4.82,21.78,21.78,0,0,0,10.69.67,6.85,6.85,0,0,0,1.45-.61Zm-17.12-7-.26.32A3.3,3.3,0,0,1,5.7,24c0-.07.19-.4.31-.4.37,0,.43.27.46.72Zm8.1,5.89-.74-.66.36-.4a6.25,6.25,0,0,1,.65.61l-.27.42Zm-4.25-2.5c-.42,0-.83-.31-.77-.55s.21-.25.32-.38c.21.22.43.43.61.66l-.16.24Zm-3-6.64L7,21.52A2.49,2.49,0,0,1,6.6,21c0-.06.15-.23.24-.34Zm-.09,6.1c.19-.16.36-.33.38-.31a3,3,0,0,1,.49.52s-.18.22-.22.2C7.68,27.51,7.5,27.37,7.23,27.2Z"/>
            <path class="cls-24" d="M23.59,31.35l.65-.13a2.93,2.93,0,0,0,1.56-3.54,2.78,2.78,0,0,0-.21-.57,19.77,19.77,0,0,1-1.68-6.35,23.6,23.6,0,0,0-.76-3.83,7,7,0,0,0-8.07-4.55,3.75,3.75,0,0,0-.6.24c.62,0,1.24,0,1.86.06a5.72,5.72,0,0,1,2.61,1H19c.23-.28.49-.17.72,0a.54.54,0,0,1,.27.73v0h0l1,1.26h0l.11.09.36.58a5.11,5.11,0,0,1,.8,2.34c.05.27.11.53.16.79l.26,1.64a1.75,1.75,0,0,1,.29.18,1,1,0,0,1,.37,1c-.1.44-.48.32-.77.36.5.28.51.79.59,1.27.06.29.13.59.19.88l.33,1.09c.32.8.71,1.58.95,2.41a2.67,2.67,0,0,1-.91,2.81A1.64,1.64,0,0,0,23.59,31.35Z"/>
            <path class="cls-25" d="M4.26,14.61l.11.08Z"/>
            <path class="cls-16" d="M3.78,13.56a6.31,6.31,0,0,1,5.35.86c.06.25.14.5.19.75a1.7,1.7,0,0,1-.41,1.61,2.46,2.46,0,0,1-.45-.11l-1.92-.85-.17-.08H6.28v.06l.15.12h0L8.23,17,7,17.15a1.79,1.79,0,0,0-.46.09c-.31-.12-.62-.22-.93-.36-1-.43-2-.89-3-1.29-.58-.23-1.2-.34-1.86-.53A9.34,9.34,0,0,1,3.78,13.56Zm.48,1h0l.11.08Z"/>
            <path class="cls-16" d="M9.91,7.33c.39.53.75,1,1.09,1.48.16.22.29.45.43.68h0c.28.42.56.84.83,1.26,0,.3.09.61.11.91a1.83,1.83,0,0,1-.59,1.81l-.39-1h-.1l.21,1.25a1.34,1.34,0,0,1-1.44-.64,1.33,1.33,0,0,0-.27-.26A10.87,10.87,0,0,1,9.91,7.33Zm1.32,5h.06a.17.17,0,0,1,0-.1v.07h-.06Z"/>
            <path class="cls-16" d="M6.11,17.79l-2,.29V18l1.66-.55c-.62-.25-1.11-.83-1.91-.52a4.84,4.84,0,0,0-3.17,3.4,1,1,0,0,0,0,.25,1,1,0,0,0,0,.24,11.39,11.39,0,0,1,3.52-1.25,1.64,1.64,0,0,1,.26-.2c.36-.21.74-.38,1.08-.61A1,1,0,0,0,6.11,17.79Z"/>
            <path class="cls-11" d="M8.47,13.5l1.07.57h0c-.14-.79-.27-1.59-.4-2.39a.5.5,0,0,0-.09-.24A9.43,9.43,0,0,1,7.61,8.3c-.06.12-.19.24-.19.36a7.71,7.71,0,0,0,0,1.92C7.72,11.58,8.13,12.53,8.47,13.5Z"/>
            <path class="cls-25" d="M8.47,13.5c-.34-1-.75-1.92-1-2.92a7.71,7.71,0,0,1,0-1.92c0-.12.13-.24.19-.36-.1-.32-.19-.07-.25,0a5,5,0,0,0-.81,2.4,16.52,16.52,0,0,0,.07,1.86.45.45,0,0,0,.4.47C7.52,13.17,8,13.35,8.47,13.5Z"/>
            <path class="cls-11" d="M8.91,16.78l1.89.63c.44-1-.52-2.42-1.62-3,.06.25.14.5.19.75A1.68,1.68,0,0,1,8.91,16.78Z"/>
            <path class="cls-11" d="M6.11,17.79c.06.49-.27.75-.6,1a11.49,11.49,0,0,1-1.08.61,1.64,1.64,0,0,0-.26.2c1.15-.26,2.31-.51,3.45-.8A6.92,6.92,0,0,0,9,18.23Z"/>
            <path class="cls-11" d="M9.79,12.82a4.71,4.71,0,0,0,.92,2.44,7.35,7.35,0,0,1,.74,1.35c0-1,0-2,.05-2.89a1.34,1.34,0,0,1-1.44-.64A1.33,1.33,0,0,0,9.79,12.82Z"/>
            <path class="cls-11" d="M11.78,13.46l.13,2.19c1-1.55,1.31-3.63.4-4.91,0,.3.09.61.11.91A1.82,1.82,0,0,1,11.78,13.46Z"/>
            <path class="cls-11" d="M6.53,17.22a6.21,6.21,0,0,0,3.51.4L8.23,17,7,17.15A2.42,2.42,0,0,0,6.53,17.22Z"/>
            <path class="cls-22" d="M11.91,17.83a1.73,1.73,0,0,0,.06,2,1,1,0,0,1,0,1.26v.08a2.2,2.2,0,0,0,.87,3h0a2.28,2.28,0,0,0,1.23.26.78.78,0,0,0,.82-.74.57.57,0,0,0,0-.26,2.21,2.21,0,0,1,0-.81.91.91,0,0,1,.91-.73c.59-.05,1.19-.06,1.77-.15.85-.14,1.08-.69.62-1.41-.23-.35-.51-.67-.75-1A1,1,0,0,1,17.19,18a1.13,1.13,0,0,1,1.21-.58,3.91,3.91,0,0,1,.84.17,3,3,0,0,0-1.33-2.91,1.22,1.22,0,0,0-1.53.26c-.47.45-.61.48-1.19.23a1.18,1.18,0,0,0-1.31.08,1.11,1.11,0,0,0-.29,1.23,2.66,2.66,0,0,1,.07.39c.05.53-.14.72-.65.59a1.21,1.21,0,0,0-1,.28h0l-.09.1Zm5-2.92h0a.47.47,0,0,1,.63-.18.16.16,0,0,1,.08.06,3,3,0,0,1,.61.76.44.44,0,0,1-.09.31c-.21.29-.75.26-1.13,0a.55.55,0,0,1-.27-.73v0A.45.45,0,0,1,16.91,14.91Zm-3.36,8.6a1.21,1.21,0,0,1-1.22-1,.78.78,0,0,1,.69-.8,1.33,1.33,0,0,1,1.16,1.15.58.58,0,0,1-.5.65Zm1.63-6a1.2,1.2,0,0,1-1.27-.93.72.72,0,0,1,.64-.79h0a1.32,1.32,0,0,1,1.21,1.1.63.63,0,0,1-.63.61h0Zm-2,2.09a1.2,1.2,0,0,1-1.24-1,.77.77,0,0,1,.69-.76A1.33,1.33,0,0,1,13.77,19a.58.58,0,0,1-.57.59h0Zm3.22,1.54a1.26,1.26,0,0,1-1.25-1,.79.79,0,0,1,.7-.81A1.37,1.37,0,0,1,17,20.49a.58.58,0,0,1-.51.64H16.4Z"/>
            <path class="cls-23" d="M10.77,21.51c.43,0,.62-.19.61-.6a1.29,1.29,0,0,0-1.15-1.21.82.82,0,0,0-.7.81A1.26,1.26,0,0,0,10.77,21.51Zm-1-1.24c.09-.07.23-.26.4-.3.32-.07.78.41.77.78a.43.43,0,0,1-.28.32.86.86,0,0,1-.9-.8Z"/>
            <path class="cls-23" d="M12.14,26.25a1.39,1.39,0,0,0,1.17,1.16.68.68,0,0,0,.64-.69,1.22,1.22,0,0,0-1-1.2.77.77,0,0,0-.81.73Zm1.38.41c-.06.06-.15.24-.29.27s-.87-.45-.83-.74a.66.66,0,0,1,.39-.47C13.08,25.61,13.48,26.1,13.52,26.66Z"/>
            <path class="cls-23" d="M10,23.71a5,5,0,0,0-.6-.89.63.63,0,0,0-.9-.06h0c-.3.22-.49.54-.25.89a2.82,2.82,0,0,0,.72.78c.49.31,1-.05.94-.65Zm-.47.12c-.07.05-.19.22-.33.24-.31.05-.85-.49-.78-.79a.74.74,0,0,1,.46-.44c.27-.08.67.47.68,1Z"/>
            <path class="cls-23" d="M19.09,18.3a3.72,3.72,0,0,0-.45-.33c-.47-.24-.87-.16-1.07.18a.84.84,0,0,0,.26,1.11,3.38,3.38,0,0,0,.41.24l.29.05c.67.05,1-.33.74-1a1.59,1.59,0,0,1-.07-.2h0Zm-.43.87c-.56,0-1-.34-1-.66a.4.4,0,0,1,.37-.43h.07c.33,0,.86.47.83.77C18.91,19,18.72,19.1,18.66,19.17Z"/>
            <path class="cls-23" d="M17.26,24.22a5.55,5.55,0,0,0-.92-.67.37.37,0,0,0-.51.11.28.28,0,0,0-.06.18.84.84,0,0,1,1.09.47,1.05,1.05,0,0,1,.05.19c.05.27-.06.42-.35.4a.81.81,0,0,1-.81-.79h0a1.22,1.22,0,0,1,0-.27.39.39,0,0,0-.35.42.32.32,0,0,0,.08.21,5.9,5.9,0,0,0,.66.75l.19.08h.2c.62,0,.82-.21.73-.83A1,1,0,0,1,17.26,24.22Z"/>
            <path class="cls-23" d="M20.91,21.63a5.08,5.08,0,0,0-.79-.59.68.68,0,0,0-.94.19v0a.41.41,0,0,0-.05.09.78.78,0,0,0,.3,1.05l.3.18C20.73,22.81,21,22.57,20.91,21.63Zm-.62.63c-.55,0-1.09-.32-1-.63a.67.67,0,0,1,.41-.44c.28-.07.88.48.84.75S20.33,22.2,20.29,22.26Z"/>
            <path class="cls-23" d="M21.49,16.36l-.36-.58L21,15.69h0a1.35,1.35,0,0,0-.49,0c-.11,0-.2.17-.3.26a.5.5,0,0,1,.71.11l.06.11a1.46,1.46,0,0,1,.12.51,1.46,1.46,0,0,1-.51,0A.55.55,0,0,1,20.2,16h0v-.09c-.08.13-.23.27-.23.39,0,.41.73.88,1.13.78S21.49,16.65,21.49,16.36Z"/>
            <path class="cls-23" d="M22.45,19.49c-.05-.26-.11-.52-.16-.79-.15-.1-.3-.23-.46-.32a.52.52,0,0,0-.69.29.61.61,0,0,1,1,.43c0,.21,0,.32-.27.32a.7.7,0,0,1-.69-.71h0c-.06.13-.19.33-.15.38a2.76,2.76,0,0,0,.67.65A.56.56,0,0,0,22.45,19.49Z"/>
            <path class="cls-23" d="M22.6,22.7c.29,0,.67.08.77-.36a1,1,0,0,0-.37-1,1.75,1.75,0,0,0-.29-.18l-.44.18.05.06a.57.57,0,0,1,.72.36h0A.41.41,0,0,1,23,22a.43.43,0,0,1-.23.35c-.25.07-.62-.38-.62-.7a.43.43,0,0,1,0-.16l-.06-.05c-.27.26-.18.54,0,.81a3.79,3.79,0,0,0,.3.4l.14.09Z"/>
            <path class="cls-23" d="M19.52,24.46a.57.57,0,0,0,.07.8h0l.1.07c.36.27.83.32,1,.09a.84.84,0,0,0-.16-1,.64.64,0,0,0-.89-.13h0c.44-.08.64.21.77.54s0,.4-.3.36a.69.69,0,0,1-.63-.72Z"/>
            <path class="cls-23" d="M23.71,25.94l-.33-1.09c-.24,0-.48-.35-.71,0h0a.67.67,0,0,1,.7.64h0v.13a.45.45,0,0,1-.37.2.69.69,0,0,1-.45-.84h0A.76.76,0,0,0,22.72,26l.1.06a.59.59,0,0,0,.83,0A.44.44,0,0,0,23.71,25.94Z"/>
            <path class="cls-23" d="M16.53,28.15c-.26.2-.15.42,0,.61a.94.94,0,0,0,1,.41.6.6,0,0,0,.38-.17c.25-.39,0-.65-.29-.88s-.54-.48-.87-.1h0a.73.73,0,0,1,.8.45c.14.24,0,.39-.23.42a.68.68,0,0,1-.73-.61v-.09Z"/>
            <path class="cls-23" d="M20.45,29.85c-.32.31-.15.58.11.8a.72.72,0,0,0,1,0c.27-.37,0-.58-.24-.8a.54.54,0,0,0-.75-.13.53.53,0,0,0-.13.13.64.64,0,0,1,.81.31c0,.07.08.22,0,.27a.53.53,0,0,1-.3.12C20.62,30.53,20.45,30.3,20.45,29.85Z"/>
            <path class="cls-23" d="M19.91,27.5c-.05.18-.19.42-.12.51a1.42,1.42,0,0,0,.62.49.57.57,0,0,0,.53-.13.68.68,0,0,0,0-.59c-.23-.52-.61-.65-1-.37h0c.34-.09.52.12.65.37a.36.36,0,0,1,0,.35c0,.06-.24.06-.34,0-.3-.11-.49-.3-.38-.66Z"/>
            <path class="cls-24" d="M19.2,18.39a1.59,1.59,0,0,0,.07.2c.22.63-.07,1-.74,1l-.29-.05a2.77,2.77,0,0,0,.48.26.76.76,0,0,0,1-.36A.87.87,0,0,0,19.2,18.39Z"/>
            <path class="cls-23" d="M23.15,28c-.33.22-.11.47,0,.67A.72.72,0,0,0,24,29c.34-.2.29-.5.17-.8a.62.62,0,0,0-.75-.44h-.09a.6.6,0,0,1,.6.6h0c0,.09-.16.25-.22.24a.62.62,0,0,1-.55-.63.11.11,0,0,1,0-.08Z"/>
            <path class="cls-24" d="M17.26,24.22v.25c.09.62-.11.84-.73.83h-.21a.81.81,0,0,0,1.13.09h0A.81.81,0,0,0,17.26,24.22Z"/>
            <path class="cls-24" d="M20.91,21.63c.11.94-.18,1.18-1.16.94a4.4,4.4,0,0,0,.79.29.58.58,0,0,0,.7-.38A.68.68,0,0,0,20.91,21.63Z"/>
            <path class="cls-23" d="M15.16,13.23c-.2.2-.17.45,0,.55a1.58,1.58,0,0,0,.8.13c.08,0,.25-.35.2-.43a1.16,1.16,0,0,0-.51-.42.55.55,0,0,0-.45.08h.05a.91.91,0,0,1,.33,0,2.57,2.57,0,0,1,.33.33c-.07.06-.16.17-.22.16a1.61,1.61,0,0,1-.52-.18c-.05,0,0-.18,0-.28Z"/>
            <path class="cls-23" d="M20,14.44a.56.56,0,0,0-.23-.76h0c-.23-.16-.49-.27-.72,0h0c.06,0,.13-.06.17,0a3.81,3.81,0,0,1,.52.29v.23h-.61C19.32,14.64,19.64,14.57,20,14.44Z"/>
            <path class="cls-23" d="M19,13.68h-.1c0,.21-.21.47.17.55h0a1.88,1.88,0,0,0-.1-.47Z"/>
            <path class="cls-23" d="M16.7,28l-.17.18h0l.16-.17Z"/>
            <path class="cls-23" d="M19.69,24.28l-.17.18h0l.16-.18Z"/>
            <path class="cls-23" d="M22.67,24.86l-.17.1.07.06a1.59,1.59,0,0,0,.13-.13Z"/>
            <path class="cls-24" d="M16.35,25.3l-.19-.08Z"/>
            <path class="cls-24" d="M22.6,22.7l-.14-.09Z"/>
            <path class="cls-23" d="M15.24,13.14l-.08.09h0l.09-.07Z"/>
            <path class="cls-23" d="M22.27,21.31l-.08.09.06.05.07-.08Z"/>
            <path class="cls-23" d="M23.31,27.8l-.08.09h0l.09-.07Z"/>
            <path class="cls-23" d="M23.23,27.89l-.08.09h0l.07-.1Z"/>
            <path class="cls-24" d="M19.09,18.3l.12.09Z"/>
            <path class="cls-23" d="M20,27.41l-.08.09h0l.08-.08Z"/>
            <path class="cls-26" d="M6.47,24.32c0-.45-.09-.76-.46-.75-.12,0-.35.33-.31.4a3.3,3.3,0,0,0,.51.67Z"/>
            <path class="cls-26" d="M14.57,30.21c.14-.24.3-.43.27-.45a6.25,6.25,0,0,0-.65-.61l-.36.4Z"/>
            <path class="cls-26" d="M10.32,27.71c0-.06.19-.23.16-.27-.18-.23-.4-.44-.61-.66-.11.13-.29.24-.32.38S9.91,27.72,10.32,27.71Z"/>
            <path class="cls-26" d="M7.34,21.07l-.43-.42c-.09.11-.27.28-.24.34a2.43,2.43,0,0,0,.41.5Z"/>
            <path class="cls-26" d="M7.23,27.2c.27.17.45.31.65.41l.22-.2a3,3,0,0,0-.49-.52A1.61,1.61,0,0,0,7.23,27.2Z"/>
            <path class="cls-22" d="M11.91,17.82l.09-.1Z"/>
            <path class="cls-22" d="M21,15.69l.11.09Z"/>
            <path class="cls-27" d="M4.26,14.61l.11.08Z"/>
            <path class="cls-28" d="M6.28,15.78l.15.12h0l.06-.08-.17-.08Z"/>
            <path class="cls-28" d="M11.23,12.3h.06a.17.17,0,0,1,0-.1v.07S11.23,12.29,11.23,12.3Z"/>
            <path class="cls-23" d="M13.53,23.51a.57.57,0,0,0,.63-.52.29.29,0,0,0,0-.13A1.33,1.33,0,0,0,13,21.71a.78.78,0,0,0-.69.8A1.21,1.21,0,0,0,13.53,23.51Zm0-.44c-.5,0-1.06-.38-1-.67a.65.65,0,0,1,.38-.4c.29-.07.79.48.76.81,0,.08-.11.19-.15.26Z"/>
            <path class="cls-23" d="M15.16,17.5a.63.63,0,0,0,.65-.59h0a1.32,1.32,0,0,0-1.21-1.1.71.71,0,0,0-.69.73h0A1.2,1.2,0,0,0,15.16,17.5Zm0-.42c-.58,0-1.08-.32-1-.63a.61.61,0,0,1,.4-.4c.32-.08.9.43.85.74-.06.13-.24.21-.29.29Z"/>
            <path class="cls-23" d="M13.16,19.59a.58.58,0,0,0,.61-.55h0v0a1.33,1.33,0,0,0-1.16-1.15.77.77,0,0,0-.69.76A1.23,1.23,0,0,0,13.16,19.59Zm-1-1.24c.09-.07.24-.27.41-.3.33-.07.87.55.8.88a.34.34,0,0,1-.18.21.9.9,0,0,1-1-.7s0-.06,0-.09Z"/>
            <path class="cls-23" d="M16.38,21.13a.58.58,0,0,0,.62-.54h0V20.5a1.37,1.37,0,0,0-1.17-1.16.79.79,0,0,0-.7.81A1.26,1.26,0,0,0,16.38,21.13Zm0-.4c-.49,0-1-.41-1-.71a.65.65,0,0,1,.41-.43c.31-.07.83.51.78.84,0,.13-.19.24-.24.3Z"/>
            <path class="cls-23" d="M16.91,14.91a.57.57,0,0,0,0,.79l.14.11c.38.31.92.34,1.13,0,.07-.08.13-.25.09-.31a3,3,0,0,0-.61-.76.46.46,0,0,0-.65,0l-.06.09a.76.76,0,0,1,.92.39c.15.27,0,.45-.28.44C17,15.72,16.82,15.44,16.91,14.91Z"/>
            <path class="cls-26" d="M9.76,20.27a.86.86,0,0,0,.89.8.43.43,0,0,0,.28-.32c0-.37-.45-.85-.77-.78C10,20,9.85,20.2,9.76,20.27Z"/>
            <path class="cls-26" d="M13.52,26.66c0-.56-.44-1.05-.73-.94a.66.66,0,0,0-.39.47c0,.29.55.81.83.74S13.46,26.72,13.52,26.66Z"/>
            <path class="cls-26" d="M9.56,23.83c0-.52-.41-1.07-.69-1a.71.71,0,0,0-.42.44c-.07.3.47.84.78.79C9.37,24.05,9.49,23.88,9.56,23.83Z"/>
            <path class="cls-26" d="M18.66,19.17c.06-.07.24-.18.26-.32a1,1,0,0,0-.83-.77.39.39,0,0,0-.44.35v.08C17.63,18.83,18.1,19.17,18.66,19.17Z"/>
            <path class="cls-26" d="M15.77,23.84a.79.79,0,0,0,.5,1h0a.61.61,0,0,0,.27,0c.29,0,.4-.13.35-.4a.84.84,0,0,0-1-.71h0Z"/>
            <path class="cls-26" d="M20.29,22.26c0-.06.21-.18.23-.32s-.56-.82-.84-.75a.67.67,0,0,0-.41.44C19.2,21.94,19.74,22.29,20.29,22.26Z"/>
            <path class="cls-26" d="M20.24,15.91a.55.55,0,0,0,.29.72h.09a1.46,1.46,0,0,0,.51,0,1.46,1.46,0,0,0-.12-.51.5.5,0,0,0-.66-.28h0a.21.21,0,0,0-.1.06Z"/>
            <path class="cls-26" d="M21.14,18.67a.7.7,0,0,0,.65.75h0c.24,0,.31-.11.27-.32a.61.61,0,0,0-.65-.57h0a.52.52,0,0,0-.35.14Z"/>
            <path class="cls-26" d="M22.32,21.37l-.07.08a.43.43,0,0,0,0,.16c0,.32.37.77.62.7A.43.43,0,0,0,23.1,22a.57.57,0,0,0-.5-.63h0A.42.42,0,0,0,22.32,21.37Z"/>
            <path class="cls-26" d="M19.72,24.32l-.16.18a.69.69,0,0,0,.63.72q.43,0,.3-.36A.71.71,0,0,0,19.72,24.32Z"/>
            <path class="cls-26" d="M22.7,24.89a1.59,1.59,0,0,1-.13.13.69.69,0,0,0,.45.84.45.45,0,0,0,.37-.2.67.67,0,0,0-.55-.76H22.7Z"/>
            <path class="cls-26" d="M16.73,28l-.16.17a.67.67,0,0,0,.64.7h.09c.25,0,.37-.18.23-.42A.73.73,0,0,0,16.73,28Z"/>
            <path class="cls-26" d="M20.45,29.85c0,.45.17.68.55.7a.53.53,0,0,0,.3-.12v-.27a.64.64,0,0,0-.81-.31Z"/>
            <path class="cls-26" d="M20,27.44l-.08.08c-.11.36.08.55.38.66h.34a.36.36,0,0,0,0-.35C20.53,27.56,20.35,27.35,20,27.44Z"/>
            <path class="cls-26" d="M23.25,27.91l-.07.1a.11.11,0,0,0,0,.08.62.62,0,0,0,.55.63c.06,0,.2-.15.22-.24a.6.6,0,0,0-.56-.64h0Z"/>
            <path class="cls-26" d="M15.29,13.19l-.09.07v.28a1.61,1.61,0,0,0,.52.18c.06,0,.15-.1.22-.16a2.57,2.57,0,0,0-.33-.33A.69.69,0,0,0,15.29,13.19Z"/>
            <path class="cls-26" d="M19,13.72a2.63,2.63,0,0,0,.1.47h.61V14a3.81,3.81,0,0,0-.52-.29Z"/>
            <path class="cls-26" d="M13.52,23.07c0-.06.18-.18.19-.3,0-.33-.47-.88-.76-.81a.71.71,0,0,0-.42.44C12.46,22.69,13,23.09,13.52,23.07Z"/>
            <path class="cls-26" d="M15.12,17.08s.23-.16.24-.29c.05-.31-.53-.82-.85-.74a.61.61,0,0,0-.4.4C14,16.76,14.54,17.09,15.12,17.08Z"/>
            <path class="cls-26" d="M12.13,18.35c0,.54.67.95,1,.79a.34.34,0,0,0,.18-.21c.07-.33-.47-.95-.8-.88C12.37,18.08,12.22,18.28,12.13,18.35Z"/>
            <path class="cls-26" d="M16.33,20.73c0-.06.21-.17.23-.3.05-.33-.47-.91-.78-.84a.65.65,0,0,0-.41.43C15.31,20.32,15.84,20.73,16.33,20.73Z"/>
            <path class="cls-26" d="M16.91,14.91c-.07.53.15.81.64.83.31,0,.43-.17.28-.44A.76.76,0,0,0,16.91,14.91Z"/>
          </g>
        </g>
        <g>
          <path class="cls-2" d="M61.83,12.94a2.42,2.42,0,0,1-1.54-.59c-.21-.16-.41-.34-.6-.51s-.55-.48-.83-.69a1.9,1.9,0,0,0-.63-.33H58A.54.54,0,0,0,58,11a2.25,2.25,0,0,1-2,1.89h-.29a1.81,1.81,0,0,1-1.93-1.66,1.94,1.94,0,0,1,.07-.64c.19-1,.42-2,.64-3l.27-1.26.15-.66c.1-.46.2-.94.29-1.41a2.08,2.08,0,0,1,2.1-1.78h.8c1.07,0,2.47,0,3.89.14a4.58,4.58,0,0,1,2.12.88,3.44,3.44,0,0,1,1.43,2.3,3.38,3.38,0,0,1-.8,2.6,10.66,10.66,0,0,1-1.32,1.28h0l.21.24a1.71,1.71,0,0,1-.09,2.43h0a1.46,1.46,0,0,1-.38.27A2.52,2.52,0,0,1,61.83,12.94Zm-3.1-5.65h.56a3.21,3.21,0,0,0,1.18-.22c.34-.13.74-.36.7-.72S60.71,6,60.36,6H59Z"/>
          <path class="cls-2" d="M103.37,13.08a2.1,2.1,0,0,1-1.38-.51l-.24-.2a10,10,0,0,1-1.06-1,1,1,0,0,0-.78-.37h-.07a3.57,3.57,0,0,1-.31.76,2,2,0,0,1-1.22,1.13,4.13,4.13,0,0,1-.78.08,2.78,2.78,0,0,1-1.2-.25c-1-.49-.73-1.65-.63-2.08.4-1.78.87-3.89,1.31-6a2.15,2.15,0,0,1,2.14-1.9h.06a38.86,38.86,0,0,1,4.7.26,3.36,3.36,0,0,1,3,2.7,3.79,3.79,0,0,1-1.44,3.81c-.17.15-.35.28-.53.41l.11.13a1.84,1.84,0,0,1,.44,1.65,1.86,1.86,0,0,1-1.16,1.22A2.85,2.85,0,0,1,103.37,13.08Zm-2.79-5.59h.57a2.14,2.14,0,0,0,1.41-.5c.29-.23.34-.4.34-.43a.8.8,0,0,0-.45-.24A7.86,7.86,0,0,0,101,6.15h-.11Z"/>
          <path class="cls-2" d="M93.57,13.07a1.79,1.79,0,0,1-1.35-.58,2,2,0,0,1-.46-1.56v-.29l-2.28.08c-.06.19-.11.38-.16.58A2.18,2.18,0,0,1,87.43,13h-.37a1.74,1.74,0,0,1-1.41-.59,1.84,1.84,0,0,1-.32-1.6,39.42,39.42,0,0,1,1-4.46,4.58,4.58,0,0,1,1.44-2.12A6.52,6.52,0,0,1,94.19,3,3.41,3.41,0,0,1,96.7,7.12h0l-.06.2c-.11.51-.23,1-.34,1.54-.18.78-.36,1.58-.53,2.37A2.17,2.17,0,0,1,94.3,13,2.55,2.55,0,0,1,93.57,13.07ZM91.79,6.21a1.91,1.91,0,0,0-.88.19c-.36.19-.58.38-.62.74l2.26-.08c.13-.37.08-.5,0-.65A1.08,1.08,0,0,0,91.79,6.21Z"/>
          <path class="cls-2" d="M69.67,13.08h-.15L68.83,13c-.48-.08-.93-.16-1.38-.28a3.61,3.61,0,0,1-2.73-4.3V8.24c.11-.57.24-1.14.37-1.7s.32-1.41.46-2.11a2.12,2.12,0,0,1,1.79-1.8,1.86,1.86,0,0,1,.52-.11,1.72,1.72,0,0,1,1.33.55,1.86,1.86,0,0,1,.43,1.5c-.09.67-.21,1.34-.36,2-.06.28-.12.56-.17.85a3.63,3.63,0,0,1-.1.45,6.72,6.72,0,0,0-.16,1c0,.35,0,.45.48.55h.44A1.59,1.59,0,0,0,71.41,8l.27-1.33c.15-.78.32-1.59.5-2.39a2.25,2.25,0,0,1,2.25-1.8h.12A1.83,1.83,0,0,1,76,3.19a1.71,1.71,0,0,1,.29,1.45c-.36,1.74-.65,3.28-1.06,4.82a4.23,4.23,0,0,1-2.61,2.75,15.51,15.51,0,0,1-2,.64c-.26.06-.5.13-.73.2A.83.83,0,0,1,69.67,13.08Z"/>
          <path class="cls-2" d="M80.18,13.06a2,2,0,0,1-1.88-1.41c-.72-2-1.44-4.12-2.15-6.29a2.07,2.07,0,0,1,0-1.69,1.86,1.86,0,0,1,1.19-.93,2.82,2.82,0,0,1,.86-.14,2,2,0,0,1,1.91,1.45c.2.53.39,1.07.57,1.6l.42,1.19a.33.33,0,0,1,0,.14l.32-.38,1.82-2.29.46-.58a2.46,2.46,0,0,1,1.86-1.06h.27a2.27,2.27,0,0,1,1.53.84,1.84,1.84,0,0,1-.12,1.83,13.84,13.84,0,0,1-.92,1.25L86.09,7l-.9,1.16c-.89,1.16-1.81,2.36-2.73,3.53a4.14,4.14,0,0,1-1.22,1.06A2.33,2.33,0,0,1,80.18,13.06Z"/>
          <path class="cls-2" d="M46.54,12.81a1.79,1.79,0,0,1-1.48-.62,2,2,0,0,1-.33-1.73c.28-1.41.58-2.83.87-4.2l.42-2a2.07,2.07,0,0,1,2-1.87h5.89A1.64,1.64,0,0,1,55.63,4V4h0A1.91,1.91,0,0,1,54,5.84a3.3,3.3,0,0,1-.77.08h-3.3v.31a17,17,0,0,1,1.74.15h.12a2.35,2.35,0,0,1,.79.14,1.63,1.63,0,0,1,1,1.23A1.46,1.46,0,0,1,53,9.12a3.29,3.29,0,0,1-1.7.67c-.66.07-1.33.08-2,.1h-.2l-.36,1.34a2.08,2.08,0,0,1-1.87,1.56,2.54,2.54,0,0,1-.39,0Z"/>
          <path class="cls-11" d="M62.16,9.62c.28.29.55.52.78.79a.92.92,0,0,1,0,1.3,1,1,0,0,1-.27.19,1.55,1.55,0,0,1-1.87-.17l-1.46-1.22a2.44,2.44,0,0,0-.92-.47c-.8-.19-1,0-1.23.76a1.5,1.5,0,0,1-1.34,1.29c-.93.09-1.46-.42-1.28-1.34.27-1.43.6-2.85.91-4.28.15-.69.31-1.39.44-2.08a1.27,1.27,0,0,1,1.32-1.14c1.54,0,3.08,0,4.61.13a3.62,3.62,0,0,1,1.72.73,2.47,2.47,0,0,1,.73,3.41v0a2.34,2.34,0,0,1-.24.31A19.79,19.79,0,0,1,62.16,9.62Zm-4.4-1.68a4.88,4.88,0,0,0,3-.08A1.62,1.62,0,0,0,62,6.3c0-.7-.62-1.1-1.56-1.16-.62,0-1.25,0-2,.06Z"/>
          <path class="cls-11" d="M103.72,9.75c.26.24.51.49.75.76a1,1,0,0,1,0,1.41,1.08,1.08,0,0,1-.34.21,1.49,1.49,0,0,1-1.57-.13,16.23,16.23,0,0,1-1.24-1.1,1.8,1.8,0,0,0-2.08-.54,5.23,5.23,0,0,1-.37,1c-.16.3-.41.68-.68.74a2.46,2.46,0,0,1-1.47-.1c-.4-.2-.3-.74-.2-1.19q.67-3,1.32-6a1.37,1.37,0,0,1,1.35-1.26,41.14,41.14,0,0,1,4.71.21,2.57,2.57,0,0,1,2.32,2.07,3,3,0,0,1-1.19,3A11,11,0,0,1,103.72,9.75Zm-3.5-4.41-.59,2.72a3.41,3.41,0,0,0,3.44-.4c1-.8.81-1.72-.41-2.06A15.42,15.42,0,0,0,100.22,5.34Z"/>
          <path class="cls-11" d="M92.72,9.8l-3.81.13c-.1.36-.23.76-.33,1.17a1.34,1.34,0,0,1-1.24,1.1c-.91.11-1.38-.31-1.22-1.22a43.4,43.4,0,0,1,1-4.38,3.66,3.66,0,0,1,1.17-1.72,5.75,5.75,0,0,1,5.62-1.1A2.62,2.62,0,0,1,96,6.84h0c0,.11,0,.21-.08.32-.29,1.31-.6,2.61-.87,3.93a1.38,1.38,0,0,1-1,1.1,1.07,1.07,0,0,1-1.41-.52,1.1,1.1,0,0,1-.07-.67C92.59,10.67,92.65,10.33,92.72,9.8Zm.4-2a1.68,1.68,0,0,0,0-2,2.36,2.36,0,0,0-2.56-.19,1.78,1.78,0,0,0-1,2.27Z"/>
          <path class="cls-11" d="M69.67,12.28c-.76-.15-1.4-.21-2-.38a2.82,2.82,0,0,1-2.18-3.33l.06-.22c.27-1.27.58-2.54.83-3.81a1.36,1.36,0,0,1,1.17-1.17c.87-.18,1.42.24,1.33,1.12s-.34,1.86-.52,2.79a12.91,12.91,0,0,0-.27,1.51A1.18,1.18,0,0,0,69,10.17h.18a2.41,2.41,0,0,0,3-1.68l0-.05V8.22c.26-1.24.49-2.48.77-3.71A1.46,1.46,0,0,1,74.5,3.33a.92.92,0,0,1,1,.79.81.81,0,0,1,0,.38c-.31,1.58-.64,3.17-1,4.73a3.54,3.54,0,0,1-2.17,2.23A22.69,22.69,0,0,1,69.67,12.28Z"/>
          <path class="cls-11" d="M81,8.47c.47-.55.82-1,1.16-1.37.77-.95,1.53-1.91,2.29-2.87a1.54,1.54,0,0,1,1.39-.74,1.5,1.5,0,0,1,1,.49,1.14,1.14,0,0,1-.15,1,17.25,17.25,0,0,1-1.2,1.61c-1.2,1.56-2.4,3.13-3.62,4.68a3.15,3.15,0,0,1-1,.85,1.21,1.21,0,0,1-1.67-.37,1,1,0,0,1-.15-.33c-.75-2.11-1.45-4.21-2.12-6.31-.28-.85,0-1.39.72-1.6a1.25,1.25,0,0,1,1.68.55,1.33,1.33,0,0,1,.1.28c.35.92.65,1.86,1,2.78A11.27,11.27,0,0,0,81,8.47Z"/>
          <path class="cls-11" d="M49.11,7l2.45.21a2.37,2.37,0,0,1,.7.1.68.68,0,0,1,.51.84v0a.8.8,0,0,1-.23.37A2.64,2.64,0,0,1,51.27,9c-.9.1-1.8.08-2.72.11-.19.71-.35,1.31-.52,1.92a1.27,1.27,0,0,1-1.2,1c-1,.13-1.51-.36-1.31-1.38.4-2,.85-4.1,1.28-6.15.15-.69.5-1.22,1.24-1.24h5.8c.46,0,1,.18,1,.82a1.16,1.16,0,0,1-1,1,2.88,2.88,0,0,1-.59.06H50.76C49.18,5,49,5.18,49.11,7Z"/>
        </g>
        <g>
          <path class="cls-2" d="M98.83,29.13A8.08,8.08,0,0,1,97.44,29a2.43,2.43,0,0,1-1.7-1.11l-.78.48a6.5,6.5,0,0,1-1.35.52,4.82,4.82,0,0,1-1,.14,2.4,2.4,0,0,1-2-1l-.18.1a6.66,6.66,0,0,1-1.27.59,5.08,5.08,0,0,1-1.39.25,2.65,2.65,0,0,1-1.91-.81l-.52.3a4.13,4.13,0,0,1-2,.54H83a2.73,2.73,0,0,1-2.62-2.85,2.5,2.5,0,0,1,.09-.61,6.71,6.71,0,0,1,.42-1.24l.42-.88c.16-.33.31-.64.45-1h0c.39-.92.79-1.88,1.11-2.83a2.06,2.06,0,0,1,1.8-1.53h.22A2.31,2.31,0,0,1,87,19.27,2.6,2.6,0,0,1,87.3,21c.18-.44.35-.89.53-1.34a2.12,2.12,0,0,1,2-1.63,2.76,2.76,0,0,1,.57.06,2.39,2.39,0,0,1,1.89,2.77V21l.56-1.4A2,2,0,0,1,94.68,18h.23a2.3,2.3,0,0,1,2.21,2A4.48,4.48,0,0,1,97,21.21l.17-.33a3.13,3.13,0,0,0,.16-.52,3.17,3.17,0,0,1,.12-.44v-.17A6.44,6.44,0,0,1,97.7,19a1.68,1.68,0,0,1,1.63-1h.12c1.15,0,2.33.09,3.46.12l1.31.05a2,2,0,0,1,1.7.9,1.87,1.87,0,0,1,.18,1.55,9.18,9.18,0,0,1,1-.77,10.17,10.17,0,0,1,4.35-1.79,5.22,5.22,0,0,1,.88-.07,4.25,4.25,0,0,1,1.58.28,2.36,2.36,0,0,1,1.52,2.92,9.24,9.24,0,0,1-.57,1.6c-.19.45-.4.91-.61,1.35a1,1,0,0,1,.41.09,1.08,1.08,0,0,1,.54.59c.27.79.26,2-1.4,3.17a4.57,4.57,0,0,1-2.59.94,3.39,3.39,0,0,1-1.73-.48c-.23.09-.46.18-.69.25a5.76,5.76,0,0,1-1.65.27,3.51,3.51,0,0,1-2.87-1.44A10,10,0,0,1,99,29.09Zm11-6.39a4.9,4.9,0,0,0-1.18,2,2.27,2.27,0,0,0-.09.52.35.35,0,0,0,.23-.2l.33-.73c.26-.54.49-1.06.73-1.59Zm-5.74.49-1.36,1.34a3.76,3.76,0,0,0,1.32-1.28Z"/>
          <path class="cls-2" d="M69.19,21.3a2.36,2.36,0,0,0-1.47-3h-.09A4.48,4.48,0,0,0,66.1,18a4.79,4.79,0,0,0-1,.11,10.06,10.06,0,0,0-6.67,4.34c.62-1.47,1.25-3,1.87-4.46a6.53,6.53,0,0,0,.41-1.56,2.35,2.35,0,0,0-1.91-2.72,1.63,1.63,0,0,0-.31,0h-.26a1.83,1.83,0,0,0-1.86,1.47c-.06.19-.12.38-.17.57a6.73,6.73,0,0,1-.27.87c-.17.38-.33.76-.49,1.14a6.56,6.56,0,0,0,.31-1.38,2.32,2.32,0,0,0-.57-1.86,2.44,2.44,0,0,0-1.84-.81h-.22a1.79,1.79,0,0,0-1.71,1.42,7.94,7.94,0,0,1-.3,1c-.41,1.2-.88,2.39-1.42,3.62a2.46,2.46,0,0,0-2-1.67,4.74,4.74,0,0,0-.75-.06,4.6,4.6,0,0,0-.91.09,7.24,7.24,0,0,0-1.7.57,9.71,9.71,0,0,0-2.75,2A10.91,10.91,0,0,0,40.49,22a7.47,7.47,0,0,0-1.16,2.43A3.73,3.73,0,0,0,39.47,27c0,.09.09.18.15.27a3.08,3.08,0,0,0,1.18,1.14,4.2,4.2,0,0,0,1.1.43,5.67,5.67,0,0,0,1.48.19,7.71,7.71,0,0,0,3.17-.74c.27-.12.52-.24.77-.38A2.39,2.39,0,0,0,49.39,29a4.41,4.41,0,0,0,1.19-.19,8.27,8.27,0,0,0,1.59-.68l.22-.11a2.42,2.42,0,0,0,2,1,4,4,0,0,0,.84-.09A6.74,6.74,0,0,0,58,27.66a2.88,2.88,0,0,0,1.64,1.13,6.46,6.46,0,0,0,1.45.17h.68a7.81,7.81,0,0,0,1.42-.37h.06a3.45,3.45,0,0,0,1.72.48,4.37,4.37,0,0,0,2.39-.81c1.38-.89,2-2,1.69-3.18a1.06,1.06,0,0,0-.48-.67,1.08,1.08,0,0,0-.53-.14h0c.11-.23.21-.46.31-.7A18.76,18.76,0,0,0,69.19,21.3Zm-6.87,3.94v-.07a1.36,1.36,0,0,1,.07-.35,5,5,0,0,1,1.2-2.06c-.34.75-.69,1.51-1,2.27A.36.36,0,0,1,62.32,25.24Z"/>
          <path class="cls-2" d="M42.47,18.15a3.36,3.36,0,0,0-2.16-4.23,2.9,2.9,0,0,0-.71-.15,5.45,5.45,0,0,0-1.07-.07H38l-1.1.06h-.81c-.59,0-1.16.06-1.73.07h-.08A2,2,0,0,0,32.36,15c-.11.24-.21.48-.3.73A1.31,1.31,0,0,1,32,16a1.79,1.79,0,0,0,.56,2c-.05.13-.1.26-.16.38-.41.94-.83,1.88-1.25,2.82L30.27,23c-.08.19-.17.38-.26.58-.26.56-.53,1.15-.75,1.76a2.79,2.79,0,0,0,0,2.23l.13.23A2.89,2.89,0,0,0,31,28.9a9.51,9.51,0,0,0,2.65.41h.44a8.27,8.27,0,0,0,1-.12A9,9,0,0,0,38.3,28a5.34,5.34,0,0,0,1.17-1,5,5,0,0,0,.56-.74,6.08,6.08,0,0,0,.79-2.06,3.21,3.21,0,0,0-.07-1.54,2.66,2.66,0,0,0-.26-.6,4.59,4.59,0,0,0-.33-.44A6.39,6.39,0,0,0,42.47,18.15Zm-7.68,6.11a3.81,3.81,0,0,1,.75-.07,2.36,2.36,0,0,1,.83.13h.06v.07a1.31,1.31,0,0,1-.81.86,2.14,2.14,0,0,1-1.3.1C34.46,25,34.62,24.62,34.79,24.26Zm2-4.93.36-1a3.6,3.6,0,0,0,.8-.06,1.37,1.37,0,0,1-.13.2A3.43,3.43,0,0,1,36.79,19.33Z"/>
          <path class="cls-2" d="M76.29,29.34a5.33,5.33,0,0,1-1.59-.24,4,4,0,0,1-2.79-3.55,2.7,2.7,0,0,1,.83-1.95,3.11,3.11,0,0,1,2.13-1,2.1,2.1,0,0,1,.56.08,1.74,1.74,0,0,1,1.07,1.14,2.87,2.87,0,0,1,.14.66,1.73,1.73,0,0,0,.07.31c.11.32.25.32.32.32h.15a.4.4,0,0,0,.32-.47h0a3,3,0,0,0-.31-.86,10.53,10.53,0,0,0-.67-1.06l-.19-.3c-1.5-2.26-1.37-4.27.41-6.52a6.6,6.6,0,0,1,4-2.38,5.55,5.55,0,0,1,1-.09,4.37,4.37,0,0,1,2.39.68,2.56,2.56,0,0,1,1.06,3.45,2.67,2.67,0,0,1-.4.55,2.92,2.92,0,0,1-2.11,1.26h-.09a1,1,0,0,1-.92-.56l-.24-.48a.62.62,0,0,0-.51-.4.66.66,0,0,0-.5.32,1.29,1.29,0,0,0-.17,1.27,6.27,6.27,0,0,0,.55,1.06v.05c.14.24.3.48.47.73l.5.77a4,4,0,0,1-.07,4.38A6.47,6.47,0,0,1,76.29,29.34Z"/>
          <path class="cls-2" d="M95.82,18.55a2,2,0,0,1-1.76-2.83,3,3,0,0,1,2.75-2h0a2,2,0,0,1,1.6.75,1.91,1.91,0,0,1,.21,1.72,3.23,3.23,0,0,1-2,2.19A3.17,3.17,0,0,1,95.82,18.55Z"/>
          <path class="cls-29" d="M99.11,21c-.4.75-.75,1.49-1.18,2.2a10.16,10.16,0,0,1-3.83,3.92,4.82,4.82,0,0,1-1.11.43,1.72,1.72,0,0,1-2.26-.87,1.93,1.93,0,0,1-.13-.47c-.36.24-.7.5-1.07.71a6.31,6.31,0,0,1-1.09.5,2,2,0,0,1-2.7-.83l-.06-.11c-.41.25-.8.53-1.22.76a3.07,3.07,0,0,1-1.73.4A1.69,1.69,0,0,1,81,26a1.75,1.75,0,0,1,.08-.51,5.66,5.66,0,0,1,.36-1c.27-.62.6-1.22.87-1.85.4-1,.81-2,1.15-2.94a1,1,0,0,1,.94-.84,1.3,1.3,0,0,1,1.3.65,1.5,1.5,0,0,1,.12,1.24c-.19.54-.41,1.06-.65,1.58-.38.86-.81,1.69-1.18,2.56a4.29,4.29,0,0,0-.24,1,1.15,1.15,0,0,0,1.3-.42,9.39,9.39,0,0,0,2.15-3c.45-.89.81-1.82,1.17-2.75s.64-1.09,1.35-.93a1.36,1.36,0,0,1,1.1,1.58h0a5.17,5.17,0,0,1-.35,1.14c-.48,1.1-1,2.18-1.47,3.28-.14.3-.35.61,0,1a1.5,1.5,0,0,0,1.18-.56A7.73,7.73,0,0,0,92,22.8c.5-1,.92-2.09,1.34-3.14.26-.66.51-.89,1.09-.85a1.31,1.31,0,0,1,1.27,1.08,3.18,3.18,0,0,1-.18,1.33c-.48,1.19-1,2.35-1.54,3.52-.13.3-.21.62-.31.92a.72.72,0,0,0,1-.13h0A10.33,10.33,0,0,0,96.14,24a28,28,0,0,0,1.6-2.82A6.92,6.92,0,0,0,98.08,20a7.52,7.52,0,0,1,.27-.8.65.65,0,0,1,.75-.42c1.6.07,3.19.12,4.79.17a.88.88,0,0,1,.86,1.33,2.73,2.73,0,0,1-.55.76l-3.71,3.67-1,1a4.73,4.73,0,0,0,5.1-2.12,9.8,9.8,0,0,1,2.77-3.1,9.4,9.4,0,0,1,3.92-1.62,3.76,3.76,0,0,1,1.94.16,1.32,1.32,0,0,1,.91,1.64h0v.05a9.61,9.61,0,0,1-.51,1.45c-.4.91-.84,1.81-1.24,2.72a8.57,8.57,0,0,0-.28.9c.92.23,1.23-.61,1.82-.84.24.69-.1,1.33-1,2-1.33.95-2.54,1-3.61.14-.36.14-.72.31-1.1.43a2.9,2.9,0,0,1-3.84-1.43,1.89,1.89,0,0,1-.09-.21h-.15a8.31,8.31,0,0,1-5.44,1.95,5.65,5.65,0,0,1-1.36-.13c-1.14-.23-1.43-1-.72-1.94a10.39,10.39,0,0,1,1.27-1.38c.9-.87,1.84-1.7,2.76-2.56.27-.25.51-.53.84-.88ZM108,26a1.5,1.5,0,0,0,1.33-.84c.57-1.25,1.14-2.49,1.7-3.74.12-.27.36-.59.06-.86s-.64-.11-1,.05l-.22.12a6.17,6.17,0,0,0-2.63,3.37,3.6,3.6,0,0,0-.13,1.18.77.77,0,0,0,.83.72Z"/>
          <path class="cls-29" d="M65.84,25.78c.92.18,1.22-.68,1.85-.87.17.78-.24,1.46-1.24,2.11a2.7,2.7,0,0,1-3.42.06,10.52,10.52,0,0,1-1.74.51,5,5,0,0,1-1.76-.11A2.25,2.25,0,0,1,58,25.76c-.21.16-.38.28-.54.42a6.47,6.47,0,0,1-2.79,1.43,1.71,1.71,0,0,1-2.18-1,1.47,1.47,0,0,1-.08-.28c-.18.12-.37.23-.56.34a13.56,13.56,0,0,1-1.94.88c-1.41.4-2.06,0-2.5-1.37-.55.29-1.09.61-1.66.86a6.14,6.14,0,0,1-4,.5,2.32,2.32,0,0,1-2-2.6v0a2.72,2.72,0,0,1,.13-.49,7.15,7.15,0,0,1,2-3.25,7.53,7.53,0,0,1,4-2.31,3.34,3.34,0,0,1,1.26,0,1.41,1.41,0,0,1,1.24,1.56h0a.61.61,0,0,1,0,.19,3.22,3.22,0,0,1-.35,1,5.73,5.73,0,0,1-3.62,2.79,9.6,9.6,0,0,1-1.42.11,1.29,1.29,0,0,0,1,1.54h0a1.34,1.34,0,0,0,.63,0,5.14,5.14,0,0,0,3.92-2.61,51,51,0,0,0,3.19-7.27q.17-.6.27-1.2a.77.77,0,0,1,.8-.63,1.37,1.37,0,0,1,1.49,1.23,1.15,1.15,0,0,1,0,.37A5.35,5.35,0,0,1,54,17.4c-1,2.29-2,4.6-2.94,6.85-.14.34-.31.67-.43,1,0,.14-.06.4,0,.46a.73.73,0,0,0,.54.09,2.21,2.21,0,0,0,.66-.39,5.7,5.7,0,0,0,1.68-2c1-2.2,2-4.42,2.93-6.64a15.36,15.36,0,0,0,.47-1.6c.19-.61.45-.79,1.06-.74a1.33,1.33,0,0,1,1.33,1.33V16a5.59,5.59,0,0,1-.37,1.33c-.89,2.16-1.79,4.31-2.72,6.46-.21.5-.45,1-.64,1.49s.08.63.47.51a2.36,2.36,0,0,0,.75-.4,6.63,6.63,0,0,0,1.69-2,9,9,0,0,1,6.45-4.54,3.59,3.59,0,0,1,2,.15,1.3,1.3,0,0,1,1,1.55v.21A19.23,19.23,0,0,1,67,22.83c-.31.73-.68,1.44-1,2.17A4.9,4.9,0,0,0,65.84,25.78Zm-4.93-.93c0,1,.47,1.35,1.28,1.1a1.47,1.47,0,0,0,.94-.8c.53-1.2,1.08-2.39,1.62-3.58A2.9,2.9,0,0,0,65,21c.09-.35-.08-.58-.44-.54a1.76,1.76,0,0,0-.8.26A6.19,6.19,0,0,0,61,24.23,3.2,3.2,0,0,0,60.91,24.85ZM43.51,23a3.57,3.57,0,0,0,2.4-1.55c.22-.27.48-.57.23-1.05C44.69,20.72,44.1,21.85,43.51,23Z"/>
          <path class="cls-29" d="M38.07,21.3l.51.32a1.85,1.85,0,0,1,.86,2.07,4.59,4.59,0,0,1-2.06,3.12,7.45,7.45,0,0,1-6.39.86A1.51,1.51,0,0,1,29.73,26a1.61,1.61,0,0,1,.18-.52c.28-.78.65-1.52,1-2.28.7-1.56,1.41-3.11,2.1-4.67.17-.39.29-.8.46-1.24a5.62,5.62,0,0,1-.56-.25.78.78,0,0,1-.35-1,5.41,5.41,0,0,1,.34-.87.92.92,0,0,1,1-.54c1.25,0,2.5-.12,3.75-.17a7,7,0,0,1,1.45,0A2.33,2.33,0,0,1,41.22,17v0a1.87,1.87,0,0,1-.12.57,5.56,5.56,0,0,1-2.12,3A5.82,5.82,0,0,1,38.07,21.3ZM32.6,25.57a3,3,0,0,0,4-.37,2.77,2.77,0,0,0,.39-.74,1,1,0,0,0-.46-1.34h0l-.21-.07a4.3,4.3,0,0,0-2.36,0,.63.63,0,0,0-.38.28C33.26,24,32.91,24.79,32.6,25.57ZM36,17l-1.25,3.7a5.7,5.7,0,0,0,3.5-2,2.17,2.17,0,0,0,.36-.67c.24-.74,0-1.18-.84-1.18C37.17,16.9,36.55,17,36,17Z"/>
          <path class="cls-29" d="M82.15,18c-.09-.19-.17-.34-.24-.48a1.55,1.55,0,0,0-2.77-.19,2.31,2.31,0,0,0-.29,2.2,8.16,8.16,0,0,0,.66,1.28c.31.51.66,1,1,1.51a3,3,0,0,1-.07,3.31,5.37,5.37,0,0,1-5.77,2.18,2.94,2.94,0,0,1-2.12-2.62,2.06,2.06,0,0,1,2.22-1.83c.16,0,.31.29.37.48s.1.68.22,1a1.35,1.35,0,0,0,1.66.94h0a1.42,1.42,0,0,0,1.09-1.61A4,4,0,0,0,77.68,23a16.77,16.77,0,0,0-.91-1.45c-1.27-1.92-1.13-3.43.36-5.31a5.42,5.42,0,0,1,3.39-2,3.52,3.52,0,0,1,2.63.45,1.54,1.54,0,0,1,.7,2.06,1.46,1.46,0,0,1-.29.41A2,2,0,0,1,82.15,18Z"/>
          <path class="cls-29" d="M96.45,14.48c.71,0,1.06.45.85,1.12a2.24,2.24,0,0,1-1.39,1.54,1.05,1.05,0,0,1-1.19-.21,1,1,0,0,1-.11-1.12A2,2,0,0,1,96.45,14.48Z"/>
        </g>
        <path class="cls-2" d="M117.83,16.14a.83.83,0,0,1,.33.34,1,1,0,0,1,0,1,.87.87,0,0,1-.33.33,1,1,0,0,1-.47.12,1,1,0,0,1-.48-.12.87.87,0,0,1-.33-.33,1,1,0,0,1,0-1,.83.83,0,0,1,.33-.34,1,1,0,0,1,.48-.12A.79.79,0,0,1,117.83,16.14Zm.07,1.38a.85.85,0,0,0,0-1.12.7.7,0,0,0-.54-.22.7.7,0,0,0-.55.22.85.85,0,0,0,0,1.12.8.8,0,0,0,1.1,0Zm-.2-.57a.4.4,0,0,1-.18.1l.28.4h-.24l-.26-.39h-.11v.39H117v-1h.44a.3.3,0,0,1,.24.08.31.31,0,0,1,.09.22.36.36,0,0,1-.06.25Zm-.51-.06h.33a.17.17,0,0,0,0-.1.09.09,0,0,0,0-.1.21.21,0,0,0-.11,0h-.22Z"/>
        <g>
          <path class="cls-2" d="M37.25,32.16a1.7,1.7,0,0,1,1.39-.71,1.23,1.23,0,0,1,.84.27,1.09,1.09,0,0,1,.36.74h-.78a.44.44,0,0,0-.19-.27.56.56,0,0,0-.35-.09.76.76,0,0,0-.57.22,1,1,0,0,0-.3.6v.21a.62.62,0,0,0,.16.45.56.56,0,0,0,.44.17.85.85,0,0,0,.38-.09,1.28,1.28,0,0,0,.29-.28h.78a1.65,1.65,0,0,1-1.56,1,1.43,1.43,0,0,1-.64-.15,1,1,0,0,1-.43-.41,1.2,1.2,0,0,1-.15-.61,1.61,1.61,0,0,1,0-.31A1.83,1.83,0,0,1,37.25,32.16Z"/>
          <path class="cls-2" d="M42.65,33.86H41.57l-.27.52h-.73l1.55-2.9h.79l.54,2.9H42.7Zm-.08-.53-.17-1.07-.55,1.07Z"/>
          <path class="cls-2" d="M47,31.68a.64.64,0,0,1,.24.53.54.54,0,0,1,0,.18,1.05,1.05,0,0,1-.25.52,1.3,1.3,0,0,1-.54.32l.46,1.15h-.79l-.41-1.1h-.17l-.19,1.1h-.71l.51-2.9h1.16A1,1,0,0,1,47,31.68Zm-.49.65a.25.25,0,0,0-.09-.2.37.37,0,0,0-.25-.07h-.43l-.13.72H46a.56.56,0,0,0,.31-.09.43.43,0,0,0,.15-.27A.36.36,0,0,0,46.51,32.33Z"/>
          <path class="cls-2" d="M50.73,34.38H50l-.86-1.79-.32,1.79h-.7l.51-2.9h.7l.87,1.79.31-1.79h.71Z"/>
          <path class="cls-2" d="M53.18,32l-.1.6H54l-.09.53h-1l-.11.65h1.09l-.1.56H52.06l.51-2.9h1.78l-.1.56Z"/>
          <path class="cls-2" d="M55.5,34.2a.67.67,0,0,1-.29-.58v-.11h.7a.33.33,0,0,0,.08.25.35.35,0,0,0,.26.09.43.43,0,0,0,.25-.07.28.28,0,0,0,0-.38h0a2.53,2.53,0,0,0-.37-.18L55.74,33a.85.85,0,0,1-.26-.24.76.76,0,0,1-.11-.38.81.81,0,0,1,.14-.5.83.83,0,0,1,.4-.32,1.28,1.28,0,0,1,.58-.11,1.21,1.21,0,0,1,.53.09.69.69,0,0,1,.36.27.67.67,0,0,1,.13.41v.09h-.76a.27.27,0,0,0-.08-.19.36.36,0,0,0-.46,0,.2.2,0,0,0-.09.19.26.26,0,0,0,.11.21l.36.2.4.2a.92.92,0,0,1,.26.26.6.6,0,0,1,.11.39.84.84,0,0,1-.13.46,1,1,0,0,1-.4.31,1.35,1.35,0,0,1-.59.11A1.4,1.4,0,0,1,55.5,34.2Z"/>
          <path class="cls-2" d="M62.75,33.69l.57.69H62.5l-.22-.27a1.77,1.77,0,0,1-1,.31,1.2,1.2,0,0,1-.71-.2.65.65,0,0,1-.26-.54.83.83,0,0,1,.21-.58,1.43,1.43,0,0,1,.56-.41.81.81,0,0,1-.17-.39.79.79,0,0,1,.13-.45.81.81,0,0,1,.36-.3,1.12,1.12,0,0,1,.54-.11.89.89,0,0,1,.57.17.54.54,0,0,1,.2.43v.12h-.66A.18.18,0,0,0,62,32a.14.14,0,0,0-.09,0,.23.23,0,0,0-.19.07.27.27,0,0,0-.08.19.68.68,0,0,0,.17.35l.58.69.07-.12.2-.26h.71l-.26.36A4.59,4.59,0,0,1,62.75,33.69Zm-.82,0-.54-.62a.6.6,0,0,0-.27.2.38.38,0,0,0-.1.27.32.32,0,0,0,.1.22.6.6,0,0,0,.29.08,1,1,0,0,0,.5-.14Z"/>
          <path class="cls-2" d="M66.69,32.16a1.59,1.59,0,0,1,.6-.52,1.67,1.67,0,0,1,.79-.19,1.19,1.19,0,0,1,.83.27,1,1,0,0,1,.36.74H68.5a.45.45,0,0,0-.2-.27.66.66,0,0,0-.39-.09.74.74,0,0,0-.56.22,1.12,1.12,0,0,0-.31.6v.21a.64.64,0,0,0,.16.45.58.58,0,0,0,.45.17.78.78,0,0,0,.37-.09,1,1,0,0,0,.3-.28h.77a1.63,1.63,0,0,1-.62.75,1.71,1.71,0,0,1-.93.27,1.44,1.44,0,0,1-.65-.15,1.06,1.06,0,0,1-.43-.41,1.3,1.3,0,0,1-.14-.61,1.61,1.61,0,0,1,0-.31A1.8,1.8,0,0,1,66.69,32.16Z"/>
          <path class="cls-2" d="M70.91,34.25a1.11,1.11,0,0,1-.43-.43,1.39,1.39,0,0,1-.15-.63,1.8,1.8,0,0,1,.22-.91,1.62,1.62,0,0,1,.6-.62,1.73,1.73,0,0,1,.89-.22,1.22,1.22,0,0,1,.65.15,1,1,0,0,1,.43.42,1.26,1.26,0,0,1,.16.63,1.91,1.91,0,0,1-.22.91,1.61,1.61,0,0,1-.61.63,1.73,1.73,0,0,1-.89.22A1.44,1.44,0,0,1,70.91,34.25Zm1.23-.64a1,1,0,0,0,.32-.38,1,1,0,0,0,.11-.51.63.63,0,0,0-.16-.46.57.57,0,0,0-.46-.17.75.75,0,0,0-.48.14.88.88,0,0,0-.32.37,1.12,1.12,0,0,0-.11.51.67.67,0,0,0,.16.47.6.6,0,0,0,.46.17.78.78,0,0,0,.49-.14Z"/>
          <path class="cls-2" d="M76.64,31.68a.7.7,0,0,1,.23.53.54.54,0,0,1,0,.18,1.05,1.05,0,0,1-.25.52,1,1,0,0,1-.54.32l.47,1.15h-.8l-.41-1.1h-.17L75,34.38h-.7l.51-2.9h1.12A1,1,0,0,1,76.64,31.68Zm-.5.65a.28.28,0,0,0-.08-.2.37.37,0,0,0-.25-.07h-.44l-.13.72h.44a.56.56,0,0,0,.31-.09.42.42,0,0,0,.14-.27A.28.28,0,0,0,76.14,32.33Z"/>
          <path class="cls-2" d="M80.36,31.48l-.09.56H79.5l-.41,2.34h-.71L78.79,32H78l.11-.56Z"/>
          <path class="cls-2" d="M82.15,32l-.11.6h1l-.1.53h-1l-.12.65h1.12l-.1.56H81l.51-2.9h1.78l-.1.56Z"/>
          <path class="cls-2" d="M84.47,34.2a.67.67,0,0,1-.29-.58v-.11h.73a.33.33,0,0,0,.08.25.35.35,0,0,0,.26.09.43.43,0,0,0,.25-.07.22.22,0,0,0,.09-.2.27.27,0,0,0-.11-.22,2.53,2.53,0,0,0-.37-.18L84.72,33a1.2,1.2,0,0,1-.26-.24.76.76,0,0,1-.11-.38.81.81,0,0,1,.14-.5.83.83,0,0,1,.4-.32,1.51,1.51,0,0,1,.59-.11,1.54,1.54,0,0,1,.52.09.69.69,0,0,1,.36.27.67.67,0,0,1,.13.41v.09h-.75a.27.27,0,0,0-.08-.19.27.27,0,0,0-.22-.08.31.31,0,0,0-.24.08.22.22,0,0,0-.09.19.26.26,0,0,0,.11.21l.36.2.4.2a1.11,1.11,0,0,1,.27.26.65.65,0,0,1,.1.39.84.84,0,0,1-.13.46,1.07,1.07,0,0,1-.39.31,1.49,1.49,0,0,1-1.36-.13Z"/>
        </g>
      </g>
      <path class="cls-30" d="M12.65,64.31h66a6.68,6.68,0,0,1,6.48,6.86h0A6.7,6.7,0,0,1,78.69,78h-66a6.7,6.7,0,0,1-6.48-6.87h0A6.68,6.68,0,0,1,12.65,64.31Z"/>
      <path class="cls-2" d="M72.32,64.31h41.82c3.33,0,6,3.07,6,6.86h0c0,3.79-2.7,6.86-6,6.87H72.32c-3.33,0-6-3.08-6-6.87h0C66.29,67.38,69,64.31,72.32,64.31Z"/>
      <g>
        <path class="cls-2" d="M16.2,71.45v.11h-.34v-.15a1,1,0,0,0,0-.41v-.14a2,2,0,0,0-.11-.26h0c0-.09-.09-.18-.15-.27a.39.39,0,0,0-.1-.16h0a2.71,2.71,0,0,0-.6-.57l-.23-.13-.27-.14h0A2,2,0,0,0,14,69.2a2.33,2.33,0,0,0-.53-.07h0v-.35h.39l.56.14a2.91,2.91,0,0,1,1.27,1h0l.06.06.15.23c0,.09.09.18.13.27a1.6,1.6,0,0,1,.1.31.2.2,0,0,1,0,.11c0,.14.05.27.08.41A.6.6,0,0,1,16.2,71.45Z"/>
        <path class="cls-2" d="M10.55,69.93h0a.24.24,0,0,1,0-.12.19.19,0,0,1,.08-.1l.32-.34.13-.1a.46.46,0,0,1,.16-.07h.39a.73.73,0,0,1,.43.41.57.57,0,0,1,.07.22c0,.17.1.36.14.55a.6.6,0,0,1-.07.49.49.49,0,0,1-.11.14,2.16,2.16,0,0,1-.19.17.17.17,0,0,0,0,.1c0,.08.06.14.08.22l.12.26q.15.24.3.45l.1.12a2.6,2.6,0,0,0,.72.55l.26.12.24.09m.06,0,.19-.18a.62.62,0,0,1,.53-.2h.25l.48.14h0a.8.8,0,0,1,.4.35v.49a.66.66,0,0,1-.21.31l-.27.28-.12.09h-.81l-.38-.08a2.19,2.19,0,0,1-.66-.2H13l-.3-.1-.41-.25-.32-.26a3.34,3.34,0,0,1-.33-.32,2.69,2.69,0,0,1-.27-.32l-.06-.15v-.06a2.65,2.65,0,0,0-.26-.39l-.16-.31a.2.2,0,0,0,0-.11c0-.11-.09-.21-.12-.32a3,3,0,0,1-.12-.43v-.28a.09.09,0,0,1,0-.1V70h0Z"/>
        <path class="cls-2" d="M13.37,70.16v-.33h.37l.35.13a1.72,1.72,0,0,1,1,1.22h0v.31c0,.08,0,.07-.05.06h-.34a.28.28,0,0,0,0-.13v-.26a1.32,1.32,0,0,0-.36-.57,1.41,1.41,0,0,0-.56-.34h-.4Z"/>
        <path class="cls-2" d="M13.44,71.23v-.37a.71.71,0,0,1,.28.06h.08a.52.52,0,0,1,.16.17l.09.13a.89.89,0,0,1,0,.23h-.33a.34.34,0,0,0-.17-.26h-.08Z"/>
      </g>
      <path class="cls-31" d="M76.09,68.52a1.71,1.71,0,0,0-1-.48h-.84a1.61,1.61,0,0,0-.49.07,2.31,2.31,0,0,0-1.53,2.22,3.38,3.38,0,0,0,.31,1.36,7.14,7.14,0,0,0,1.61,2.16.73.73,0,0,0,.33.19h.18a.7.7,0,0,0,.28-.12c.18-.18.38-.36.55-.56a7.23,7.23,0,0,0,1-1.3,3.91,3.91,0,0,0,.48-1.6,2.45,2.45,0,0,0-.82-2h0Zm-1.51,3a1.17,1.17,0,1,1,1.12-1.17A1.14,1.14,0,0,1,74.58,71.53Z"/>
      <g>
        <path class="cls-2" d="M22.49,68.73a1.1,1.1,0,0,1-.39,1.73,1.86,1.86,0,0,1-.81.15,2.52,2.52,0,0,1-.77-.11,1.92,1.92,0,0,1-.62-.32l.29-.54a1.42,1.42,0,0,0,.49.28,2.08,2.08,0,0,0,.6.09,1,1,0,0,0,.57-.15.49.49,0,0,0,.11-.7h0a.27.27,0,0,0-.11-.1.94.94,0,0,0-.61-.16h-.33v-.46l.84-1H20.07v-.58H22.6v.46l-.9,1.08A1.2,1.2,0,0,1,22.49,68.73Z"/>
        <path class="cls-2" d="M24.5,66.84v3.72h-.69V67.42H23v-.58Z"/>
        <path class="cls-2" d="M28.55,69.72h-.66v.84h-.67v-.84H25.13v-.48L27,66.85h.74L26,69.14h1.2v-.75h.64v.75h.66Z"/>
        <path class="cls-2" d="M31.21,68.4a1,1,0,0,1,.45.41,1,1,0,0,1,.17.6,1.18,1.18,0,0,1-.18.63,1.28,1.28,0,0,1-.49.43,1.81,1.81,0,0,1-.69.14,1.48,1.48,0,0,1-1.19-.48,2,2,0,0,1-.46-1.37,2.17,2.17,0,0,1,.24-1.06,1.54,1.54,0,0,1,.63-.68,1.92,1.92,0,0,1,1-.23,2.44,2.44,0,0,1,.54,0,1.14,1.14,0,0,1,.44.18l-.25.51a1.31,1.31,0,0,0-.72-.18,1,1,0,0,0-.83.34,1.29,1.29,0,0,0-.3.94h0a.75.75,0,0,1,.38-.21,1.6,1.6,0,0,1,.57-.11A1.43,1.43,0,0,1,31.21,68.4ZM31,69.89a.51.51,0,0,0,.17-.45.55.55,0,0,0-.21-.46.93.93,0,0,0-1.08,0,.61.61,0,0,0-.05.86l.05,0a.76.76,0,0,0,.56.18.72.72,0,0,0,.54-.17Z"/>
        <path class="cls-2" d="M32.93,70.38a1.53,1.53,0,0,1-.56-.65,2.68,2.68,0,0,1,0-2.08A1.5,1.5,0,0,1,33,67a1.52,1.52,0,0,1,1.59,0,1.44,1.44,0,0,1,.56.66,2.61,2.61,0,0,1,0,2,1.5,1.5,0,0,1-.56.66,1.52,1.52,0,0,1-1.59,0Zm1.42-.7a2.2,2.2,0,0,0,0-2,.75.75,0,0,0-1.05-.14.67.67,0,0,0-.15.14,1.69,1.69,0,0,0-.22,1,1.86,1.86,0,0,0,.22,1,.74.74,0,0,0,1,.14h0A.57.57,0,0,0,34.35,69.68Z"/>
        <path class="cls-2" d="M39.06,69.72h-.69v.84H37.7v-.84h-2v-.48l1.83-2.39h.74l-1.73,2.29h1.2v-.75h.64v.75H39Z"/>
        <path class="cls-2" d="M42.67,69.72H42v.84h-.68v-.84h-2v-.48l1.83-2.39h.71l-1.73,2.29h1.2v-.75H42v.75h.66Z"/>
        <path class="cls-2" d="M43.71,70.38a1.58,1.58,0,0,1-.55-.65,2.68,2.68,0,0,1,0-2.08,1.54,1.54,0,0,1,.55-.66,1.58,1.58,0,0,1,1.6,0,1.44,1.44,0,0,1,.56.66,2.9,2.9,0,0,1,0,2,1.5,1.5,0,0,1-.56.66A1.52,1.52,0,0,1,43.71,70.38Zm1.43-.7a1.77,1.77,0,0,0,.22-1,1.69,1.69,0,0,0-.22-1,.74.74,0,0,0-.64-.33.7.7,0,0,0-.62.33,1.62,1.62,0,0,0-.23,1,1.68,1.68,0,0,0,.23,1,.71.71,0,0,0,.62.33A.74.74,0,0,0,45.14,69.68Z"/>
        <path class="cls-2" d="M48.87,68.4a1,1,0,0,1,.62,1,1.18,1.18,0,0,1-.18.63,1.32,1.32,0,0,1-.48.43,1.86,1.86,0,0,1-.7.14,1.49,1.49,0,0,1-1.19-.48,2,2,0,0,1-.42-1.37,2.24,2.24,0,0,1,.2-1.11,1.56,1.56,0,0,1,.64-.68,2,2,0,0,1,1-.23,2.44,2.44,0,0,1,.54,0,1.14,1.14,0,0,1,.44.18l-.25.52a1.1,1.1,0,0,0-.7-.18,1.08,1.08,0,0,0-.85.33,1.35,1.35,0,0,0-.3.94h0a.87.87,0,0,1,.42-.28,1.54,1.54,0,0,1,1.19,0Zm-.25,1.49a.52.52,0,0,0,.21-.45.55.55,0,0,0-.21-.46.93.93,0,0,0-1.08,0,.6.6,0,0,0,0,.86l0,0a.75.75,0,0,0,.56.18A.76.76,0,0,0,48.62,69.89Z"/>
        <path class="cls-2" d="M53.17,69.72h-.66v.84h-.67v-.84h-2v-.48l1.84-2.39h.73l-1.72,2.29h1.19v-.75h.65v.75h.66Z"/>
      </g>
      <g>
        <g>
          <path class="cls-2" d="M20.24,72.42a1,1,0,0,1,.66-.21,1.12,1.12,0,0,1,.47.1.72.72,0,0,1,.3.27.7.7,0,0,1,.1.38.63.63,0,0,1-.13.41.56.56,0,0,1-.3.23v0a.72.72,0,0,1,.36.25.9.9,0,0,1,.12.48.8.8,0,0,1-.1.41.79.79,0,0,1-.31.29,1.12,1.12,0,0,1-.5.1,1.07,1.07,0,0,1-.7-.22.78.78,0,0,1-.29-.62h.43a.52.52,0,0,0,.16.34.61.61,0,0,0,.39.13.52.52,0,0,0,.37-.13.52.52,0,0,0,0-.73,1,1,0,0,0-.54-.12h-.1v-.37h.11a.9.9,0,0,0,.48-.1.36.36,0,0,0,.17-.32.38.38,0,0,0-.12-.3.49.49,0,0,0-.35-.11.45.45,0,0,0-.34.11.4.4,0,0,0-.14.27H20A.75.75,0,0,1,20.24,72.42Z"/>
          <path class="cls-2" d="M22.24,72.69v-.41h.81v2.85H22.6V72.69Z"/>
          <path class="cls-2" d="M23.61,74.54V74.2l1.32-1.89h.54v1.84h.36v.39h-.36v.59H25v-.59Zm1.44-1.77-.93,1.38h.93Z"/>
          <path class="cls-2" d="M27.58,72.67a.51.51,0,0,0-.32-.09.5.5,0,0,0-.46.24,1.52,1.52,0,0,0-.16.78.64.64,0,0,1,.3-.26.87.87,0,0,1,.42-.1.94.94,0,0,1,.45.11.76.76,0,0,1,.31.33,1,1,0,0,1,.12.5,1.07,1.07,0,0,1-.11.49.75.75,0,0,1-.32.34,1,1,0,0,1-.51.12,1,1,0,0,1-.63-.17.9.9,0,0,1-.32-.51,2.63,2.63,0,0,1-.1-.81c0-1,.34-1.43,1-1.43a.88.88,0,0,1,.62.21.85.85,0,0,1,.27.52h-.42A.45.45,0,0,0,27.58,72.67Zm-.73,1.09a.51.51,0,0,0-.16.41.59.59,0,0,0,.15.43.58.58,0,0,0,.44.16.53.53,0,0,0,.39-.15.6.6,0,0,0,.14-.41.61.61,0,0,0-.14-.42.5.5,0,0,0-.41-.16A.66.66,0,0,0,26.85,73.76Z"/>
          <path class="cls-2" d="M28.94,72.61a1,1,0,0,1,1.58,0,2.08,2.08,0,0,1,.23,1.06,2.13,2.13,0,0,1-.23,1.07,1,1,0,0,1-1.58,0,2.13,2.13,0,0,1-.23-1.07A2.08,2.08,0,0,1,28.94,72.61Zm1.33.52a.75.75,0,0,0-.17-.36.46.46,0,0,0-.37-.13.48.48,0,0,0-.37.13.86.86,0,0,0-.17.36,4,4,0,0,0,0,.54,2.88,2.88,0,0,0,0,.55.67.67,0,0,0,.17.36.48.48,0,0,0,.37.14.51.51,0,0,0,.38-.14.67.67,0,0,0,.16-.36,2.88,2.88,0,0,0,0-.55A2.83,2.83,0,0,0,30.27,73.13Z"/>
          <path class="cls-2" d="M31.5,72.42a1,1,0,0,1,.65-.21,1.21,1.21,0,0,1,.48.1.72.72,0,0,1,.3.27A.8.8,0,0,1,33,73a.63.63,0,0,1-.13.41.62.62,0,0,1-.31.23v0a.72.72,0,0,1,.36.25.82.82,0,0,1,.13.48.81.81,0,0,1-.11.41.73.73,0,0,1-.31.29,1.09,1.09,0,0,1-.5.1,1,1,0,0,1-.69-.22.78.78,0,0,1-.29-.62h.43a.48.48,0,0,0,.16.34.57.57,0,0,0,.39.13.54.54,0,0,0,.37-.13.49.49,0,0,0,.13-.34.43.43,0,0,0-.18-.39A.92.92,0,0,0,32,73.8h-.1v-.37H32a1,1,0,0,0,.49-.1A.35.35,0,0,0,32.6,73a.38.38,0,0,0-.12-.3.47.47,0,0,0-.34-.11.49.49,0,0,0-.35.11.44.44,0,0,0-.14.27h-.43A.69.69,0,0,1,31.5,72.42Z"/>
          <path class="cls-2" d="M34.27,74.66a.63.63,0,0,0,.35.1.45.45,0,0,0,.41-.22,1.55,1.55,0,0,0,.13-.75.58.58,0,0,1-.27.21,1.06,1.06,0,0,1-.37.07,1.15,1.15,0,0,1-.46-.1.74.74,0,0,1-.32-.31,1,1,0,0,1-.12-.5.88.88,0,0,1,.94-1,.82.82,0,0,1,.76.36,2,2,0,0,1,.23,1.08,3.13,3.13,0,0,1-.09.83.86.86,0,0,1-.29.49.91.91,0,0,1-.58.16.87.87,0,0,1-.64-.22.86.86,0,0,1-.26-.55h.42A.49.49,0,0,0,34.27,74.66Zm.7-1.11a.64.64,0,0,0,0-.81.46.46,0,0,0-.38-.16.5.5,0,0,0-.39.16.55.55,0,0,0-.15.4.59.59,0,0,0,.14.4.54.54,0,0,0,.42.15A.5.5,0,0,0,35,73.55Z"/>
          <path class="cls-2" d="M36.26,72.61a.87.87,0,0,1,.79-.38.84.84,0,0,1,.79.38,2,2,0,0,1,.23,1.06,2,2,0,0,1-.23,1.07.83.83,0,0,1-.79.39.85.85,0,0,1-.79-.39A2.13,2.13,0,0,1,36,73.67,2.09,2.09,0,0,1,36.26,72.61Zm1.33.52a.74.74,0,0,0-.16-.36.5.5,0,0,0-.38-.13.49.49,0,0,0-.37.13.74.74,0,0,0-.16.36,2.76,2.76,0,0,0-.05.54,4,4,0,0,0,0,.55.76.76,0,0,0,.17.36.48.48,0,0,0,.37.14.51.51,0,0,0,.38-.14.67.67,0,0,0,.16-.36,2.88,2.88,0,0,0,0-.55A2.83,2.83,0,0,0,37.59,73.13Z"/>
          <path class="cls-2" d="M38.82,72.42a1,1,0,0,1,.65-.21,1.17,1.17,0,0,1,.48.1.72.72,0,0,1,.3.27.7.7,0,0,1,.1.38.63.63,0,0,1-.13.41.58.58,0,0,1-.31.23v0a.64.64,0,0,1,.36.25.82.82,0,0,1,.13.48.8.8,0,0,1-.1.41.75.75,0,0,1-.32.29,1.07,1.07,0,0,1-.49.1,1,1,0,0,1-.7-.22.78.78,0,0,1-.29-.62h.43a.48.48,0,0,0,.16.34.61.61,0,0,0,.39.13.54.54,0,0,0,.37-.13.52.52,0,0,0,0-.73,1,1,0,0,0-.54-.12h-.1v-.37h.1a.92.92,0,0,0,.49-.1.35.35,0,0,0,.16-.32.38.38,0,0,0-.12-.3.58.58,0,0,0-.68,0A.46.46,0,0,0,39,73h-.43A.71.71,0,0,1,38.82,72.42Z"/>
          <path class="cls-2" d="M41.12,74.53c.25-.22.45-.4.59-.54a2,2,0,0,0,.36-.43.86.86,0,0,0,.15-.46.58.58,0,0,0-.11-.37.52.52,0,0,0-.71,0,.62.62,0,0,0-.14.39h-.43a.87.87,0,0,1,.92-.92.9.9,0,0,1,.67.24.81.81,0,0,1,.24.62,1.14,1.14,0,0,1-.14.54,2.36,2.36,0,0,1-.34.47,6.31,6.31,0,0,1-.51.48l-.17.15h1.24v.37h-1.9v-.32Z"/>
        </g>
        <g>
          <path class="cls-2" d="M45.81,73.51v.38H44.2v-.38Z"/>
          <path class="cls-2" d="M48.79,72.65a.53.53,0,0,0-.32-.09.5.5,0,0,0-.46.24,1.42,1.42,0,0,0-.16.78.62.62,0,0,1,.29-.26.91.91,0,0,1,.43-.1.84.84,0,0,1,.45.12.74.74,0,0,1,.31.32,1,1,0,0,1,.11.5,1.07,1.07,0,0,1-.1.49A.81.81,0,0,1,49,75a1,1,0,0,1-.51.12,1,1,0,0,1-.63-.17,1,1,0,0,1-.33-.51,3,3,0,0,1-.09-.81c0-1,.34-1.43,1-1.43a.88.88,0,0,1,.62.21.81.81,0,0,1,.26.52h-.41A.51.51,0,0,0,48.79,72.65Zm-.73,1.09a.54.54,0,0,0-.16.42.57.57,0,0,0,.15.42.56.56,0,0,0,.43.16.5.5,0,0,0,.39-.15.56.56,0,0,0,.15-.41.63.63,0,0,0-.14-.42.5.5,0,0,0-.41-.16A.64.64,0,0,0,48.06,73.74Z"/>
          <path class="cls-2" d="M50.65,74.64a.51.51,0,0,0,.34.1.43.43,0,0,0,.41-.22,1.55,1.55,0,0,0,.13-.75.61.61,0,0,1-.26.21.94.94,0,0,1-.37.07,1,1,0,0,1-.47-.1.86.86,0,0,1-.32-.31,1,1,0,0,1-.12-.5.93.93,0,0,1,.25-.69.94.94,0,0,1,.7-.26.82.82,0,0,1,.75.36,2,2,0,0,1,.23,1.08,3.13,3.13,0,0,1-.09.83.83.83,0,0,1-.29.49.9.9,0,0,1-.57.16.88.88,0,0,1-.65-.22.79.79,0,0,1-.25-.55h.41A.45.45,0,0,0,50.65,74.64Zm.7-1.11a.56.56,0,0,0,.13-.39.61.61,0,0,0-.14-.42.53.53,0,0,0-.39-.15.5.5,0,0,0-.39.15.56.56,0,0,0-.15.41.51.51,0,0,0,.57.54A.51.51,0,0,0,51.35,73.53Z"/>
          <path class="cls-2" d="M52.35,74.52v-.34l1.32-1.88h.54v1.83h.36v.39h-.36v.59h-.44v-.59Zm1.44-1.77-.92,1.38h.92Z"/>
          <path class="cls-2" d="M56.78,72.64H55.47v.78a.7.7,0,0,1,.25-.18.77.77,0,0,1,.34-.08.91.91,0,0,1,.54.15.82.82,0,0,1,.29.35,1.22,1.22,0,0,1,.09.46,1.19,1.19,0,0,1-.11.51.9.9,0,0,1-.34.36,1.08,1.08,0,0,1-.54.12,1,1,0,0,1-.68-.21.79.79,0,0,1-.31-.56h.43a.51.51,0,0,0,.19.3.65.65,0,0,0,.38.1.48.48,0,0,0,.41-.17.68.68,0,0,0,.14-.44.62.62,0,0,0-.14-.43.5.5,0,0,0-.41-.16.59.59,0,0,0-.33.1.51.51,0,0,0-.19.26h-.42V72.25h1.72Z"/>
          <path class="cls-2" d="M57.39,72.67v-.41h.81v2.85h-.45V72.67Z"/>
          <path class="cls-2" d="M59.54,74.64a.54.54,0,0,0,.35.1.42.42,0,0,0,.4-.22,1.55,1.55,0,0,0,.13-.75.61.61,0,0,1-.26.21.9.9,0,0,1-.37.07,1,1,0,0,1-.46-.1.82.82,0,0,1-.33-.31,1,1,0,0,1-.12-.5,1,1,0,0,1,.25-.69.94.94,0,0,1,.7-.26.83.83,0,0,1,.76.36,2.05,2.05,0,0,1,.22,1.08,3.69,3.69,0,0,1-.08.83,1,1,0,0,1-.29.49.91.91,0,0,1-.58.16.9.9,0,0,1-.65-.22.83.83,0,0,1-.25-.55h.41A.5.5,0,0,0,59.54,74.64Zm.7-1.11a.68.68,0,0,0,0-.81.51.51,0,0,0-.39-.15.53.53,0,0,0-.39.15.6.6,0,0,0-.14.41.5.5,0,0,0,.56.54A.51.51,0,0,0,60.24,73.53Z"/>
          <path class="cls-2" d="M61.55,74.51c.25-.22.45-.4.59-.54a2,2,0,0,0,.36-.43.84.84,0,0,0,.15-.46.6.6,0,0,0-.11-.37.47.47,0,0,0-.35-.13.43.43,0,0,0-.36.15.62.62,0,0,0-.14.39h-.43a.87.87,0,0,1,.92-.92.9.9,0,0,1,.67.24.81.81,0,0,1,.24.62,1.21,1.21,0,0,1-.14.55,2.61,2.61,0,0,1-.34.46,6.31,6.31,0,0,1-.51.48l-.17.15h1.24v.38h-1.9v-.33Z"/>
        </g>
      </g>
      <g>
        <path class="cls-31" d="M81,72.83a1.57,1.57,0,0,1-.61-.59,1.71,1.71,0,0,1,0-1.68A1.55,1.55,0,0,1,81,70a1.81,1.81,0,0,1,.87-.21,1.88,1.88,0,0,1,.72.13,1.52,1.52,0,0,1,.54.4l-.38.36a1.11,1.11,0,0,0-.85-.38,1.18,1.18,0,0,0-.59.15,1,1,0,0,0-.4.4,1.13,1.13,0,0,0,.4,1.55,1.28,1.28,0,0,0,.59.14,1.11,1.11,0,0,0,.85-.38l.38.37a1.45,1.45,0,0,1-.55.39A1.89,1.89,0,0,1,81,72.83Z"/>
        <path class="cls-31" d="M83.64,69.62h.57V73h-.57Z"/>
        <path class="cls-31" d="M85,69.62h.56V73H85Z"/>
        <path class="cls-31" d="M86.19,72.92a.37.37,0,0,1-.11-.27.36.36,0,0,1,.11-.28.38.38,0,0,1,.26-.1.41.41,0,0,1,.27.1.39.39,0,0,1,.1.28.33.33,0,0,1-.11.27.39.39,0,0,1-.52,0Z"/>
        <path class="cls-31" d="M89.56,69.81V73H89V70.31H88.3v-.5Z"/>
        <path class="cls-31" d="M92.49,72.49V73H90.15V72.6l1.26-1.2A1.56,1.56,0,0,0,91.7,71a.67.67,0,0,0,.08-.3.41.41,0,0,0-.15-.34.7.7,0,0,0-.44-.12.89.89,0,0,0-.75.33L90,70.29a1.21,1.21,0,0,1,.5-.38,1.59,1.59,0,0,1,.7-.14,1.3,1.3,0,0,1,.83.24.81.81,0,0,1,.31.67,1.17,1.17,0,0,1-.11.49,1.74,1.74,0,0,1-.42.51l-.85.81Z"/>
        <path class="cls-31" d="M94.92,70.18a1.71,1.71,0,0,1,.36,1.17,1.94,1.94,0,0,1-.19.91,1.34,1.34,0,0,1-.55.58,1.66,1.66,0,0,1-.82.2,2.31,2.31,0,0,1-.46-.05,1.25,1.25,0,0,1-.37-.16l.22-.44a1.09,1.09,0,0,0,.6.15.91.91,0,0,0,.72-.28,1.18,1.18,0,0,0,.26-.81h0a.9.9,0,0,1-.36.25,1.3,1.3,0,0,1-.49.09,1.33,1.33,0,0,1-.57-.13,1,1,0,0,1-.39-.34,1,1,0,0,1-.14-.51.89.89,0,0,1,.16-.54,1,1,0,0,1,.42-.37,1.38,1.38,0,0,1,.59-.12A1.26,1.26,0,0,1,94.92,70.18Zm-.5,1a.51.51,0,0,0,.18-.39.48.48,0,0,0-.18-.39.71.71,0,0,0-.48-.15.64.64,0,0,0-.45.15.48.48,0,0,0-.17.39.48.48,0,0,0,.17.4.82.82,0,0,0,.93,0Z"/>
        <path class="cls-31" d="M99.1,71.81h.61v.41h-.66L99,73h-.41l.1-.77h-.77l-.1.77h-.41l.09-.77h-.61v-.41h.66l.11-.81H97v-.42h.66l.09-.77h.42l-.1.77h.77l.09-.77h.41l-.09.77h.61V71H99.2Zm-.41,0,.1-.81H98l-.1.81Z"/>
        <path class="cls-31" d="M102.57,69.81v.4L101.33,73h-.63l1.19-2.68h-1.25v.54h-.55v-1Z"/>
        <path class="cls-31" d="M103.68,72.83a1.51,1.51,0,0,1-.61-.59,1.71,1.71,0,0,1,0-1.68,1.55,1.55,0,0,1,.61-.58,1.95,1.95,0,0,1,1.58-.08,1.48,1.48,0,0,1,.55.4l-.38.36a1.12,1.12,0,0,0-.85-.38,1.15,1.15,0,0,0-.59.15,1,1,0,0,0-.4.4,1.18,1.18,0,0,0,0,1.15,1,1,0,0,0,.4.4,1.25,1.25,0,0,0,.59.14,1.12,1.12,0,0,0,.85-.38l.38.37a1.45,1.45,0,0,1-.55.39,1.89,1.89,0,0,1-1.58-.07Z"/>
        <path class="cls-31" d="M106.18,71.49h1.25V72h-1.25Z"/>
        <path class="cls-31" d="M108.54,72.85a1.34,1.34,0,0,1-.47-.57,2.36,2.36,0,0,1,0-1.76,1.37,1.37,0,0,1,.47-.56,1.33,1.33,0,0,1,1.37,0,1.3,1.3,0,0,1,.47.56,2.24,2.24,0,0,1,0,1.76,1.27,1.27,0,0,1-.47.57,1.33,1.33,0,0,1-1.37,0Zm1.22-.61a1.37,1.37,0,0,0,.2-.84,1.41,1.41,0,0,0-.2-.84.65.65,0,0,0-1.07,0,1.49,1.49,0,0,0-.2.84,1.44,1.44,0,0,0,.2.84.65.65,0,0,0,1.07,0Z"/>
        <path class="cls-31" d="M112.94,71.43a.85.85,0,0,1,.23.61,1,1,0,0,1-.14.5,1,1,0,0,1-.43.36,1.6,1.6,0,0,1-.69.14,2.07,2.07,0,0,1-.66-.1,1.4,1.4,0,0,1-.53-.27l.25-.46a1.42,1.42,0,0,0,.42.23,1.51,1.51,0,0,0,.51.08.87.87,0,0,0,.49-.12.43.43,0,0,0,.18-.36.38.38,0,0,0-.17-.34.81.81,0,0,0-.52-.13h-.29v-.4l.73-.86h-1.45v-.5H113v.4l-.78.92A1,1,0,0,1,112.94,71.43Z"/>
      </g>
    </g>
  </g>
</svg>
