<?xml version="1.0" encoding="utf-8"?>
<!-- Generator: Adobe Illustrator 26.3.1, SVG Export Plug-In . SVG Version: 6.00 Build 0)  -->
<svg version="1.1" id="Capa_1" xmlns="http://www.w3.org/2000/svg" xmlns:xlink="http://www.w3.org/1999/xlink" x="0px" y="0px"
	 viewBox="0 0 206 49" style="enable-background:new 0 0 206 49;" xml:space="preserve">
<style type="text/css">
	.st0{fill:#FFFFFF;}
	.st1{fill:#E52322;}
</style>
<g>
	<path class="st0" d="M26,17.5c-0.5,0-1-0.2-1.4-0.6c-0.6-0.7-0.9-1.5-0.8-2.4c0-0.5,0.1-1.1,0.1-1.6c-0.2,0.5-0.7,0.9-1.1,1.2
		c-0.5,0.3-1.1,0.4-1.6,0.4c-0.6,0-1.1-0.1-1.6-0.4c-0.5-0.3-1-0.7-1.3-1.1c-0.8-1.2-1.3-2.6-1.2-4c0-0.6,0.1-1.2,0.1-1.8
		C17.4,5.4,18,3.8,19,2.3c0.3-0.4,0.6-0.8,1-1.1C20.8,0.4,21.8,0,22.9,0c0.4,0,0.9,0.1,1.3,0.2c1.1,0.4,1.8,1.5,1.7,2.7
		c0,0.6-0.1,1.3-0.4,1.8c-0.1,0.2-0.2,0.4-0.4,0.6c-0.2,0.2-0.5,0.3-0.8,0.2c-0.3,0-0.6,0-0.8-0.1c-0.4-0.1-0.6-0.2-0.6-0.5
		c0-0.1,0-0.2,0.1-0.2c0-0.1,0.1-0.1,0.1-0.2c0.2-0.2,0.3-0.4,0.4-0.6c0.2-0.3,0.3-0.7,0.5-1c0.1-0.3,0.2-0.7,0.2-1
		c0-0.4-0.2-0.7-0.6-0.7c-0.6,0-1.1,0.2-1.5,0.6c-0.8,0.6-1.4,1.5-1.7,2.4c-0.7,1.6-1.1,3.3-1.1,5c-0.1,1.2,0.3,2.4,0.9,3.4
		c0.2,0.2,0.4,0.4,0.6,0.6c0.2,0.2,0.5,0.2,0.8,0.2c0.4,0,0.7-0.2,1-0.5c0.5-0.5,1-1.2,1.2-1.9c0.3-0.7,0.4-1.5,0.5-2.2l-1.1-0.1
		c-0.1,0-0.3,0-0.4-0.1c-0.1,0-0.2-0.1-0.2-0.3c0-0.1,0-0.1,0.1-0.2c0-0.1,0.1-0.1,0.2-0.1C22.9,8,23.1,8,23.2,8
		c1.2-0.1,1.9-0.1,2.2-0.1c0.8,0,1.2,0.4,1.2,1.1c-0.1,0.7-0.2,1.5-0.4,2.2c-0.1,0.6-0.3,1.2-0.4,1.8c-0.1,0.6-0.2,1.2-0.2,1.8
		c0,1.3,0.2,1.9,0.8,1.9h0.2c0.1,0,0.1,0,0.2,0c0.1,0.1,0.2,0.2,0.2,0.3c0,0.1-0.1,0.3-0.2,0.3c-0.1,0.1-0.3,0.2-0.4,0.2
		C26.3,17.5,26.1,17.5,26,17.5z"/>
	<path class="st0" d="M31.7,13.1c-0.5,0-1.1-0.3-1.4-0.7c-0.2-0.3-0.3-0.6-0.3-0.9v-0.1c0-0.6,0.1-1.1,0.3-1.7l0.5-2.2
		c0.1-0.3,0.2-0.6,0.2-0.9c0-0.1,0-0.2-0.1-0.2c-0.1,0-0.2,0-0.3,0h-0.2h-0.3h-0.4c-0.2,0.8-0.5,1.7-0.9,2.5
		c-0.1,0.1-0.2,0.2-0.3,0.2c-0.1,0-0.2,0-0.3-0.1c0-0.1-0.1-0.1-0.1-0.2c0-0.1,0.1-0.3,0.1-0.4l0,0c0.1-0.4,0.3-0.8,0.4-1.2l0.3-0.9
		h-0.1c-0.4-0.1-0.7-0.5-0.8-1c0-0.1,0-0.2,0-0.2c0-0.4,0.1-0.9,0.3-1.2c0.2-0.3,0.4-0.4,0.7-0.5c0.1,0,0.1,0,0.2,0h0.4h0.1
		c0.1,0,0.2,0,0.3,0.1c0.2,0.1,0.2,0.3,0.2,0.5c0,0.2,0,0.4-0.1,0.5L30,5.1h1c0.2,0,0.4,0,0.6,0c0.2,0,0.4,0.1,0.6,0.2
		c0.4,0.2,0.6,0.5,0.6,0.9v0.2c0,0.2,0,0.4,0,0.6c-0.1,0.5-0.2,1.2-0.5,2.1c-0.2,0.7-0.3,1.5-0.4,2.2v0.2c0,0.2,0.1,0.3,0.2,0.3h0.1
		c0.3-0.1,0.5-0.2,0.7-0.5c0.2-0.2,0.4-0.5,0.5-0.7l0.1-0.1c0.3-0.5,0.6-1,0.8-1.5c0-0.1,0.1-0.2,0.1-0.3c0.1-0.3,0.3-0.4,0.5-0.4
		h0.1c0.1,0,0.1,0.1,0.2,0.1c0.1,0.1,0.1,0.1,0.1,0.2v0.1c-0.4,1-0.9,2-1.5,2.8c-0.3,0.5-0.7,0.9-1.1,1.2C32.4,13,32,13.1,31.7,13.1
		z"/>
	<path class="st0" d="M35.6,13L35.6,13c-0.5-0.1-0.9-0.3-1.1-0.7c-0.2-0.4-0.4-0.8-0.4-1.3c0-0.2,0-0.4,0-0.6c0-0.4,0-0.8,0.1-1.2
		c0.1-0.4,0.2-0.8,0.2-1.2c0.1-0.4,0.2-0.8,0.4-1.2c0.2-0.4,0.4-0.8,0.6-1.1c0.3-0.3,0.6-0.6,1-0.7c0.2,0,0.4,0,0.5,0
		c0.6,0,1.1,0.2,1.6,0.5c0-0.1,0-0.2,0-0.3c0-0.1,0.1-0.3,0.2-0.3c0.1-0.1,0.1-0.1,0.2-0.1c0.1,0,0.2,0,0.3,0c0.2,0,0.4,0.1,0.6,0.2
		c0.4,0.2,0.6,0.5,0.6,0.9c-0.1,0.6-0.2,1.3-0.4,1.9c-0.1,0.5-0.3,1.1-0.4,1.6c-0.1,0.6-0.2,1.2-0.2,1.8c0,0.1,0,0.2,0,0.3
		c0,0.1,0.2,0.3,0.3,0.3l0,0c0.1,0,0.3-0.1,0.4-0.2c0.2-0.2,0.4-0.5,0.5-0.7c0.4-0.6,0.7-1.3,1-2l0.1-0.3c0.1-0.1,0.1-0.2,0.2-0.2
		c0.1,0,0.1-0.1,0.2-0.1c0.1,0,0.2,0.1,0.3,0.2c0,0.1,0,0.2,0,0.4c-0.4,1-0.9,2-1.5,3c-0.2,0.3-0.5,0.7-0.8,0.9
		C40,12.9,39.6,13,39.3,13c-0.4,0-0.7-0.1-1-0.3c-0.2-0.2-0.4-0.4-0.5-0.7c-0.1-0.3-0.2-0.6-0.2-0.9c0-0.1,0-0.2,0-0.3l-0.3,0.5
		c-0.1,0.3-0.3,0.6-0.5,0.9c-0.2,0.2-0.3,0.4-0.6,0.6C36,12.9,35.8,13,35.6,13z M36.1,11.6c0.1,0,0.1,0,0.2-0.1l0.1-0.1l0.1-0.1
		c0.1-0.2,0.3-0.4,0.4-0.7c0.1-0.1,0.1-0.3,0.2-0.4l0,0l0,0c0.4-1.1,0.8-2.2,1.1-3.4l0.1-0.3c0,0,0-0.1,0-0.1c0-0.1,0.1-0.2,0.2-0.2
		l-0.2-0.1h-0.1h-0.1h-0.2h-0.1l0,0c0,0-0.1,0-0.1,0l-0.2,0.1l0,0c-0.1,0.1-0.2,0.2-0.3,0.3l0,0C37.1,6.6,37,6.7,37,6.8
		c-0.1,0.1-0.1,0.3-0.2,0.4l-0.1,0.2c-0.3,0.7-0.5,1.4-0.7,2.2v0.3c0,0.3-0.1,0.7-0.1,1v0.5C36,11.4,36,11.5,36.1,11.6L36.1,11.6z"
		/>
	<path class="st0" d="M42.2,13.1c-0.2,0-0.4-0.1-0.6-0.2c-0.2-0.1-0.3-0.3-0.3-0.5c0-0.2,0-0.4,0.1-0.6c0.2-1.6,0.6-3.5,0.9-5.8
		c0.1-0.3,0.1-0.6,0.1-0.8V5c0-0.1,0-0.2,0.1-0.3c0.1-0.1,0.2-0.1,0.3-0.1H43h0.2c0.2,0,0.5,0.1,0.7,0.2c0.3,0.2,0.5,0.5,0.5,0.9
		c0,0.1,0,0.2,0,0.3l0,0l-0.2,1l-0.2,1.1c0.3-0.8,0.7-1.6,1.2-2.3c0.3-0.5,0.8-0.9,1.5-0.9c0.3,0,0.5,0.1,0.8,0.3
		c0.4,0.3,0.6,0.8,0.5,1.3c0,0.2,0,0.3,0,0.5c-0.1,0.6-0.2,1.2-0.3,1.8c-0.1,0.4-0.2,0.8-0.2,1.3v0.1c-0.1,0.3-0.1,0.7-0.1,1
		c0,0.1,0,0.2,0,0.3c0,0.1,0.1,0.2,0.1,0.3c0.1,0.1,0.1,0.1,0.2,0.1c0.3-0.1,0.6-0.2,0.8-0.5l0,0c0.3-0.3,0.6-0.6,0.8-1
		c0.2-0.4,0.3-0.8,0.3-1.2V8.9c0-0.1-0.1-0.3-0.2-0.4c-0.1-0.1-0.1-0.2-0.1-0.3c0-0.2,0.1-0.4,0.3-0.4c0.2-0.1,0.4-0.1,0.6-0.2
		c0.2,0,0.4,0.1,0.5,0.2c0.3,0.2,0.5,0.6,0.5,1c0,0.3-0.1,0.6-0.2,0.9c-0.3,0.7-0.8,1.4-1.4,1.9c-0.6,0.8-1.5,1.2-2.5,1.3
		c-0.3,0-0.5-0.1-0.8-0.2c-0.3-0.1-0.5-0.3-0.6-0.5c-0.1-0.2-0.2-0.4-0.2-0.6c0-0.2,0-0.5,0-0.7c0-0.4,0-0.9,0.1-1.3
		c0.1-0.4,0.1-0.9,0.2-1.3l0.1-0.6L46,7c0-0.1,0-0.3,0-0.4c0-0.2,0-0.3-0.2-0.3c-0.1,0-0.1,0-0.2,0.1c-0.1,0.1-0.1,0.2-0.1,0.2
		c-0.2,0.3-0.4,0.7-0.5,1v0.1c-0.6,1.4-1.1,2.9-1.5,4.4c0,0.2-0.1,0.4-0.2,0.6c-0.1,0.1-0.1,0.2-0.3,0.3c-0.2,0.1-0.4,0.1-0.6,0.1
		L42.2,13.1L42.2,13.1z"/>
	<path class="st0" d="M57.2,13c-0.4,0-0.7-0.1-1-0.4c-0.3-0.3-0.5-0.8-0.5-1.2c-0.1-0.6-0.1-1.3-0.1-1.9c0-0.6,0-1.1,0-1.6
		s0.1-1,0.1-1.5c0-0.3,0-0.6-0.1-0.8c0-0.1-0.1-0.2,0-0.3c0-0.2,0.1-0.3,0.4-0.3c0.6-0.1,1.2,0.1,1.5,0.6c0.1,0.2,0.1,0.4,0.1,0.6
		v0.4l-0.2,2.2c0,0.6-0.1,1.1-0.1,1.7c0,0.2,0,0.4,0,0.6c0,0.2,0.1,0.4,0.1,0.6c0.1,0.2,0.2,0.3,0.3,0.3c0.1,0,0.3-0.1,0.3-0.2
		c0.3-0.3,0.5-0.7,0.7-1.1c0.3-0.8,0.6-1.6,0.7-2.4c0.1-0.6,0.2-1.2,0.2-1.8c0-0.3,0-0.7-0.1-1c0-0.1,0-0.2,0-0.3
		c0-0.1,0-0.1,0.1-0.2c0-0.1,0.1-0.1,0.2-0.1c0.1,0,0.1,0,0.2,0c0.3,0,0.6,0.1,0.8,0.3c0.2,0.2,0.3,0.4,0.3,0.7c0,0.2,0,0.4-0.1,0.6
		c-0.2,0.9-0.4,1.8-0.7,2.7c-0.3,0.9-0.6,1.7-1.1,2.5C58.9,12.3,58.1,12.9,57.2,13z"/>
	<path class="st0" d="M62.7,13L62.7,13c-0.5-0.1-0.9-0.3-1.1-0.7c-0.2-0.4-0.4-0.8-0.4-1.3c0-0.2,0-0.4,0-0.6c0-0.4,0-0.8,0.1-1.2
		c0.1-0.4,0.2-0.8,0.2-1.2c0.1-0.4,0.2-0.8,0.4-1.2c0.2-0.4,0.4-0.8,0.7-1.1c0.3-0.3,0.6-0.6,1-0.7c0.2,0,0.4,0,0.5,0
		c0.6,0,1.1,0.2,1.6,0.5c0-0.1,0-0.2,0-0.3c0-0.1,0.1-0.3,0.2-0.3c0.1,0,0.1-0.1,0.2-0.1c0.1,0,0.2,0,0.3,0c0.2,0,0.4,0.1,0.6,0.2
		c0.4,0.2,0.6,0.5,0.6,0.9c-0.1,0.6-0.2,1.3-0.4,1.9c-0.1,0.5-0.3,1.1-0.4,1.6c-0.1,0.6-0.2,1.2-0.2,1.8c0,0.1,0,0.2,0,0.3
		c0,0.1,0.2,0.3,0.3,0.3l0,0c0.1,0,0.3-0.1,0.4-0.2c0.2-0.2,0.4-0.5,0.6-0.7c0.4-0.6,0.7-1.3,1-2c0-0.1,0.1-0.2,0.1-0.3
		c0.1-0.1,0.1-0.1,0.2-0.2c0.1,0,0.1-0.1,0.2-0.1c0.1,0,0.2,0.1,0.3,0.2c0,0.1,0,0.2,0,0.4c-0.4,1-0.9,2-1.5,3
		c-0.2,0.3-0.5,0.7-0.8,0.9c-0.3,0.2-0.6,0.3-0.9,0.3c-0.4,0-0.7-0.1-1-0.3c-0.2-0.2-0.4-0.4-0.5-0.7c-0.1-0.3-0.2-0.6-0.2-0.9
		c0-0.1,0-0.2,0-0.3c-0.1,0.2-0.2,0.4-0.3,0.5c-0.1,0.3-0.3,0.6-0.5,0.9c-0.2,0.2-0.3,0.4-0.6,0.6C63.2,13,63,13,62.7,13z
		 M63.2,11.6c0.1,0,0.1,0,0.2-0.1l0.1-0.1l0.1-0.1c0.1-0.2,0.3-0.4,0.4-0.7c0.1-0.1,0.1-0.3,0.2-0.4l0,0l0,0
		c0.4-1.1,0.8-2.2,1.1-3.4l0.1-0.3c0,0,0-0.1,0-0.1c0-0.1,0.1-0.2,0.2-0.2l-0.2-0.1h-0.1h-0.1C65.1,6,65.1,6,65,6h-0.1h-0.1h-0.1
		l-0.2,0.1l0,0c-0.1,0.1-0.2,0.2-0.3,0.3l0,0c-0.1,0.1-0.1,0.2-0.2,0.3C64,6.8,63.9,7,63.9,7.1l-0.1,0.2c-0.3,0.7-0.5,1.4-0.6,2.1
		v0.3c0,0.3,0,0.7-0.1,1v0.5C63.1,11.3,63.1,11.5,63.2,11.6L63.2,11.6z"/>
	<path class="st0" d="M72.6,13.1c-0.2,0-0.3,0-0.5-0.1c-0.4-0.1-0.7-0.3-0.9-0.6c-0.2-0.3-0.3-0.6-0.3-0.9v-0.1
		c0-0.6,0.1-1.1,0.3-1.7l0.5-2.2c0.1-0.3,0.1-0.6,0.2-0.9c0-0.1-0.1-0.2-0.1-0.2c-0.1,0-0.2,0-0.3,0h-0.1H71h-0.4
		c-0.2,0.9-0.5,1.7-0.9,2.5c-0.1,0.1-0.2,0.2-0.3,0.2c-0.1,0-0.2,0-0.3-0.1c0-0.1-0.1-0.2,0-0.3c0-0.1,0.1-0.3,0.1-0.4l0,0
		c0.2-0.4,0.3-0.8,0.4-1.2l0.3-0.9h-0.1C69.3,6,69,5.6,69,5.1C69,5,69,5,69,4.9c0-0.4,0.1-0.9,0.3-1.3c0.2-0.3,0.4-0.4,0.7-0.5
		c0,0,0.1,0,0.2,0h0.4h0.1c0.1,0,0.2,0,0.3,0.1c0.2,0.1,0.2,0.3,0.2,0.5c0,0.2,0,0.4-0.1,0.5l-0.2,0.9h1c0.2,0,0.4,0,0.6,0
		c0.2,0,0.4,0.1,0.6,0.2c0.4,0.2,0.6,0.5,0.6,0.9v0.2c0,0.2,0,0.4-0.1,0.6c-0.1,0.5-0.2,1.2-0.5,2.1c-0.2,0.7-0.3,1.4-0.4,2.2v0.2
		c0,0.2,0.1,0.3,0.2,0.3h0.1c0.3-0.1,0.5-0.2,0.7-0.5c0.2-0.2,0.4-0.5,0.5-0.7l0.1-0.1c0.3-0.5,0.6-1,0.8-1.5c0-0.1,0.1-0.2,0.1-0.3
		c0.1-0.3,0.3-0.4,0.5-0.4H76c0.1,0,0.2,0.1,0.2,0.1c0,0.1,0.1,0.1,0.1,0.2v0.1c-0.4,1-0.9,2-1.5,2.8c-0.3,0.5-0.7,0.9-1.1,1.2
		C73.3,13,72.9,13.1,72.6,13.1z"/>
	<path class="st0" d="M76.7,13h-0.2c-0.3,0-0.7-0.1-0.9-0.3c-0.3-0.3-0.5-0.6-0.6-1c0-0.2-0.1-0.5-0.1-0.7c0-0.2,0-0.4,0-0.5
		c0.1-0.7,0.2-1.3,0.3-2c0.2-0.7,0.3-1.3,0.5-2c0.1-0.2,0.1-0.3,0.1-0.5c0-0.2,0.1-0.3,0.1-0.5V5.2c0-0.3,0.1-0.4,0.4-0.4
		c0.2,0,0.3,0,0.5,0.1h0.1c0.3,0.1,0.6,0.3,0.8,0.6c0.1,0.2,0.1,0.3,0.1,0.5c0,0.2,0,0.4-0.1,0.7l-0.2,0.8c-0.3,1-0.5,2-0.7,3
		c0,0.2,0,0.4,0,0.6c0,0.2,0,0.4,0.1,0.6c0,0.1,0.2,0.2,0.3,0.2c0.2,0,0.4-0.1,0.5-0.3c0.3-0.3,0.5-0.6,0.7-1
		c0.2-0.4,0.4-0.7,0.5-1.1s0.2-0.5,0.4-0.8c0.1-0.1,0.1-0.2,0.2-0.3c0.1,0,0.1,0,0.2,0c0.1,0,0.2,0,0.2,0.1C79.9,8.4,80,8.4,80,8.5
		v0.1c0,0.1,0,0.2-0.1,0.3c-0.4,1-0.9,2-1.5,2.9c-0.2,0.4-0.5,0.7-0.8,0.9C77.3,12.9,77,13,76.7,13z M77.1,4.4L77.1,4.4
		c-0.1,0-0.2,0-0.2-0.1c-0.2-0.1-0.4-0.4-0.5-0.6c0,0,0-0.1,0-0.2c0-0.1,0-0.3,0.1-0.4C76.6,3,76.8,3,76.9,2.9
		c0.1,0,0.2-0.1,0.3-0.1l0,0c0.2,0,0.3,0.1,0.5,0.2c0.1,0.1,0.2,0.3,0.3,0.5c0,0.1,0,0.1,0,0.2c0,0.1,0,0.2-0.1,0.3
		C77.7,4.2,77.4,4.3,77.1,4.4L77.1,4.4z"/>
	<path class="st0" d="M81.3,13c-0.7,0-1.3-0.3-1.7-0.8c-0.6-0.6-0.9-1.5-0.9-2.4c0-0.7,0.1-1.3,0.3-1.9c0.2-0.7,0.6-1.4,1.1-1.9
		c0.5-0.6,1.2-1,1.9-1.1h0.3c0.3,0,0.6,0.1,0.8,0.2c0.2,0.1,0.4,0.3,0.5,0.6c0.1,0.2,0.2,0.5,0.2,0.8c0,0.5-0.2,1.1-0.5,1.5
		c-0.3,0.4-0.6,0.7-1,0.9c-0.4,0.3-0.8,0.5-1.2,0.7c-0.1,0-0.1,0.1-0.2,0.1c-0.1,0.2-0.1,0.4-0.1,0.6c0,0.5,0.1,0.9,0.3,1.4
		c0.2,0.2,0.4,0.3,0.7,0.3c0.4,0,0.7-0.2,1-0.4c0.5-0.4,0.9-0.8,1.2-1.3c0.3-0.5,0.6-1,0.9-1.5c0.1-0.3,0.3-0.4,0.5-0.4
		c0.1,0,0.3,0.1,0.3,0.2c0,0.1,0,0.1,0,0.2c-0.2,0.6-0.5,1.2-0.9,1.7c-0.2,0.3-0.5,0.7-0.7,1c-0.4,0.6-1.1,1.1-1.8,1.4
		C81.9,12.9,81.6,13,81.3,13z M80.9,8.7c0.6-0.3,1.1-0.6,1.5-1.1c0.2-0.2,0.4-0.5,0.4-0.7c0-0.1,0-0.2,0-0.3c0-0.1,0-0.3-0.1-0.4
		c0-0.1-0.1-0.2-0.2-0.2c-0.1,0-0.3,0.1-0.4,0.2c-0.5,0.5-0.8,1.1-1,1.7C81,8.1,80.9,8.4,80.9,8.7z"/>
	<path class="st0" d="M86,13.1c-0.2,0-0.3,0-0.5-0.1c-0.8-0.4-1.3-1.2-1.1-2.1c0-0.2,0-0.4,0-0.6c0.1-1.3,0.5-2.6,1.1-3.8
		c0.3-0.8,1-1.3,1.7-1.5c0.1,0,0.2,0,0.3,0c0.3,0,0.6,0.1,0.9,0.2c0.3,0.1,0.6,0.3,0.8,0.4C89.7,4,90,2.4,90.2,0.8
		c0-0.1,0-0.2,0-0.2c0-0.1,0.1-0.1,0.1-0.2c0.1,0,0.1-0.1,0.2-0.1c0.1,0,0.3,0,0.4,0.1c0.6,0.1,1,0.7,1,1.3c0,0.2,0,0.4-0.1,0.6
		l-1.7,7.9c0,0.3-0.1,0.5-0.1,0.8c0,0.1,0,0.2,0,0.3c0,0.1,0,0.2,0,0.2c0,0.1,0.1,0.1,0.1,0.2c0.1,0,0.1,0.1,0.2,0.1
		c0.1,0,0.3-0.1,0.4-0.1c0.9-0.7,1.6-1.7,2-2.7c0.1-0.2,0.2-0.3,0.3-0.5c0.1-0.1,0.2-0.1,0.3-0.1c0.1,0,0.2,0,0.2,0.1
		c0.1,0.1,0.1,0.2,0.1,0.2c0,0.1,0,0.3-0.1,0.4c-0.4,1-1,2-1.6,2.9c-0.3,0.3-0.6,0.6-1,0.9c-0.3,0.2-0.6,0.3-1,0.3h-0.2
		c-0.4-0.1-0.8-0.3-1.1-0.7c-0.2-0.4-0.3-0.8-0.3-1.3c-0.2,0.3-0.3,0.6-0.5,0.8c-0.2,0.3-0.4,0.5-0.6,0.7C86.9,12.8,86.5,13,86,13.1
		z M86.6,11.7c0.2,0,0.3-0.1,0.4-0.2c0.2-0.3,0.4-0.6,0.6-0.9c0.2-0.3,0.3-0.7,0.5-1L88.3,9c0.2-0.4,0.4-0.9,0.5-1.3
		c0.2-0.4,0.3-0.9,0.4-1.3c0,0,0-0.1,0-0.2l-0.1,0C88.8,6.1,88.6,6,88.4,6c-0.2,0-0.4,0.1-0.5,0.2c-0.2,0.1-0.3,0.3-0.4,0.5
		c-0.6,1-1,2.1-1.2,3.3c-0.1,0.3-0.1,0.6-0.1,0.8c0,0.2,0,0.4,0.1,0.6C86.4,11.6,86.5,11.7,86.6,11.7L86.6,11.7z"/>
	<path class="st0" d="M94.1,13L94.1,13c-0.5-0.1-0.9-0.3-1.1-0.7c-0.2-0.4-0.4-0.8-0.4-1.3c0-0.2,0-0.4,0-0.6c0-0.4,0-0.8,0.1-1.2
		c0.1-0.4,0.1-0.8,0.2-1.2c0.1-0.4,0.2-0.8,0.4-1.2c0.2-0.4,0.4-0.8,0.6-1.1C94.2,5.4,94.6,5.1,95,5c0.2,0,0.3,0,0.5,0
		c0.6,0,1.1,0.2,1.6,0.5c0-0.1,0-0.2,0-0.3c0-0.1,0.1-0.3,0.2-0.3c0.1,0,0.1-0.1,0.2-0.1c0.1,0,0.2,0,0.3,0c0.2,0,0.4,0.1,0.6,0.2
		C98.8,5.1,99,5.5,99,5.9c-0.1,0.6-0.2,1.3-0.4,1.9c-0.1,0.5-0.3,1.1-0.4,1.6C98.1,10,98,10.6,98,11.2c0,0.1,0,0.2,0,0.3
		c0,0.1,0.1,0.3,0.3,0.3l0,0c0.1,0,0.3-0.1,0.4-0.2c0.2-0.2,0.4-0.5,0.6-0.7c0.4-0.6,0.7-1.3,1-2c0-0.1,0.1-0.2,0.1-0.3
		c0.1-0.1,0.1-0.1,0.2-0.2c0.1,0,0.1-0.1,0.2-0.1c0.1,0,0.3,0.1,0.3,0.2c0,0,0,0.1,0,0.1c0,0.1,0,0.1,0,0.2c-0.4,1-0.9,2-1.5,3
		c-0.2,0.3-0.5,0.7-0.8,0.9C98.5,13,98.1,13,97.8,13c-0.4,0-0.7-0.1-1-0.3c-0.2-0.2-0.4-0.4-0.5-0.7c-0.1-0.3-0.2-0.6-0.2-0.9
		c0-0.1,0-0.2,0-0.3l-0.3,0.5c-0.1,0.3-0.3,0.6-0.5,0.9c-0.2,0.2-0.3,0.4-0.6,0.6C94.6,12.9,94.3,13,94.1,13z M94.5,11.6
		c0.1,0,0.1,0,0.2-0.1l0.1-0.1l0.1-0.1c0.1-0.2,0.3-0.4,0.4-0.7c0.1-0.1,0.1-0.3,0.2-0.4l0,0l0,0c0.4-1.1,0.8-2.2,1.1-3.4l0.1-0.3
		c0,0,0-0.1,0-0.1c0-0.1,0.1-0.2,0.2-0.2l-0.2-0.1h-0.1h-0.1h-0.2h-0.1h-0.1c0,0-0.1,0-0.1,0l-0.2,0.1l0,0c-0.1,0.1-0.2,0.2-0.3,0.3
		l0,0l-0.2,0.3c-0.1,0.1-0.1,0.3-0.2,0.4l-0.1,0.2c-0.3,0.7-0.5,1.4-0.6,2.1v0.3c0,0.3-0.1,0.7-0.1,1v0.5
		C94.5,11.4,94.5,11.5,94.5,11.6L94.5,11.6z"/>
	<path class="st0" d="M101.4,13.1c-0.4,0-0.8-0.1-1.1-0.5c-0.2-0.2-0.3-0.5-0.4-0.8c-0.1-0.3-0.1-0.7-0.1-1c0-0.5,0.1-1,0.2-1.5
		c0.1-0.5,0.2-1,0.4-1.4c0.2-0.6,0.5-1.2,0.8-1.7c0.3-0.5,0.8-0.9,1.4-1.1c0.2,0,0.3,0,0.5,0c0.6,0,1.2,0.2,1.7,0.5l0,0l0.1-0.6
		c0.2-1.1,0.4-2.1,0.6-2.9l0.1-0.3c0.1-0.3,0.1-0.6,0.1-0.9V0.7c0-0.1,0-0.2,0.1-0.3c0.1-0.1,0.2-0.1,0.3-0.1h0.1l0.5,0.1
		c0.2,0.1,0.4,0.2,0.6,0.4c0.1,0.2,0.2,0.4,0.2,0.6c0,0.2,0,0.3-0.1,0.5c-0.3,1.5-0.6,2.8-0.9,4L106,8.8c-0.1,0.6-0.2,1.1-0.3,1.7
		v0.2c0,0.2,0,0.3,0,0.5c0,0.2,0,0.3,0.1,0.5c0.1,0.1,0.2,0.2,0.3,0.2c0.2,0,0.5-0.1,0.7-0.2c0.7-0.5,1.3-1.3,1.4-2.1
		c0-0.1,0-0.2,0-0.3c0-0.2,0-0.3-0.1-0.5c-0.1-0.1-0.1-0.2-0.1-0.3c0-0.2,0.1-0.3,0.3-0.4c0.2-0.1,0.4-0.1,0.6-0.2
		c0.3,0,0.6,0.1,0.8,0.4c0.2,0.2,0.2,0.5,0.2,0.8c0,0.4-0.1,0.9-0.3,1.2c-0.5,0.9-1.2,1.6-2,2.2c-0.5,0.4-1.2,0.7-1.9,0.7
		c-0.6,0-1.1-0.3-1.4-0.7c-0.2-0.4-0.3-0.8-0.3-1.3c-0.2,0.3-0.4,0.7-0.6,1c-0.2,0.3-0.5,0.6-0.8,0.8
		C102.1,13,101.8,13.1,101.4,13.1z M102,11.7c0.2,0,0.3-0.1,0.4-0.2c0.4-0.5,0.8-1,1-1.6c0.2-0.4,0.4-0.9,0.6-1.5
		c0.3-0.7,0.5-1.5,0.7-2.3l0,0c-0.2,0-0.3-0.1-0.5-0.2H104c-0.1,0-0.2,0-0.3,0.1l-0.2,0.1c-0.3,0.3-0.6,0.6-0.8,1
		c-0.2,0.4-0.3,0.8-0.5,1.2c-0.2,0.7-0.4,1.3-0.6,2c0,0.2,0,0.3,0,0.5c0,0.2,0,0.4,0.1,0.6C101.8,11.6,101.8,11.7,102,11.7L102,11.7
		z"/>
	<path class="st0" d="M115.7,13.1c-0.2,0-0.3,0-0.5-0.1c-0.8-0.4-1.3-1.2-1.1-2.1c0-0.2,0-0.4,0-0.6c0.1-1.3,0.5-2.6,1.1-3.8
		c0.3-0.8,1-1.3,1.8-1.5c0.1,0,0.2,0,0.3,0c0.3,0,0.6,0.1,0.9,0.2c0.3,0.1,0.6,0.3,0.8,0.4c0.4-1.6,0.7-3.1,0.9-4.7
		c0-0.1,0-0.2,0-0.3c0-0.1,0.1-0.1,0.1-0.2c0.1,0,0.1-0.1,0.2-0.1c0.1,0,0.2,0,0.3,0.1c0.6,0.1,1.1,0.6,1.1,1.3c0,0.2,0,0.4-0.1,0.6
		c-1.1,5.1-1.7,7.8-1.7,7.9c0,0.3-0.1,0.5-0.1,0.8c0,0.1,0,0.2,0,0.3c0,0.1,0,0.2,0,0.2c0,0.1,0.1,0.1,0.1,0.2
		c0.1,0,0.1,0.1,0.2,0.1c0.1,0,0.3-0.1,0.4-0.1c0.9-0.7,1.6-1.7,2-2.7c0.1-0.2,0.2-0.3,0.3-0.5c0.1-0.1,0.2-0.1,0.3-0.1
		c0.1,0,0.1,0,0.2,0.1c0.1,0.1,0.1,0.2,0.1,0.2c0,0.1,0,0.3-0.1,0.4c-0.5,1-1.1,2-1.8,2.9c-0.3,0.3-0.6,0.6-0.9,0.9
		c-0.3,0.2-0.6,0.3-1,0.3h-0.2c-0.4-0.1-0.8-0.3-1.1-0.7c-0.2-0.4-0.4-0.8-0.4-1.3c-0.2,0.3-0.3,0.6-0.5,0.8
		c-0.2,0.3-0.4,0.5-0.6,0.7C116.6,12.9,116.1,13,115.7,13.1z M116.3,11.7c0.2,0,0.3-0.1,0.4-0.2c0.2-0.3,0.4-0.6,0.6-0.9
		c0.2-0.3,0.3-0.7,0.5-1L118,9c0.2-0.4,0.3-0.9,0.5-1.3c0.2-0.4,0.3-0.9,0.4-1.3c0,0,0-0.1,0-0.2l-0.1-0.1C118.6,6,118.4,6,118.1,6
		c-0.2,0-0.4,0.1-0.5,0.2c-0.2,0.1-0.3,0.3-0.4,0.5c-0.6,1-1,2.2-1.2,3.3c-0.1,0.3-0.1,0.6-0.1,0.8c0,0.2,0,0.4,0.1,0.6
		C116.1,11.6,116.2,11.7,116.3,11.7z"/>
	<path class="st0" d="M125.6,13.2c-0.7,0-1.4-0.2-2-0.5c-0.3-0.2-0.6-0.4-0.8-0.7c-0.2-0.3-0.3-0.6-0.4-1c-0.1-0.3-0.1-0.7-0.1-1.1
		c0-0.7,0.1-1.3,0.3-1.9c0.2-0.6,0.5-1.2,0.9-1.8c0.4-0.5,0.9-0.9,1.5-1.2c0.3-0.1,0.6-0.2,0.8-0.2c0.3,0,0.6,0.1,0.8,0.2
		c0.2,0.1,0.4,0.3,0.4,0.5c0.1,0.2,0.1,0.4,0.1,0.7c0,0.3-0.1,0.7-0.2,1c-0.1,0.3-0.3,0.6-0.6,0.8c-0.6,0.6-1.3,1.1-2.1,1.5
		c0,0.2,0,0.4,0,0.6c0,0.5,0.1,1,0.4,1.5c0.1,0.1,0.3,0.2,0.5,0.3c0.2,0,0.4,0.1,0.6,0.1c0.3,0,0.5,0,0.8-0.1l0.8-0.2
		c0,0,0.1,0,0.2-0.1l0.2-0.1c0.6-0.4,1-0.9,1.3-1.5c0.2-0.3,0.3-0.7,0.3-1.1c0-0.2-0.1-0.4-0.2-0.5C129,8.5,129,8.4,129,8.2
		c0-0.2,0.1-0.3,0.3-0.4c0.2-0.1,0.4-0.1,0.6-0.2c0.3,0,0.5,0.1,0.7,0.3c0.2,0.3,0.3,0.6,0.3,0.9c0,0.5-0.2,1-0.4,1.4
		c-0.3,0.5-0.6,0.9-1,1.3C128.4,12.7,127,13.2,125.6,13.2z M124.5,8.8c0.5-0.3,0.9-0.6,1.3-1c0.3-0.3,0.6-0.7,0.6-1.2
		c0-0.1,0-0.3-0.1-0.4c0-0.1-0.1-0.2-0.2-0.2s-0.4,0.2-0.7,0.6C125,7.3,124.6,8,124.5,8.8z"/>
	<path class="st0" d="M137.8,13c-0.2,0-0.3,0-0.5-0.1c-0.5-0.1-1-0.4-1.3-0.8c-0.6-0.6-0.9-1.5-0.9-2.4c0-0.7,0.1-1.3,0.3-1.9
		c0.2-0.7,0.6-1.4,1.1-1.9c0.5-0.6,1.2-1,1.9-1.1h0.3c0.3,0,0.6,0.1,0.8,0.2c0.2,0.1,0.4,0.3,0.5,0.6c0.1,0.2,0.2,0.5,0.1,0.8
		c0,0.5-0.2,1.1-0.5,1.5c-0.3,0.4-0.6,0.7-1,0.9c-0.4,0.3-0.8,0.5-1.2,0.7c-0.1,0-0.1,0.1-0.2,0.1c-0.1,0.2-0.1,0.4-0.1,0.6
		c0,0.5,0.1,0.9,0.3,1.4c0.2,0.2,0.4,0.3,0.7,0.3c0.4,0,0.7-0.2,1-0.4c0.5-0.4,0.9-0.8,1.2-1.3c0.3-0.5,0.6-1,0.9-1.5
		c0.1-0.3,0.3-0.4,0.5-0.4c0.1,0,0.3,0.1,0.3,0.2c0,0.1,0,0.1,0,0.2c-0.2,0.6-0.5,1.2-0.9,1.7c-0.2,0.3-0.5,0.7-0.7,1
		c-0.4,0.6-1.1,1.1-1.8,1.4C138.4,12.9,138.1,13,137.8,13z M137.4,8.7c0.6-0.3,1.1-0.6,1.5-1.1c0.2-0.2,0.4-0.5,0.4-0.7
		c0-0.1,0-0.2,0-0.3c0-0.1,0-0.3-0.1-0.4c0-0.1-0.1-0.2-0.3-0.2c-0.1,0-0.3,0.1-0.4,0.2c-0.5,0.5-0.8,1.1-1,1.7
		C137.5,8.1,137.5,8.4,137.4,8.7z"/>
	<path class="st0" d="M141.9,13c-0.4,0-0.7-0.1-0.9-0.4c0-0.1-0.1-0.2-0.1-0.4c0-0.1,0-0.2,0-0.4c0.8-4.5,1.1-6.8,1.1-6.9
		c0-0.1,0-0.1,0-0.2c0-0.1,0.2-0.2,0.4-0.2c0.1,0,0.2,0,0.4,0c0.4,0,0.7,0.2,0.9,0.5c0.1,0.2,0.2,0.4,0.2,0.6c0,0.3-0.1,0.6-0.1,0.9
		c-0.1,0.3-0.1,0.5-0.1,0.8l0,0l0.3-0.6c0.1-0.2,0.2-0.5,0.4-0.7c0.2-0.5,0.6-0.8,1-1.1c0.2-0.1,0.4-0.2,0.7-0.2
		c0.3,0,0.5,0.1,0.8,0.3c0.2,0.2,0.4,0.4,0.4,0.7c0.1,0.3,0.1,0.6,0.1,0.9c0.2-0.2,0.4-0.5,0.6-0.7c0.2-0.3,0.4-0.5,0.7-0.7
		c0.3-0.2,0.7-0.3,1.1-0.3c0.3,0,0.5,0.1,0.8,0.2c0.4,0.4,0.6,0.9,0.6,1.5c0,0.7-0.2,1.4-0.3,2.1c-0.1,0.4-0.2,0.8-0.3,1.2
		c-0.1,0.4-0.1,0.8-0.1,1.3c0,0.1,0,0.2,0,0.3c0,0.1,0.1,0.2,0.1,0.2c0.1,0,0.1,0,0.2,0c0.1,0,0.3,0,0.4-0.1
		c0.3-0.2,0.6-0.5,0.8-0.9c0.4-0.6,0.7-1.3,1-1.9c0-0.2,0.1-0.3,0.3-0.4c0.1-0.1,0.2-0.1,0.3-0.1c0.1,0,0.1,0,0.2,0
		c0.1,0.1,0.1,0.2,0.1,0.3c0,0.1,0,0.3-0.1,0.4c-0.3,0.9-0.8,1.7-1.3,2.4c-0.4,0.9-1.2,1.5-2.2,1.6c-0.4,0-0.8-0.1-1.1-0.4
		c-0.3-0.4-0.5-0.9-0.5-1.4v-0.4c0-0.4,0-0.8,0.1-1.2c0.1-0.4,0.2-0.8,0.2-1.2c0.1-0.6,0.2-1.1,0.2-1.7c0-0.1,0-0.3,0-0.4h-0.1
		c-0.1,0-0.2,0.1-0.3,0.2c-0.4,0.4-0.7,0.8-1,1.3c-0.7,1.2-1,2.6-1,4c0,0.1,0,0.2,0,0.3c0,0.1-0.1,0.2-0.1,0.2
		c-0.1,0.1-0.3,0.1-0.4,0.1h-0.2c-0.2,0-0.4,0-0.6-0.1c-0.2,0-0.3-0.2-0.4-0.3c-0.1-0.2-0.1-0.3-0.1-0.5v-0.1c0-0.9,0.1-1.8,0.2-2.6
		c0.2-0.7,0.3-1.5,0.3-2.2c0-0.1,0-0.1,0-0.2c0-0.1-0.1-0.1-0.1-0.1c-0.1,0-0.1,0-0.1,0.1c-0.3,0.3-0.5,0.6-0.6,1
		c-0.7,1.6-1.3,3.3-1.7,5.1c0,0.1-0.1,0.3-0.2,0.4c-0.1,0.1-0.3,0.1-0.4,0.1L141.9,13z"/>
	<path class="st0" d="M152.4,18.8h-0.6c-0.2,0-0.5-0.1-0.6-0.3c-0.1-0.2-0.2-0.4-0.2-0.6c0-0.1,0-0.2,0-0.3v-0.2
		c0.3-1.7,0.6-3.5,1-5.4c0.2-1.2,0.5-2.4,0.7-3.5s0.4-1.9,0.4-2.7c0-0.2,0.1-0.4,0.1-0.7V4.9c0-0.1,0-0.2,0.1-0.2
		c0.1-0.1,0.2-0.1,0.3-0.1c0.1,0,0.2,0,0.2,0.1l0.2,0.1c0.2,0.1,0.4,0.2,0.6,0.3c0.2,0.2,0.4,0.5,0.4,0.8c0.4-0.5,1-0.8,1.6-0.9
		c0.5,0,1,0.2,1.3,0.6c0.5,0.7,0.7,1.4,0.6,2.2c0,0.7-0.1,1.4-0.3,2.1c-0.2,0.7-0.6,1.4-1.1,1.9c0.6-0.3,1.2-0.6,1.7-1.1
		c0.5-0.5,0.9-1.1,1.2-1.7l0.1-0.3c0-0.1,0.1-0.2,0.2-0.4c0.1-0.1,0.2-0.2,0.3-0.2c0.1,0,0.2,0,0.3,0.1c0.1,0.1,0.1,0.2,0.1,0.2
		c0,0.3-0.1,0.5-0.2,0.8c-0.1,0.2-0.2,0.4-0.4,0.7c-0.5,1.1-1.4,2-2.5,2.5c-0.7,0.3-1.4,0.5-2.1,0.5c-0.3,0-0.6,0-0.8-0.1
		c-0.2,0-0.5-0.1-0.7-0.2c-0.2-0.1-0.3-0.2-0.3-0.2l-0.3,1.8c-0.4,2.1-0.6,3.4-0.7,3.9c0,0.1,0,0.3-0.1,0.4
		C152.6,18.7,152.5,18.8,152.4,18.8z M154.6,11.8c0.3,0,0.6-0.1,0.8-0.4c0.2-0.3,0.4-0.6,0.6-0.9c0.2-0.4,0.3-0.8,0.4-1.2
		c0.1-0.3,0.2-0.7,0.2-1c0-0.3,0.1-0.7,0.1-1c0-0.2,0-0.4-0.1-0.6c0-0.1,0-0.2-0.1-0.3c0-0.1-0.1-0.2-0.1-0.3V6
		c-0.1-0.1-0.2-0.1-0.3,0c-0.1,0-0.2,0-0.3,0.1c-0.1,0.1-0.2,0.2-0.2,0.2l-0.1,0.2c-0.4,0.6-0.7,1.2-0.9,1.9l-0.4,2.3
		c0,0.1,0,0.3,0,0.4C154.1,11.6,154.3,11.9,154.6,11.8L154.6,11.8z"/>
	<path class="st0" d="M161.1,13L161.1,13c-0.5-0.1-0.9-0.3-1.1-0.7c-0.2-0.4-0.3-0.8-0.4-1.3c0-0.2,0-0.4,0-0.6c0-0.4,0-0.8,0.1-1.2
		c0.1-0.4,0.1-0.8,0.2-1.2c0.1-0.4,0.2-0.8,0.4-1.2c0.2-0.4,0.4-0.8,0.6-1.1c0.3-0.3,0.6-0.6,1-0.8c0.2-0.1,0.4-0.1,0.6-0.1
		c0.6,0,1.1,0.2,1.6,0.5c0-0.1,0-0.2,0-0.3c0-0.1,0.1-0.3,0.1-0.3c0.1,0,0.1-0.1,0.2-0.1c0.1,0,0.2,0,0.3,0c0.2,0,0.4,0.1,0.6,0.2
		c0.4,0.2,0.6,0.5,0.6,0.9c-0.1,0.6-0.2,1.3-0.4,1.9c-0.1,0.5-0.3,1.1-0.4,1.6c-0.1,0.6-0.2,1.2-0.2,1.8c0,0.1,0,0.2,0,0.3
		c0,0.1,0.1,0.3,0.3,0.3l0,0c0.1,0,0.3-0.1,0.4-0.2c0.2-0.2,0.4-0.5,0.6-0.7c0.4-0.6,0.7-1.3,1-2c0-0.1,0.1-0.2,0.1-0.3
		c0.1-0.1,0.1-0.1,0.2-0.2c0.1,0,0.1-0.1,0.2-0.1c0.1,0,0.2,0.1,0.3,0.2c0,0.1,0,0.2,0,0.4c-0.4,1-0.9,2-1.5,3
		c-0.2,0.3-0.5,0.7-0.8,0.9c-0.3,0.2-0.6,0.3-0.9,0.3c-0.4,0-0.7-0.1-1-0.3c-0.2-0.2-0.4-0.4-0.6-0.7c-0.1-0.3-0.2-0.6-0.2-0.9
		c0-0.1,0-0.2,0-0.3c-0.1,0.2-0.2,0.4-0.3,0.5c-0.1,0.3-0.3,0.6-0.5,0.9c-0.2,0.2-0.3,0.4-0.6,0.6C161.6,12.9,161.3,13,161.1,13z
		 M161.6,11.6c0.1,0,0.1,0,0.2-0.1l0.1-0.1l0.1-0.1c0.1-0.2,0.3-0.4,0.4-0.7c0.1-0.1,0.1-0.3,0.2-0.4l0,0l0,0
		c0.4-1.1,0.8-2.2,1.1-3.4l0.1-0.3c0,0,0-0.1,0-0.1c0-0.1,0.1-0.2,0.2-0.2l-0.2-0.1h-0.1h-0.1h-0.3h-0.1h-0.1h-0.1l-0.2,0.1l0,0
		c-0.1,0.1-0.2,0.2-0.3,0.3l0,0c-0.1,0.1-0.1,0.2-0.2,0.3c-0.1,0.1-0.2,0.3-0.2,0.4l-0.1,0.2c-0.3,0.7-0.5,1.4-0.6,2.1v0.3
		c0,0.3-0.1,0.7-0.1,1v0.5C161.5,11.4,161.5,11.5,161.6,11.6L161.6,11.6z"/>
	<path class="st0" d="M168,13c-0.2,0-0.4,0-0.7,0c-0.2,0-0.3-0.1-0.4-0.3c-0.1-0.1-0.1-0.2-0.1-0.4c0-0.1,0-0.2,0-0.3
		c0.2-1.4,0.5-2.8,0.7-4.2L168,5c0-0.1,0-0.2,0.1-0.2c0.1,0,0.2-0.1,0.2-0.1c0.4,0,0.7,0.1,1,0.3c0.3,0.2,0.4,0.5,0.4,0.8
		c0,0.1,0,0.2,0,0.3s-0.2,0.9-0.4,2.5c0.2-0.6,0.4-1.1,0.6-1.6c0.2-0.5,0.5-1,0.9-1.4c0.2-0.2,0.3-0.4,0.6-0.5
		c0.2-0.1,0.4-0.2,0.7-0.2c0.4,0,0.8,0.2,1,0.5c0.2,0.3,0.3,0.7,0.3,1.2c-0.1,0.8-0.2,1.5-0.3,2.3c-0.1,0.6-0.2,1.1-0.3,1.7
		c-0.1,0.3-0.1,0.7,0,1c0,0.1,0,0.1,0.1,0.2c0,0.1,0.1,0.1,0.2,0.1c0.1,0,0.2,0,0.2-0.1c0.3-0.2,0.5-0.4,0.7-0.7
		c0.4-0.7,0.8-1.4,1-2.2c0.1-0.4,0.3-0.6,0.5-0.6c0.2,0,0.4,0.2,0.3,0.4c0,0,0,0,0,0c0,0.2,0,0.3-0.1,0.4c-0.2,0.5-0.4,1-0.6,1.5
		c-0.2,0.5-0.5,1-0.8,1.4c-0.4,0.6-1,1-1.7,1c-0.3,0-0.5-0.1-0.8-0.2c-0.2-0.1-0.4-0.3-0.6-0.5c-0.1-0.2-0.2-0.4-0.2-0.6
		c0-0.2,0-0.5-0.1-0.7c0-0.4,0-0.8,0.1-1.2c0.1-0.4,0.1-0.8,0.2-1.2c0.1-0.5,0.2-1,0.2-1.6c0,0,0-0.1,0-0.1c0,0,0-0.1,0-0.2
		c0,0,0-0.1,0-0.1c0,0,0-0.1,0-0.1l0,0l0,0l0,0c-0.2,0-0.3,0.2-0.4,0.4c-0.8,1.6-1.5,3.4-1.9,5.1c0,0.2-0.1,0.4-0.2,0.6
		C168.9,12.9,168.4,13.1,168,13z"/>
	<path class="st0" d="M176,13L176,13c-0.5-0.1-0.9-0.3-1.1-0.7c-0.2-0.4-0.4-0.8-0.4-1.3c0-0.2,0-0.4,0-0.6c0-0.4,0-0.8,0.1-1.2
		c0.1-0.4,0.1-0.8,0.2-1.2c0.1-0.4,0.2-0.8,0.4-1.2c0.2-0.4,0.4-0.8,0.6-1.1c0.3-0.4,0.7-0.6,1.1-0.8c0.2,0,0.3,0,0.5,0
		c0.6,0,1.1,0.2,1.6,0.5c0-0.1,0-0.2,0-0.3c0-0.1,0.1-0.3,0.1-0.3c0.1,0,0.1-0.1,0.2-0.1c0.1,0,0.2,0,0.3,0c0.2,0,0.4,0.1,0.6,0.2
		c0.4,0.2,0.6,0.5,0.6,0.9c-0.1,0.6-0.2,1.3-0.4,1.9c-0.1,0.5-0.3,1.1-0.4,1.6c-0.1,0.6-0.2,1.2-0.2,1.8c0,0.1,0,0.2,0,0.3
		c0,0.1,0.2,0.3,0.3,0.3l0,0c0.1,0,0.3-0.1,0.4-0.2c0.2-0.2,0.4-0.5,0.6-0.7c0.4-0.6,0.7-1.3,1-2c0-0.1,0.1-0.2,0.1-0.3
		c0.1-0.1,0.1-0.1,0.2-0.2c0.1,0,0.1-0.1,0.2-0.1c0.1,0,0.2,0.1,0.3,0.2c0,0.1,0,0.2,0,0.4c-0.4,1-0.9,2-1.5,3
		c-0.2,0.3-0.5,0.7-0.8,0.9c-0.3,0.2-0.6,0.3-0.9,0.3c-0.4,0-0.7-0.1-1-0.3c-0.2-0.2-0.4-0.4-0.6-0.7c-0.1-0.3-0.2-0.6-0.2-0.9
		c0-0.1,0-0.2,0-0.3c-0.1,0.2-0.2,0.4-0.3,0.5c-0.1,0.3-0.3,0.6-0.5,0.9c-0.2,0.2-0.3,0.4-0.6,0.6C176.5,13,176.3,13,176,13z
		 M176.5,11.6c0.1,0,0.1,0,0.1-0.1l0.1-0.1l0.1-0.1c0.1-0.2,0.3-0.4,0.4-0.7c0.1-0.1,0.1-0.3,0.2-0.4l0,0l0,0
		c0.4-1.1,0.8-2.2,1.1-3.4l0.1-0.3c0,0,0-0.1,0-0.1c0-0.1,0.1-0.2,0.2-0.2l-0.2-0.1h-0.1h-0.1h-0.3h-0.1h-0.1H178l-0.2,0.1l0,0
		c-0.1,0.1-0.2,0.2-0.3,0.3l0,0c-0.1,0.1-0.1,0.2-0.2,0.3c-0.1,0.1-0.2,0.3-0.2,0.4L177,7.4c-0.3,0.7-0.5,1.4-0.6,2.1v0.3
		c0,0.3,0,0.7-0.1,1v0.5C176.4,11.4,176.4,11.5,176.5,11.6L176.5,11.6z"/>
	<path class="st0" d="M183.4,13.1c-0.2,0-0.3,0-0.5-0.1c-0.8-0.4-1.3-1.2-1.1-2.1c0-0.2,0-0.4,0-0.6c0.1-1.3,0.5-2.6,1.1-3.8
		c0.3-0.8,1-1.3,1.8-1.5c0.1,0,0.2,0,0.3,0c0.3,0,0.6,0.1,0.9,0.2c0.3,0.1,0.6,0.3,0.9,0.4c0.4-1.6,0.7-3.1,0.9-4.7
		c0-0.1,0-0.2,0.1-0.2c0-0.1,0.1-0.1,0.1-0.2c0-0.1,0.1-0.1,0.2-0.1c0.1,0,0.2,0,0.3,0.1c0.6,0.1,1.1,0.6,1.1,1.3
		c0,0.2,0,0.4-0.1,0.6c-1.1,5.1-1.7,7.7-1.7,7.9c0,0.3-0.1,0.5-0.1,0.8c0,0.1,0,0.2,0,0.3c0,0.1,0,0.2,0,0.2c0,0.1,0.1,0.1,0.1,0.2
		c0.1,0,0.1,0.1,0.2,0.1c0.1,0,0.3-0.1,0.4-0.1c0.9-0.7,1.6-1.7,2-2.7c0.1-0.2,0.2-0.3,0.3-0.5c0.1-0.1,0.2-0.1,0.3-0.1
		c0.1,0,0.2,0,0.2,0.1c0.1,0.1,0.1,0.2,0.1,0.2c0,0.1,0,0.3-0.1,0.4c-0.5,1-1.1,2-1.8,2.9c-0.3,0.3-0.6,0.6-0.9,0.9
		c-0.3,0.2-0.6,0.3-1,0.3h-0.2c-0.4-0.1-0.8-0.3-1.1-0.7c-0.2-0.4-0.4-0.8-0.4-1.3c-0.2,0.3-0.3,0.6-0.5,0.8
		c-0.2,0.3-0.4,0.5-0.6,0.7C184.2,12.8,183.8,13,183.4,13.1z M184,11.7c0.2,0,0.3-0.1,0.4-0.2c0.2-0.3,0.5-0.6,0.6-0.9
		c0.2-0.3,0.3-0.7,0.5-1l0.2-0.4c0.2-0.4,0.3-0.9,0.5-1.3c0.2-0.4,0.3-0.9,0.4-1.3c0,0,0-0.1,0-0.2l-0.1-0.1
		c-0.2-0.1-0.4-0.2-0.6-0.2c-0.2,0-0.4,0.1-0.5,0.2c-0.1,0.1-0.3,0.3-0.4,0.5c-0.6,1-1,2.1-1.2,3.3c-0.1,0.3-0.1,0.6-0.1,0.8
		c0,0.2,0,0.4,0.1,0.6C183.8,11.6,183.9,11.7,184,11.7L184,11.7z"/>
	<path class="st0" d="M191.5,13L191.5,13c-0.5-0.1-0.9-0.3-1.1-0.7c-0.2-0.4-0.3-0.8-0.4-1.3c0-0.2,0-0.4,0-0.6c0-0.4,0-0.8,0-1.1
		c0.1-0.4,0.1-0.8,0.2-1.2c0.1-0.4,0.2-0.8,0.4-1.2c0.2-0.4,0.4-0.8,0.6-1.1c0.3-0.4,0.6-0.6,1.1-0.8c0.2-0.1,0.4-0.1,0.6-0.1
		c0.6,0,1.1,0.2,1.6,0.5c0-0.1,0-0.2,0-0.3c0-0.1,0.1-0.3,0.1-0.3c0.1,0,0.2-0.1,0.2-0.1c0.1,0,0.2,0,0.3,0c0.2,0,0.4,0.1,0.6,0.2
		c0.4,0.2,0.6,0.5,0.6,0.9c-0.1,0.6-0.2,1.3-0.4,1.9c-0.1,0.5-0.3,1.1-0.4,1.6c-0.1,0.6-0.2,1.2-0.2,1.8c0,0.1,0,0.2,0,0.3
		c0,0.1,0.2,0.3,0.3,0.3l0,0c0.1,0,0.3-0.1,0.4-0.2c0.2-0.2,0.4-0.5,0.6-0.7c0.4-0.6,0.7-1.3,1-2c0-0.1,0.1-0.2,0.1-0.3
		c0.1-0.1,0.1-0.2,0.2-0.2c0.1,0,0.1-0.1,0.2-0.1c0.1,0,0.2,0.1,0.3,0.2c0,0.1,0,0.2,0,0.4c-0.4,1-0.9,2-1.5,3
		c-0.2,0.3-0.5,0.7-0.8,0.9c-0.3,0.2-0.6,0.3-0.9,0.3c-0.4,0-0.7-0.1-1-0.3c-0.2-0.2-0.4-0.4-0.6-0.7c-0.1-0.3-0.2-0.6-0.2-0.9
		c0-0.1,0-0.2,0-0.3l-0.3,0.5c-0.1,0.3-0.3,0.6-0.5,0.9c-0.2,0.2-0.3,0.4-0.6,0.6C192,12.9,191.7,13,191.5,13z M191.9,11.6
		c0.1,0,0.1,0,0.1-0.1l0.1-0.1l0.1-0.1c0.1-0.2,0.3-0.4,0.4-0.7c0.1-0.1,0.1-0.3,0.2-0.4l0,0l0,0c0.4-1.1,0.8-2.2,1.1-3.4l0.1-0.3
		c0,0,0-0.1,0-0.1c0-0.1,0.1-0.2,0.2-0.2l-0.2-0.1H194h0h-0.2h-0.1h-0.1h-0.1l-0.2,0.1l0,0c-0.1,0.1-0.2,0.2-0.3,0.3l0,0
		c-0.1,0.1-0.1,0.2-0.2,0.3c-0.1,0.1-0.2,0.3-0.2,0.4l-0.1,0.2c-0.3,0.7-0.5,1.4-0.6,2.1v0.3c0,0.3-0.1,0.7-0.1,1v0.5
		C191.9,11.4,191.9,11.5,191.9,11.6L191.9,11.6z"/>
	<path class="st0" d="M200.4,13.2c-0.3,0-0.5,0-0.8-0.1c-0.2,0-0.5-0.1-0.7-0.2c-0.3-0.2-0.5-0.4-0.7-0.7c-0.2-0.3-0.3-0.7-0.2-1
		c0-0.4,0.1-0.6,0.2-0.7c0.1,0,0.1-0.1,0.2-0.1c0.1,0,0.2,0,0.3,0.1c0.1,0.1,0.1,0.2,0.1,0.3c0,0.1,0,0.1,0,0.2c0,0.1,0,0.1,0,0.2
		c0,0.2,0.1,0.3,0.1,0.5l0.1,0.3c0.1,0.2,0.3,0.3,0.6,0.3c0.2,0,0.4-0.1,0.5-0.3c0.1-0.2,0.2-0.4,0.2-0.7c0-0.2,0-0.5-0.1-0.7
		c-0.1-0.4-0.3-0.8-0.5-1.2c-0.3-0.5-0.5-1.1-0.7-1.6c-0.2,0.4-0.4,0.8-0.5,1.1c-0.1,0.2-0.4,0.2-0.5,0.1c0,0,0,0-0.1,0
		c-0.1-0.1-0.1-0.2-0.1-0.2c0-0.1,0-0.1,0.1-0.2c0.3-0.7,0.6-1.4,1-2.1c0.2-0.3,0.4-0.6,0.6-0.9c0.2-0.3,0.6-0.5,0.9-0.6
		c0.2-0.1,0.5-0.1,0.8-0.1c0.3,0,0.6,0.1,0.9,0.2c0.1,0,0.1,0,0.2,0.1c0.1,0,0.2,0.1,0.3,0.2c0.1,0.1,0.1,0.2,0.1,0.3
		c0,0.1,0,0.2-0.1,0.3c-0.1,0.1-0.2,0.1-0.3,0.1c-0.1,0-0.2,0-0.2,0c-0.1,0-0.2-0.1-0.3-0.1c-0.2,0-0.3,0.1-0.4,0.2
		c-0.1,0.1-0.2,0.3-0.2,0.4c0,0.2-0.1,0.4-0.1,0.5c0,0.3,0.1,0.7,0.2,1c0.1,0.2,0.2,0.4,0.3,0.7c0.2,0.4,0.4,0.8,0.5,1.1
		c0.2,0.4,0.2,0.8,0.2,1.2c0,0.3,0,0.5-0.1,0.8v0.1c0,0.1-0.1,0.2-0.1,0.3c0.1-0.1,0.2-0.1,0.3-0.1c0.4-0.1,0.7-0.3,1-0.5
		c0.5-0.4,0.9-0.9,1.1-1.4c0.1-0.2,0.1-0.5,0.1-0.7c0-0.2-0.1-0.4-0.1-0.6c-0.1-0.1-0.1-0.3-0.1-0.4c0-0.1,0-0.2,0.1-0.3
		c0.1-0.1,0.2-0.2,0.3-0.2c0.1,0,0.2-0.1,0.4-0.1c0.2,0,0.3,0,0.4,0.1c0.2,0.1,0.4,0.3,0.4,0.5c0.1,0.2,0.1,0.4,0.1,0.6
		c0,0.3-0.1,0.7-0.2,1c-0.1,0.3-0.3,0.7-0.6,0.9c-0.2,0.3-0.4,0.5-0.7,0.8c-0.5,0.5-1.2,0.9-1.9,1.1C202,13,201.2,13.2,200.4,13.2z"
		/>
</g>
<g>
	<path class="st1" d="M9.2,36L9.2,36c-1.3,0-2.5-0.2-3.6-0.7c-1.2-0.5-2.1-1.4-2.8-2.5c-0.6-1-0.9-2.2-0.9-3.4c0-1.3,0.4-2.6,1-3.8
		c0.7-1.2,1.6-2.2,2.6-3c0.2-0.1,0.4-0.3,0.6-0.4c-0.7-0.9-1.1-2-1.1-3.1V19c0-1.9,0.5-3.7,1.6-5.3c0.4-0.6,0.9-1.1,1.4-1.5
		c0.6-0.5,1.2-0.8,1.8-1.1c0.6-0.3,1.3-0.4,2-0.4c0.5,0,0.9,0.1,1.4,0.3c1,0.4,1.5,1.5,1.5,3.1c0,0.9-0.1,1.7-0.4,2.5
		c-0.1,0.3-0.2,0.7-0.3,1c-0.1,0.3-0.4,0.6-0.7,0.7c-0.3,0.2-0.7,0.2-1,0.2c-0.3,0-0.7-0.1-1-0.2c-0.3-0.1-0.6-0.3-0.7-0.5
		c-0.1-0.1-0.1-0.3-0.1-0.4c0-0.2,0.1-0.4,0.2-0.5l0.2-0.2c0.1-0.1,0.2-0.2,0.3-0.3c0.2-0.3,0.4-0.6,0.5-0.9
		c0.2-0.4,0.3-0.9,0.4-1.3c0.1-0.4,0.1-0.9,0.1-1.3c0-0.1,0-0.2-0.1-0.2c-0.1-0.1-0.1-0.1-0.2-0.1c-0.3,0-0.5,0.1-0.7,0.2
		c-0.2,0.2-0.5,0.3-0.7,0.5c-0.9,0.7-1.6,1.6-2.1,2.6C8.2,16.6,8,17.4,8,18.3c0,1.4,0.9,2.7,2.3,3.1l0.6,0.3
		c0.2,0.1,0.4,0.3,0.4,0.6c0,0.8-0.6,1.5-1.5,1.7c-0.5,0.2-1.1,0.4-1.5,0.8c-0.7,0.6-1.3,1.3-1.6,2.2c-0.3,0.7-0.5,1.5-0.6,2.3v0.4
		c0,1,0.4,1.9,1,2.6c0.4,0.5,0.9,0.9,1.5,1.1c0.6,0.2,1.2,0.3,1.9,0.3c1.3,0,2.5-0.3,3.6-1c2.3-1.4,4.1-3.6,5-6.1
		c0.2-0.4,0.3-0.8,0.4-1.1c0.1-0.3,0.5-0.5,0.8-0.5c0.1,0,0.2,0.1,0.3,0.2c0.1,0.1,0.2,0.3,0.2,0.5c-0.1,0.3-0.2,0.7-0.3,1l-0.1,0.3
		c-0.7,1.9-1.8,3.6-3.1,5.1c-1.4,1.6-3.1,2.8-5.1,3.5C11.2,35.8,10.2,36,9.2,36z"/>
	<path class="st1" d="M20,33.3c-0.4,0-0.7-0.1-1-0.3c-0.3-0.2-0.5-0.5-0.5-0.9c0-0.3,0.1-0.7,0.1-1c0.4-2.8,1-6.1,1.6-10
		c0.1-0.5,0.2-1,0.2-1.5v-0.3c0-0.2,0.1-0.3,0.2-0.5c0.1-0.1,0.3-0.2,0.5-0.2c0.1,0,0.1,0,0.2,0h0.1h0.3c0.4,0,0.8,0.1,1.1,0.3
		c0.5,0.3,0.8,0.9,0.9,1.5c0,0.2,0,0.4-0.1,0.6l0,0l-0.2,1.5l-0.3,2c0.5-1.4,1.2-2.8,2-4c0.5-0.9,1.5-1.5,2.5-1.5
		c0.5,0,1,0.2,1.3,0.5c0.7,0.6,1,1.6,0.9,2.5c0,0.3,0,0.6,0,0.8c-0.1,1-0.3,2.1-0.5,3.2c-0.1,0.7-0.3,1.4-0.4,2.2v0.2
		c-0.1,0.5-0.2,1.1-0.2,1.7c0,0.2,0,0.4,0,0.6c0,0.2,0.1,0.3,0.2,0.5c0.1,0.1,0.2,0.2,0.4,0.1c0.6-0.1,1.1-0.4,1.5-0.9h0.1
		c0.6-0.5,1.1-1.1,1.4-1.8c0.4-0.7,0.6-1.4,0.6-2.2v-0.3c0-0.2-0.1-0.5-0.3-0.7c-0.1-0.1-0.2-0.3-0.2-0.5c0-0.3,0.2-0.6,0.5-0.7
		c0.3-0.2,0.7-0.2,1-0.2c0.3,0,0.6,0.1,0.9,0.3c0.5,0.4,0.8,1.1,0.8,1.7c0,0.5-0.1,1.1-0.3,1.6c-0.5,1.3-1.4,2.4-2.4,3.4
		c-1.1,1.3-2.7,2-4.3,2.1c-0.5,0-0.9-0.1-1.4-0.3c-0.4-0.2-0.8-0.5-1.1-0.9c-0.2-0.3-0.3-0.7-0.4-1.1c-0.1-0.4-0.1-0.8-0.1-1.2
		c0-0.8,0.1-1.5,0.2-2.3c0.1-0.8,0.2-1.5,0.4-2.3c0.1-0.4,0.1-0.7,0.2-1.1l0.2-1.1c0-0.3,0.1-0.5,0.1-0.8c0-0.3-0.1-0.5-0.3-0.5
		c-0.1,0-0.2,0.1-0.3,0.1c-0.2,0.2-0.2,0.3-0.2,0.3c-0.3,0.5-0.6,1.1-0.9,1.7l-0.1,0.2c-1.1,2.5-2,5-2.6,7.7c-0.1,0.3-0.1,0.6-0.3,1
		c-0.1,0.2-0.3,0.4-0.5,0.5c-0.3,0.1-0.7,0.2-1,0.2L20,33.3L20,33.3z"/>
	<path class="st1" d="M53,33.2c-0.7,0-1.4-0.2-1.9-0.7c-0.8-0.7-1.2-1.7-1.1-2.7v-0.2c-0.2,0.4-0.4,0.7-0.6,1.1
		c-0.3,0.6-0.7,1.1-1.1,1.6c-0.3,0.3-0.6,0.5-1,0.6c-0.4,0.1-0.8,0.2-1.2,0.2h-0.4c-0.5-0.1-1.1-0.3-1.5-0.7
		c-0.8-0.7-1.2-1.7-1.1-2.7c0-0.7,0.1-1.3,0.1-2c0.1-1.2,0.4-2.4,0.7-3.5c0.1-0.5,0.3-1.1,0.4-1.7c0.3-1.1,0.4-1.8,0.5-2.1
		c0,0,0-0.1,0-0.1v-0.3c0-0.2,0-0.4,0-0.6c0-0.2,0.1-0.3,0.2-0.5c0.1-0.1,0.3-0.2,0.5-0.2c0.1,0,0.2,0,0.3,0.1l0.3,0.1
		c0.5,0.1,1,0.3,1.4,0.6c0.3,0.3,0.5,0.8,0.5,1.3c0,0.3-0.1,0.5-0.1,0.8v0.1c-0.1,0.3-0.1,0.5-0.2,0.8L47.4,24
		c-0.3,1.1-0.5,2.3-0.8,3.4l-0.1,0.4c-0.1,0.6-0.2,1.2-0.2,1.8v0.5c0.1,0.5,0.3,0.7,0.6,0.7c0.3,0,0.5-0.1,0.7-0.3
		c0.8-0.8,1.4-1.8,1.8-2.8l0.7-1.4l0.4-0.8c0.2-0.8,0.5-2.1,1-4c0.1-0.5,0.2-1,0.3-1.5v-0.4v-0.3c0-0.2,0.1-0.3,0.2-0.5
		c0.1-0.1,0.3-0.2,0.5-0.2l0.2,0L53,19c0.5,0.1,0.9,0.3,1.3,0.6c0.4,0.4,0.6,0.9,0.6,1.4c0,0.3,0,0.5-0.1,0.8L54.2,24
		c-0.3,1.1-0.5,2.3-0.8,3.4c-0.1,0.3-0.1,0.6-0.2,1v0.2c0,0.3-0.1,0.7-0.1,1c0,0.2,0,0.3,0,0.5c0.1,0.5,0.3,0.7,0.6,0.7
		c0.4-0.1,0.8-0.3,1-0.6l0.1-0.1l0,0c0.1-0.1,0.1-0.1,0.2-0.2c0.5-0.7,0.9-1.4,1.2-2.2l1.2-2.5c0.1-0.2,0.2-0.3,0.4-0.3H58
		c0.1,0,0.2,0,0.3,0h0.1c0.1,0.1,0.3,0.2,0.3,0.3v0.2c0,0.1,0,0.1,0,0.2c0,0,0,0.1,0,0.1c0,0,0,0,0,0c-0.7,1.7-1.5,3.3-2.4,4.8
		c-0.4,1-1.2,1.8-2.2,2.3C53.7,33.1,53.4,33.2,53,33.2z"/>
	<path class="st1" d="M57.9,33.3c-0.4,0-0.7-0.1-1-0.3c-0.3-0.2-0.5-0.5-0.5-0.9c0-0.3,0.1-0.7,0.1-1c0.4-2.8,1-6.1,1.6-10
		c0.1-0.5,0.2-1,0.2-1.5v-0.3c0-0.2,0.1-0.3,0.2-0.5c0.1-0.1,0.3-0.2,0.5-0.2c0.1,0,0.1,0,0.2,0h0.1h0.3c0.4,0,0.8,0.1,1.1,0.3
		c0.5,0.3,0.8,0.9,0.9,1.5c0,0.2,0,0.4-0.1,0.6l0,0l-0.2,1.5l-0.3,2c0.5-1.4,1.2-2.8,2-4c0.5-0.9,1.5-1.5,2.5-1.5
		c0.5,0,1,0.2,1.3,0.5c0.7,0.6,1,1.6,0.9,2.5c0,0.3,0,0.6,0,0.8c-0.1,1-0.3,2.1-0.5,3.2c-0.1,0.7-0.3,1.4-0.4,2.2v0.2
		c-0.1,0.5-0.2,1.1-0.2,1.7c0,0.2,0,0.4,0,0.6c0,0.2,0.1,0.3,0.2,0.5c0.1,0.1,0.2,0.2,0.4,0.1c0.6-0.1,1.1-0.4,1.4-0.9h0.1
		c0.6-0.5,1.1-1.1,1.4-1.8c0.4-0.7,0.6-1.4,0.6-2.2v-0.3c0-0.2-0.1-0.5-0.3-0.7c-0.1-0.1-0.2-0.3-0.2-0.5c0-0.3,0.2-0.6,0.5-0.7
		c0.3-0.2,0.7-0.2,1-0.2c0.3,0,0.6,0.1,0.9,0.3c0.5,0.4,0.8,1.1,0.7,1.7c0,0.5-0.1,1.1-0.3,1.6c-0.5,1.3-1.4,2.4-2.4,3.4
		c-1.1,1.3-2.7,2-4.3,2.1c-0.5,0-1-0.1-1.4-0.3c-0.4-0.2-0.8-0.5-1.1-0.9c-0.2-0.3-0.3-0.7-0.4-1.1c-0.1-0.4-0.1-0.8-0.1-1.2
		c0-0.8,0.1-1.5,0.2-2.3c0.1-0.8,0.2-1.5,0.4-2.3c0.1-0.4,0.1-0.7,0.2-1.1l0.2-1.1c0-0.3,0.1-0.5,0.1-0.8c0-0.3-0.1-0.5-0.3-0.5
		c-0.1,0-0.2,0.1-0.3,0.1c-0.2,0.2-0.2,0.3-0.2,0.3c-0.3,0.5-0.6,1.1-0.9,1.7l-0.1,0.2c-1.1,2.5-2,5-2.6,7.7c-0.1,0.3-0.1,0.6-0.3,1
		c-0.1,0.2-0.3,0.4-0.5,0.5c-0.3,0.1-0.7,0.2-1,0.2L57.9,33.3L57.9,33.3z"/>
	<path class="st1" d="M86,33.5c-0.2,0-0.4,0-0.5,0h-0.1c-1-0.1-1.9-0.6-2.5-1.4c-0.4-0.6-0.6-1.3-0.6-2c0-0.6,0.1-1,0.3-1.2
		c0.1-0.1,0.3-0.1,0.4-0.1h0.2c0.1,0,0.3,0.1,0.3,0.2c0.1,0.1,0.1,0.3,0.1,0.4v0.1c0,0.1,0,0.3-0.1,0.5c0,0.4,0.1,0.9,0.3,1.2
		c0.2,0.3,0.5,0.6,0.9,0.6c0.3,0,0.5-0.1,0.8-0.3c0.4-0.3,0.6-0.9,0.6-1.4c0-0.4-0.1-0.8-0.2-1.2c-0.2-0.6-0.4-1.1-0.7-1.6l-0.3-0.6
		c-0.2-0.4-0.4-0.8-0.6-1.2c-0.2-0.5-0.4-0.9-0.5-1.4c-0.3,0.6-0.6,1.3-0.9,1.9c-0.1,0.2-0.3,0.3-0.6,0.3c-0.2,0-0.4-0.1-0.5-0.2
		c-0.1-0.1-0.1-0.2-0.1-0.4c0-0.1,0-0.2,0.1-0.3c0.5-1.2,1.1-2.5,1.8-3.6c0.3-0.6,0.7-1.1,1.1-1.6c0.4-0.5,0.9-0.8,1.5-1h0.1
		c0.4-0.1,0.9-0.2,1.3-0.2c0.5,0,1,0.1,1.5,0.3c0.1,0,0.2,0.1,0.3,0.1l0.2,0.1l0.2,0.1c0.1,0,0.1,0.1,0.1,0.1
		c0.1,0.1,0.2,0.3,0.2,0.5v0.2c0,0.1-0.1,0.3-0.2,0.4c-0.1,0.1-0.3,0.1-0.4,0.1c-0.1,0-0.1,0-0.2,0c-0.2-0.1-0.3-0.1-0.5-0.1h-0.1
		h-0.2h-0.1c-0.3,0-0.5,0.2-0.6,0.4l0,0c-0.1,0.1-0.2,0.3-0.2,0.4c-0.1,0.4-0.2,0.7-0.2,1.1c0,0.6,0.1,1.1,0.3,1.6
		c0.2,0.5,0.4,1,0.7,1.6c0.3,0.6,0.6,1.2,0.8,1.9c0.2,0.6,0.3,1.3,0.3,2c0,0.3,0,0.5-0.1,0.8c0.3-0.2,0.5-0.5,0.7-0.7
		c1.1-1.4,1.9-2.8,2.6-4.4c0.1-0.2,0.4-0.3,0.6-0.3c0.1,0,0.2,0,0.3,0.1c0.2,0.1,0.3,0.3,0.3,0.5c0,0.1,0,0.2-0.1,0.3
		c-0.7,1.5-1.6,2.9-2.6,4.2c-1,1.4-2.5,2.5-4.1,3.1C87,33.4,86.5,33.5,86,33.5z"/>
	<path class="st1" d="M95.8,33.4h-0.2c-0.6-0.1-1.2-0.3-1.7-0.7c-0.5-0.4-0.9-0.8-1.2-1.4c-0.5-1.1-0.8-2.3-0.8-3.5v-0.6
		c0-1.6,0.3-3.2,0.9-4.7c0.5-1.6,1.7-2.9,3.4-3.5c0.3-0.1,0.6-0.1,0.9-0.1c0.8,0,1.5,0.3,2.2,0.7c1.2,1,1.7,2.7,1.7,4.9
		c0,1.3-0.2,2.6-0.5,3.8c1.1-0.5,2-1.5,2.5-2.7l0.1-0.1c0.2-0.5,0.5-0.8,0.9-0.8h0.2c0.3,0.2,0.4,0.4,0.4,0.7
		c-0.1,0.3-0.2,0.6-0.3,0.8c-0.6,1.3-1.6,2.3-2.9,3c-0.4,0.2-0.9,0.3-1.4,0.3c-0.4,0.9-0.9,1.8-1.6,2.5c-0.3,0.3-0.7,0.6-1.2,0.8
		C96.7,33.2,96.3,33.4,95.8,33.4z M96.6,31.8c0.2-0.1,0.3-0.2,0.4-0.3c0.5-0.6,0.9-1.3,1.2-2v-0.1c0-0.1-0.1-0.1-0.1-0.1
		c-0.9-0.9-1.5-2.1-1.5-3.4c0-0.3,0-0.6,0-0.9c0-1.3,0.2-2.6,0.4-3.9c-0.7,1.2-1.2,2.5-1.4,3.8c-0.2,1.1-0.3,2.2-0.3,3.4
		c0,0.6,0.1,1.3,0.2,1.9c0.1,0.4,0.2,0.8,0.4,1.2C96,31.6,96.2,31.7,96.6,31.8L96.6,31.8z M98.6,27.9l0.2-1.1c0-0.3,0.1-0.6,0.1-0.8
		c0-0.2,0-0.3,0-0.5c0-0.2,0-0.4,0-0.7v-1.2c-0.1-0.6-0.2-1-0.2-1.2c-0.1-0.3-0.2-0.7-0.3-1c-0.1,0.3-0.2,0.6-0.2,0.8
		S98,22.5,98,22.7s0,0.3,0,0.5s0,0.4-0.1,0.7s0,0.7,0,1s0,0.5,0,0.8c0,0.4,0,0.7,0.1,1.1c0.1,0.3,0.2,0.5,0.3,0.8l0,0
		C98.4,27.6,98.4,27.7,98.6,27.9L98.6,27.9C98.5,27.8,98.5,27.9,98.6,27.9C98.6,27.9,98.6,27.9,98.6,27.9L98.6,27.9z"/>
	<path class="st1" d="M105.4,33.2c-1,0-1.9-0.5-2.4-1.2c-0.2-0.4-0.4-0.8-0.5-1.3c-0.1-0.4-0.1-0.9-0.1-1.3c0-0.6,0.1-1.3,0.2-1.9
		c0.1-0.7,0.3-1.4,0.4-2c0.4-2.1,0.8-3.8,1.1-5.1l1-4.8l0.1-0.7c0.2-0.8,0.3-1.6,0.4-2.2l0,0l0,0v-0.5v-0.3c0-0.4,0.3-0.7,0.7-0.7
		c0.1,0,0.2,0,0.3,0.1c0.1,0,0.2,0.1,0.3,0.1c0.4,0.1,0.9,0.2,1.2,0.5c0.2,0.2,0.4,0.4,0.5,0.7c0.1,0.2,0.2,0.5,0.2,0.8
		c0,0.2,0,0.4-0.1,0.6c-0.5,2.4-1,5-1.6,7.6c-0.9,4.1-1.4,6.4-1.5,6.9s-0.1,0.7-0.1,1.2v0.5c0,0.1,0,0.2,0.1,0.3
		c0,0.1,0.1,0.3,0.1,0.4l0.1,0.1h0.1h0.1c0,0,0,0,0.1,0h0.1h0.2c0,0,0.1,0,0.2,0l0.2-0.1l0.1-0.1c0.2-0.1,0.3-0.2,0.5-0.3l0,0
		c0.3-0.2,0.5-0.5,0.7-0.6c0.2-0.2,0.4-0.5,0.6-0.7l0.2-0.2c0.7-1,1.3-2.1,1.9-3.2l0,0l0.2-0.4c0.1-0.3,0.3-0.4,0.6-0.4
		c0.1,0,0.2,0,0.3,0.1c0.1,0.1,0.2,0.1,0.2,0.2c0.1,0.1,0.1,0.2,0.1,0.4c0,0.1,0,0.2,0,0.2l-0.1,0.2c-0.5,1-1,2-1.6,3
		c-0.6,1-1.3,1.9-2.1,2.7c-0.4,0.4-0.8,0.8-1.2,1.1C106.5,33.1,105.9,33.2,105.4,33.2z"/>
	<path class="st1" d="M113.6,33.4c-0.5,0-1-0.1-1.4-0.3c-0.5-0.2-0.9-0.5-1.2-0.9c-1-1.4-1.5-3.1-1.4-4.8c0-1.6,0.3-3.2,0.8-4.7
		c0.3-0.7,0.6-1.3,1-1.9c0.4-0.5,0.9-1,1.5-1.4c0.6-0.3,1.2-0.5,1.8-0.5c0.3,0,0.6,0,0.9,0.1c0.1,0,0.1,0,0.2,0
		c0.7,0.2,1.3,0.6,1.7,1.2c0.4,0.6,0.7,1.3,0.9,2c0.2,0.8,0.3,1.5,0.3,2.3c0,1.1-0.1,2.3-0.4,3.4c0.8-0.3,1.5-0.8,2-1.5
		c0.5-0.6,0.8-1.2,1.1-1.9c0.2-0.5,0.3-1.1,0.3-1.7c0-0.2,0-0.4-0.1-0.5c-0.1-0.2-0.2-0.3-0.3-0.5c-0.1-0.1-0.1-0.2-0.1-0.3
		c0-0.3,0.2-0.6,0.5-0.7c0.3-0.2,0.7-0.3,1-0.3c0.4,0,0.8,0.2,1.1,0.4c0.2,0.2,0.4,0.5,0.5,0.8c0.1,0.3,0.1,0.6,0.1,0.9
		c-0.1,1.3-0.6,2.5-1.4,3.4c-0.8,1.2-1.9,2.2-3.1,2.9c-0.7,0.4-1.5,0.7-2.3,0.7c-0.4,1.2-1.2,2.2-2.2,3
		C115,33.2,114.3,33.4,113.6,33.4z M114.2,31.8c0.3,0,0.5-0.2,0.7-0.4c0.3-0.4,0.5-0.8,0.7-1.2c0.2-0.3,0.3-0.6,0.3-0.9l0,0
		c-1.1-0.9-1.7-2.3-1.7-4.3c0-1.3,0.2-2.6,0.5-3.9c-0.1,0.2-0.2,0.3-0.3,0.4v0.1c-0.7,1.4-1.1,2.8-1.3,4.4c-0.1,0.7-0.2,1.4-0.2,2.2
		c0,1,0.1,1.9,0.4,2.8c0.1,0.2,0.2,0.4,0.3,0.5C113.9,31.7,114.1,31.8,114.2,31.8z M116.4,27.9L116.4,27.9c0-0.1,0-0.2,0-0.3
		c0-0.1,0.1-0.2,0.1-0.3c0-0.1,0-0.1,0-0.2c0.1-0.8,0.2-1.5,0.2-2.3c0-0.9-0.1-1.7-0.3-2.6c-0.1-0.3-0.2-0.6-0.3-0.9
		c0,0,0,0.1,0,0.2s-0.1,0.2-0.1,0.3l-0.1,0.2c-0.2,0.9-0.3,1.8-0.3,2.7C115.5,26,115.8,27,116.4,27.9z"/>
	<path class="st1" d="M135.1,33.2c-1,0-1.9-0.5-2.4-1.2c-0.2-0.4-0.4-0.8-0.5-1.3c-0.1-0.4-0.1-0.9-0.1-1.3c0-0.6,0.1-1.3,0.2-1.9
		c0.1-0.7,0.3-1.4,0.4-2c0.4-2.1,0.8-3.8,1.1-5.1l1-4.8l0.1-0.7c0.2-0.8,0.3-1.6,0.4-2.2l0,0l0,0v-0.5V12c0-0.4,0.3-0.7,0.7-0.7
		c0.1,0,0.2,0,0.4,0.1c0.1,0,0.2,0.1,0.3,0.1c0.4,0.1,0.9,0.2,1.2,0.5c0.2,0.2,0.4,0.4,0.5,0.7c0.1,0.2,0.2,0.5,0.2,0.8
		c0,0.2,0,0.4-0.1,0.6c-0.5,2.4-1,5-1.6,7.6c-0.9,4.1-1.4,6.4-1.5,6.9c0,0.3-0.1,0.7-0.1,1.2v0.5c0,0.1,0,0.2,0.1,0.3
		c0,0.1,0.1,0.3,0.1,0.4l0.1,0.1h0.1h0.1h0.1h0.1h0.2c0.1,0,0.1,0,0.2,0l0.2-0.1l0.1-0.1c0.2-0.1,0.3-0.2,0.4-0.3l0,0
		c0.3-0.2,0.5-0.5,0.7-0.6s0.4-0.4,0.6-0.7l0.2-0.2c0.7-1,1.3-2.1,1.9-3.2l0,0l0.2-0.4c0.1-0.3,0.3-0.4,0.6-0.4c0.1,0,0.2,0,0.3,0.1
		c0.1,0.1,0.2,0.1,0.2,0.2c0.1,0.1,0.1,0.2,0.1,0.4c0,0.1,0,0.2-0.1,0.2c0,0.1,0,0.1-0.1,0.2c-0.5,1-1,2-1.6,3
		c-0.6,1-1.3,1.9-2.1,2.7c-0.4,0.4-0.8,0.8-1.3,1.1C136.1,33.1,135.6,33.2,135.1,33.2z"/>
	<path class="st1" d="M149.2,33.2c-0.7,0-1.4-0.2-1.9-0.7c-0.7-0.7-1.1-1.7-1.1-2.7v-0.2c-0.2,0.4-0.4,0.7-0.6,1.1
		c-0.3,0.6-0.7,1.1-1.1,1.6c-0.3,0.3-0.6,0.5-1,0.6c-0.4,0.1-0.8,0.2-1.1,0.2H142c-0.5-0.1-1.1-0.3-1.5-0.7
		c-0.7-0.7-1.1-1.7-1.1-2.7c0-0.7,0.1-1.3,0.1-2c0.1-1.2,0.4-2.4,0.6-3.5c0.1-0.5,0.3-1.1,0.4-1.7c0.3-1.1,0.4-1.8,0.5-2.1
		c0,0,0-0.1,0-0.1v-0.3c0-0.2,0-0.4,0-0.6c0-0.2,0.1-0.3,0.2-0.5c0.1-0.1,0.3-0.2,0.5-0.2c0.1,0,0.2,0,0.3,0.1l0.4,0.1
		c0.5,0.1,1,0.3,1.4,0.6c0.4,0.3,0.6,0.8,0.6,1.3c0,0.3-0.1,0.5-0.1,0.8v0.1c-0.1,0.3-0.1,0.5-0.2,0.8l-0.4,1.4
		c-0.3,1.1-0.5,2.3-0.8,3.4l-0.1,0.4c-0.1,0.6-0.2,1.2-0.2,1.8v0.5c0.1,0.5,0.3,0.7,0.6,0.7c0.3,0,0.5-0.1,0.7-0.3
		c0.8-0.8,1.4-1.8,1.8-2.8l0.7-1.4l0.4-0.8c0.2-0.8,0.5-2.1,1-4c0.1-0.5,0.2-1,0.3-1.5v-0.4v-0.3c0-0.2,0.1-0.3,0.2-0.5
		c0.1-0.1,0.3-0.2,0.5-0.2l0.2,0l0.4,0.1c0.5,0.1,0.9,0.3,1.3,0.6c0.4,0.4,0.6,0.9,0.6,1.4c0,0.3,0,0.5-0.1,0.8l-0.6,2.4
		c-0.3,1.1-0.5,2.3-0.8,3.4c-0.1,0.3-0.1,0.6-0.2,1v0.2c0,0.3-0.1,0.7-0.1,1c0,0.2,0,0.3,0,0.5c0.1,0.5,0.3,0.7,0.6,0.7
		c0.4-0.1,0.8-0.3,1-0.6l0.1-0.1l0,0c0.1-0.1,0.1-0.1,0.1-0.2c0.5-0.7,0.9-1.4,1.2-2.2l1.2-2.5c0.1-0.2,0.2-0.3,0.4-0.3h0.1
		c0.1,0,0.2,0,0.3,0h0.1c0.1,0.1,0.3,0.2,0.3,0.3l0.1,0.2c0,0.1,0,0.1,0,0.2c0,0,0,0.1,0,0.1c0,0,0,0,0,0c-0.7,1.7-1.5,3.3-2.4,4.8
		c-0.4,1-1.2,1.8-2.2,2.3C150,33.1,149.6,33.2,149.2,33.2z"/>
	<path class="st1" d="M156.2,44.7c-0.3,0-0.6,0-0.8-0.1c-0.7-0.3-1.2-0.7-1.5-1.4c-0.3-0.6-0.5-1.3-0.5-2.1c0-1.5,0.6-2.9,1.5-4
		c0.8-1.1,1.9-2,3-2.8l0,0c0.2-0.1,0.3-0.3,0.5-0.4c0.1-0.2,0.2-0.5,0.2-0.7l0.7-4.4c-0.2,0.4-0.4,0.8-0.6,1.2
		c-0.3,0.6-0.6,1.2-1,1.8c-0.3,0.4-0.7,0.7-1.1,1c-0.4,0.3-0.9,0.4-1.3,0.4c-0.1,0-0.3,0-0.4,0c-0.7-0.2-1.3-0.7-1.6-1.3
		c-0.3-0.6-0.5-1.3-0.5-2c0-0.4-0.1-0.8-0.1-1.2c0-2,0.4-3.9,1.2-5.8c0.7-1.9,1.8-3.1,3.1-3.5c0.3-0.1,0.6-0.1,0.9-0.1
		c0.9,0,1.8,0.3,2.6,0.7v-0.2c0-0.7,0.2-1,0.7-1c0.1,0,0.3,0,0.4,0.1c0.5,0.1,0.9,0.3,1.3,0.5c0.6,0.3,0.9,0.9,0.8,1.5
		c0,0.3,0,0.6-0.1,0.9l-1.5,9.3c1.9-1.3,3.4-3.1,4.4-5.2c0.1-0.3,0.3-0.5,0.5-0.7c0.1-0.1,0.3-0.2,0.5-0.2h0.1c0.1,0,0.1,0,0.2,0.1
		c0.2,0.1,0.3,0.3,0.3,0.5c0,0.3-0.1,0.5-0.2,0.8c-1.2,2.5-3,4.6-5.3,6.1l-0.1,0.1c-0.2,0.1-0.4,0.3-0.5,0.5
		c-0.3,0.9-0.5,1.9-0.6,2.9c-0.2,1.5-0.5,3-0.9,4.5c-0.3,1.2-0.9,2.3-1.7,3.2C158,44.3,157.1,44.6,156.2,44.7z M155.6,42.2
		c0.1,0,0.2-0.1,0.3-0.2c0.4-0.4,0.7-0.8,0.8-1.4c0.7-1.5,1.2-3.2,1.2-4.9c-0.5,0.3-1,0.6-1.3,1.1c-0.4,0.4-0.7,0.9-1,1.4
		c-0.5,0.7-0.7,1.6-0.7,2.4c0,0.3,0,0.6,0.1,1c0,0.1,0.1,0.3,0.2,0.4C155.3,42.2,155.5,42.3,155.6,42.2L155.6,42.2z M156.1,30.9
		c0.6-0.4,1-0.9,1.2-1.5c0.8-1.6,1.5-3.3,2-5.1l0.3-0.8c0.3-0.6,0.5-1.2,0.6-1.9c0-0.4-0.2-0.6-0.7-0.6c-0.3,0-0.5,0.1-0.7,0.2
		c-0.5,0.3-0.9,0.7-1.1,1.2c-0.8,1.5-1.4,3.1-1.6,4.8c-0.1,0.6-0.2,1.3-0.2,1.9C155.9,29.8,155.9,30.4,156.1,30.9L156.1,30.9z"/>
	<path class="st1" d="M168.4,33.2L168.4,33.2c-0.9-0.1-1.6-0.6-2-1.2c-0.4-0.7-0.6-1.4-0.6-2.2c0-0.3,0-0.6,0-1
		c0-0.7,0.1-1.4,0.2-2.1c0.1-0.7,0.3-1.4,0.4-2c0.2-0.7,0.4-1.4,0.7-2.1c0.3-0.7,0.7-1.3,1.1-1.9c0.5-0.6,1.1-1.1,1.9-1.3
		c0.3-0.1,0.7-0.1,1-0.1c1,0.1,1.9,0.3,2.8,0.8c0-0.2-0.1-0.3-0.1-0.5c0-0.2,0.1-0.4,0.3-0.6c0.1-0.1,0.3-0.1,0.4-0.1
		c0.2,0,0.3,0,0.5,0.1c0.3,0.1,0.7,0.2,1,0.3c0.6,0.3,1,0.9,1,1.6c-0.1,1.1-0.4,2.2-0.7,3.2c-0.2,0.9-0.4,1.9-0.6,2.8
		c-0.2,1-0.4,2.1-0.4,3.1c0,0.2,0,0.3,0.1,0.5c0.1,0.2,0.3,0.4,0.5,0.5h0.1c0.2,0,0.5-0.1,0.6-0.3c0.4-0.4,0.7-0.8,1-1.3
		c0.7-1.1,1.2-2.3,1.8-3.5c0.1-0.2,0.1-0.3,0.2-0.5c0.1-0.1,0.2-0.3,0.4-0.3c0.1-0.1,0.2-0.1,0.4-0.1c0.2,0,0.4,0.1,0.5,0.4
		c0,0.1,0,0.2,0,0.2c0,0.1,0,0.2-0.1,0.4c-0.7,1.8-1.6,3.5-2.6,5.2c-0.3,0.6-0.8,1.1-1.3,1.6c-0.5,0.3-1,0.5-1.6,0.5
		c-0.6,0-1.2-0.2-1.8-0.6c-0.4-0.3-0.8-0.7-1-1.2c-0.2-0.5-0.3-1-0.3-1.5c0-0.2,0-0.3,0-0.5c-0.2,0.3-0.3,0.6-0.5,0.9
		c-0.2,0.5-0.5,1-0.9,1.5c-0.3,0.4-0.6,0.7-1,0.9C169.2,33.1,168.8,33.2,168.4,33.2z M169.2,30.9c0.1,0,0.2-0.1,0.3-0.1
		c0.1-0.1,0.1-0.1,0.2-0.2l0.1-0.2c0.2-0.4,0.5-0.7,0.7-1.1c0.1-0.2,0.2-0.5,0.3-0.8l0,0l0,0c0.8-1.9,1.4-3.8,2-5.8L173,22
		c0.1-0.1,0.1-0.1,0.1-0.2c0-0.2,0.2-0.3,0.3-0.4c-0.1-0.1-0.2-0.1-0.3-0.2l-0.1-0.1l0,0h-0.1c-0.1,0-0.3,0-0.4,0l-0.2,0h-0.1
		c-0.1,0-0.1,0-0.2,0.1c-0.1,0-0.2,0.1-0.3,0.2l0,0c-0.2,0.2-0.5,0.3-0.7,0.5c0,0,0,0,0,0.1c-0.1,0.1-0.2,0.3-0.3,0.4
		c-0.1,0.2-0.2,0.5-0.4,0.8l-0.2,0.4c-0.5,1.2-0.8,2.4-1,3.6v0.5c-0.1,0.6-0.1,1.2-0.1,1.8v0.8C169.1,30.5,169.1,30.7,169.2,30.9
		L169.2,30.9z"/>
	<path class="st1" d="M185.4,33.4c-1.5,0-2.8-1.1-2.8-2.7c0-0.1,0-0.1,0-0.2c0-0.8,0.1-1.6,0.3-2.3c0.2-0.8,0.4-1.7,0.6-2.7
		c0.3-1.2,0.6-2.4,0.7-3.7c-0.5-0.1-0.9-0.2-1.4-0.2c-0.3,0-0.6-0.1-0.9-0.1c-0.4,1.5-0.9,2.9-1.5,4.4c-0.1,0.2-0.3,0.3-0.6,0.3
		c-0.2,0-0.4-0.1-0.5-0.2c-0.1-0.1-0.2-0.3-0.2-0.4c0-0.2,0.1-0.4,0.2-0.5l0.1-0.3c0.5-1.2,0.9-2.4,1.2-3.6
		c-0.7-0.2-1.2-0.8-1.4-1.5c0-0.2-0.1-0.5-0.1-0.7c0-0.7,0.1-1.3,0.4-1.9c0.3-0.6,0.8-1,1.4-1.1c0.1-0.1,0.2-0.1,0.3-0.1h0.7
		c0.2,0,0.5,0.1,0.7,0.2c0.2,0.1,0.4,0.3,0.4,0.6V17c0,0.5-0.1,0.9-0.3,1.4l-0.3,1.1h1.4c0.4,0,0.8,0,1.2,0.1c0.8,0,1.5,0.4,2,1
		c0.3,0.4,0.4,0.8,0.4,1.3c-0.1,1.3-0.4,2.7-0.8,3.9c-0.3,1.1-0.5,2.1-0.7,3.2l-0.1,0.4c-0.1,0.3-0.1,0.7-0.1,1
		c0,0.5,0.2,0.7,0.6,0.7c0.2,0,0.5-0.1,0.7-0.1c1-0.4,1.8-1.1,2.2-2.1c0.4-0.7,0.7-1.5,0.8-2.3c0-0.3-0.1-0.7-0.3-0.9
		c-0.2-0.1-0.3-0.3-0.3-0.6c0-0.3,0.2-0.6,0.5-0.7c0.3-0.2,0.7-0.3,1-0.3c0.5,0,1,0.2,1.3,0.7c0.3,0.4,0.4,0.9,0.4,1.4
		c0,0.7-0.2,1.5-0.6,2.1c-0.7,1.3-1.7,2.5-2.8,3.4C188.4,32.8,186.9,33.3,185.4,33.4z"/>
</g>
</svg>
